<svg width="16" height="16" viewBox="0 0 16 16" fill="none" xmlns="http://www.w3.org/2000/svg">
<g clip-path="url(#clip0_8973_224078)">
<path d="M14.5689 2.09766L13.2356 0.764313C13.1054 0.634094 12.8944 0.634094 12.7643 0.764313C12.634 0.894531 12.634 1.10547 12.7643 1.23566L13.8619 2.33331L12.7643 3.43097C12.7018 3.49347 12.6666 3.57809 12.6666 3.66666V4.66666C12.6666 5.40203 13.2646 6 13.9999 6V11.6667C13.9999 11.8506 13.8505 12 13.6666 12C13.4827 12 13.3333 11.8506 13.3333 11.6667V11C13.3333 10.4486 12.8847 10 12.3333 10H11.9999V1.33334C11.9999 0.597969 11.402 0 10.6666 0H3.99994C3.2646 0 2.6666 0.597969 2.6666 1.33334V13.3333C1.93125 13.3333 1.33325 13.9313 1.33325 14.6667V15.6667C1.33325 15.8509 1.48235 16 1.6666 16H12.9999C13.1842 16 13.3333 15.8509 13.3333 15.6667V14.6667C13.3333 13.9313 12.7353 13.3333 11.9999 13.3333V10.6667H12.3333C12.5172 10.6667 12.6666 10.8161 12.6666 11V11.6667C12.6666 12.2181 13.1152 12.6667 13.6666 12.6667C14.2181 12.6667 14.6666 12.2181 14.6666 11.6667V2.33334C14.6666 2.24478 14.6314 2.16016 14.5689 2.09766ZM3.33328 1.33334C3.33328 0.965844 3.63244 0.666687 3.99994 0.666687H10.6666C11.0341 0.666687 11.3333 0.965844 11.3333 1.33334V13.3333H3.33325V1.33334H3.33328ZM12.6666 14.6667V15.3333H1.99994V14.6667C1.99994 14.2992 2.2991 14 2.6666 14H11.9999C12.3674 14 12.6666 14.2992 12.6666 14.6667ZM13.9999 5.33334C13.6324 5.33334 13.3333 5.03419 13.3333 4.66669V3.80469L13.9999 3.13803V5.33334Z" fill="white"/>
<path d="M10.3333 1.3335H4.33334C4.14909 1.3335 4 1.48259 4 1.66684V5.67303C4 5.85728 4.14909 6.00637 4.33334 6.00637H10.3333C10.5176 6.00637 10.6667 5.85728 10.6667 5.67303V1.66681C10.6667 1.48259 10.5176 1.3335 10.3333 1.3335ZM10 5.33968H4.66666V2.00015H10V5.33968Z" fill="white"/>
</g>
<defs>
<clipPath id="clip0_8973_224078">
<rect width="16" height="16" fill="white"/>
</clipPath>
</defs>
</svg>
