<svg width="14" height="16" viewBox="0 0 14 16" fill="none" xmlns="http://www.w3.org/2000/svg">
<path d="M13.569 2.09766L12.2357 0.764313C12.1054 0.634094 11.8945 0.634094 11.7643 0.764313C11.6341 0.894531 11.6341 1.10547 11.7643 1.23566L12.862 2.33331L11.7643 3.43097C11.7018 3.49347 11.6667 3.57809 11.6667 3.66666V4.66666C11.6667 5.40203 12.2647 6 13 6V11.6667C13 11.8506 12.8506 12 12.6667 12C12.4827 12 12.3333 11.8506 12.3333 11.6667V11C12.3333 10.4486 11.8848 10 11.3333 10H11V1.33334C11 0.597969 10.402 0 9.66666 0H3C2.26466 0 1.66666 0.597969 1.66666 1.33334V13.3333C0.931313 13.3333 0.333313 13.9313 0.333313 14.6667V15.6667C0.333313 15.8509 0.482407 16 0.666657 16H12C12.1842 16 12.3333 15.8509 12.3333 15.6667V14.6667C12.3333 13.9313 11.7354 13.3333 11 13.3333V10.6667H11.3333C11.5173 10.6667 11.6667 10.8161 11.6667 11V11.6667C11.6667 12.2181 12.1153 12.6667 12.6667 12.6667C13.2181 12.6667 13.6667 12.2181 13.6667 11.6667V2.33334C13.6667 2.24478 13.6315 2.16016 13.569 2.09766ZM2.33334 1.33334C2.33334 0.965844 2.6325 0.666687 3 0.666687H9.66666C10.0342 0.666687 10.3333 0.965844 10.3333 1.33334V13.3333H2.33331V1.33334H2.33334ZM11.6667 14.6667V15.3333H1V14.6667C1 14.2992 1.29916 14 1.66666 14H11C11.3675 14 11.6667 14.2992 11.6667 14.6667ZM13 5.33334C12.6325 5.33334 12.3333 5.03419 12.3333 4.66669V3.80469L13 3.13803V5.33334Z" fill="white"/>
<path d="M9.33334 1.33398H3.33334C3.14909 1.33398 3 1.48308 3 1.66733V5.67352C3 5.85777 3.14909 6.00686 3.33334 6.00686H9.33334C9.51759 6.00686 9.66669 5.85777 9.66669 5.67352V1.6673C9.66666 1.48308 9.51759 1.33398 9.33334 1.33398ZM9 5.34017H3.66666V2.00064H9V5.34017Z" fill="white"/>
</svg>
