<svg width="70" height="70" viewBox="0 0 70 70" fill="none" xmlns="http://www.w3.org/2000/svg">
<g filter="url(#filter0_d_4061_188560)">
<path d="M48.7072 27.2929L41.7071 20.2928C41.3165 19.9023 40.6833 19.9024 40.2929 20.293C40.1054 20.4805 40.0001 20.7347 40.0001 20.9998V23.9999H33C32.4476 23.9999 31.9999 24.4476 31.9999 24.9999C31.9999 25.5522 32.4476 26 33 26H41.0001C41.5524 26 42.0001 25.5522 42.0001 24.9999V23.4138L46.5862 27.9999L42.0001 32.586V30.9999C42.0001 30.4476 41.5524 29.9999 41.0001 29.9999H29.9999V26.9999C29.9998 26.4476 29.552 26 28.9997 26.0001C28.7346 26.0001 28.4804 26.1054 28.2929 26.2929L21.2928 33.293C20.9024 33.6835 20.9024 34.3165 21.2928 34.707L28.2929 41.7071C28.4804 41.8947 28.7347 42.0001 28.9999 42.0001C29.1314 42.0006 29.2616 41.9747 29.3829 41.9241C29.7565 41.7692 30 41.4046 29.9999 41.0001V38.0001H37C37.5523 38.0001 38.0001 37.5523 38.0001 37C38.0001 36.4477 37.5523 36 37 36H28.9999C28.4476 36 27.9999 36.4477 27.9999 37V38.5861L23.4138 34L27.9999 29.4139V30.9999C27.9999 31.5523 28.4476 32 28.9999 32H40.0001V35C40.0002 35.5523 40.448 35.9999 41.0003 35.9998C41.2654 35.9998 41.5196 35.8945 41.7071 35.707L48.7072 28.7069C49.0976 28.3164 49.0976 27.6834 48.7072 27.2929Z" fill="white"/>
</g>
<defs>
<filter id="filter0_d_4061_188560" x="0" y="0" width="70" height="70" filterUnits="userSpaceOnUse" color-interpolation-filters="sRGB">
<feFlood flood-opacity="0" result="BackgroundImageFix"/>
<feColorMatrix in="SourceAlpha" type="matrix" values="0 0 0 0 0 0 0 0 0 0 0 0 0 0 0 0 0 0 127 0" result="hardAlpha"/>
<feOffset dy="4"/>
<feGaussianBlur stdDeviation="7.5"/>
<feColorMatrix type="matrix" values="0 0 0 0 0 0 0 0 0 0 0 0 0 0 0 0 0 0 0.06 0"/>
<feBlend mode="normal" in2="BackgroundImageFix" result="effect1_dropShadow_4061_188560"/>
<feBlend mode="normal" in="SourceGraphic" in2="effect1_dropShadow_4061_188560" result="shape"/>
</filter>
</defs>
</svg>
