<svg width="32" height="32" viewBox="0 0 32 32" fill="none" xmlns="http://www.w3.org/2000/svg">
<path d="M12.8498 18.5016L6.74152 24.1401V21.8232C6.74152 21.3284 6.30695 20.9272 5.77087 20.9272C5.23479 20.9272 4.80017 21.3284 4.80017 21.8232V26.3031C4.80017 26.3327 4.80185 26.3622 4.80499 26.3916C4.8064 26.4049 4.80909 26.4178 4.81113 26.4308C4.81359 26.4467 4.81559 26.4625 4.81896 26.4783C4.82219 26.4933 4.82665 26.5079 4.8307 26.5226C4.83438 26.5362 4.83762 26.5499 4.84203 26.5633C4.84676 26.5778 4.85268 26.5918 4.85818 26.6059C4.86341 26.6193 4.86819 26.6328 4.87411 26.6461C4.88002 26.6593 4.88703 26.672 4.89358 26.6848C4.90054 26.6985 4.90709 26.7122 4.91483 26.7255C4.92202 26.7379 4.93016 26.7497 4.93794 26.7617C4.94641 26.7747 4.95441 26.788 4.96365 26.8007C4.97325 26.814 4.98399 26.8265 4.99432 26.8392C5.00296 26.8499 5.01097 26.8608 5.02016 26.8712C5.04032 26.8938 5.06152 26.9156 5.08395 26.9363C5.08414 26.9365 5.08427 26.9366 5.08445 26.9368C5.08463 26.937 5.08482 26.9371 5.08495 26.9372C5.10743 26.9579 5.131 26.9775 5.15557 26.9961C5.16681 27.0047 5.17864 27.0121 5.1902 27.02C5.20398 27.0296 5.2175 27.0395 5.23187 27.0483C5.24571 27.0568 5.26004 27.0642 5.27423 27.072C5.28725 27.0792 5.29994 27.0867 5.31332 27.0934C5.32779 27.1005 5.34262 27.1066 5.35741 27.113C5.37138 27.1191 5.38512 27.1255 5.3994 27.131C5.41374 27.1365 5.42839 27.1409 5.44295 27.1457C5.45828 27.1508 5.47339 27.1562 5.48904 27.1606C5.5036 27.1647 5.51843 27.1676 5.53313 27.171C5.5491 27.1748 5.56489 27.1789 5.58113 27.1819C5.59819 27.185 5.61539 27.1869 5.63255 27.1891C5.6467 27.191 5.66062 27.1935 5.675 27.1948C5.70689 27.1977 5.73884 27.1992 5.77082 27.1992H10.6242C11.1603 27.1992 11.5948 26.7981 11.5948 26.3032C11.5948 25.8084 11.1603 25.4072 10.6242 25.4072H8.11425L14.2225 19.7688C14.6016 19.4189 14.6016 18.8515 14.2225 18.5016C13.8435 18.1517 13.2289 18.1517 12.8498 18.5016Z" fill="white"/>
<path d="M19.7698 13.4973L25.4082 7.8589V10.1758C25.4082 10.6706 25.8093 11.0717 26.3042 11.0717C26.7991 11.0717 27.2002 10.6706 27.2002 10.1758V5.69572C27.2002 5.66619 27.1986 5.63671 27.1957 5.60731C27.1944 5.59408 27.192 5.58122 27.1901 5.56812C27.1878 5.55229 27.186 5.53637 27.1828 5.52066C27.1798 5.50562 27.1757 5.49109 27.172 5.47635C27.1686 5.46274 27.1656 5.44909 27.1615 5.43565C27.1571 5.4212 27.1517 5.40722 27.1466 5.3931C27.1418 5.37966 27.1374 5.36614 27.1319 5.35291C27.1265 5.33968 27.12 5.32704 27.1139 5.31414C27.1075 5.30054 27.1015 5.2868 27.0943 5.27345C27.0877 5.2611 27.0802 5.24938 27.073 5.23737C27.0652 5.22431 27.0578 5.21103 27.0492 5.19827C27.0404 5.18499 27.0305 5.17256 27.021 5.15979C27.013 5.14913 27.0056 5.13821 26.9971 5.12783C26.9785 5.10515 26.9589 5.08335 26.9382 5.06265C26.938 5.06248 26.9379 5.06231 26.9377 5.06219C26.9376 5.06202 26.9374 5.06189 26.9372 5.06172C26.9165 5.04106 26.8947 5.02145 26.8721 5.00284C26.8617 4.99431 26.8508 4.98692 26.8402 4.97898C26.8274 4.96945 26.8149 4.95954 26.8017 4.95068C26.7889 4.94215 26.7757 4.93476 26.7626 4.92694C26.7506 4.91976 26.7389 4.91224 26.7265 4.90561C26.7131 4.89847 26.6994 4.89242 26.6858 4.88599C26.6729 4.8799 26.6602 4.87348 26.647 4.86802C26.6338 4.86256 26.6203 4.85815 26.6069 4.85332C26.5927 4.84824 26.5787 4.84282 26.5642 4.83841C26.5508 4.83433 26.5371 4.83135 26.5236 4.82795C26.5088 4.82421 26.4943 4.8201 26.4792 4.81711C26.4635 4.81401 26.4476 4.81216 26.4318 4.80989C26.4187 4.80804 26.4058 4.80552 26.3926 4.80422C26.3632 4.80132 26.3337 4.79977 26.3042 4.79977H26.3042H21.8242C21.3293 4.79977 20.9282 5.20091 20.9282 5.69576C20.9282 6.19061 21.3293 6.59175 21.8242 6.59175H24.141L18.5026 12.2302C18.1527 12.5801 18.1527 13.1474 18.5026 13.4973C18.8525 13.8472 19.4199 13.8472 19.7698 13.4973Z" fill="white"/>
</svg>
