<svg width="164" height="43" viewBox="0 0 164 43" fill="none" xmlns="http://www.w3.org/2000/svg">
<path d="M10.3066 14.8513C10.3066 19.9245 14.1758 24.051 18.9327 24.051C23.6896 24.051 27.5588 19.9245 27.5588 14.8513C27.5588 9.82668 23.8034 5.77299 19.1148 5.65162H18.7506C14.0848 5.77299 10.3066 9.85095 10.3066 14.8513Z" fill="url(#paint0_linear_3105_25728)"/>
<path d="M31.1554 17.7577L37.5738 5.88796C38.4615 4.26164 37.3462 2.22266 35.5937 2.22266H22.8707C22.6886 2.22266 22.5521 2.3683 22.5521 2.56249C22.5521 2.65958 22.5976 2.7324 22.6431 2.80522C22.6659 2.8295 22.7114 2.85377 22.7569 2.87804C27.5138 4.55292 30.8368 9.28626 30.8368 14.8935C30.8368 14.8935 30.814 15.8401 30.5864 17.5635C30.5637 17.7577 30.723 17.9034 30.9051 17.9034C30.9961 17.8791 31.0872 17.8306 31.1554 17.7577Z" fill="url(#paint1_linear_3105_25728)"/>
<path d="M6.98368 17.8791C7.16576 17.8791 7.34784 17.7335 7.30232 17.5393C7.07472 16.3499 7.05196 14.8692 7.05196 14.8692C7.05196 9.26199 10.3977 4.55292 15.1318 2.87804C15.1774 2.85377 15.2001 2.8295 15.2456 2.80522C15.3139 2.7324 15.3367 2.65958 15.3367 2.56249C15.3367 2.3683 15.2001 2.22266 15.018 2.22266H2.29507C0.519779 2.22266 -0.572711 4.26164 0.314937 5.88796L6.73331 17.7577C6.77884 17.8306 6.89264 17.8791 6.98368 17.8791Z" fill="url(#paint2_linear_3105_25728)"/>
<path d="M27.3091 24.4095C27.218 24.2396 26.9904 24.1425 26.8766 24.2881C26.1938 25.0163 24.851 25.8416 24.851 25.8416C20.2762 28.6331 14.7682 27.8806 11.0583 24.3367C11.0355 24.3124 10.99 24.2881 10.9445 24.2638C10.8534 24.2396 10.7851 24.2396 10.6941 24.2881C10.5348 24.3852 10.4893 24.5794 10.5803 24.7493L16.9076 36.5463C17.7953 38.1726 19.9803 38.1969 20.8907 36.5705L27.3546 24.725C27.3546 24.628 27.3546 24.5066 27.3091 24.4095Z" fill="url(#paint3_linear_3105_25728)"/>
<path d="M55.7222 26.6649L63.1124 11.3254H59.1987L53.8419 22.3439L48.4851 11.3254H44.5714L51.9834 26.6649H55.7222Z" fill="url(#paint4_linear_3105_25728)"/>
<path d="M65.5168 11.3254V14.3717H79.182V11.3254H65.5168ZM65.5168 17.3748V20.3995H79.182V17.3748H65.5168ZM65.5824 23.4026V26.4489H79.182V23.4026H65.5824Z" fill="url(#paint5_linear_3105_25728)"/>
<path d="M92.2237 26.4489C95.3066 26.4489 96.9027 24.31 96.9027 22.1063C96.9027 20.6588 96.2249 19.1896 94.8037 18.2822C95.3503 17.526 95.6346 16.6186 95.6346 15.7112C95.6346 13.5075 94.0385 11.3254 90.8463 11.3254H82.3848V14.0693H90.081C91.3273 14.0693 91.9614 14.9118 91.9614 15.7328C91.9614 16.5754 91.3273 17.3964 90.081 17.3964H82.3848V20.097H91.4585C92.7048 20.097 93.3388 20.9396 93.3388 21.7822C93.3388 22.6464 92.7048 23.489 91.4585 23.489H82.3848V26.4489H92.2237Z" fill="url(#paint6_linear_3105_25728)"/>
<path d="M99.241 26.4489H103.155L108.511 15.4304L113.868 26.4489H117.782L110.392 11.1094H106.653L99.241 26.4489Z" fill="url(#paint7_linear_3105_25728)"/>
<path d="M119.815 26.4489H123.51V16.0353L132.43 26.4921L136.606 26.4489L123.51 11.3254H119.815V26.4489ZM132.911 18.3254L136.606 22.4088V11.3254H132.911V18.3254Z" fill="url(#paint8_linear_3105_25728)"/>
<path d="M151.671 26.4489H156L149.769 18.0878L155.016 11.3254H150.709L145.593 17.9797L151.671 26.4489ZM139.864 26.4489H143.559V11.3254H139.864V26.4489Z" fill="url(#paint9_linear_3105_25728)"/>
<path d="M137.203 42.4453V34.0453H140.971C141.939 34.0453 142.683 34.2413 143.203 34.6333C143.723 35.0173 143.983 35.5453 143.983 36.2173C143.983 36.6733 143.879 37.0573 143.671 37.3693C143.471 37.6813 143.199 37.9213 142.855 38.0893C142.511 38.2573 142.139 38.3413 141.739 38.3413L141.955 37.9813C142.435 37.9813 142.859 38.0653 143.227 38.2333C143.595 38.4013 143.887 38.6493 144.103 38.9773C144.319 39.2973 144.427 39.6973 144.427 40.1773C144.427 40.8973 144.155 41.4573 143.611 41.8573C143.075 42.2493 142.275 42.4453 141.211 42.4453H137.203ZM138.403 41.4733H141.163C141.827 41.4733 142.335 41.3613 142.687 41.1373C143.039 40.9133 143.215 40.5613 143.215 40.0813C143.215 39.5933 143.039 39.2373 142.687 39.0133C142.335 38.7893 141.827 38.6773 141.163 38.6773H138.295V37.7053H140.863C141.471 37.7053 141.943 37.5933 142.279 37.3693C142.615 37.1453 142.783 36.8093 142.783 36.3613C142.783 35.9133 142.615 35.5773 142.279 35.3533C141.943 35.1293 141.471 35.0173 140.863 35.0173H138.403V41.4733ZM148.949 42.5173C148.269 42.5173 147.669 42.3773 147.149 42.0973C146.637 41.8173 146.237 41.4333 145.949 40.9453C145.669 40.4573 145.529 39.8973 145.529 39.2653C145.529 38.6333 145.665 38.0733 145.937 37.5853C146.217 37.0973 146.597 36.7173 147.077 36.4453C147.565 36.1653 148.113 36.0253 148.721 36.0253C149.337 36.0253 149.881 36.1613 150.353 36.4333C150.825 36.7053 151.193 37.0893 151.457 37.5853C151.729 38.0733 151.865 38.6453 151.865 39.3013C151.865 39.3493 151.861 39.4053 151.853 39.4693C151.853 39.5333 151.849 39.5933 151.841 39.6493H146.429V38.8213H151.241L150.773 39.1093C150.781 38.7013 150.697 38.3373 150.521 38.0173C150.345 37.6973 150.101 37.4493 149.789 37.2733C149.485 37.0893 149.129 36.9973 148.721 36.9973C148.321 36.9973 147.965 37.0893 147.653 37.2733C147.341 37.4493 147.097 37.7013 146.921 38.0293C146.745 38.3493 146.657 38.7173 146.657 39.1333V39.3253C146.657 39.7493 146.753 40.1293 146.945 40.4653C147.145 40.7933 147.421 41.0493 147.773 41.2333C148.125 41.4173 148.529 41.5093 148.985 41.5093C149.361 41.5093 149.701 41.4453 150.005 41.3173C150.317 41.1893 150.589 40.9973 150.821 40.7413L151.457 41.4853C151.169 41.8213 150.809 42.0773 150.377 42.2533C149.953 42.4293 149.477 42.5173 148.949 42.5173ZM155.649 42.5173C155.009 42.5173 154.513 42.3453 154.161 42.0013C153.809 41.6573 153.633 41.1653 153.633 40.5253V34.6933H154.785V40.4773C154.785 40.8213 154.869 41.0853 155.037 41.2693C155.213 41.4533 155.461 41.5453 155.781 41.5453C156.141 41.5453 156.441 41.4453 156.681 41.2453L157.041 42.0733C156.865 42.2253 156.653 42.3373 156.405 42.4093C156.165 42.4813 155.913 42.5173 155.649 42.5173ZM152.553 37.0333V36.0853H156.609V37.0333H152.553ZM162.381 42.4453V41.1013L162.321 40.8493V38.5573C162.321 38.0693 162.177 37.6933 161.889 37.4293C161.609 37.1573 161.185 37.0213 160.617 37.0213C160.241 37.0213 159.873 37.0853 159.513 37.2133C159.153 37.3333 158.849 37.4973 158.601 37.7053L158.121 36.8413C158.449 36.5773 158.841 36.3773 159.297 36.2413C159.761 36.0973 160.245 36.0253 160.749 36.0253C161.621 36.0253 162.293 36.2373 162.765 36.6613C163.237 37.0853 163.473 37.7333 163.473 38.6053V42.4453H162.381ZM160.293 42.5173C159.821 42.5173 159.405 42.4373 159.045 42.2773C158.693 42.1173 158.421 41.8973 158.229 41.6173C158.037 41.3293 157.941 41.0053 157.941 40.6453C157.941 40.3013 158.021 39.9893 158.181 39.7093C158.349 39.4293 158.617 39.2053 158.985 39.0373C159.361 38.8693 159.865 38.7853 160.497 38.7853H162.513V39.6133H160.545C159.969 39.6133 159.581 39.7093 159.381 39.9013C159.181 40.0933 159.081 40.3253 159.081 40.5973C159.081 40.9093 159.205 41.1613 159.453 41.3533C159.701 41.5373 160.045 41.6293 160.485 41.6293C160.917 41.6293 161.293 41.5333 161.613 41.3413C161.941 41.1493 162.177 40.8693 162.321 40.5013L162.549 41.2933C162.397 41.6693 162.129 41.9693 161.745 42.1933C161.361 42.4093 160.877 42.5173 160.293 42.5173Z" fill="white"/>
<defs>
<linearGradient id="paint0_linear_3105_25728" x1="0" y1="2.22266" x2="35.6841" y2="9.35321" gradientUnits="userSpaceOnUse">
<stop offset="0.244792" stop-color="#00FFFE"/>
<stop offset="1" stop-color="#00A1FA"/>
</linearGradient>
<linearGradient id="paint1_linear_3105_25728" x1="0" y1="2.22266" x2="35.6841" y2="9.35321" gradientUnits="userSpaceOnUse">
<stop offset="0.244792" stop-color="#00FFFE"/>
<stop offset="1" stop-color="#00A1FA"/>
</linearGradient>
<linearGradient id="paint2_linear_3105_25728" x1="0" y1="2.22266" x2="35.6841" y2="9.35321" gradientUnits="userSpaceOnUse">
<stop offset="0.244792" stop-color="#00FFFE"/>
<stop offset="1" stop-color="#00A1FA"/>
</linearGradient>
<linearGradient id="paint3_linear_3105_25728" x1="0" y1="2.22266" x2="35.6841" y2="9.35321" gradientUnits="userSpaceOnUse">
<stop offset="0.244792" stop-color="#00FFFE"/>
<stop offset="1" stop-color="#00A1FA"/>
</linearGradient>
<linearGradient id="paint4_linear_3105_25728" x1="44.5714" y1="11.1094" x2="83.4874" y2="63.3874" gradientUnits="userSpaceOnUse">
<stop offset="0.244792" stop-color="#00FFFE"/>
<stop offset="1" stop-color="#00A1FA"/>
</linearGradient>
<linearGradient id="paint5_linear_3105_25728" x1="44.5714" y1="11.1094" x2="83.4874" y2="63.3874" gradientUnits="userSpaceOnUse">
<stop offset="0.244792" stop-color="#00FFFE"/>
<stop offset="1" stop-color="#00A1FA"/>
</linearGradient>
<linearGradient id="paint6_linear_3105_25728" x1="44.5714" y1="11.1094" x2="83.4874" y2="63.3874" gradientUnits="userSpaceOnUse">
<stop offset="0.244792" stop-color="#00FFFE"/>
<stop offset="1" stop-color="#00A1FA"/>
</linearGradient>
<linearGradient id="paint7_linear_3105_25728" x1="44.5714" y1="11.1094" x2="83.4874" y2="63.3874" gradientUnits="userSpaceOnUse">
<stop offset="0.244792" stop-color="#00FFFE"/>
<stop offset="1" stop-color="#00A1FA"/>
</linearGradient>
<linearGradient id="paint8_linear_3105_25728" x1="44.5714" y1="11.1094" x2="83.4874" y2="63.3874" gradientUnits="userSpaceOnUse">
<stop offset="0.244792" stop-color="#00FFFE"/>
<stop offset="1" stop-color="#00A1FA"/>
</linearGradient>
<linearGradient id="paint9_linear_3105_25728" x1="44.5714" y1="11.1094" x2="83.4874" y2="63.3874" gradientUnits="userSpaceOnUse">
<stop offset="0.244792" stop-color="#00FFFE"/>
<stop offset="1" stop-color="#00A1FA"/>
</linearGradient>
</defs>
</svg>
