<svg width="24" height="24" viewBox="0 0 24 24" fill="none" xmlns="http://www.w3.org/2000/svg">
<path d="M22.8449 3.92878L21.3044 5.10478C19.204 2.48345 15.9373 0.800781 12.269 0.800781C5.93498 0.800781 0.808192 5.80078 0.799998 11.9874C0.791803 18.1795 5.92952 23.2008 12.269 23.2008C17.221 23.2008 21.441 20.1341 23.047 15.8381C23.088 15.7261 23.0279 15.6008 22.9132 15.5634L21.3645 15.0434C21.3105 15.0254 21.2514 15.0287 21.1999 15.0526C21.1483 15.0765 21.1084 15.1192 21.0886 15.1715C21.0395 15.3048 20.9848 15.4381 20.9275 15.5688C20.455 16.6621 19.7776 17.6434 18.9145 18.4861C18.0583 19.3236 17.0446 19.9918 15.9291 20.4541C14.7737 20.9314 13.5419 21.1741 12.2745 21.1741C11.0044 21.1741 9.77529 20.9314 8.61992 20.4541C7.50327 19.9937 6.48923 19.3253 5.63453 18.4861C4.77606 17.6504 4.09235 16.6595 3.62151 15.5688C3.13259 14.4381 2.88404 13.2381 2.88404 11.9981C2.88404 10.7581 3.13259 9.55812 3.62151 8.42745C4.09403 7.33412 4.77141 6.35278 5.63453 5.51012C6.49764 4.66745 7.50279 4.00612 8.61992 3.54211C9.77529 3.06478 11.0071 2.82211 12.2745 2.82211C13.5446 2.82211 14.7737 3.06478 15.9291 3.54211C17.0457 4.0025 18.0598 4.67096 18.9145 5.51012C19.1849 5.77412 19.4389 6.05412 19.6738 6.34745L18.0295 7.60078C17.997 7.62535 17.9722 7.65839 17.958 7.69609C17.9439 7.7338 17.9409 7.77464 17.9495 7.81392C17.958 7.85319 17.9778 7.88932 18.0064 7.91813C18.0351 7.94694 18.0715 7.96727 18.1114 7.97678L22.9077 9.12345C23.0443 9.15545 23.1781 9.05412 23.1781 8.91812L23.2 4.09412C23.1973 3.91811 22.9869 3.81945 22.8449 3.92878Z" fill="white"/>
</svg>
