<svg width="17" height="16" viewBox="0 0 17 16" fill="none" xmlns="http://www.w3.org/2000/svg">
<path d="M16.5 8C16.5 12.4183 12.9183 16 8.5 16C4.08172 16 0.5 12.4183 0.5 8C0.5 3.58172 4.08172 0 8.5 0C12.9183 0 16.5 3.58172 16.5 8ZM12.5303 4.96967C12.2374 4.67678 11.7626 4.67678 11.4697 4.96967C11.4626 4.97674 11.4559 4.98424 11.4498 4.9921L7.9774 9.41674L5.88388 7.32322C5.59098 7.03033 5.11611 7.03033 4.82322 7.32322C4.53032 7.61612 4.53032 8.09099 4.82322 8.38388L7.46966 11.0303C7.76256 11.3232 8.23743 11.3232 8.53032 11.0303C8.53685 11.0238 8.543 11.0169 8.54876 11.0097L12.541 6.01947C12.8232 5.72582 12.8196 5.25897 12.5303 4.96967Z" fill="#4DD077"/>
</svg>
