<svg width="239" height="210" viewBox="0 0 239 210" fill="none" xmlns="http://www.w3.org/2000/svg">
<path d="M62.937 112.163V129.216C62.937 132.484 60.266 135.152 56.995 135.152H44.7684C41.4975 135.152 38.8265 132.484 38.8265 129.216V112.163C38.8265 108.895 41.4975 106.227 44.7684 106.227H56.995C60.2517 106.227 62.937 108.895 62.937 112.163Z" fill="#E799AC"/>
<path d="M62.937 112.163V121.667C62.937 124.935 60.266 127.603 56.995 127.603H44.7684C41.4975 127.603 38.8265 124.935 38.8265 121.667V112.163C38.8265 108.895 41.4975 106.227 44.7684 106.227H56.995C60.2517 106.227 62.937 108.895 62.937 112.163Z" fill="url(#paint0_linear_2017_87881)"/>
<path d="M198.43 120.682C198.43 129.401 196.644 137.735 193.416 145.327C183.746 168.088 161.107 184.142 134.911 184.142H116.771C93.5893 184.142 73.2068 171.57 62.1085 152.904C56.4809 143.443 53.2528 132.427 53.2528 120.682C53.2528 111.963 55.0382 103.629 58.2663 96.0376C67.9362 73.2766 90.5755 57.2227 116.771 57.2227H134.926C158.75 57.2227 179.618 70.5082 190.488 90.0298C195.545 99.1342 198.43 109.594 198.43 120.682Z" fill="#E799AC"/>
<path d="M190.474 90.0298C191.988 97.3504 190.802 107.81 188.874 113.347C176.062 150.179 145.924 156.829 115.129 159.626C93.2322 161.623 62.1085 152.904 62.1085 152.904C56.4809 143.443 53.2528 132.427 53.2528 120.682C53.2528 111.963 55.0382 103.629 58.2663 96.0376C67.9362 73.2766 90.5755 57.2227 116.771 57.2227H134.926C158.75 57.2369 179.618 70.5225 190.474 90.0298Z" fill="url(#paint1_linear_2017_87881)"/>
<path d="M109.273 73.1361H84.2907C81.7769 73.1361 79.7343 71.6092 79.7343 69.7255V35.6483C79.7343 35.0633 79.92 34.5353 80.2342 34.0786C81.4626 32.3091 84.6621 31.5813 87.0617 32.9227C96.5459 38.2883 112.086 49.9613 113.829 69.4829C114 71.4665 111.915 73.1361 109.273 73.1361Z" fill="url(#paint2_linear_2017_87881)"/>
<path d="M85.3049 73.1356H84.2907C81.7769 73.1356 79.7343 71.6087 79.7343 69.7251V35.6478C79.7343 35.0628 79.92 34.5348 80.2342 34.0781C80.3342 34.1637 80.4485 34.2636 80.5485 34.3778C85.9762 40.4141 93.7892 52.2726 91.5896 68.8831C91.2611 71.2948 88.5615 73.1356 85.3049 73.1356Z" fill="#D79EAD"/>
<path d="M72.1498 95.9081C72.1498 93.8532 73.8209 92.1836 75.8778 92.1836C77.9346 92.1836 79.6058 93.8532 79.6058 95.9081C79.6058 97.963 77.9346 99.6326 75.8778 99.6326C73.8067 99.6326 72.1498 97.963 72.1498 95.9081Z" fill="#D79EAD"/>
<path d="M145.667 157.2L139.739 195.629C138.953 198.612 141.196 201.523 144.281 201.523H159.85C163.193 201.523 166.249 199.653 167.777 196.699L191.974 148.48L145.667 157.2Z" fill="#E799AC"/>
<path d="M110.472 159.899L114.972 195.631C115.757 198.614 113.515 201.525 110.429 201.525H94.8605C91.5181 201.525 88.4615 199.655 86.9332 196.701L62.1085 152.906L110.472 159.899Z" fill="#E799AC"/>
<path d="M213.57 137.933C213.213 137.933 212.856 137.89 212.499 137.791C209.742 137.063 208.157 133.766 208.371 129.2C208.585 124.719 210.456 119.981 213.527 116.214C214.884 114.544 216.441 113.089 218.198 111.847C217.37 110.492 216.256 109.193 214.77 108.066C212.228 106.153 209.599 105.611 206.728 106.382C199.03 108.465 192.502 119.468 191.974 120.695C191.731 121.351 191.002 121.708 190.345 121.48C189.66 121.251 189.288 120.509 189.517 119.839C189.745 119.154 191.659 115.872 194.316 112.618C198.944 106.953 202.986 104.812 205.557 104.013C209.371 102.829 212.999 103.485 216.327 105.982C217.984 107.224 219.341 108.722 220.412 110.463C223.054 108.993 226.025 107.966 229.268 107.438C229.982 107.324 230.653 107.809 230.768 108.508C230.882 109.222 230.396 109.892 229.696 110.006C226.725 110.492 224.011 111.433 221.598 112.789C222.34 114.573 222.797 116.528 222.983 118.64C223.354 122.992 222.483 127.744 220.583 131.683C218.627 135.679 216.084 137.933 213.57 137.933ZM219.355 114.216C217.941 115.258 216.67 116.471 215.556 117.841C212.842 121.194 211.171 125.375 210.985 129.314C210.842 132.439 211.728 134.894 213.17 135.265C214.627 135.65 216.713 133.695 218.241 130.527C219.926 127.059 220.726 122.693 220.398 118.84C220.255 117.47 219.969 115.857 219.355 114.216ZM191.988 120.666C191.988 120.681 191.988 120.681 191.974 120.695C191.988 120.681 191.988 120.666 191.988 120.666Z" fill="#E799AC"/>
<path d="M108.216 198.197V200.666C108.216 200.865 108.144 201.051 108.016 201.194C107.887 201.351 107.701 201.479 107.487 201.55C107.416 201.579 107.344 201.593 107.273 201.593C107.201 201.607 107.144 201.608 107.073 201.608H60.0803C59.509 201.608 59.0376 201.251 58.9519 200.794C58.9519 200.766 58.9376 200.737 58.9376 200.694C58.9376 200.68 58.9376 200.666 58.9376 200.651V198.183C58.9376 198.168 58.9376 198.154 58.9376 198.14C58.9376 198.111 58.9376 198.083 58.9519 198.04C59.0376 197.583 59.509 197.227 60.0803 197.227H107.073C107.144 197.227 107.201 197.227 107.273 197.241C107.344 197.255 107.416 197.269 107.487 197.284C107.701 197.355 107.887 197.483 108.016 197.64C108.144 197.812 108.216 197.997 108.216 198.197Z" fill="#EEAB46"/>
<path d="M85.1478 201.626H59.966C59.4947 201.626 59.109 201.326 58.9948 200.927C58.9805 200.898 58.9805 200.855 58.9662 200.827C58.9662 200.798 58.9519 200.77 58.9519 200.727C58.9519 200.713 58.9519 200.698 58.9519 200.684V198.215C58.9519 198.201 58.9519 198.187 58.9519 198.172C58.9519 198.144 58.9519 198.115 58.9662 198.073C58.9662 198.03 58.9805 198.001 58.9948 197.973C59.109 197.573 59.509 197.273 59.966 197.273H82.0483C82.4053 198.543 83.2195 200.327 85.1478 201.626Z" fill="#F2C144"/>
<path d="M102.488 197.242H101.959V201.623H102.488V197.242Z" fill="#F2C144"/>
<path d="M100.688 197.242H100.16V201.623H100.688V197.242Z" fill="#F2C144"/>
<path d="M98.5171 197.242H97.9886V201.623H98.5171V197.242Z" fill="#F2C144"/>
<path d="M95.189 197.242H94.6605V201.623H95.189V197.242Z" fill="#F2C144"/>
<path d="M91.6753 197.242H91.1468V201.623H91.6753V197.242Z" fill="#F2C144"/>
<path d="M86.2904 197.242H85.7619V201.623H86.2904V197.242Z" fill="#F2C144"/>
<path d="M81.2483 197.242H80.7198V201.623H81.2483V197.242Z" fill="#F2C144"/>
<path d="M76.7491 197.242H76.2206V201.623H76.7491V197.242Z" fill="#F2C144"/>
<path d="M104.216 197.242H103.688V201.623H104.216V197.242Z" fill="#F2C144"/>
<path d="M105.359 197.242H104.83V201.623H105.359V197.242Z" fill="#F2C144"/>
<path d="M106.444 197.242H105.916V201.623H106.444V197.242Z" fill="#F2C144"/>
<path d="M107.287 197.256V201.609C107.216 201.623 107.159 201.623 107.087 201.623H106.759V197.242H107.087C107.144 197.242 107.216 197.256 107.287 197.256Z" fill="#F2C144"/>
<path d="M108.03 197.669V201.208C107.901 201.365 107.716 201.494 107.501 201.565V197.312C107.701 197.384 107.901 197.498 108.03 197.669Z" fill="#F2C144"/>
<path d="M103.188 193.817V196.286C103.188 196.485 103.116 196.671 102.988 196.814C102.959 196.856 102.916 196.885 102.874 196.928C102.759 197.028 102.616 197.113 102.445 197.17C102.374 197.199 102.302 197.213 102.231 197.213C102.159 197.227 102.102 197.227 102.031 197.227H55.0382C54.4669 197.227 53.9955 196.871 53.9098 196.414C53.9098 196.385 53.8956 196.357 53.8956 196.328C53.8956 196.314 53.8956 196.3 53.8956 196.286V193.817C53.8956 193.803 53.8956 193.788 53.8956 193.774C53.8956 193.745 53.8956 193.717 53.9098 193.688C53.9955 193.232 54.4669 192.875 55.0382 192.875H102.031C102.059 192.875 102.088 192.875 102.117 192.875C102.131 192.875 102.145 192.875 102.145 192.875C102.159 192.875 102.174 192.875 102.188 192.875C102.202 192.875 102.202 192.875 102.216 192.875C102.288 192.889 102.359 192.904 102.431 192.918C102.474 192.932 102.502 192.946 102.545 192.961C102.574 192.975 102.588 192.989 102.616 192.989C102.631 193.003 102.645 193.003 102.659 193.018C102.674 193.032 102.688 193.032 102.702 193.046C102.745 193.075 102.802 193.103 102.845 193.146C102.859 193.16 102.874 193.175 102.888 193.189C102.902 193.203 102.902 193.203 102.916 193.217L102.931 193.232L102.945 193.246C102.959 193.26 102.974 193.275 102.988 193.289C103.116 193.432 103.188 193.617 103.188 193.817Z" fill="#EEAB46"/>
<path d="M80.12 197.243H54.9383C54.4669 197.243 54.0812 196.943 53.967 196.53C53.9527 196.501 53.9527 196.458 53.9384 196.43C53.9384 196.401 53.9241 196.373 53.9241 196.344C53.9241 196.33 53.9241 196.315 53.9241 196.301V193.832C53.9241 193.818 53.9241 193.804 53.9241 193.79C53.9241 193.761 53.9241 193.733 53.9384 193.704C53.9384 193.676 53.9527 193.633 53.967 193.604C54.0812 193.205 54.4812 192.891 54.9383 192.891H77.0205C77.0347 192.933 77.0347 192.962 77.049 193.005C77.4204 194.246 78.2488 195.973 80.12 197.243Z" fill="#F2C144"/>
<path d="M97.4744 192.859H96.9459V197.24H97.4744V192.859Z" fill="#F2C144"/>
<path d="M95.6604 192.859H95.1319V197.24H95.6604V192.859Z" fill="#F2C144"/>
<path d="M93.4893 192.859H92.9608V197.24H93.4893V192.859Z" fill="#F2C144"/>
<path d="M90.1755 192.859H89.647V197.24H90.1755V192.859Z" fill="#F2C144"/>
<path d="M86.6618 192.859H86.1333V197.24H86.6618V192.859Z" fill="#F2C144"/>
<path d="M81.2769 192.859H80.7484V197.24H81.2769V192.859Z" fill="#F2C144"/>
<path d="M76.2206 192.859H75.6921V197.24H76.2206V192.859Z" fill="#F2C144"/>
<path d="M71.7213 192.859H71.1928V197.24H71.7213V192.859Z" fill="#F2C144"/>
<path d="M99.1884 192.859H98.6599V197.24H99.1884V192.859Z" fill="#F2C144"/>
<path d="M100.331 192.859H99.8026V197.24H100.331V192.859Z" fill="#F2C144"/>
<path d="M101.431 192.859H100.902V197.24H101.431V192.859Z" fill="#F2C144"/>
<path d="M102.259 192.874V197.226C102.188 197.24 102.131 197.24 102.059 197.24H101.717V192.859H102.045C102.131 192.859 102.188 192.859 102.259 192.874Z" fill="#F2C144"/>
<path d="M103.002 193.286V196.825C102.874 196.982 102.688 197.111 102.474 197.182V192.93C102.688 192.987 102.874 193.115 103.002 193.286Z" fill="#F2C144"/>
<path d="M105.616 189.534V192.003C105.616 192.203 105.545 192.388 105.416 192.531C105.287 192.688 105.102 192.816 104.887 192.888C104.816 192.916 104.745 192.931 104.673 192.931C104.602 192.945 104.545 192.945 104.473 192.945H57.4807C57.295 192.945 57.1093 192.902 56.9522 192.831C56.638 192.688 56.4094 192.445 56.3523 192.131C56.3523 192.117 56.3523 192.089 56.338 192.074C56.338 192.06 56.338 192.046 56.338 192.031C56.338 192.017 56.338 192.003 56.338 191.989V189.52C56.338 189.506 56.338 189.491 56.338 189.477C56.338 189.449 56.338 189.42 56.3523 189.392C56.438 188.935 56.9094 188.578 57.4807 188.578H104.473C104.545 188.578 104.602 188.578 104.673 188.592C104.745 188.607 104.816 188.621 104.887 188.635C105.102 188.707 105.287 188.835 105.416 188.992C105.545 189.163 105.616 189.349 105.616 189.534Z" fill="#EEAB46"/>
<path d="M82.5481 192.976H57.3664C57.195 192.976 57.0379 192.933 56.8951 192.862C56.6094 192.719 56.4094 192.477 56.3666 192.163C56.3666 192.148 56.3666 192.12 56.3523 192.106C56.3523 192.091 56.3523 192.077 56.3523 192.063C56.3523 192.049 56.3523 192.034 56.3523 192.02V189.551C56.3523 189.537 56.3523 189.523 56.3523 189.508C56.3523 189.48 56.3523 189.451 56.3666 189.423C56.3666 189.394 56.3809 189.351 56.3951 189.323C56.5094 188.909 56.9093 188.609 57.3664 188.609H79.4486C79.7914 189.865 80.577 191.592 82.391 192.876C82.4482 192.905 82.491 192.933 82.5481 192.976Z" fill="#F2C144"/>
<path d="M99.9025 188.578H99.374V192.959H99.9025V188.578Z" fill="#F2C144"/>
<path d="M98.0885 188.578H97.5601V192.959H98.0885V188.578Z" fill="#F2C144"/>
<path d="M95.9175 188.578H95.389V192.959H95.9175V188.578Z" fill="#F2C144"/>
<path d="M92.6037 188.578H92.0752V192.959H92.6037V188.578Z" fill="#F2C144"/>
<path d="M89.09 188.578H88.5615V192.959H89.09V188.578Z" fill="#F2C144"/>
<path d="M83.7051 188.578H83.1766V192.959H83.7051V188.578Z" fill="#F2C144"/>
<path d="M78.6487 188.578H78.1202V192.959H78.6487V188.578Z" fill="#F2C144"/>
<path d="M74.1495 188.578H73.621V192.959H74.1495V188.578Z" fill="#F2C144"/>
<path d="M101.617 188.578H101.088V192.959H101.617V188.578Z" fill="#F2C144"/>
<path d="M102.759 188.578H102.231V192.959H102.759V188.578Z" fill="#F2C144"/>
<path d="M103.859 188.578H103.331V192.959H103.859V188.578Z" fill="#F2C144"/>
<path d="M104.687 188.606V192.959C104.616 192.973 104.559 192.973 104.488 192.973H104.145V188.592H104.473C104.559 188.578 104.616 188.592 104.687 188.606Z" fill="#F2C144"/>
<path d="M105.43 189.005V192.544C105.302 192.701 105.116 192.83 104.902 192.901V188.648C105.116 188.72 105.302 188.848 105.43 189.005Z" fill="#F2C144"/>
<path d="M106.744 185.158V187.627C106.744 187.826 106.673 188.012 106.544 188.155C106.53 188.169 106.516 188.197 106.487 188.212C106.402 188.312 106.287 188.383 106.159 188.454C106.116 188.483 106.059 188.497 106.002 188.511C105.93 188.54 105.859 188.554 105.787 188.554C105.759 188.554 105.716 188.568 105.687 188.568C105.659 188.568 105.616 188.568 105.587 188.568H58.5948C58.0235 188.568 57.5521 188.212 57.4664 187.755C57.4664 187.727 57.4521 187.698 57.4521 187.669V185.101C57.4807 184.63 57.9092 184.259 58.452 184.202C58.4948 184.202 58.5377 184.188 58.5805 184.188H105.573C105.602 184.188 105.645 184.188 105.673 184.188C105.702 184.188 105.745 184.188 105.773 184.202C105.844 184.216 105.916 184.23 105.987 184.245C106.202 184.316 106.387 184.444 106.516 184.601C106.673 184.773 106.744 184.958 106.744 185.158Z" fill="#EEAB46"/>
<path d="M83.6766 188.584H58.4948C58.0235 188.584 57.6378 188.284 57.5236 187.871C57.5093 187.842 57.5093 187.799 57.495 187.771C57.495 187.742 57.4807 187.714 57.4807 187.685V185.116C57.5093 184.66 57.8949 184.274 58.3806 184.217C58.4234 184.217 58.4663 184.203 58.4948 184.203H80.577C80.577 184.203 80.577 184.203 80.577 184.217C80.9341 185.502 81.7626 187.285 83.6766 188.584Z" fill="#F2C144"/>
<path d="M101.031 184.203H100.502V188.584H101.031V184.203Z" fill="#F2C144"/>
<path d="M99.2169 184.203H98.6885V188.584H99.2169V184.203Z" fill="#F2C144"/>
<path d="M97.0459 184.203H96.5174V188.584H97.0459V184.203Z" fill="#F2C144"/>
<path d="M93.7178 184.203H93.1893V188.584H93.7178V184.203Z" fill="#F2C144"/>
<path d="M90.2041 184.203H89.6756V188.584H90.2041V184.203Z" fill="#F2C144"/>
<path d="M84.8193 184.203H84.2908V188.584H84.8193V184.203Z" fill="#F2C144"/>
<path d="M79.7772 184.203H79.2487V188.584H79.7772V184.203Z" fill="#F2C144"/>
<path d="M75.2779 184.203H74.7494V188.584H75.2779V184.203Z" fill="#F2C144"/>
<path d="M102.745 184.203H102.216V188.584H102.745V184.203Z" fill="#F2C144"/>
<path d="M103.888 184.203H103.359V188.584H103.888V184.203Z" fill="#F2C144"/>
<path d="M104.973 184.203H104.445V188.584H104.973V184.203Z" fill="#F2C144"/>
<path d="M105.816 184.217V188.57C105.744 188.584 105.687 188.584 105.616 188.584H105.287V184.203H105.616C105.673 184.203 105.744 184.217 105.816 184.217Z" fill="#F2C144"/>
<path d="M106.559 184.63V188.169C106.43 188.326 106.244 188.455 106.03 188.526V184.273C106.244 184.345 106.43 184.473 106.559 184.63Z" fill="#F2C144"/>
<path d="M103.288 180.788V183.257C103.288 183.457 103.216 183.642 103.088 183.785C102.959 183.942 102.774 184.07 102.559 184.142C102.488 184.17 102.416 184.184 102.359 184.184C102.331 184.184 102.316 184.199 102.288 184.199C102.274 184.199 102.259 184.199 102.259 184.199C102.245 184.199 102.245 184.199 102.231 184.199C102.216 184.199 102.188 184.199 102.174 184.199H55.1811C54.5812 184.199 54.0812 183.799 54.0384 183.3C54.0384 183.285 54.0384 183.271 54.0384 183.257V180.788C54.0384 180.774 54.0384 180.76 54.0384 180.745C54.0384 180.731 54.0384 180.717 54.0384 180.703C54.0812 180.303 54.4383 179.96 54.8954 179.875C54.9097 179.875 54.924 179.875 54.924 179.861C55.0097 179.846 55.0811 179.832 55.1668 179.832H102.159C102.188 179.832 102.231 179.832 102.259 179.832C102.274 179.832 102.288 179.832 102.302 179.832C102.316 179.832 102.331 179.832 102.359 179.832C102.431 179.846 102.502 179.861 102.559 179.875C102.774 179.946 102.959 180.075 103.088 180.232C103.216 180.403 103.288 180.588 103.288 180.788Z" fill="#EEAB46"/>
<path d="M80.22 184.214H55.0382C54.4955 184.214 54.0527 183.815 54.0241 183.315C54.0241 183.301 54.0241 183.287 54.0241 183.272V180.804C54.0241 180.789 54.0241 180.775 54.0241 180.761C54.0241 180.747 54.0241 180.732 54.0241 180.718C54.067 180.304 54.3955 179.962 54.8097 179.876C54.824 179.876 54.8383 179.862 54.8526 179.862C54.9097 179.848 54.9668 179.848 55.0382 179.848H77.1204C77.1204 179.862 77.1204 179.862 77.1347 179.876C77.4918 181.146 78.306 182.901 80.22 184.214C80.2057 184.2 80.22 184.214 80.22 184.214Z" fill="#F2C144"/>
<path d="M97.5744 179.832H97.0459V184.213H97.5744V179.832Z" fill="#F2C144"/>
<path d="M95.7604 179.832H95.2319V184.213H95.7604V179.832Z" fill="#F2C144"/>
<path d="M93.5893 179.832H93.0608V184.213H93.5893V179.832Z" fill="#F2C144"/>
<path d="M90.2756 179.832H89.7471V184.213H90.2756V179.832Z" fill="#F2C144"/>
<path d="M86.7618 179.832H86.2333V184.213H86.7618V179.832Z" fill="#F2C144"/>
<path d="M81.3627 179.832H80.8342V184.213H81.3627V179.832Z" fill="#F2C144"/>
<path d="M76.3206 179.832H75.7921V184.213H76.3206V179.832Z" fill="#F2C144"/>
<path d="M71.8213 179.832H71.2928V184.213H71.8213V179.832Z" fill="#F2C144"/>
<path d="M99.2884 179.832H98.7599V184.213H99.2884V179.832Z" fill="#F2C144"/>
<path d="M100.431 179.832H99.9026V184.213H100.431V179.832Z" fill="#F2C144"/>
<path d="M101.531 179.832H101.002V184.213H101.531V179.832Z" fill="#F2C144"/>
<path d="M102.359 179.846V184.199C102.288 184.213 102.231 184.213 102.159 184.213H101.831V179.832H102.159C102.231 179.832 102.288 179.832 102.359 179.846Z" fill="#F2C144"/>
<path d="M103.102 180.243V183.782C102.974 183.939 102.788 184.068 102.574 184.139V179.887C102.788 179.958 102.974 180.087 103.102 180.243Z" fill="#F2C144"/>
<path d="M103.188 176.434V178.903C103.188 179.102 103.116 179.288 102.988 179.431C102.959 179.473 102.916 179.502 102.874 179.545C102.759 179.645 102.616 179.73 102.445 179.787C102.388 179.802 102.331 179.816 102.288 179.83C102.274 179.83 102.259 179.83 102.245 179.83C102.174 179.844 102.117 179.844 102.045 179.844H55.0525C55.0097 179.844 54.9525 179.844 54.9097 179.83C54.8954 179.83 54.8668 179.83 54.8526 179.816C54.3669 179.745 53.9956 179.416 53.9241 179.002C53.9241 178.974 53.9099 178.945 53.9099 178.917C53.9099 178.903 53.9099 178.888 53.9099 178.86V176.391C53.9099 176.377 53.9099 176.363 53.9099 176.348C53.9099 176.32 53.9099 176.291 53.9241 176.263C54.0098 175.806 54.4812 175.449 55.0525 175.449H102.045C102.074 175.449 102.102 175.449 102.131 175.449H102.145C102.159 175.449 102.159 175.449 102.174 175.449C102.188 175.449 102.202 175.449 102.216 175.449C102.231 175.449 102.231 175.449 102.245 175.449C102.316 175.463 102.388 175.478 102.459 175.492C102.502 175.506 102.531 175.521 102.574 175.535C102.716 175.606 102.845 175.692 102.945 175.792C102.959 175.806 102.974 175.82 102.988 175.835C103.116 176.049 103.188 176.234 103.188 176.434Z" fill="#EEAB46"/>
<path d="M80.12 179.863H54.9383C54.924 179.863 54.8954 179.863 54.8811 179.863C54.8526 179.863 54.8383 179.863 54.8097 179.863C54.3526 179.806 53.9956 179.477 53.9241 179.049C53.9241 179.021 53.9099 178.992 53.9099 178.964C53.9099 178.949 53.9099 178.935 53.9099 178.907V176.438C53.9099 176.424 53.9099 176.409 53.9099 176.395C53.9099 176.367 53.9099 176.338 53.9241 176.309C53.9241 176.281 53.9384 176.238 53.9527 176.21C54.067 175.81 54.4669 175.496 54.924 175.496H77.0062C77.0205 175.539 77.0205 175.567 77.0348 175.61C77.4061 176.88 78.2203 178.578 80.0486 179.848C80.0914 179.834 80.1057 179.848 80.12 179.863Z" fill="#F2C144"/>
<path d="M97.4744 175.48H96.9459V179.861H97.4744V175.48Z" fill="#F2C144"/>
<path d="M95.6604 175.48H95.1319V179.861H95.6604V175.48Z" fill="#F2C144"/>
<path d="M93.4893 175.48H92.9608V179.861H93.4893V175.48Z" fill="#F2C144"/>
<path d="M90.1755 175.48H89.647V179.861H90.1755V175.48Z" fill="#F2C144"/>
<path d="M86.6618 175.48H86.1333V179.861H86.6618V175.48Z" fill="#F2C144"/>
<path d="M81.2769 175.48H80.7484V179.861H81.2769V175.48Z" fill="#F2C144"/>
<path d="M76.2206 175.48H75.6921V179.861H76.2206V175.48Z" fill="#F2C144"/>
<path d="M71.7213 175.48H71.1928V179.861H71.7213V175.48Z" fill="#F2C144"/>
<path d="M99.1884 175.48H98.6599V179.861H99.1884V175.48Z" fill="#F2C144"/>
<path d="M100.331 175.48H99.8026V179.861H100.331V175.48Z" fill="#F2C144"/>
<path d="M101.431 175.48H100.902V179.861H101.431V175.48Z" fill="#F2C144"/>
<path d="M102.259 175.495V179.847C102.188 179.861 102.131 179.861 102.059 179.861H101.717V175.48H102.045C102.131 175.48 102.188 175.48 102.259 175.495Z" fill="#F2C144"/>
<path d="M103.002 175.892V179.431C102.874 179.588 102.688 179.716 102.474 179.788V175.535C102.688 175.607 102.874 175.735 103.002 175.892Z" fill="#F2C144"/>
<path d="M105.616 172.151V174.62C105.616 174.82 105.545 175.005 105.416 175.148C105.287 175.305 105.102 175.434 104.887 175.505C104.816 175.533 104.745 175.548 104.673 175.548C104.602 175.562 104.545 175.562 104.473 175.562H57.4807C57.295 175.562 57.1093 175.519 56.9522 175.448C56.638 175.305 56.4094 175.063 56.3523 174.749C56.3523 174.734 56.3523 174.706 56.338 174.692C56.338 174.677 56.338 174.663 56.338 174.649C56.338 174.634 56.338 174.62 56.338 174.606V172.137C56.338 172.123 56.338 172.109 56.338 172.094C56.338 172.066 56.338 172.037 56.3523 172.009C56.438 171.552 56.9094 171.195 57.4807 171.195H104.473C104.545 171.195 104.602 171.195 104.673 171.21C104.745 171.224 104.816 171.238 104.887 171.252C105.102 171.324 105.287 171.452 105.416 171.609C105.545 171.766 105.616 171.952 105.616 172.151Z" fill="#EEAB46"/>
<path d="M82.5481 175.578H57.3664C57.195 175.578 57.0379 175.535 56.8951 175.463C56.6094 175.321 56.4094 175.078 56.3666 174.764C56.3666 174.75 56.3666 174.721 56.3523 174.707C56.3523 174.693 56.3523 174.679 56.3523 174.664C56.3523 174.65 56.3523 174.636 56.3523 174.622V172.153C56.3523 172.138 56.3523 172.124 56.3523 172.11C56.3523 172.081 56.3523 172.053 56.3666 172.024C56.3666 171.996 56.3809 171.953 56.3951 171.924C56.5094 171.525 56.9093 171.211 57.3664 171.211H79.4486C79.7914 172.467 80.577 174.193 82.391 175.492C82.4482 175.506 82.491 175.549 82.5481 175.578Z" fill="#F2C144"/>
<path d="M99.9025 171.195H99.374V175.576H99.9025V171.195Z" fill="#F2C144"/>
<path d="M98.0885 171.195H97.5601V175.576H98.0885V171.195Z" fill="#F2C144"/>
<path d="M95.9175 171.195H95.389V175.576H95.9175V171.195Z" fill="#F2C144"/>
<path d="M92.6037 171.195H92.0752V175.576H92.6037V171.195Z" fill="#F2C144"/>
<path d="M89.09 171.195H88.5615V175.576H89.09V171.195Z" fill="#F2C144"/>
<path d="M83.7051 171.195H83.1766V175.576H83.7051V171.195Z" fill="#F2C144"/>
<path d="M78.6487 171.195H78.1202V175.576H78.6487V171.195Z" fill="#F2C144"/>
<path d="M74.1495 171.195H73.621V175.576H74.1495V171.195Z" fill="#F2C144"/>
<path d="M101.617 171.195H101.088V175.576H101.617V171.195Z" fill="#F2C144"/>
<path d="M102.759 171.195H102.231V175.576H102.759V171.195Z" fill="#F2C144"/>
<path d="M103.859 171.195H103.331V175.576H103.859V171.195Z" fill="#F2C144"/>
<path d="M104.687 171.21V175.562C104.616 175.576 104.559 175.576 104.488 175.576H104.145V171.195H104.473C104.559 171.195 104.616 171.195 104.687 171.21Z" fill="#F2C144"/>
<path d="M105.43 171.622V175.161C105.302 175.318 105.116 175.447 104.902 175.518V171.266C105.116 171.337 105.302 171.451 105.43 171.622Z" fill="#F2C144"/>
<path d="M109.458 167.775V170.244C109.458 170.444 109.387 170.629 109.258 170.772C109.244 170.786 109.23 170.815 109.201 170.829C109.13 170.9 109.044 170.972 108.944 171.029C108.901 171.057 108.844 171.086 108.801 171.1C108.773 171.114 108.744 171.114 108.715 171.129C108.644 171.157 108.573 171.171 108.501 171.171C108.43 171.186 108.373 171.186 108.301 171.186H61.3087C60.7374 171.186 60.266 170.829 60.1803 170.372C60.1803 170.344 60.166 170.315 60.166 170.272C60.166 170.258 60.166 170.244 60.166 170.23V167.761C60.166 167.747 60.166 167.732 60.166 167.718C60.1946 167.261 60.6231 166.876 61.1659 166.819C61.2087 166.819 61.2516 166.805 61.2944 166.805H108.287C108.358 166.805 108.416 166.805 108.487 166.819C108.558 166.833 108.63 166.848 108.701 166.862C108.887 166.919 109.058 167.033 109.187 167.161C109.201 167.176 109.215 167.204 109.244 167.219C109.387 167.39 109.458 167.575 109.458 167.775Z" fill="#EEAB46"/>
<path d="M86.3904 171.201H61.2087C60.7374 171.201 60.3517 170.902 60.2374 170.488C60.2231 170.459 60.2232 170.416 60.2089 170.388C60.2089 170.359 60.1946 170.331 60.1946 170.288C60.1946 170.274 60.1946 170.259 60.1946 170.245V167.776C60.1946 167.762 60.1946 167.748 60.1946 167.734C60.2231 167.277 60.6088 166.892 61.0802 166.835C61.123 166.835 61.1659 166.82 61.1944 166.82H83.2909C83.2909 166.82 83.2909 166.82 83.2909 166.835C83.648 168.119 84.4765 169.903 86.3904 171.201Z" fill="#F2C144"/>
<path d="M103.745 166.82H103.216V171.201H103.745V166.82Z" fill="#F2C144"/>
<path d="M101.931 166.82H101.402V171.201H101.931V166.82Z" fill="#F2C144"/>
<path d="M99.7597 166.82H99.2312V171.201H99.7597V166.82Z" fill="#F2C144"/>
<path d="M96.446 166.82H95.9175V171.201H96.446V166.82Z" fill="#F2C144"/>
<path d="M92.9322 166.82H92.4037V171.201H92.9322V166.82Z" fill="#F2C144"/>
<path d="M87.5331 166.82H87.0046V171.201H87.5331V166.82Z" fill="#F2C144"/>
<path d="M82.491 166.82H81.9625V171.201H82.491V166.82Z" fill="#F2C144"/>
<path d="M77.9917 166.82H77.4633V171.201H77.9917V166.82Z" fill="#F2C144"/>
<path d="M105.459 166.82H104.93V171.201H105.459V166.82Z" fill="#F2C144"/>
<path d="M106.601 166.82H106.073V171.201H106.601V166.82Z" fill="#F2C144"/>
<path d="M107.701 166.82H107.173V171.201H107.701V166.82Z" fill="#F2C144"/>
<path d="M108.53 166.835V171.187C108.458 171.201 108.401 171.201 108.33 171.201H108.001V166.82H108.33C108.401 166.82 108.458 166.82 108.53 166.835Z" fill="#F2C144"/>
<path d="M109.273 167.232V170.771C109.144 170.928 108.958 171.056 108.744 171.127V166.875C108.958 166.946 109.144 167.075 109.273 167.232Z" fill="#F2C144"/>
<path d="M103.288 163.395V165.864C103.288 166.063 103.216 166.249 103.088 166.392C102.959 166.549 102.774 166.677 102.559 166.748C102.488 166.777 102.416 166.791 102.359 166.791C102.331 166.791 102.316 166.791 102.288 166.806C102.274 166.806 102.259 166.806 102.245 166.806C102.231 166.806 102.231 166.806 102.216 166.806C102.202 166.806 102.174 166.806 102.159 166.806H55.1668C54.7526 166.806 54.3955 166.62 54.1955 166.349C54.0955 166.22 54.0384 166.063 54.0241 165.892C54.0241 165.878 54.0241 165.864 54.0241 165.849V163.395C54.0241 163.381 54.0241 163.366 54.0241 163.352C54.0527 162.953 54.3812 162.61 54.824 162.496C54.924 162.467 55.0382 162.453 55.1525 162.453H102.145C102.159 162.453 102.188 162.453 102.202 162.453C102.216 162.453 102.216 162.453 102.231 162.453C102.274 162.453 102.302 162.453 102.345 162.467C102.416 162.482 102.488 162.496 102.545 162.51C102.574 162.524 102.616 162.539 102.645 162.553C102.774 162.61 102.888 162.681 102.974 162.753L102.988 162.767C103.016 162.796 103.045 162.824 103.074 162.867C103.216 163.01 103.288 163.195 103.288 163.395Z" fill="#EEAB46"/>
<path d="M80.22 166.82H55.0382C54.6812 166.82 54.3669 166.649 54.1955 166.392C54.0955 166.249 54.0384 166.092 54.0241 165.921C54.0241 165.907 54.0241 165.892 54.0241 165.878V163.395C54.0241 163.381 54.0241 163.366 54.0241 163.352C54.0527 162.91 54.3812 162.553 54.8383 162.467C54.9097 162.453 54.9668 162.453 55.0382 162.453H77.1204C77.1347 162.482 77.1347 162.524 77.149 162.553C77.5204 163.823 78.3488 165.55 80.22 166.82C80.2057 166.82 80.22 166.82 80.22 166.82Z" fill="#F2C144"/>
<path d="M97.5744 162.438H97.0459V166.818H97.5744V162.438Z" fill="#F2C144"/>
<path d="M95.7604 162.438H95.2319V166.818H95.7604V162.438Z" fill="#F2C144"/>
<path d="M93.5893 162.438H93.0608V166.818H93.5893V162.438Z" fill="#F2C144"/>
<path d="M90.2756 162.438H89.7471V166.818H90.2756V162.438Z" fill="#F2C144"/>
<path d="M86.7618 162.438H86.2333V166.818H86.7618V162.438Z" fill="#F2C144"/>
<path d="M81.3627 162.438H80.8342V166.818H81.3627V162.438Z" fill="#F2C144"/>
<path d="M76.3206 162.438H75.7921V166.818H76.3206V162.438Z" fill="#F2C144"/>
<path d="M71.8213 162.438H71.2928V166.818H71.8213V162.438Z" fill="#F2C144"/>
<path d="M99.2884 162.438H98.7599V166.818H99.2884V162.438Z" fill="#F2C144"/>
<path d="M100.431 162.438H99.9026V166.818H100.431V162.438Z" fill="#F2C144"/>
<path d="M101.531 162.438H101.002V166.818H101.531V162.438Z" fill="#F2C144"/>
<path d="M102.359 162.452V166.804C102.288 166.818 102.231 166.818 102.159 166.818H101.831V162.438H102.159C102.231 162.438 102.288 162.452 102.359 162.452Z" fill="#F2C144"/>
<path d="M103.102 162.865V166.404C102.974 166.561 102.788 166.689 102.574 166.76V162.508C102.788 162.579 102.974 162.708 103.102 162.865Z" fill="#F2C144"/>
<path d="M106.744 159.11V161.579C106.744 161.778 106.673 161.964 106.544 162.107C106.416 162.263 106.23 162.392 106.016 162.463C105.944 162.492 105.873 162.506 105.802 162.506C105.73 162.52 105.673 162.52 105.602 162.52H58.6091C58.4234 162.52 58.252 162.478 58.0949 162.42C57.7521 162.278 57.5093 161.992 57.4664 161.65C57.4664 161.636 57.4664 161.621 57.4664 161.607C57.4664 161.593 57.4664 161.579 57.4664 161.564V159.11C57.4664 159.096 57.4664 159.081 57.4664 159.067C57.495 158.596 57.9235 158.225 58.4663 158.168C58.5091 158.168 58.552 158.168 58.5948 158.168H105.587C105.659 158.168 105.716 158.168 105.787 158.182C105.859 158.197 105.93 158.211 106.002 158.225C106.216 158.296 106.402 158.425 106.53 158.582C106.673 158.725 106.744 158.91 106.744 159.11Z" fill="#EEAB46"/>
<path d="M83.6766 162.535H58.4948C58.3377 162.535 58.1806 162.492 58.0378 162.435C57.7378 162.292 57.5093 162.007 57.4807 161.664C57.4807 161.65 57.4807 161.636 57.4807 161.621C57.4807 161.607 57.4807 161.593 57.4807 161.579V159.11C57.4807 159.096 57.4807 159.081 57.4807 159.067C57.5093 158.596 57.8949 158.225 58.3806 158.168C58.4234 158.168 58.4663 158.168 58.4948 158.168H80.577C80.9199 159.424 81.7054 161.15 83.5194 162.449C83.5766 162.478 83.6194 162.506 83.6766 162.535Z" fill="#F2C144"/>
<path d="M101.031 158.152H100.502V162.533H101.031V158.152Z" fill="#F2C144"/>
<path d="M99.2169 158.152H98.6885V162.533H99.2169V158.152Z" fill="#F2C144"/>
<path d="M97.0458 158.152H96.5173V162.533H97.0458V158.152Z" fill="#F2C144"/>
<path d="M93.7178 158.152H93.1893V162.533H93.7178V158.152Z" fill="#F2C144"/>
<path d="M90.2041 158.152H89.6756V162.533H90.2041V158.152Z" fill="#F2C144"/>
<path d="M84.8193 158.152H84.2908V162.533H84.8193V158.152Z" fill="#F2C144"/>
<path d="M79.7771 158.152H79.2487V162.533H79.7771V158.152Z" fill="#F2C144"/>
<path d="M75.2779 158.152H74.7494V162.533H75.2779V158.152Z" fill="#F2C144"/>
<path d="M102.745 158.152H102.216V162.533H102.745V158.152Z" fill="#F2C144"/>
<path d="M103.888 158.152H103.359V162.533H103.888V158.152Z" fill="#F2C144"/>
<path d="M104.973 158.152H104.445V162.533H104.973V158.152Z" fill="#F2C144"/>
<path d="M105.816 158.167V162.519C105.744 162.533 105.687 162.533 105.616 162.533H105.287V158.152H105.616C105.673 158.152 105.744 158.167 105.816 158.167Z" fill="#F2C144"/>
<path d="M106.559 158.579V162.118C106.43 162.275 106.244 162.404 106.03 162.475V158.223C106.244 158.294 106.43 158.422 106.559 158.579Z" fill="#F2C144"/>
<path d="M108.216 154.731V157.2C108.216 157.399 108.144 157.585 108.016 157.728C107.887 157.885 107.701 158.013 107.487 158.084C107.416 158.113 107.344 158.127 107.273 158.127C107.244 158.127 107.23 158.127 107.201 158.141C107.187 158.141 107.173 158.141 107.159 158.141C107.144 158.141 107.13 158.141 107.116 158.141C107.101 158.141 107.073 158.141 107.059 158.141H60.066C59.4661 158.141 58.9662 157.742 58.9233 157.242C58.9233 157.228 58.9233 157.214 58.9233 157.2V154.731C58.9233 154.717 58.9233 154.702 58.9233 154.688C58.9519 154.189 59.4518 153.789 60.066 153.789H107.059C107.13 153.789 107.187 153.789 107.259 153.803C107.33 153.818 107.401 153.832 107.473 153.846C107.687 153.917 107.873 154.046 108.001 154.203C108.144 154.36 108.216 154.545 108.216 154.731Z" fill="#EEAB46"/>
<path d="M85.1478 158.173H59.966C59.4233 158.173 58.9805 157.773 58.9519 157.274C58.9519 157.259 58.9519 157.245 58.9519 157.231V154.762C58.9519 154.748 58.9519 154.734 58.9519 154.719C58.9805 154.22 59.4233 153.82 59.966 153.82H82.0483C82.4053 155.076 83.2195 156.86 85.1478 158.173C85.1335 158.158 85.1335 158.173 85.1478 158.173Z" fill="#F2C144"/>
<path d="M102.488 153.789H101.959V158.17H102.488V153.789Z" fill="#F2C144"/>
<path d="M100.688 153.789H100.16V158.17H100.688V153.789Z" fill="#F2C144"/>
<path d="M98.5171 153.789H97.9886V158.17H98.5171V153.789Z" fill="#F2C144"/>
<path d="M95.189 153.789H94.6605V158.17H95.189V153.789Z" fill="#F2C144"/>
<path d="M91.6753 153.789H91.1468V158.17H91.6753V153.789Z" fill="#F2C144"/>
<path d="M86.2904 153.789H85.7619V158.17H86.2904V153.789Z" fill="#F2C144"/>
<path d="M81.2483 153.789H80.7198V158.17H81.2483V153.789Z" fill="#F2C144"/>
<path d="M76.7491 153.789H76.2206V158.17H76.7491V153.789Z" fill="#F2C144"/>
<path d="M104.216 153.789H103.688V158.17H104.216V153.789Z" fill="#F2C144"/>
<path d="M105.359 153.789H104.83V158.17H105.359V153.789Z" fill="#F2C144"/>
<path d="M106.444 153.789H105.916V158.17H106.444V153.789Z" fill="#F2C144"/>
<path d="M107.287 153.803V158.156C107.216 158.17 107.159 158.17 107.087 158.17H106.759V153.789H107.087C107.144 153.789 107.216 153.789 107.287 153.803Z" fill="#F2C144"/>
<path d="M108.03 154.201V157.74C107.901 157.897 107.716 158.025 107.501 158.096V153.844C107.701 153.915 107.901 154.044 108.03 154.201Z" fill="#F2C144"/>
<path d="M93.3179 128.747C93.3179 128.747 90.8468 132.215 88.59 132.272C86.3333 132.315 82.891 130.66 82.891 130.66C82.891 130.66 80.8198 126.036 82.2196 124.224C82.2196 124.224 83.6337 123.61 85.1049 124.695C85.362 124.88 85.6191 125.123 85.8762 125.422C86.2333 125.851 86.6332 126.093 87.0617 126.222C88.6758 126.707 90.5897 125.565 91.3039 126.678C91.7181 127.32 92.1752 127.806 92.5466 128.148C93.0036 128.548 93.3179 128.747 93.3179 128.747Z" fill="#BDA24D"/>
<path d="M61.1516 153.793C61.1516 153.793 69.8787 132.673 85.5763 132.273C85.5763 132.273 100.074 133.886 100.874 153.793H61.1516Z" fill="#BDA24D"/>
<path d="M81.277 132.914C81.277 132.914 87.576 134.313 89.5185 133.485C89.5185 133.485 89.8185 130.86 87.1617 131.231C85.3477 131.487 84.1622 130.617 83.4766 130.26C82.4768 129.747 81.0056 131.816 81.277 132.914Z" fill="#45391D"/>
<path d="M86.7475 128.948C86.3476 129.247 85.1049 124.695 85.1049 124.695C85.362 124.881 85.6191 125.123 85.8762 125.423C86.2333 125.851 86.6333 126.094 87.0618 126.222C87.0618 126.365 87.1332 128.648 86.7475 128.948Z" fill="#847D3D"/>
<path d="M92.5609 128.161C92.4752 128.218 89.5613 129.959 89.1614 129.959C88.7615 129.959 91.3039 126.691 91.3039 126.691C91.7324 127.334 92.1895 127.819 92.5609 128.161Z" fill="#847D3D"/>
<path d="M69.6645 147.884C69.5074 147.741 75.835 138.565 77.5775 138.494C79.3201 138.423 83.2481 140.506 86.0762 140.777C88.9186 141.048 91.661 140.235 92.2038 141.919C92.7466 143.588 94.2178 149.539 93.3179 150.495C92.418 151.437 73.1497 150.866 69.6645 147.884Z" fill="#F2D84E"/>
<path d="M131.026 69.5239C130.626 69.8379 130.198 70.1233 129.755 70.3944C129.584 70.4943 129.412 70.5942 129.226 70.6941C128.784 70.9367 128.312 71.165 127.855 71.3505C127.727 71.322 127.584 71.3077 127.455 71.2792C126.613 71.1365 125.784 71.008 124.956 70.8939C124.556 70.8368 124.142 70.7797 123.742 70.7226C122.07 70.4943 120.442 70.3231 118.914 70.1804C118.5 70.1376 118.1 70.109 117.7 70.0805C117.385 70.0519 117.071 70.0377 116.757 70.0091C116 69.952 115.272 69.9092 114.557 69.8664C113.572 69.1672 112.658 68.3252 111.872 67.3549C111.344 66.7127 110.872 66.0135 110.458 65.2572C106.773 58.5787 109.201 50.1878 115.886 46.5061C116.057 46.4062 116.243 46.3206 116.414 46.235C122.999 42.9671 131.069 45.4359 134.654 51.9431C138.011 57.9936 136.325 65.4427 131.026 69.5239Z" fill="#EEAB46"/>
<path d="M133.497 52.7831C130.198 46.8039 122.656 44.6348 116.686 47.917C112.601 50.1717 110.287 54.4099 110.287 58.7623C110.287 60.7744 110.787 62.8293 111.829 64.713C112.386 65.7404 113.086 66.6395 113.857 67.4386C114.986 68.5802 116.3 69.465 117.728 70.0786C118.128 70.1071 118.542 70.1499 118.942 70.1785C117.243 69.6219 115.671 68.7086 114.357 67.4529C113.486 66.6252 112.729 65.6548 112.115 64.5417C108.901 58.7338 111.029 51.3989 116.843 48.1881C122.656 44.9773 129.998 47.1036 133.212 52.9115C136.354 58.6196 134.369 65.7833 128.798 69.0797C128.684 69.1368 128.584 69.2081 128.469 69.2652C126.97 70.0929 125.37 70.5638 123.77 70.7065C124.17 70.7636 124.57 70.8206 124.984 70.8777C126.241 70.6351 127.47 70.207 128.641 69.5649C128.869 69.4364 129.084 69.308 129.298 69.1796C134.754 65.7262 136.668 58.534 133.497 52.7831Z" fill="#F2C144"/>
<path d="M128.741 59.9607C128.498 59.3756 128.198 58.9047 127.812 58.5622C127.427 58.2197 126.998 57.9629 126.498 57.7916C125.998 57.6204 125.441 57.5205 124.827 57.4777C124.213 57.4349 123.542 57.4349 122.813 57.4491C122.37 57.4634 121.985 57.4491 121.671 57.4206C121.356 57.3921 121.085 57.335 120.856 57.2494C120.628 57.1637 120.456 57.0353 120.314 56.8783C120.171 56.7214 120.056 56.5358 119.971 56.3075C119.885 56.0792 119.828 55.8651 119.814 55.6368C119.799 55.4228 119.828 55.2087 119.914 55.0089C119.985 54.8091 120.114 54.6236 120.299 54.4667C120.471 54.2954 120.714 54.1527 120.999 54.0386C121.542 53.8245 122.042 53.8245 122.513 54.0528C122.985 54.2811 123.356 54.7521 123.656 55.4798L126.47 54.3382C126.227 53.7389 125.913 53.2252 125.541 52.8113C125.17 52.3975 124.756 52.0693 124.299 51.8552C123.842 51.6269 123.327 51.4985 122.785 51.4557C122.242 51.4128 121.671 51.4699 121.085 51.6269L120.285 49.6719L118.728 50.2998L119.514 52.2262C118.957 52.5116 118.471 52.8541 118.085 53.2394C117.7 53.6247 117.4 54.0386 117.186 54.4952C116.971 54.9518 116.857 55.4228 116.857 55.908C116.843 56.4074 116.943 56.9069 117.157 57.4206C117.4 58.0057 117.714 58.4766 118.085 58.8191C118.471 59.1616 118.9 59.4184 119.399 59.5897C119.899 59.7609 120.456 59.8608 121.071 59.8893C121.685 59.9179 122.356 59.9179 123.085 59.8893C123.499 59.8608 123.87 59.8751 124.184 59.9036C124.499 59.9321 124.756 59.9892 124.984 60.0891C125.213 60.1747 125.398 60.3032 125.541 60.4744C125.684 60.6457 125.813 60.8454 125.927 61.1023C126.013 61.3306 126.056 61.5447 126.056 61.773C126.056 62.0013 125.998 62.2011 125.898 62.4009C125.798 62.6007 125.656 62.7862 125.456 62.9574C125.256 63.1287 124.999 63.2714 124.699 63.3998C124.427 63.514 124.156 63.5853 123.87 63.6139C123.584 63.6424 123.313 63.6281 123.042 63.5282C122.77 63.4426 122.513 63.2714 122.285 63.0431C122.042 62.8005 121.842 62.4722 121.671 62.0441L118.857 63.1858C119.157 63.9135 119.514 64.4843 119.971 64.9124C120.414 65.3406 120.899 65.6402 121.428 65.8257C121.956 66.0113 122.513 66.0826 123.085 66.0683C123.656 66.0398 124.227 65.9542 124.784 65.7829L125.513 67.5667L127.055 66.9388L126.327 65.1408C126.884 64.8554 127.37 64.5129 127.77 64.1276C128.169 63.7423 128.484 63.3285 128.684 62.8861C128.898 62.4437 129.012 61.9728 129.026 61.4733C129.055 61.0024 128.955 60.4887 128.741 59.9607Z" fill="#F2C144"/>
<path d="M74.5209 184.186C72.0213 191.435 65.7651 196.858 58.9519 198.785V196.858C58.9519 196.844 58.9519 196.829 58.9519 196.815C58.9519 196.787 58.9519 196.758 58.9662 196.715C58.9662 196.673 58.9805 196.644 58.9948 196.615C59.109 196.216 59.509 195.916 59.966 195.916H54.9383C54.4669 195.916 54.0812 195.617 53.967 195.203C53.9527 195.174 53.9527 195.131 53.9384 195.103C53.9384 195.074 53.9241 195.046 53.9241 195.017C53.9241 195.003 53.9241 194.989 53.9241 194.974V192.506C53.9241 192.491 53.9241 192.477 53.9241 192.463C53.9241 192.434 53.9241 192.406 53.9384 192.377C53.9384 192.349 53.9527 192.306 53.967 192.277C54.0812 191.878 54.4812 191.564 54.9383 191.564H56.8951C56.6094 191.421 56.4094 191.179 56.3666 190.865C56.3666 190.85 56.3666 190.822 56.3523 190.807C56.3523 190.793 56.3523 190.779 56.3523 190.765C56.3523 190.75 56.3523 190.736 56.3523 190.722V188.253C56.3523 188.239 56.3523 188.225 56.3523 188.21C56.3523 188.182 56.3523 188.153 56.3666 188.125C56.3666 188.096 56.3809 188.053 56.3952 188.025C56.5094 187.611 56.9094 187.311 57.3664 187.311H58.4948C58.0235 187.311 57.6378 187.012 57.5236 186.598C57.5093 186.569 57.5093 186.526 57.495 186.498C57.495 186.469 57.4807 186.441 57.4807 186.412V183.844C57.5093 183.387 57.8949 183.002 58.3806 182.945H55.0525C54.5097 182.945 54.067 182.545 54.0384 182.046C54.0384 182.031 54.0384 182.017 54.0384 182.003V179.534C54.0384 179.52 54.0384 179.505 54.0384 179.491C54.0384 179.477 54.0384 179.463 54.0384 179.448C54.0812 179.035 54.4098 178.692 54.824 178.606C54.3669 178.549 54.0098 178.221 53.9384 177.793C53.9384 177.765 53.9241 177.736 53.9241 177.707C53.9241 177.693 53.9241 177.679 53.9241 177.65V175.096C53.9241 175.082 53.9241 175.067 53.9241 175.053C53.9241 175.025 53.9241 174.996 53.9384 174.968C53.9384 174.939 53.9527 174.896 53.967 174.868C54.0812 174.468 54.4812 174.154 54.9383 174.154H56.8951C56.6094 174.011 56.4094 173.769 56.3666 173.455C56.3666 173.441 56.3666 173.412 56.3523 173.398C56.3523 173.384 56.3523 173.369 56.3523 173.355C56.3523 173.341 56.3523 173.326 56.3523 173.312V170.843C56.3523 170.829 56.3523 170.815 56.3523 170.801C56.3523 170.772 56.3523 170.744 56.3666 170.715C56.3666 170.687 56.3809 170.644 56.3952 170.615C56.5094 170.216 56.9094 169.902 57.3664 169.902H61.2087C60.7373 169.902 60.3517 169.602 60.2374 169.188C60.2231 169.16 60.2231 169.117 60.2089 169.088C60.2089 169.06 60.1946 169.031 60.1946 168.988C60.1946 168.974 60.1946 168.96 60.1946 168.946V166.477C60.1946 166.463 60.1946 166.448 60.1946 166.434C60.2231 165.977 60.6088 165.592 61.0801 165.535H55.0382C54.6812 165.535 54.3669 165.364 54.1955 165.107V165.078L54.8383 161.197V161.168L55.7524 155.617C66.3364 157.03 74.2638 165.05 75.5064 174.739C75.9064 177.864 75.5778 181.104 74.5209 184.186Z" fill="#F2C144"/>
<path d="M70.2444 179.206C71.8909 166.562 62.9656 154.978 50.3091 153.333C37.6527 151.688 26.0579 160.605 24.4114 173.249C22.7649 185.894 31.6902 197.478 44.3466 199.123C57.003 200.768 68.5979 191.851 70.2444 179.206Z" fill="#F2C144"/>
<path d="M57.5949 198.253C57.3093 198.424 57.0236 198.595 56.7237 198.752C56.6237 198.809 56.5237 198.866 56.4237 198.909C56.1952 199.038 55.9666 199.152 55.7381 199.266C44.7256 204.66 31.2991 200.522 25.3144 189.676C19.601 179.331 22.6719 166.516 32.0419 159.795C32.7846 159.252 33.5702 158.753 34.3986 158.311C34.6986 158.154 34.9985 157.997 35.2985 157.84C35.5842 157.697 35.8841 157.554 36.1841 157.426C37.0839 157.026 38.0123 156.684 38.9408 156.398C40.3263 155.985 41.726 155.699 43.1258 155.556C47.4823 155.1 51.8673 155.885 55.7381 157.783C59.866 159.795 63.4226 163.048 65.8079 167.372C71.807 178.26 68.1076 191.86 57.5949 198.253Z" fill="#EEAB46"/>
<path d="M45.7254 198.138C43.7972 198.138 41.8546 197.867 39.9406 197.31C34.6272 195.769 30.2279 192.259 27.5569 187.421C24.8859 182.583 24.2574 176.989 25.8 171.681C27.3426 166.372 30.8564 161.977 35.6984 159.309C45.6969 153.8 58.3234 157.454 63.8368 167.443C69.3503 177.432 65.6937 190.047 55.6953 195.555C52.5958 197.267 49.182 198.138 45.7254 198.138ZM45.6683 157.311C42.3831 157.311 39.0551 158.11 35.9698 159.808C31.2563 162.405 27.8425 166.686 26.3428 171.852C24.843 177.018 25.4572 182.455 28.0568 187.164C30.6564 191.873 34.9414 195.284 40.112 196.782C45.2826 198.281 50.7246 197.667 55.4382 195.07C65.1652 189.704 68.7218 177.446 63.3512 167.714C59.6804 161.078 52.7815 157.311 45.6683 157.311Z" fill="#F2C144"/>
<path d="M55.8809 179.464C55.8381 179.35 55.781 179.235 55.7381 179.136C55.3667 178.308 54.8954 177.651 54.3383 177.138C53.7099 176.567 52.9671 176.125 52.1244 175.839C51.2817 175.554 50.3533 175.368 49.3248 175.311C48.2964 175.254 47.168 175.24 45.954 175.268C45.1969 175.297 44.5685 175.283 44.0257 175.226C43.4972 175.183 43.0401 175.083 42.6688 174.926C42.2974 174.783 41.9974 174.569 41.7689 174.312C41.5404 174.055 41.3404 173.741 41.1976 173.37C41.0404 172.999 40.9547 172.628 40.9405 172.257C40.9119 171.886 40.969 171.544 41.0976 171.216C41.2261 170.887 41.4404 170.588 41.7403 170.302C42.0403 170.017 42.4259 169.789 42.9259 169.589C43.8257 169.218 44.6684 169.232 45.454 169.617C46.2396 170.003 46.8681 170.802 47.368 172L52.0816 170.088C51.6673 169.075 51.1531 168.233 50.5389 167.534C49.9248 166.835 49.2249 166.307 48.4536 165.921C47.6823 165.536 46.8395 165.322 45.9254 165.251C45.0112 165.179 44.0685 165.279 43.083 165.536L41.7546 162.254L39.155 163.31L40.4691 166.549C39.5264 167.034 38.7265 167.605 38.0695 168.247C37.4124 168.89 36.9125 169.589 36.5554 170.345C36.1984 171.101 36.0127 171.886 35.9984 172.714C35.9841 173.542 36.1412 174.384 36.4983 175.24C36.8982 176.224 37.4124 177.009 38.0552 177.58C38.6837 178.151 39.4264 178.593 40.2549 178.864C41.0976 179.15 42.026 179.321 43.0544 179.378C44.0828 179.435 45.2112 179.435 46.4253 179.378C47.1252 179.335 47.7394 179.335 48.2679 179.392C48.7821 179.435 49.2391 179.535 49.6105 179.692C49.9819 179.849 50.2961 180.063 50.5532 180.334C50.8103 180.605 51.0103 180.962 51.1817 181.376C51.3388 181.747 51.4102 182.118 51.4102 182.489C51.4102 182.86 51.3245 183.217 51.1531 183.545C50.9817 183.888 50.7389 184.201 50.4104 184.487C50.0819 184.772 49.6534 185.015 49.1392 185.229C48.6964 185.414 48.2393 185.529 47.7537 185.586C47.2823 185.643 46.811 185.6 46.3539 185.443C45.8968 185.286 45.4826 185.015 45.0827 184.615C44.6827 184.216 44.3399 183.659 44.0543 182.946L39.3407 184.858C39.8264 186.071 40.4548 187.027 41.1976 187.74C41.9403 188.454 42.7545 188.953 43.64 189.267C44.5256 189.567 45.454 189.71 46.411 189.667C47.3823 189.624 48.325 189.467 49.2677 189.196L50.4818 192.193L53.0671 191.137L51.8387 188.126C52.7814 187.641 53.5813 187.07 54.2526 186.442C54.8811 185.857 55.3667 185.215 55.7096 184.544C55.7381 184.487 55.7667 184.43 55.7952 184.373C56.1523 183.631 56.338 182.846 56.3666 182.018C56.4094 181.205 56.2523 180.348 55.8809 179.464Z" fill="#F2C144"/>
<path d="M146.195 74.2194C146.01 74.8187 145.367 75.204 144.71 75.0042C138.711 73.1348 132.355 71.8933 126.084 71.1798C119.199 70.395 112.186 70.238 108.873 70.4663C108.216 70.5091 107.658 70.0097 107.616 69.3532C107.573 68.6968 108.073 68.1403 108.73 68.0975C113.872 67.7978 121.099 68.1974 126.555 68.8395C132.812 69.5816 139.296 70.8373 145.41 72.7353C146.038 72.9351 146.381 73.5915 146.195 74.2194Z" fill="#D79EAD"/>
<path d="M210.642 181.955C210.542 181.727 210.414 181.527 210.257 181.341C210.142 181.199 210.014 181.07 209.885 180.956L209.314 180.385L209.171 180.499C206.257 179.072 200.244 180.585 194.173 184.552C186.817 189.347 182.104 195.94 183.461 199.45L183.247 199.607L184.061 200.421C184.104 200.463 184.146 200.506 184.175 200.535L184.203 200.563C184.403 200.749 184.646 200.92 184.903 201.048C187.774 202.547 193.859 201.048 200.001 197.038C207.5 192.158 212.256 185.408 210.642 181.955Z" fill="#F2C144"/>
<path d="M193.273 183.67C200.758 178.79 208.143 177.634 209.757 181.087C211.371 184.541 206.614 191.305 199.13 196.185C191.645 201.066 184.261 202.222 182.647 198.768C181.033 195.315 185.789 188.551 193.273 183.67Z" fill="#EEAB46"/>
<path d="M187.903 199.28C187.289 199.28 186.746 199.208 186.26 199.066C185.332 198.794 184.675 198.281 184.332 197.524C183.661 196.055 184.289 193.871 186.089 191.374C187.86 188.934 190.56 186.465 193.688 184.41C198.501 181.256 203.4 179.744 206.157 180.543C207.086 180.814 207.743 181.328 208.085 182.084C208.757 183.554 208.128 185.737 206.329 188.234C204.557 190.675 201.858 193.143 198.73 195.198C194.759 197.781 190.745 199.28 187.903 199.28ZM204.529 180.9C201.815 180.9 197.83 182.384 193.988 184.895C190.902 186.907 188.26 189.333 186.532 191.716C184.861 194.014 184.246 196.055 184.832 197.31C185.103 197.91 185.632 198.323 186.403 198.552C186.832 198.68 187.332 198.737 187.874 198.737C190.588 198.737 194.573 197.253 198.416 194.742C201.501 192.73 204.143 190.304 205.871 187.921C207.543 185.623 208.157 183.582 207.571 182.327C207.3 181.727 206.771 181.313 206 181.085C205.586 180.957 205.086 180.9 204.529 180.9Z" fill="#F2C144"/>
<path d="M193.202 191.703C193.431 191.603 193.645 191.489 193.816 191.375C194.002 191.261 194.159 191.118 194.316 190.947C194.473 190.79 194.616 190.604 194.745 190.39C194.888 190.176 195.016 189.934 195.159 189.663C195.402 189.192 195.645 188.735 195.902 188.321C196.159 187.907 196.444 187.522 196.759 187.165C197.073 186.808 197.43 186.48 197.83 186.195C198.23 185.895 198.701 185.638 199.244 185.396C199.715 185.196 200.13 185.053 200.501 184.996C200.872 184.939 201.201 184.953 201.458 185.025C201.729 185.11 201.929 185.253 202.086 185.453C202.243 185.667 202.315 185.938 202.329 186.266L204.1 185.496L204.015 186.452L202.229 187.237C202.129 187.608 201.972 187.979 201.729 188.335C201.501 188.706 201.215 189.049 200.872 189.391C200.529 189.734 200.13 190.048 199.672 190.347C199.215 190.647 198.715 190.918 198.173 191.161L198.344 189.448C199.001 189.163 199.501 188.849 199.858 188.507C200.201 188.164 200.387 187.836 200.43 187.508C200.444 187.336 200.43 187.194 200.358 187.094C200.301 186.994 200.201 186.937 200.087 186.908C199.958 186.88 199.815 186.894 199.644 186.923C199.473 186.965 199.287 187.023 199.087 187.108C198.887 187.194 198.701 187.294 198.53 187.408C198.358 187.522 198.201 187.65 198.058 187.807C197.916 187.964 197.758 188.15 197.63 188.364C197.487 188.578 197.344 188.835 197.187 189.135C196.93 189.62 196.687 190.062 196.43 190.476C196.173 190.89 195.887 191.275 195.573 191.632C195.259 191.989 194.902 192.317 194.488 192.602C194.088 192.902 193.616 193.159 193.088 193.401C192.602 193.615 192.174 193.744 191.802 193.801C191.431 193.858 191.117 193.844 190.845 193.758C190.588 193.672 190.388 193.53 190.245 193.316C190.103 193.102 190.031 192.83 190.003 192.488L188.36 193.216L188.446 192.274L190.074 191.56C190.16 191.204 190.288 190.847 190.488 190.462C190.688 190.076 190.945 189.705 191.288 189.334C191.617 188.963 192.031 188.592 192.516 188.25C193.002 187.893 193.573 187.579 194.23 187.294L194.059 189.006C193.673 189.177 193.345 189.363 193.074 189.548C192.802 189.734 192.588 189.919 192.416 190.119C192.245 190.305 192.131 190.504 192.045 190.676C191.974 190.861 191.917 191.032 191.902 191.189C191.888 191.375 191.902 191.518 191.959 191.632C192.017 191.746 192.102 191.817 192.217 191.86C192.331 191.903 192.474 191.903 192.645 191.874C192.802 191.846 192.988 191.789 193.202 191.703Z" fill="#F2C144"/>
<path d="M116.971 9.94622C117.043 9.80351 117.114 9.67508 117.214 9.56092C117.285 9.4753 117.371 9.38968 117.457 9.31833L117.814 8.9473L117.914 9.01865C119.757 8.11963 123.57 9.07573 127.427 11.5873C132.083 14.6268 135.083 18.8223 134.226 21.0484L134.354 21.1483L133.84 21.662C133.811 21.6906 133.783 21.7191 133.769 21.7334L133.754 21.7477C133.626 21.8618 133.469 21.976 133.312 22.0616C131.483 23.0177 127.627 22.0616 123.727 19.5215C118.957 16.4249 115.943 12.1438 116.971 9.94622Z" fill="#F2C144"/>
<path d="M127.984 11.0306C123.227 7.93399 118.557 7.19194 117.528 9.38955C116.5 11.5872 119.514 15.8682 124.27 18.9649C129.026 22.0615 133.697 22.8035 134.726 20.6059C135.754 18.4226 132.726 14.1273 127.984 11.0306Z" fill="#EEAB46"/>
<path d="M124.527 18.3516C122.542 17.0531 120.828 15.4833 119.699 13.9422C118.557 12.3582 118.157 10.974 118.585 10.0464C118.8 9.57548 119.214 9.24726 119.814 9.07602C121.571 8.57656 124.67 9.53267 127.727 11.5305C129.712 12.8291 131.426 14.3988 132.554 15.94C133.697 17.524 134.097 18.9082 133.669 19.8357C133.454 20.3067 133.04 20.6349 132.44 20.8061C132.126 20.8917 131.783 20.9346 131.398 20.9346C129.598 20.9488 127.041 19.9927 124.527 18.3516ZM119.899 9.38996C119.414 9.53267 119.071 9.78953 118.9 10.1748C118.528 10.974 118.928 12.2725 119.985 13.7281C121.085 15.2407 122.77 16.7819 124.713 18.052C127.141 19.6502 129.684 20.5778 131.398 20.5778C131.74 20.5778 132.055 20.535 132.34 20.4636C132.826 20.3209 133.169 20.0641 133.34 19.6788C133.711 18.8796 133.312 17.5811 132.255 16.1255C131.155 14.6129 129.469 13.0717 127.527 11.8016C125.099 10.2034 122.556 9.2758 120.842 9.2758C120.485 9.2758 120.171 9.31861 119.899 9.38996Z" fill="#F2C144"/>
<path d="M128.384 16.2386C128.498 16.2528 128.584 16.2528 128.655 16.2243C128.727 16.1957 128.784 16.1529 128.827 16.0816C128.869 16.0102 128.869 15.9246 128.869 15.7962C128.855 15.6963 128.827 15.5821 128.784 15.468C128.741 15.3538 128.655 15.2254 128.555 15.1112C128.455 14.9828 128.312 14.8686 128.141 14.7545C127.97 14.6403 127.755 14.5261 127.512 14.412L127.412 13.3274C127.827 13.5129 128.198 13.7127 128.498 13.9411C128.812 14.1694 129.069 14.3977 129.284 14.626C129.498 14.8686 129.669 15.0969 129.784 15.3395C129.912 15.5821 129.998 15.8104 130.041 16.0388L131.083 16.4954L131.14 17.0948L130.098 16.6381C130.083 16.8522 130.041 17.0234 129.955 17.1661C129.869 17.3088 129.741 17.3944 129.569 17.4515C129.398 17.5086 129.198 17.5086 128.969 17.4801C128.727 17.4515 128.455 17.3659 128.155 17.2232C127.812 17.0805 127.512 16.9092 127.27 16.7237C127.013 16.5382 126.784 16.3242 126.584 16.1101C126.384 15.8818 126.198 15.6392 126.041 15.3823C125.884 15.1255 125.713 14.8401 125.556 14.5404C125.456 14.3549 125.37 14.1979 125.27 14.0552C125.184 13.9125 125.084 13.7983 124.999 13.6985C124.899 13.5986 124.799 13.5129 124.699 13.4416C124.584 13.3702 124.47 13.3132 124.342 13.2561C124.213 13.199 124.099 13.1562 123.984 13.1419C123.87 13.1134 123.784 13.1134 123.699 13.1276C123.627 13.1419 123.57 13.1847 123.527 13.2418C123.485 13.2989 123.47 13.3845 123.485 13.4987C123.499 13.7127 123.627 13.9125 123.842 14.1408C124.056 14.3549 124.384 14.5547 124.799 14.7402L124.899 15.8247C124.556 15.6677 124.227 15.4965 123.942 15.311C123.656 15.1255 123.399 14.9257 123.185 14.7116C122.97 14.4976 122.785 14.2693 122.642 14.0409C122.499 13.8126 122.385 13.57 122.328 13.3417L121.185 12.8422L121.128 12.2429L122.242 12.7281C122.256 12.514 122.299 12.3428 122.399 12.2144C122.499 12.0859 122.628 11.986 122.799 11.9432C122.97 11.8861 123.17 11.8861 123.413 11.929C123.656 11.9718 123.913 12.0431 124.213 12.1858C124.556 12.3428 124.856 12.4998 125.113 12.6995C125.37 12.8851 125.598 13.0991 125.798 13.3132C125.998 13.5415 126.184 13.7841 126.341 14.0409C126.498 14.2978 126.655 14.5832 126.813 14.8829C126.898 15.0541 126.984 15.2111 127.07 15.3395C127.155 15.468 127.241 15.5964 127.341 15.6963C127.441 15.7962 127.541 15.8818 127.655 15.9674C127.77 16.0388 127.898 16.1101 128.041 16.1815C128.17 16.1957 128.284 16.2243 128.384 16.2386Z" fill="#F2C144"/>
<defs>
<linearGradient id="paint0_linear_2017_87881" x1="50.8817" y1="106.227" x2="50.8817" y2="127.603" gradientUnits="userSpaceOnUse">
<stop stop-color="#F5B4C0"/>
<stop offset="1" stop-color="#E8A6B6"/>
</linearGradient>
<linearGradient id="paint1_linear_2017_87881" x1="122.208" y1="57.2227" x2="122.208" y2="159.923" gradientUnits="userSpaceOnUse">
<stop stop-color="#FFDCE5"/>
<stop offset="1" stop-color="#FEABC0" stop-opacity="0.56"/>
</linearGradient>
<linearGradient id="paint2_linear_2017_87881" x1="96.7865" y1="32.2305" x2="96.7865" y2="73.1361" gradientUnits="userSpaceOnUse">
<stop stop-color="#F5B4C0"/>
<stop offset="1" stop-color="#E8A6B6"/>
</linearGradient>
</defs>
</svg>
