<svg width="16" height="16" viewBox="0 0 16 16" fill="none" xmlns="http://www.w3.org/2000/svg">
<path d="M13.3333 10.6663L13.6868 11.0199L14.0404 10.6663L13.6868 10.3128L13.3333 10.6663ZM3.16658 9.33301C3.16658 9.05687 2.94273 8.83301 2.66658 8.83301C2.39044 8.83301 2.16658 9.05687 2.16658 9.33301L3.16658 9.33301ZM11.0201 13.6866L13.6868 11.0199L12.9797 10.3128L10.313 12.9795L11.0201 13.6866ZM13.6868 10.3128L11.0201 7.64612L10.313 8.35323L12.9797 11.0199L13.6868 10.3128ZM13.3333 10.1663L3.99992 10.1663L3.99992 11.1663L13.3333 11.1663L13.3333 10.1663ZM3.99992 10.1663C3.53968 10.1663 3.16658 9.79325 3.16658 9.33301L2.16658 9.33301C2.16658 10.3455 2.9874 11.1663 3.99992 11.1663L3.99992 10.1663Z" fill="white"/>
<path d="M2.66675 5.33333L2.31319 5.68689L1.95964 5.33333L2.31319 4.97978L2.66675 5.33333ZM12.6667 5.33333L12.6667 5.83333L12.6667 5.33333ZM14.5001 6.66667C14.5001 6.94281 14.2762 7.16667 14.0001 7.16667C13.7239 7.16667 13.5001 6.94281 13.5001 6.66667L14.5001 6.66667ZM4.97986 8.35355L2.31319 5.68689L3.0203 4.97978L5.68697 7.64645L4.97986 8.35355ZM2.31319 4.97978L4.97986 2.31311L5.68697 3.02022L3.0203 5.68689L2.31319 4.97978ZM2.66675 4.83333L12.6667 4.83333L12.6667 5.83333L2.66675 5.83333L2.66675 4.83333ZM12.6667 4.83333C13.6793 4.83333 14.5001 5.65414 14.5001 6.66667L13.5001 6.66667C13.5001 6.20643 13.127 5.83333 12.6667 5.83333L12.6667 4.83333Z" fill="white"/>
</svg>
