<svg width="32" height="32" viewBox="0 0 32 32" fill="none" xmlns="http://www.w3.org/2000/svg">
<circle cx="16" cy="16" r="16" fill="url(#paint0_linear_3448_26363)"/>
<path d="M10.9863 14.9318C10.9863 17.7569 13.2331 20.0549 15.9954 20.0549C18.7576 20.0549 21.0044 17.7569 21.0044 14.9318C21.0044 12.1336 18.8237 9.87618 16.1011 9.80859H15.8896C13.1803 9.87618 10.9863 12.1471 10.9863 14.9318Z" fill="white"/>
<path d="M23.0925 16.5497L26.8195 9.93959C27.335 9.03391 26.6874 7.89844 25.6697 7.89844H18.2817C18.176 7.89844 18.0967 7.97954 18.0967 8.08768C18.0967 8.14175 18.1231 8.18231 18.1495 8.22286C18.1628 8.23638 18.1892 8.24989 18.2156 8.26341C20.9779 9.19613 22.9075 11.8321 22.9075 14.9546C22.9075 14.9546 22.8943 15.4818 22.7621 16.4415C22.7489 16.5497 22.8414 16.6308 22.9471 16.6308C23 16.6173 23.0529 16.5902 23.0925 16.5497Z" fill="white"/>
<path d="M9.05628 16.6173C9.16201 16.6173 9.26774 16.5362 9.24131 16.428C9.10915 15.7657 9.09593 14.9411 9.09593 14.9411C9.09593 11.8185 11.0387 9.19613 13.7878 8.26341C13.8142 8.24989 13.8274 8.23638 13.8539 8.22286C13.8935 8.18231 13.9067 8.14175 13.9067 8.08768C13.9067 7.97954 13.8274 7.89844 13.7217 7.89844H6.33369C5.3028 7.89844 4.66841 9.03391 5.18386 9.93959L8.9109 16.5497C8.93733 16.5902 9.00341 16.6173 9.05628 16.6173Z" fill="white"/>
<path d="M20.8573 20.2556C20.8044 20.161 20.6722 20.1069 20.6062 20.188C20.2097 20.5935 19.4299 21.0531 19.4299 21.0531C16.7734 22.6077 13.575 22.1886 11.4207 20.215C11.4075 20.2015 11.3811 20.188 11.3546 20.1745C11.3018 20.161 11.2621 20.161 11.2092 20.188C11.1167 20.2421 11.0903 20.3502 11.1432 20.4448L14.8173 27.0144C15.3328 27.9201 16.6016 27.9336 17.1302 27.0279L20.8837 20.4313C20.8837 20.3773 20.8837 20.3097 20.8573 20.2556Z" fill="white"/>
<defs>
<linearGradient id="paint0_linear_3448_26363" x1="0" y1="0" x2="30.279" y2="5.67835" gradientUnits="userSpaceOnUse">
<stop offset="0.244792" stop-color="#00FFFE"/>
<stop offset="1" stop-color="#00A1FA"/>
</linearGradient>
</defs>
</svg>
