<svg width="19" height="19" viewBox="0 0 19 19" fill="none" xmlns="http://www.w3.org/2000/svg">
<path d="M16.25 15.0002C14.1825 15.0002 12.5 13.3177 12.5 11.2502C12.5 9.18266 14.1825 7.50016 16.25 7.50016H18.3333V5.8335C18.3333 4.91433 17.5858 4.16683 16.6667 4.16683H15.8333V2.50016C15.8333 1.581 15.0858 0.833496 14.1667 0.833496H2.5C1.26417 0.833496 0.2425 1.73683 0.0425 2.916C0.0241667 2.98433 0 3.051 0 3.12516V15.8335C0 17.2118 1.12167 18.3335 2.5 18.3335H16.6667C17.5858 18.3335 18.3333 17.586 18.3333 16.6668V15.0002H16.25ZM1.66667 3.3335C1.66667 2.87433 2.04 2.50016 2.5 2.50016H14.1667V4.16683H2.5C2.04 4.16683 1.66667 3.79266 1.66667 3.3335Z" fill="url(#paint0_linear_4744_47941)"/>
<defs>
<linearGradient id="paint0_linear_4744_47941" x1="0" y1="0.833496" x2="18.9376" y2="1.51386" gradientUnits="userSpaceOnUse">
<stop stop-color="#0FE3E3"/>
<stop offset="1" stop-color="#02A4FF"/>
</linearGradient>
</defs>
</svg>
