<svg width="222" height="221" viewBox="0 0 222 221" fill="none" xmlns="http://www.w3.org/2000/svg">
<path d="M120.712 110.5H111H101.288C72.4118 137.175 46.2539 162.858 46.2539 188.627C46.2539 198.033 50.1296 207.006 56.9141 214.525H111H165.086C171.87 207.006 175.746 198.033 175.746 188.627C175.746 162.858 149.588 137.175 120.712 110.5Z" fill="#F7F0EB"/>
<path d="M175.746 188.627C175.746 162.858 149.588 137.175 120.712 110.5H111V214.525H165.086C171.87 207.006 175.746 198.033 175.746 188.627Z" fill="#E1D3CE"/>
<path d="M111 155.822C107.421 155.822 104.525 158.718 104.525 162.297V175.246C104.525 178.825 107.421 181.721 111 181.721C114.579 181.721 117.475 178.825 117.475 175.246V162.297C117.475 158.718 114.579 155.822 111 155.822Z" fill="#FABE2C"/>
<path d="M117.475 175.246V162.297C117.475 158.718 114.579 155.822 111 155.822V181.721C114.579 181.721 117.475 178.825 117.475 175.246Z" fill="#FF9100"/>
<path d="M111 168.771C95.6165 168.771 63.3764 187.97 59.7217 213.647H111H162.279C158.624 187.97 126.384 168.771 111 168.771Z" fill="#FABE2C"/>
<path d="M111 168.771V213.647H162.278C158.624 187.97 126.384 168.771 111 168.771Z" fill="#FF9100"/>
<path d="M165.128 6.47461H111H56.8723C50.1387 13.9847 46.2539 22.9197 46.2539 32.373C46.2539 36.2578 46.9014 40.2721 48.0668 44.1564L69.2673 57.6504L111 58.1575L155.484 58.6979L173.545 45.7099C174.969 41.308 175.746 36.7754 175.746 32.373C175.746 22.9197 171.861 13.9847 165.128 6.47461Z" fill="#F7F0EB"/>
<path d="M173.545 45.7103C174.969 41.308 175.746 36.7754 175.746 32.373C175.746 22.9197 171.861 13.9847 165.128 6.47461H111V58.1575L155.484 58.6979L173.545 45.7103Z" fill="#E1D3CE"/>
<path d="M182.221 0H111H39.7793C36.2006 0 33.3047 2.89588 33.3047 6.47461C33.3047 10.0533 36.2006 12.9492 39.7793 12.9492H111H182.221C185.799 12.9492 188.695 10.0533 188.695 6.47461C188.695 2.89588 185.799 0 182.221 0Z" fill="#8C4A37"/>
<path d="M188.695 6.47461C188.695 2.89588 185.799 0 182.221 0H111V12.9492H182.221C185.799 12.9492 188.695 10.0533 188.695 6.47461Z" fill="#663325"/>
<path d="M111 104.025C107.421 104.025 104.525 106.921 104.525 110.5V136.398C104.525 139.977 107.421 142.873 111 142.873C114.579 142.873 117.475 139.977 117.475 136.398V110.5C117.475 106.921 114.579 104.025 111 104.025Z" fill="#FABE2C"/>
<path d="M117.475 136.398V110.5C117.475 106.921 114.579 104.025 111 104.025V142.873C114.579 142.873 117.475 139.977 117.475 136.398Z" fill="#FF9100"/>
<path d="M143.373 51.7969C127.187 51.7969 113.72 45.9697 113.59 45.8398C113.446 45.782 112.475 45.3719 111 44.8177C105.849 42.8839 93.4224 38.8477 78.6271 38.8477C65.4184 38.8477 54.0231 42.085 48.0669 44.1564C49.1024 48.1707 50.7858 52.1849 52.9876 56.1992C62.57 73.9396 81.2169 92.1117 101.288 110.5C101.935 111.018 104.396 113.219 106.597 115.291C107.827 116.456 109.413 117.039 111 117.039C112.586 117.039 114.173 116.456 115.403 115.291C117.604 113.219 120.065 111.018 120.712 110.5C138.581 94.0541 155.286 77.6953 165.516 61.8968C169.142 56.4586 171.861 51.1494 173.545 45.7103C172.249 45.7103 161.267 51.7969 143.373 51.7969Z" fill="#FABE2C"/>
<path d="M120.712 110.501C138.582 94.0547 155.286 77.696 165.517 61.8975C169.142 56.4593 171.862 51.1501 173.545 45.711C172.249 45.711 161.267 51.7976 143.373 51.7976C127.187 51.7976 113.72 45.9704 113.59 45.8405C113.446 45.7826 112.475 45.3726 111 44.8184V117.04C112.586 117.04 114.173 116.457 115.403 115.292C117.604 113.22 120.064 111.018 120.712 110.501Z" fill="#FF9100"/>
<path d="M182.221 208.051H111H39.7793C36.2006 208.051 33.3047 210.947 33.3047 214.525C33.3047 218.104 36.2006 221 39.7793 221H111H182.221C185.799 221 188.695 218.104 188.695 214.525C188.695 210.947 185.799 208.051 182.221 208.051Z" fill="#8C4A37"/>
<path d="M188.695 214.525C188.695 210.947 185.799 208.051 182.221 208.051H111V221H182.221C185.799 221 188.695 218.104 188.695 214.525Z" fill="#663325"/>
</svg>
