<svg width="17" height="16" viewBox="0 0 17 16" fill="none" xmlns="http://www.w3.org/2000/svg">
<path d="M8.25 1C4.38438 1 1.25 4.13438 1.25 8C1.25 11.8656 4.38438 15 8.25 15C12.1156 15 15.25 11.8656 15.25 8C15.25 4.13438 12.1156 1 8.25 1ZM8.25 13.8125C5.04063 13.8125 2.4375 11.2094 2.4375 8C2.4375 4.79063 5.04063 2.1875 8.25 2.1875C11.4594 2.1875 14.0625 4.79063 14.0625 8C14.0625 11.2094 11.4594 13.8125 8.25 13.8125Z" fill="white"/>
<path d="M7.5 5.25C7.5 5.44891 7.57902 5.63968 7.71967 5.78033C7.86032 5.92098 8.05109 6 8.25 6C8.44891 6 8.63968 5.92098 8.78033 5.78033C8.92098 5.63968 9 5.44891 9 5.25C9 5.05109 8.92098 4.86032 8.78033 4.71967C8.63968 4.57902 8.44891 4.5 8.25 4.5C8.05109 4.5 7.86032 4.57902 7.71967 4.71967C7.57902 4.86032 7.5 5.05109 7.5 5.25ZM8.625 7H7.875C7.80625 7 7.75 7.05625 7.75 7.125V11.375C7.75 11.4437 7.80625 11.5 7.875 11.5H8.625C8.69375 11.5 8.75 11.4437 8.75 11.375V7.125C8.75 7.05625 8.69375 7 8.625 7Z" fill="white"/>
</svg>
