<svg width="20" height="20" viewBox="0 0 20 20" fill="none" xmlns="http://www.w3.org/2000/svg">
<circle cx="10" cy="10" r="9" stroke="white" stroke-opacity="0.3" stroke-width="2"/>
<mask id="path-2-inside-1_10235_31676" fill="white">
<path d="M0.401443 12.8049C0.923182 14.5903 1.93254 16.1948 3.31608 17.4381C4.69962 18.6813 6.40249 19.5141 8.2333 19.8427C10.0641 20.1713 11.9503 19.9828 13.6798 19.2983C15.4094 18.6138 16.9138 17.4605 18.0239 15.9681C19.134 14.4756 19.8058 12.703 19.9638 10.8497C20.1219 8.99634 19.7599 7.13565 18.9185 5.47674C18.0772 3.81783 16.7898 2.42646 15.2011 1.45902C13.6124 0.491574 11.7854 -0.0135991 9.92539 0.000278313L9.938 1.6905C11.4836 1.67897 13.0018 2.09875 14.322 2.90267C15.6421 3.70659 16.7119 4.86278 17.4111 6.24129C18.1102 7.6198 18.411 9.16598 18.2797 10.7061C18.1483 12.2461 17.5901 13.7191 16.6676 14.9593C15.7452 16.1995 14.4951 17.1579 13.0579 17.7267C11.6206 18.2954 10.0533 18.4521 8.53192 18.179C7.01057 17.9059 5.59553 17.214 4.44584 16.1809C3.29616 15.1477 2.45741 13.8145 2.02386 12.3308L0.401443 12.8049Z"/>
</mask>
<path d="M0.401443 12.8049C0.923182 14.5903 1.93254 16.1948 3.31608 17.4381C4.69962 18.6813 6.40249 19.5141 8.2333 19.8427C10.0641 20.1713 11.9503 19.9828 13.6798 19.2983C15.4094 18.6138 16.9138 17.4605 18.0239 15.9681C19.134 14.4756 19.8058 12.703 19.9638 10.8497C20.1219 8.99634 19.7599 7.13565 18.9185 5.47674C18.0772 3.81783 16.7898 2.42646 15.2011 1.45902C13.6124 0.491574 11.7854 -0.0135991 9.92539 0.000278313L9.938 1.6905C11.4836 1.67897 13.0018 2.09875 14.322 2.90267C15.6421 3.70659 16.7119 4.86278 17.4111 6.24129C18.1102 7.6198 18.411 9.16598 18.2797 10.7061C18.1483 12.2461 17.5901 13.7191 16.6676 14.9593C15.7452 16.1995 14.4951 17.1579 13.0579 17.7267C11.6206 18.2954 10.0533 18.4521 8.53192 18.179C7.01057 17.9059 5.59553 17.214 4.44584 16.1809C3.29616 15.1477 2.45741 13.8145 2.02386 12.3308L0.401443 12.8049Z" stroke="url(#paint0_linear_10235_31676)" stroke-width="8" mask="url(#path-2-inside-1_10235_31676)"/>
<defs>
<linearGradient id="paint0_linear_10235_31676" x1="0" y1="0" x2="20.6616" y2="0.708559" gradientUnits="userSpaceOnUse">
<stop stop-color="#0FE3E3"/>
<stop offset="1" stop-color="#02A4FF"/>
</linearGradient>
</defs>
</svg>
