<svg width="17" height="16" viewBox="0 0 17 16" fill="none" xmlns="http://www.w3.org/2000/svg">
<path d="M8.5 15C4.63401 15 1.5 11.866 1.5 8C1.5 4.13401 4.63401 1 8.5 1C12.366 1 15.5 4.13401 15.5 8C15.5 11.866 12.366 15 8.5 15ZM8.5 16C12.9183 16 16.5 12.4183 16.5 8C16.5 3.58172 12.9183 0 8.5 0C4.08172 0 0.5 3.58172 0.5 8C0.5 12.4183 4.08172 16 8.5 16Z" fill="#FAAD14"/>
<path d="M5.75511 5.78615C5.74752 5.92237 5.8599 6.03271 5.99634 6.03271H6.82082C6.95889 6.03271 7.06868 5.92013 7.08723 5.78331C7.17618 5.12718 7.6265 4.64893 8.42922 4.64893C9.11477 4.64893 9.74318 4.9917 9.74318 5.81689C9.74318 6.45166 9.36867 6.74365 8.77834 7.18799C8.10549 7.67676 7.57229 8.24805 7.61037 9.1748L7.61334 9.39161C7.61521 9.52833 7.72658 9.63818 7.86332 9.63818H8.67434C8.81241 9.63818 8.92434 9.52625 8.92434 9.38818V9.28271C8.92434 8.56543 9.19729 8.35596 9.93361 7.79736C10.543 7.33398 11.1778 6.81982 11.1778 5.74072C11.1778 4.22998 9.90188 3.5 8.50539 3.5C7.23831 3.5 5.84964 4.09061 5.75511 5.78615ZM7.31203 11.5488C7.31203 12.082 7.73732 12.4756 8.32131 12.4756C8.93068 12.4756 9.34963 12.082 9.34963 11.5488C9.34963 10.9966 8.93068 10.6094 8.32131 10.6094C7.73732 10.6094 7.31203 10.9966 7.31203 11.5488Z" fill="#FAAD14"/>
</svg>
