<svg width="24" height="24" viewBox="0 0 24 24" fill="none" xmlns="http://www.w3.org/2000/svg">
<path d="M5.25 20.25C5.25 20.6642 4.91421 21 4.5 21C4.08579 21 3.75 20.6642 3.75 20.25L3.75 7.06066L2.03033 8.78033C1.73744 9.07322 1.26256 9.07322 0.96967 8.78033C0.676777 8.48744 0.676777 8.01256 0.96967 7.71967L3.96843 4.72091L3.97955 4.70997C4.04913 4.64287 4.12848 4.59184 4.21291 4.55691C4.30134 4.52024 4.39831 4.5 4.5 4.5C4.60169 4.5 4.69866 4.52024 4.78709 4.55691C4.87555 4.59351 4.95842 4.64776 5.03033 4.71967L8.03033 7.71967C8.32322 8.01256 8.32322 8.48744 8.03033 8.78033C7.73744 9.07322 7.26256 9.07322 6.96967 8.78033L5.25 7.06066L5.25 20.25Z" fill="white"/>
<path d="M11.25 6C10.8358 6 10.5 5.66421 10.5 5.25C10.5 4.83579 10.8358 4.5 11.25 4.5H12.75C13.1642 4.5 13.5 4.83579 13.5 5.25C13.5 5.66421 13.1642 6 12.75 6H11.25Z" fill="white"/>
<path d="M11.25 10.5C10.8358 10.5 10.5 10.1642 10.5 9.75C10.5 9.33579 10.8358 9 11.25 9H15.75C16.1642 9 16.5 9.33579 16.5 9.75C16.5 10.1642 16.1642 10.5 15.75 10.5H11.25Z" fill="white"/>
<path d="M11.25 15C10.8358 15 10.5 14.6642 10.5 14.25C10.5 13.8358 10.8358 13.5 11.25 13.5H18.75C19.1642 13.5 19.5 13.8358 19.5 14.25C19.5 14.6642 19.1642 15 18.75 15H11.25Z" fill="white"/>
<path d="M10.5 18.75C10.5 19.1642 10.8358 19.5 11.25 19.5H21.75C22.1642 19.5 22.5 19.1642 22.5 18.75C22.5 18.3358 22.1642 18 21.75 18H11.25C10.8358 18 10.5 18.3358 10.5 18.75Z" fill="white"/>
</svg>
