<svg width="24" height="24" viewBox="0 0 24 24" fill="none" xmlns="http://www.w3.org/2000/svg">
<path d="M5.25 3.75C5.25 3.33579 4.91421 3 4.5 3C4.08579 3 3.75 3.33579 3.75 3.75L3.75 16.9393L2.03033 15.2197C1.73744 14.9268 1.26256 14.9268 0.96967 15.2197C0.676777 15.5126 0.676777 15.9874 0.96967 16.2803L3.9684 19.2791L3.97955 19.29C4.04913 19.3571 4.12848 19.4082 4.21291 19.4431C4.30134 19.4798 4.39831 19.5 4.5 19.5C4.60169 19.5 4.69866 19.4798 4.78709 19.4431C4.87555 19.4065 4.95842 19.3522 5.03033 19.2803L8.03033 16.2803C8.32322 15.9874 8.32322 15.5126 8.03033 15.2197C7.73744 14.9268 7.26256 14.9268 6.96967 15.2197L5.25 16.9393L5.25 3.75Z" fill="white"/>
<path d="M10.5 5.25C10.5 4.83579 10.8358 4.5 11.25 4.5H21.75C22.1642 4.5 22.5 4.83579 22.5 5.25C22.5 5.66421 22.1642 6 21.75 6H11.25C10.8358 6 10.5 5.66421 10.5 5.25Z" fill="white"/>
<path d="M11.25 9C10.8358 9 10.5 9.33579 10.5 9.75C10.5 10.1642 10.8358 10.5 11.25 10.5H18.75C19.1642 10.5 19.5 10.1642 19.5 9.75C19.5 9.33579 19.1642 9 18.75 9H11.25Z" fill="white"/>
<path d="M11.25 13.5C10.8358 13.5 10.5 13.8358 10.5 14.25C10.5 14.6642 10.8358 15 11.25 15H15.75C16.1642 15 16.5 14.6642 16.5 14.25C16.5 13.8358 16.1642 13.5 15.75 13.5H11.25Z" fill="white"/>
<path d="M11.25 18C10.8358 18 10.5 18.3358 10.5 18.75C10.5 19.1642 10.8358 19.5 11.25 19.5H12.75C13.1642 19.5 13.5 19.1642 13.5 18.75C13.5 18.3358 13.1642 18 12.75 18H11.25Z" fill="white"/>
</svg>
