<svg width="24" height="24" viewBox="0 0 24 24" fill="none" xmlns="http://www.w3.org/2000/svg">
<path d="M19.9682 15.8016L12.5454 8.20625C12.2759 7.93125 11.7244 7.93125 11.457 8.20625L4.03213 15.8016C4.01386 15.8202 4.00291 15.8423 4.00051 15.8653C3.9981 15.8883 4.00432 15.9114 4.01849 15.932C4.03266 15.9525 4.05422 15.9697 4.08078 15.9817C4.10734 15.9938 4.13786 16.0001 4.16896 16H5.74783C5.85519 16 5.95624 15.9609 6.0194 15.8969L12.0001 9.77812L17.9809 15.8969C18.044 15.9609 18.1451 16 18.2525 16H19.8313C19.9682 16 20.0482 15.8844 19.9682 15.8016Z" fill="white"/>
</svg>
