<svg width="16" height="16" viewBox="0 0 16 16" fill="none" xmlns="http://www.w3.org/2000/svg">
<path d="M13.3333 10.6668L13.6869 11.0204L14.0405 10.6668L13.6869 10.3133L13.3333 10.6668ZM3.16668 9.3335C3.16668 9.05735 2.94282 8.8335 2.66668 8.8335C2.39053 8.8335 2.16668 9.05735 2.16668 9.3335L3.16668 9.3335ZM11.0202 13.687L13.6869 11.0204L12.9798 10.3133L10.3131 12.9799L11.0202 13.687ZM13.6869 10.3133L11.0202 7.64661L10.3131 8.35372L12.9798 11.0204L13.6869 10.3133ZM13.3333 10.1668L4.00001 10.1668L4.00001 11.1668L13.3333 11.1668L13.3333 10.1668ZM4.00001 10.1668C3.53977 10.1668 3.16668 9.79373 3.16668 9.3335L2.16668 9.3335C2.16668 10.346 2.98749 11.1668 4.00001 11.1668L4.00001 10.1668Z" fill="white"/>
<path d="M2.66666 5.33333L2.3131 5.68689L1.95955 5.33333L2.3131 4.97978L2.66666 5.33333ZM12.6667 5.33333L12.6667 5.83333L12.6667 5.33333ZM14.5 6.66667C14.5 6.94281 14.2761 7.16667 14 7.16667C13.7238 7.16667 13.5 6.94281 13.5 6.66667L14.5 6.66667ZM4.97977 8.35355L2.3131 5.68689L3.02021 4.97978L5.68688 7.64645L4.97977 8.35355ZM2.3131 4.97978L4.97977 2.31311L5.68688 3.02022L3.02021 5.68689L2.3131 4.97978ZM2.66666 4.83333L12.6667 4.83333L12.6667 5.83333L2.66666 5.83333L2.66666 4.83333ZM12.6667 4.83333C13.6792 4.83333 14.5 5.65414 14.5 6.66667L13.5 6.66667C13.5 6.20643 13.1269 5.83333 12.6667 5.83333L12.6667 4.83333Z" fill="white"/>
</svg>
