<svg width="18" height="18" viewBox="0 0 18 18" fill="none" xmlns="http://www.w3.org/2000/svg">
<mask id="mask0_8729_47485" style="mask-type:alpha" maskUnits="userSpaceOnUse" x="0" y="0" width="18" height="18">
<rect width="18" height="18" fill="#D9D9D9"/>
</mask>
<g mask="url(#mask0_8729_47485)">
<path d="M3.89456 3.89586L10.993 10.9943" stroke="white" stroke-width="1.5" stroke-linecap="round" stroke-linejoin="round"/>
<path d="M3.52637 6.96484L3.5187 3.52026L6.96387 3.52734" stroke="white" stroke-width="1.5" stroke-linecap="round" stroke-linejoin="round"/>
<path d="M11.2496 2.85156C10.8354 2.85156 10.4996 3.18735 10.4996 3.60156C10.4996 4.01578 10.8354 4.35156 11.2496 4.35156V2.85156ZM4.34961 10.8016C4.34961 10.3873 4.01382 10.0516 3.59961 10.0516C3.1854 10.0516 2.84961 10.3873 2.84961 10.8016H4.34961ZM11.2496 4.35156H14.1996V2.85156H11.2496V4.35156ZM15.4496 5.60156V14.2016H16.9496V5.60156H15.4496ZM14.1996 15.4516H5.59961V16.9516H14.1996V15.4516ZM4.34961 14.2016V10.8016H2.84961V14.2016H4.34961ZM5.59961 15.4516C4.90925 15.4516 4.34961 14.8919 4.34961 14.2016H2.84961C2.84961 15.7203 4.08083 16.9516 5.59961 16.9516V15.4516ZM15.4496 14.2016C15.4496 14.8919 14.89 15.4516 14.1996 15.4516V16.9516C15.7184 16.9516 16.9496 15.7203 16.9496 14.2016H15.4496ZM14.1996 4.35156C14.89 4.35156 15.4496 4.91121 15.4496 5.60156H16.9496C16.9496 4.08278 15.7184 2.85156 14.1996 2.85156V4.35156Z" fill="white"/>
</g>
</svg>
