<svg width="38" height="36" viewBox="0 0 38 36" fill="none" xmlns="http://www.w3.org/2000/svg">
<path d="M10.3066 12.8513C10.3066 17.9245 14.1758 22.051 18.9327 22.051C23.6896 22.051 27.5588 17.9245 27.5588 12.8513C27.5588 7.82668 23.8034 3.77299 19.1148 3.65162H18.7506C14.0848 3.77299 10.3066 7.85095 10.3066 12.8513Z" fill="url(#paint0_linear_3024_22464)"/>
<path d="M31.1554 15.7577L37.5738 3.88796C38.4615 2.26164 37.3462 0.222656 35.5937 0.222656H22.8707C22.6886 0.222656 22.5521 0.368298 22.5521 0.562486C22.5521 0.65958 22.5976 0.732401 22.6431 0.805222C22.6659 0.829495 22.7114 0.853769 22.7569 0.878042C27.5138 2.55292 30.8368 7.28626 30.8368 12.8935C30.8368 12.8935 30.814 13.8401 30.5864 15.5635C30.5637 15.7577 30.723 15.9034 30.9051 15.9034C30.9961 15.8791 31.0872 15.8306 31.1554 15.7577Z" fill="url(#paint1_linear_3024_22464)"/>
<path d="M6.98368 15.8791C7.16576 15.8791 7.34784 15.7335 7.30232 15.5393C7.07472 14.3499 7.05196 12.8692 7.05196 12.8692C7.05196 7.26199 10.3977 2.55292 15.1318 0.878042C15.1774 0.853769 15.2001 0.829495 15.2456 0.805222C15.3139 0.732401 15.3367 0.65958 15.3367 0.562486C15.3367 0.368298 15.2001 0.222656 15.018 0.222656H2.29507C0.519779 0.222656 -0.572711 2.26164 0.314937 3.88796L6.73331 15.7577C6.77884 15.8306 6.89264 15.8791 6.98368 15.8791Z" fill="url(#paint2_linear_3024_22464)"/>
<path d="M27.3091 22.4095C27.218 22.2396 26.9904 22.1425 26.8766 22.2881C26.1938 23.0163 24.851 23.8416 24.851 23.8416C20.2762 26.6331 14.7682 25.8806 11.0583 22.3367C11.0355 22.3124 10.99 22.2881 10.9445 22.2638C10.8534 22.2396 10.7851 22.2396 10.6941 22.2881C10.5348 22.3852 10.4893 22.5794 10.5803 22.7493L16.9076 34.5463C17.7953 36.1726 19.9803 36.1969 20.8907 34.5705L27.3546 22.725C27.3546 22.628 27.3546 22.5066 27.3091 22.4095Z" fill="url(#paint3_linear_3024_22464)"/>
<defs>
<linearGradient id="paint0_linear_3024_22464" x1="0" y1="0.222656" x2="35.6841" y2="7.35321" gradientUnits="userSpaceOnUse">
<stop offset="0.244792" stop-color="#00FFFE"/>
<stop offset="1" stop-color="#00A1FA"/>
</linearGradient>
<linearGradient id="paint1_linear_3024_22464" x1="0" y1="0.222656" x2="35.6841" y2="7.35321" gradientUnits="userSpaceOnUse">
<stop offset="0.244792" stop-color="#00FFFE"/>
<stop offset="1" stop-color="#00A1FA"/>
</linearGradient>
<linearGradient id="paint2_linear_3024_22464" x1="0" y1="0.222656" x2="35.6841" y2="7.35321" gradientUnits="userSpaceOnUse">
<stop offset="0.244792" stop-color="#00FFFE"/>
<stop offset="1" stop-color="#00A1FA"/>
</linearGradient>
<linearGradient id="paint3_linear_3024_22464" x1="0" y1="0.222656" x2="35.6841" y2="7.35321" gradientUnits="userSpaceOnUse">
<stop offset="0.244792" stop-color="#00FFFE"/>
<stop offset="1" stop-color="#00A1FA"/>
</linearGradient>
</defs>
</svg>
