<svg width="382" height="107" viewBox="0 0 382 107" fill="none" xmlns="http://www.w3.org/2000/svg">
<path d="M100.662 6.776H97.5664V23.312C97.5664 24.8 98.7904 26 100.278 26H109.134V22.928H100.662V6.776ZM110.714 26H113.786V17.936H123.026V26H126.122V9.464C126.122 7.976 124.898 6.776 123.41 6.776H113.402C111.938 6.776 110.714 7.976 110.714 9.464V26ZM123.026 14.864H113.786V9.848H123.026V14.864ZM141.871 6.776V22.952H132.631V6.776H129.559V23.336C129.559 24.824 130.759 26.024 132.247 26.024H142.255C143.719 26.024 144.943 24.824 144.943 23.336V6.776H141.871ZM163.529 6.776H160.457V20L150.449 7.496C150.113 7.088 149.609 6.776 149.297 6.776H148.121V26H148.145H151.217V13.328L161.009 25.328C161.321 25.712 161.825 26 162.161 26H163.529V6.776ZM180.79 22.952H170.014V9.872H180.79V6.776H169.63C168.142 6.776 166.918 8 166.918 9.488V23.336C166.918 24.824 168.142 26.024 169.63 26.024H180.79V22.952ZM195.238 6.776V14.864H185.998V6.776H182.926V26H185.998V17.936H195.238V26H198.31V6.776H195.238ZM219.875 26V16.4L226.787 6.776H222.947L218.339 13.184L213.707 6.776H209.867L216.803 16.4V26H219.875ZM241.653 6.776H231.669C230.181 6.776 228.957 7.976 228.957 9.464V23.312C228.957 24.8 230.181 26 231.669 26H241.653C243.141 26 244.365 24.8 244.365 23.312V9.464C244.365 7.976 243.141 6.776 241.653 6.776ZM241.269 22.928H232.053V9.848H241.269V22.928ZM259.925 6.776V22.952H250.685V6.776H247.613V23.336C247.613 24.824 248.813 26.024 250.301 26.024H260.309C261.773 26.024 262.997 24.824 262.997 23.336V6.776H259.925ZM266.199 26H269.271V17.936H273.495L278.127 26H281.583L276.951 17.936H278.895C280.359 17.936 281.583 16.712 281.583 15.224V9.464C281.583 7.976 280.359 6.776 278.895 6.776H266.199V26ZM269.271 14.864V9.848H278.511V14.864H269.271Z" fill="white"/>
<path d="M92.504 77.104V87.856H71V94H93.272C96.248 94 98.696 91.6 98.696 88.624V76.336C98.696 73.36 96.248 70.96 93.272 70.96L77.144 70.912V61.696H98.696V55.552H76.376C73.4 55.552 70.952 57.952 70.952 60.928L71 71.728C71 74.656 73.4 77.104 76.376 77.104H92.504ZM103.636 55.552V61.696H114.436V94H120.58V61.696H131.332V55.552H103.636ZM135.076 94H141.22V77.872H159.7V94H165.892V60.928C165.892 57.952 163.444 55.552 160.468 55.552H140.452C137.524 55.552 135.076 57.952 135.076 60.928V94ZM159.7 71.728H141.22V61.696H159.7V71.728ZM172.766 94H178.91V77.872H187.358L196.622 94H203.534L194.27 77.872H198.158C201.086 77.872 203.534 75.424 203.534 72.448V60.928C203.534 57.952 201.086 55.552 198.158 55.552H172.766V94ZM178.91 71.728V61.696H197.39V71.728H178.91ZM207.698 55.552V61.696H218.498V94H224.642V61.696H235.394V55.552H207.698ZM263.858 55.552V87.904H245.378V55.552H239.234V88.672C239.234 91.648 241.634 94.048 244.61 94.048H264.626C267.554 94.048 270.002 91.648 270.002 88.672V55.552H263.858ZM276.406 94H282.55V77.872H301.798C304.726 77.872 307.174 75.424 307.174 72.496V60.928C307.174 57.952 304.726 55.552 301.798 55.552H276.406V94ZM301.03 71.728H282.55V61.696H301.03V71.728Z" fill="url(#paint0_linear_11534_236553)"/>
<defs>
<linearGradient id="paint0_linear_11534_236553" x1="0" y1="42" x2="379.678" y2="118.521" gradientUnits="userSpaceOnUse">
<stop stop-color="#0FE3E3"/>
<stop offset="1" stop-color="#02A4FF"/>
</linearGradient>
</defs>
</svg>
