<svg width="501" height="234" viewBox="0 0 501 234" fill="none" xmlns="http://www.w3.org/2000/svg">
<path d="M8.224 15.144H1V53.728C1 57.2 3.856 60 7.328 60H27.992V52.832H8.224V15.144ZM31.6771 60H38.8451V41.184H60.4051V60H67.6291V21.416C67.6291 17.944 64.7731 15.144 61.3011 15.144H37.9491C34.5331 15.144 31.6771 17.944 31.6771 21.416V60ZM60.4051 34.016H38.8451V22.312H60.4051V34.016ZM104.376 15.144V52.888H82.8164V15.144H75.6484V53.784C75.6484 57.256 78.4484 60.056 81.9204 60.056H105.272C108.688 60.056 111.544 57.256 111.544 53.784V15.144H104.376ZM154.912 15.144H147.744V46L124.392 16.824C123.608 15.872 122.432 15.144 121.704 15.144H118.96V60H119.016H126.184V30.432L149.032 58.432C149.76 59.328 150.936 60 151.72 60H154.912V15.144ZM195.188 52.888H170.044V22.368H195.188V15.144H169.148C165.676 15.144 162.82 18 162.82 21.472V53.784C162.82 57.256 165.676 60.056 169.148 60.056H195.188V52.888ZM228.9 15.144V34.016H207.34V15.144H200.172V60H207.34V41.184H228.9V60H236.068V15.144H228.9ZM286.388 60V37.6L302.516 15.144H293.556L282.804 30.096L271.996 15.144H263.036L279.22 37.6V60H286.388ZM337.202 15.144H313.906C310.434 15.144 307.578 17.944 307.578 21.416V53.728C307.578 57.2 310.434 60 313.906 60H337.202C340.674 60 343.53 57.2 343.53 53.728V21.416C343.53 17.944 340.674 15.144 337.202 15.144ZM336.306 52.832H314.802V22.312H336.306V52.832ZM379.837 15.144V52.888H358.277V15.144H351.109V53.784C351.109 57.256 353.909 60.056 357.381 60.056H380.733C384.149 60.056 387.005 57.256 387.005 53.784V15.144H379.837ZM394.477 60H401.645V41.184H411.501L422.309 60H430.373L419.565 41.184H424.101C427.517 41.184 430.373 38.328 430.373 34.856V21.416C430.373 17.944 427.517 15.144 424.101 15.144H394.477V60ZM401.645 34.016V22.312H423.205V34.016H401.645Z" fill="white"/>
<path d="M45.8 171.8V194.2H1V207H47.4C53.6 207 58.7 202 58.7 195.8V170.2C58.7 164 53.6 159 47.4 159L13.8 158.9V139.7H58.7V126.9H12.2C6 126.9 0.9 131.9 0.9 138.1L1 160.6C1 166.7 6 171.8 12.2 171.8H45.8ZM68.9914 126.9V139.7H91.4914V207H104.291V139.7H126.691V126.9H68.9914ZM134.491 207H147.291V173.4H185.791V207H198.691V138.1C198.691 131.9 193.591 126.9 187.391 126.9H145.691C139.591 126.9 134.491 131.9 134.491 138.1V207ZM185.791 160.6H147.291V139.7H185.791V160.6ZM213.012 207H225.812V173.4H243.412L262.712 207H277.112L257.812 173.4H265.912C272.012 173.4 277.112 168.3 277.112 162.1V138.1C277.112 131.9 272.012 126.9 265.912 126.9H213.012V207ZM225.812 160.6V139.7H264.312V160.6H225.812ZM285.788 126.9V139.7H308.288V207H321.088V139.7H343.488V126.9H285.788ZM402.788 126.9V194.3H364.288V126.9H351.488V195.9C351.488 202.1 356.488 207.1 362.688 207.1H404.388C410.488 207.1 415.588 202.1 415.588 195.9V126.9H402.788ZM428.93 207H441.73V173.4H481.83C487.93 173.4 493.03 168.3 493.03 162.2V138.1C493.03 131.9 487.93 126.9 481.83 126.9H428.93V207ZM480.23 160.6H441.73V139.7H480.23V160.6Z" fill="url(#paint0_linear_11150_237013)"/>
<defs>
<linearGradient id="paint0_linear_11150_237013" x1="1" y1="99" x2="509.936" y2="163.642" gradientUnits="userSpaceOnUse">
<stop stop-color="#0FE3E3"/>
<stop offset="1" stop-color="#02A4FF"/>
</linearGradient>
</defs>
</svg>
