<svg width="814" height="734" viewBox="0 0 814 734" fill="none" xmlns="http://www.w3.org/2000/svg">
<g style="mix-blend-mode:overlay" opacity="0.2">
<g style="mix-blend-mode:overlay">
<path style="mix-blend-mode:overlay" d="M632.845 226.17L633.101 136.94L808.454 238.173L808.198 327.403L632.845 226.17Z" fill="url(#paint0_linear_11150_236864)"/>
<g style="mix-blend-mode:overlay">
<path style="mix-blend-mode:overlay" d="M808.454 238.172L633.101 136.939L632.845 226.169L808.198 327.402L808.454 238.172Z" fill="url(#paint1_linear_11150_236864)"/>
</g>
</g>
</g>
<g style="mix-blend-mode:overlay">
<path d="M720.684 212.087C722.586 213.188 724.531 215.602 726.553 219.765C738.617 244.736 743.113 265.775 749.707 269.58C751.883 270.834 754.28 270.22 757.266 267.259C763.528 261.014 768.127 259.317 772.094 261.603C779.192 265.707 784.294 282.607 793.422 309.208L651.802 227.46C653.175 222.717 657.091 201.747 667.295 207.634C671.356 209.988 676.432 216.609 682.736 230.233C684.844 234.806 686.891 237.408 688.87 238.551C694.441 241.768 699.586 233.535 704.739 225.302C709.892 217.069 715.053 208.854 720.684 212.087Z" fill="white"/>
</g>
<g style="mix-blend-mode:overlay" opacity="0.2">
<g style="mix-blend-mode:overlay">
<path style="mix-blend-mode:overlay" d="M168.868 146.007L168.629 60.6938L0.97998 157.49L1.21886 242.795L168.868 146.007Z" fill="url(#paint2_linear_11150_236864)"/>
<g style="mix-blend-mode:overlay">
<path style="mix-blend-mode:overlay" d="M0.97998 157.49L168.629 60.6938L168.868 146.007L1.21886 242.795L0.97998 157.49Z" fill="url(#paint3_linear_11150_236864)"/>
</g>
</g>
</g>
<g style="mix-blend-mode:overlay">
<path d="M84.8944 132.543C83.0773 133.592 81.2089 135.896 79.2808 139.888C67.7464 163.776 63.4552 183.876 57.142 187.519C55.0689 188.713 52.7654 188.125 49.9245 185.292C43.9525 179.32 39.5418 177.699 35.7454 179.892C28.9203 183.808 24.083 199.966 15.3384 225.398L150.714 147.242C149.4 142.712 145.663 122.664 135.903 128.294C132.022 130.538 127.176 136.868 121.144 149.896C119.122 154.272 117.169 156.721 115.275 157.847C109.942 160.927 105.037 153.052 100.106 145.186C95.1747 137.32 90.2521 129.446 84.8944 132.543Z" fill="white"/>
</g>
<path d="M668.131 508.419C668.131 508.752 668.08 509.076 668.02 509.4C667.96 509.724 667.892 509.92 667.824 510.185C667.755 510.449 667.662 510.799 667.551 511.106C667.44 511.413 667.346 511.609 667.244 511.857C667.141 512.104 666.962 512.497 666.791 512.821C666.621 513.145 666.518 513.273 666.373 513.503C666.228 513.734 665.921 514.22 665.657 514.578C665.392 514.937 665.145 515.252 664.855 515.577L664.641 515.824C664.233 516.271 663.8 516.695 663.345 517.095C663.055 517.36 662.73 517.616 662.415 517.871C662.099 518.127 661.852 518.332 661.562 518.554C661.272 518.776 660.836 519.04 660.47 519.288C660.103 519.535 659.71 519.791 659.292 520.038L356.25 696.125C355.313 696.665 354.348 697.155 353.358 697.593L352.505 697.968C351.729 698.292 350.927 698.591 350.108 698.872L349.212 699.18C348.692 699.342 348.163 699.487 347.634 699.632C347.105 699.777 346.832 699.862 346.414 699.956C345.859 700.092 345.288 700.203 344.708 700.323C344.315 700.4 343.931 700.485 343.539 700.553C342.387 700.758 341.218 700.92 340.032 701.048L338.957 701.133C338.258 701.193 337.558 701.244 336.859 701.27C336.415 701.27 336.006 701.27 335.528 701.27C335.05 701.27 334.393 701.27 333.822 701.27H332.422C331.893 701.27 331.373 701.227 330.853 701.184C330.332 701.142 329.897 701.116 329.428 701.065C328.959 701.014 328.404 700.963 327.892 700.894L326.51 700.707C325.964 700.621 325.418 700.519 324.881 700.417L323.601 700.161C322.953 700.016 322.321 699.862 321.681 699.691C321.332 699.598 320.982 699.512 320.641 699.41C319.506 699.077 318.405 698.71 317.339 698.301C316.81 698.088 316.298 697.866 315.795 697.635C315.53 697.525 315.257 697.414 315.001 697.294C314.225 696.927 313.466 696.535 312.749 696.117L172.639 615.248C166.582 611.75 163.553 607.152 163.57 602.554L163.382 634.811C163.382 639.4 166.394 643.999 172.451 647.497L312.553 728.391C313.278 728.809 314.037 729.193 314.805 729.568L315.599 729.91C316.059 730.114 316.503 730.319 316.981 730.507L317.151 730.566C318.218 730.984 319.318 731.351 320.444 731.684L320.709 731.769C320.965 731.838 321.238 731.889 321.494 731.966C322.134 732.128 322.765 732.29 323.413 732.435L323.917 732.554L324.693 732.691C325.23 732.793 325.776 732.887 326.322 732.972C326.536 732.972 326.749 733.058 326.971 733.083L327.696 733.168L329.24 733.339L329.965 733.424H330.656L332.226 733.51L333.002 733.552H333.634C334.197 733.552 334.769 733.552 335.34 733.552C335.622 733.552 335.895 733.552 336.193 733.552H336.68C337.388 733.552 338.087 733.467 338.787 733.416L339.64 733.356H339.887C341.07 733.237 342.239 733.075 343.394 732.87H343.573C343.906 732.81 344.23 732.725 344.562 732.657C345.126 732.546 345.697 732.435 346.269 732.298L347.489 731.974C348.018 731.829 348.547 731.684 349.067 731.522L349.408 731.42C349.596 731.36 349.775 731.275 349.963 731.215C350.816 730.933 351.575 730.635 352.36 730.302L353.213 729.927C354.211 729.474 355.193 728.997 356.105 728.468L659.07 552.287L659.446 552.074C659.727 551.894 659.975 551.715 660.248 551.536C660.521 551.357 660.999 551.058 661.34 550.802C661.681 550.547 661.92 550.35 662.193 550.12C662.466 549.89 662.841 549.617 663.131 549.352L663.319 549.199C663.712 548.832 664.078 548.456 664.428 548.072C664.505 547.996 664.565 547.91 664.641 547.834C664.838 547.603 665.042 547.381 665.222 547.143C665.307 547.04 665.358 546.929 665.443 546.827C665.699 546.477 665.938 546.119 666.16 545.76C666.254 545.607 666.373 545.462 666.467 545.308C666.561 545.155 666.535 545.146 666.578 545.069C666.749 544.754 666.885 544.43 667.022 544.114C667.158 543.798 667.218 543.747 667.286 543.559C667.354 543.372 667.286 543.423 667.337 543.363C667.441 543.061 667.529 542.753 667.602 542.442C667.662 542.228 667.738 542.024 667.781 541.819C667.781 541.768 667.781 541.708 667.781 541.648C667.835 541.326 667.872 541.002 667.892 540.676C667.892 540.471 667.96 540.258 667.969 540.053V539.78L668.165 507.523C668.182 507.822 668.131 508.12 668.131 508.419Z" fill="url(#paint4_linear_11150_236864)"/>
<path d="M659.122 494.833C671.151 501.777 671.219 513.09 659.267 520.034L356.251 696.121C344.307 703.074 324.779 703.074 312.741 696.121L172.639 615.244C160.593 608.291 160.542 596.987 172.494 590.043L475.51 413.904C487.454 406.96 506.974 406.951 519.02 413.904L659.122 494.833ZM579.32 550.287L645.293 511.947C647.443 510.701 648.526 509.055 648.526 507.417C648.526 505.778 647.417 504.14 645.25 502.886L625.073 491.233C621.823 489.364 616.969 488.784 612.737 489.782L609.879 490.448L608.685 490.729C601.934 492.197 594.881 491.214 588.79 487.957L531.092 454.684C525.589 451.511 523.644 446.921 526.212 443.184C526.57 442.664 526.946 442.126 527.296 441.597C527.483 441.341 527.654 441.085 527.833 440.838C529.539 438.372 528.516 435.566 525.274 433.697L505.131 422.009C502.703 420.775 500.019 420.132 497.295 420.132C494.572 420.132 491.887 420.775 489.459 422.009L423.495 460.341L270.784 549.067L186.46 598.071C184.293 599.333 183.226 600.971 183.235 602.618C183.244 604.264 184.344 605.894 186.511 607.148L214.016 623.025L298.05 671.551L326.63 688.051C329.055 689.287 331.739 689.932 334.462 689.932C337.184 689.932 339.868 689.287 342.293 688.051L426.617 639.047L579.328 550.321" fill="url(#paint5_linear_11150_236864)"/>
<path d="M645.25 502.907C647.417 504.161 648.5 505.799 648.526 507.437C648.552 509.075 647.451 510.721 645.293 511.975L579.32 550.307L426.609 639.033L342.285 688.037C339.859 689.273 337.176 689.918 334.453 689.918C331.731 689.918 329.047 689.273 326.621 688.037L298.05 671.554L214.016 623.036L186.511 607.16C184.344 605.905 183.252 604.267 183.235 602.629C183.218 600.991 184.293 599.345 186.46 598.091L270.784 549.078L423.495 460.352L489.459 422.021C491.887 420.787 494.572 420.144 497.295 420.144C500.019 420.144 502.703 420.787 505.131 422.021L525.308 433.666C528.541 435.534 529.574 438.341 527.867 440.807C527.688 441.054 527.517 441.31 527.33 441.566C526.98 442.095 526.605 442.633 526.246 443.153C523.687 446.89 525.623 451.48 531.126 454.653L588.824 487.925C594.906 491.183 601.949 492.172 608.693 490.715L609.888 490.434L612.746 489.768C617.011 488.77 621.831 489.35 625.082 491.227L645.25 502.907Z" fill="url(#paint6_linear_11150_236864)"/>
<path d="M630.858 549.465C631.136 549.379 631.421 549.322 631.711 549.294H631.779C632.047 549.269 632.317 549.283 632.581 549.337H632.624C632.876 549.388 633.118 549.48 633.34 549.61L629.723 547.571C629.643 547.523 629.561 547.48 629.476 547.443L629.211 547.357H629.041H628.887H628.819H628.52H628.034H627.838C627.69 547.376 627.545 547.408 627.403 547.451L627.215 547.511L627.044 547.571L626.822 547.648C626.586 547.749 626.356 547.863 626.131 547.989L572.469 579.077C572.143 579.266 571.832 579.48 571.539 579.717L571.249 579.973C571.104 580.101 570.959 580.212 570.823 580.357L570.626 580.553L570.464 580.732L570.277 580.928C570.14 581.09 570.004 581.252 569.876 581.423L569.739 581.602C569.719 581.635 569.696 581.666 569.671 581.696L569.543 581.867L569.253 582.302L568.997 582.72V582.762C568.937 582.882 568.869 583.001 568.801 583.121L568.587 583.539C568.528 583.667 568.468 583.795 568.417 583.923C568.357 584.068 568.289 584.221 568.238 584.366C568.186 584.511 568.118 584.682 568.067 584.836C568.016 584.989 568.067 584.989 567.999 585.066V585.168L567.948 585.348C567.896 585.535 567.845 585.723 567.811 585.911C567.777 586.098 567.811 586.141 567.751 586.252C567.692 586.363 567.751 586.371 567.751 586.431V586.602C567.708 586.921 567.685 587.243 567.683 587.566C567.683 589.135 568.246 590.236 569.142 590.756L572.759 592.795C572.256 592.441 571.856 591.958 571.601 591.397C571.346 590.836 571.245 590.217 571.309 589.605C571.312 589.225 571.341 588.846 571.394 588.47C571.394 588.41 571.394 588.351 571.394 588.291C571.457 587.926 571.54 587.564 571.642 587.207C571.645 587.173 571.645 587.139 571.642 587.105C571.763 586.707 571.908 586.317 572.077 585.936V585.936C572.249 585.541 572.446 585.156 572.665 584.784C572.878 584.418 573.108 584.062 573.356 583.718L573.425 583.633C573.655 583.326 573.902 583.027 574.15 582.78L574.312 582.609C574.517 582.396 574.73 582.208 574.943 582.02L575.225 581.773C575.517 581.532 575.828 581.315 576.155 581.124L629.74 549.951C630.028 549.781 630.33 549.638 630.644 549.524L630.858 549.465Z" fill="url(#paint7_linear_11150_236864)"/>
<path d="M629.74 549.949C632.479 548.37 634.714 549.642 634.722 552.781C634.63 554.5 634.134 556.173 633.275 557.664C632.415 559.155 631.216 560.423 629.774 561.364L576.112 592.443C573.382 594.022 571.147 592.75 571.138 589.594C571.236 587.884 571.733 586.221 572.591 584.74C573.449 583.258 574.644 581.998 576.078 581.062L629.74 549.949Z" fill="url(#paint8_linear_11150_236864)"/>
<path d="M359.365 645.483L259.249 587.683C255.461 585.499 249.336 585.499 245.599 587.683L232.358 595.361C228.596 597.554 228.613 601.094 232.401 603.287L332.516 661.087C336.296 663.271 342.421 663.271 346.167 661.087L359.407 653.408C363.178 651.224 363.161 647.675 359.407 645.491" fill="url(#paint9_linear_11150_236864)"/>
<path d="M530.999 353.883L521.521 348.372C520.622 347.833 519.917 347.024 519.507 346.06L528.986 351.571C529.398 352.533 530.102 353.342 530.999 353.883" fill="#858585"/>
<path d="M528.985 351.564L519.506 346.053L496.054 295.01L505.532 300.512L528.985 351.564Z" fill="url(#paint10_linear_11150_236864)"/>
<path d="M473.787 253.339C485.509 255.361 515.769 262.997 517.365 263.398L546.678 348.046L537.703 353.224C533.89 355.425 530.452 354.769 528.984 351.569L505.532 300.518C504.406 300.91 482.924 308.315 473.966 310.295L473.787 253.339Z" fill="url(#paint11_linear_11150_236864)"/>
<path d="M473.787 253.347L464.309 247.844H464.471L473.949 253.356H473.787" fill="#B3B3B3"/>
<path d="M473.949 253.382L464.471 247.871C476.312 249.927 506.274 257.494 507.887 257.895L517.365 263.407C515.778 263.006 485.799 255.438 473.949 253.382Z" fill="url(#paint12_linear_11150_236864)"/>
<path d="M473.949 310.292L464.471 304.781L464.309 247.834L473.787 253.337L473.949 310.292Z" fill="#888888"/>
<path d="M289.834 351.713L299.312 346.202C300.211 345.662 300.919 344.853 301.334 343.89L291.899 349.401C291.477 350.361 290.771 351.168 289.877 351.713" fill="#858585"/>
<path d="M291.856 349.414L301.335 343.903L324.779 292.86L315.301 298.363L291.856 349.414Z" fill="url(#paint13_linear_11150_236864)"/>
<path d="M347.054 251.183C335.332 253.197 305.063 260.841 303.467 261.242L274.162 345.89L283.137 351.068C286.942 353.269 290.389 352.612 291.856 349.413L315.3 298.361C316.435 298.754 337.917 306.159 346.866 308.138L347.054 251.183Z" fill="url(#paint14_linear_11150_236864)"/>
<path d="M347.054 251.182L356.532 245.671H356.362L346.883 251.174H347.054" fill="#B3B3B3"/>
<path d="M346.883 251.207L356.362 245.704C344.529 247.76 314.558 255.327 312.946 255.728L303.467 261.24C305.054 260.839 335.033 253.271 346.883 251.207Z" fill="url(#paint15_linear_11150_236864)"/>
<path d="M346.892 308.137L356.37 302.626L356.532 245.671L347.054 251.182L346.892 308.137Z" fill="#888888"/>
<path d="M495.678 245.53C495.678 306.103 481.576 359.756 459.949 392.499C458.863 394.278 457.348 395.757 455.543 396.8C453.739 397.843 451.701 398.418 449.618 398.471H371.24C369.156 398.419 367.119 397.844 365.314 396.801C363.509 395.758 361.995 394.279 360.909 392.499C339.256 359.756 325.171 306.128 325.171 245.53C325.171 241.788 325.202 238.091 325.265 234.439C325.299 232.164 325.347 229.903 325.41 227.657C325.512 224.057 325.64 220.508 325.794 217.01C325.896 214.769 326.007 212.548 326.126 210.347C326.289 207.54 326.459 204.767 326.655 202.029C326.798 199.975 326.954 197.936 327.125 195.912C331.058 147.821 340.527 110.931 351.789 82.9311C376.803 20.5499 410.416 2.20752 410.416 2.20752C410.416 2.20752 410.57 2.2843 410.843 2.45493C414.793 4.80105 445.275 24.4061 468.583 81.7964C480.04 110.001 489.766 147.343 493.75 196.244V196.296C493.912 198.3 494.066 200.314 494.211 202.353C494.399 205.066 494.572 207.813 494.731 210.594C494.851 212.795 494.962 215.019 495.064 217.266C495.218 220.763 495.346 224.304 495.439 227.913C495.496 230.154 495.545 232.429 495.584 234.738C495.647 238.264 495.678 241.862 495.678 245.53Z" fill="white"/>
<path d="M495.67 245.527C495.67 306.1 481.576 359.762 459.949 392.505C458.865 394.284 457.352 395.763 455.548 396.806C453.745 397.849 451.709 398.424 449.626 398.477H371.24C369.157 398.425 367.121 397.851 365.317 396.808C363.513 395.765 362.001 394.285 360.917 392.505C339.256 359.762 325.171 306.134 325.171 245.527V244.299C325.171 240.972 325.214 237.687 325.273 234.454C325.273 232.167 325.35 229.898 325.401 227.671C325.504 224.054 325.632 220.513 325.785 217.016C325.888 214.763 325.998 212.554 326.135 210.344C326.212 208.945 326.289 207.554 326.382 206.172C326.382 205.925 326.382 205.669 326.442 205.421C330.686 209.327 335.363 212.734 340.382 215.574C378.261 237.44 439.457 237.457 477.089 215.574C483.456 211.992 489.229 207.445 494.202 202.094C494.202 202.171 494.202 202.248 494.202 202.325C494.399 205.029 494.569 207.785 494.723 210.566C494.834 212.758 494.953 214.977 495.047 217.22C495.201 220.718 495.337 224.276 495.431 227.876C495.491 230.12 495.55 232.372 495.584 234.658C495.584 236.45 495.644 238.233 495.644 240.042V240.468C495.67 242.166 495.67 243.838 495.67 245.527Z" fill="url(#paint16_linear_11150_236864)"/>
<path d="M495.653 240.067V240.494C490.395 246.591 484.109 251.72 477.08 255.645C439.448 277.528 378.253 277.528 340.374 255.645C334.848 252.519 329.74 248.707 325.171 244.299C325.171 240.972 325.214 237.687 325.273 234.454C325.273 232.167 325.35 229.898 325.401 227.671C325.504 224.054 325.632 220.513 325.785 217.016C325.888 214.763 325.998 212.554 326.135 210.344C326.212 208.945 326.289 207.554 326.382 206.172C326.382 205.925 326.382 205.669 326.382 205.421C330.626 209.327 335.303 212.734 340.323 215.574C378.202 237.44 439.397 237.457 477.029 215.574C483.396 211.992 489.169 207.445 494.143 202.094C494.143 202.171 494.143 202.248 494.143 202.325C494.339 205.029 494.51 207.785 494.663 210.566C494.774 212.758 494.893 214.977 494.987 217.22C495.141 220.718 495.277 224.276 495.371 227.876C495.431 230.12 495.491 232.372 495.525 234.658C495.619 236.459 495.636 238.259 495.653 240.067Z" fill="url(#paint17_linear_11150_236864)"/>
<path d="M468.814 81.7623C434.202 96.2144 387.442 96.6068 352.02 82.9311C377.042 20.5499 410.655 2.20752 410.655 2.20752C410.655 2.20752 443.851 20.3196 468.814 81.7623Z" fill="url(#paint18_linear_11150_236864)"/>
<path style="mix-blend-mode:multiply" d="M495.687 245.535C495.687 306.108 481.585 359.77 459.949 392.505C458.859 394.284 457.342 395.763 455.534 396.806C453.727 397.849 451.687 398.424 449.601 398.477H399.982C446.052 296.723 440.489 173.556 428.793 91.8516C442.462 90.3954 455.863 87.0446 468.609 81.8955C480.049 110.049 489.766 147.391 493.742 196.258C493.895 198.263 494.049 200.268 494.203 202.324C495.167 215.872 495.687 230.247 495.687 245.535Z" fill="url(#paint19_linear_11150_236864)"/>
<path style="mix-blend-mode:multiply" d="M468.583 81.7624C445.275 24.4062 414.793 4.80114 410.843 2.4209C411.764 5.66281 421.473 40.5901 428.759 91.7611C442.428 90.3108 455.829 86.9628 468.574 81.8136L468.583 81.7624Z" fill="url(#paint20_linear_11150_236864)"/>
<path d="M411.389 210.254C433.167 210.254 450.821 192.6 450.821 170.822C450.821 149.045 433.167 131.391 411.389 131.391C389.611 131.391 371.957 149.045 371.957 170.822C371.957 192.6 389.611 210.254 411.389 210.254Z" fill="#06BECC"/>
<path d="M410.177 204.516C431.955 204.516 449.609 186.862 449.609 165.084C449.609 143.307 431.955 125.652 410.177 125.652C388.4 125.652 370.746 143.307 370.746 165.084C370.746 186.862 388.4 204.516 410.177 204.516Z" fill="url(#paint21_linear_11150_236864)"/>
<path d="M410.177 198.092C427.488 198.092 441.521 184.058 441.521 166.747C441.521 149.437 427.488 135.403 410.177 135.403C392.866 135.403 378.833 149.437 378.833 166.747C378.833 184.058 392.866 198.092 410.177 198.092Z" fill="url(#paint22_linear_11150_236864)"/>
<path d="M383.116 169.835C383.117 164.288 384.59 158.84 387.384 154.048C390.178 149.256 394.193 145.291 399.02 142.558C403.847 139.825 409.313 138.421 414.86 138.491C420.406 138.56 425.835 140.1 430.593 142.952C427.3 140.12 423.454 138.003 419.3 136.735C415.146 135.468 410.774 135.077 406.461 135.588C402.148 136.099 397.988 137.5 394.245 139.703C390.502 141.906 387.258 144.863 384.717 148.386C382.177 151.909 380.397 155.921 379.489 160.168C378.581 164.415 378.565 168.805 379.443 173.059C380.32 177.312 382.072 181.337 384.587 184.878C387.102 188.419 390.326 191.399 394.053 193.629C390.618 190.689 387.861 187.039 385.973 182.932C384.085 178.824 383.11 174.356 383.116 169.835Z" fill="#15202B"/>
<path style="mix-blend-mode:overlay" d="M431.343 143.617L387.057 187.912C381.757 182.138 378.822 174.583 378.833 166.745V166.745L410.177 135.41C418.012 135.395 425.567 138.324 431.343 143.617V143.617Z" fill="url(#paint23_linear_11150_236864)"/>
<path style="mix-blend-mode:overlay" d="M441.53 166.746C441.53 167.6 441.53 168.453 441.419 169.306L412.745 197.98C411.892 198.057 411.039 198.091 410.186 198.091C402.947 198.1 395.929 195.594 390.333 191.001L434.441 146.894C439.039 152.486 441.546 159.506 441.53 166.746V166.746Z" fill="url(#paint24_linear_11150_236864)"/>
<g style="mix-blend-mode:overlay" opacity="0.8">
<path d="M338.711 195.911C343.83 131.167 351.226 110.93 361.686 82.9304C376.462 43.362 394.455 21.5047 405.639 10.832C399.582 21.5218 389.839 43.362 381.837 82.9304C376.18 110.93 371.386 147.82 369.398 195.911L368.417 245.529C368.417 306.102 375.523 359.755 386.427 392.499C387.681 396.261 389.609 398.471 391.639 398.471H379.772C376.018 398.471 372.461 396.295 370.149 392.499C350.015 359.755 336.876 306.127 336.876 245.529L338.711 195.911Z" fill="white"/>
</g>
<path d="M373.168 301.577L373.296 346.938C373.306 350.655 372.507 354.329 370.956 357.707C369.405 361.085 367.138 364.085 364.313 366.5C354.527 374.878 342.626 384.527 341.79 385.201L318.713 463.109C317.262 467.998 313.833 472.613 310.028 474.814L301.053 479.993L329.786 361.868C331.373 359.598 361.497 317.095 373.168 301.577Z" fill="url(#paint25_linear_11150_236864)"/>
<path d="M301.053 479.992L291.575 474.49L320.308 356.331L329.787 361.833L301.053 479.992Z" fill="url(#paint26_linear_11150_236864)"/>
<path d="M329.786 361.863L320.308 356.361C321.895 354.117 352.019 311.614 363.69 296.095L373.168 301.606C361.497 317.125 331.365 359.62 329.786 361.863Z" fill="url(#paint27_linear_11150_236864)"/>
<path d="M447.665 301.577L447.537 346.938C447.532 350.657 448.336 354.333 449.893 357.711C451.45 361.089 453.723 364.088 456.554 366.5C466.331 374.878 478.241 384.527 479.069 385.201L502.154 463.109C503.605 467.998 507.026 472.613 510.839 474.814L519.806 479.993L491.047 361.868C489.46 359.598 459.344 317.095 447.665 301.577Z" fill="url(#paint28_linear_11150_236864)"/>
<path d="M519.78 479.992L529.258 474.49L500.525 356.331L491.046 361.833L519.78 479.992Z" fill="url(#paint29_linear_11150_236864)"/>
<path d="M491.046 361.863L500.525 356.361C498.938 354.117 468.822 311.614 457.143 296.095L447.665 301.606C459.344 317.125 489.468 359.62 491.046 361.863Z" fill="url(#paint30_linear_11150_236864)"/>
<path d="M448.193 398.442H371.991L383.79 418.917C385.206 422.611 389.114 425.094 393.507 425.094H426.694C431.088 425.094 434.995 422.611 436.411 418.917L448.193 398.442Z" fill="url(#paint31_linear_11150_236864)"/>
<path d="M393.618 424.929C386.631 438.707 376.896 458.995 376.896 481.62C376.896 523.108 410.049 556.696 410.049 556.696C410.049 556.696 443.202 523.065 443.202 481.62C443.202 458.995 431.096 438.707 424.109 424.929H393.618Z" fill="url(#paint32_linear_11150_236864)"/>
<path style="mix-blend-mode:screen" d="M482.17 505.354C522.24 465.284 522.24 400.317 482.17 360.247C442.1 320.177 377.133 320.177 337.063 360.247C296.992 400.317 296.992 465.284 337.063 505.355C377.133 545.425 442.1 545.425 482.17 505.354Z" fill="url(#paint33_radial_11150_236864)"/>
<path style="mix-blend-mode:overlay" opacity="0.2" d="M537.525 150.29C608.087 191.036 608.463 257.094 538.378 297.883C468.293 338.671 354.229 338.628 283.657 297.883C213.086 257.137 212.711 191.087 282.804 150.341C352.898 109.596 466.953 109.536 537.525 150.29Z" fill="url(#paint34_radial_11150_236864)"/>
<g style="mix-blend-mode:overlay" opacity="0.2">
<path d="M411.167 238.775C364.569 238.775 317.911 228.538 282.343 207.96C247.254 187.698 227.905 160.603 227.862 131.664C227.862 102.922 246.879 76.0059 281.507 55.8805C352.241 14.785 467.687 14.7765 538.855 55.8805C573.945 76.1424 593.294 103.238 593.337 132.176C593.379 160.918 574.329 187.835 539.691 207.96C504.329 228.504 457.765 238.775 411.167 238.775ZM409.989 30.2182C364.338 30.2182 318.764 40.2767 284.118 60.4106C251.17 79.5635 233.041 104.859 233.083 131.656C233.083 158.649 251.537 184.132 284.937 203.422C354.672 243.681 467.764 243.681 537.038 203.422C569.986 184.277 588.115 158.973 588.073 132.176C588.073 105.183 569.619 79.7 536.211 60.4106C501.352 40.2852 455.641 30.2182 409.989 30.2182Z" fill="white"/>
</g>
<path style="mix-blend-mode:overlay" opacity="0.2" d="M512.912 296.318C569.799 329.164 570.072 382.417 513.577 415.262C457.083 448.108 365.132 448.108 308.245 415.262C251.358 382.417 251.085 329.172 307.571 296.327C364.057 263.481 456.025 263.481 512.912 296.318Z" fill="url(#paint35_radial_11150_236864)"/>
<path style="mix-blend-mode:overlay" opacity="0.2" d="M473.164 523.737C507.964 543.829 508.143 576.401 473.574 596.493C439.005 616.584 382.783 616.575 347.984 596.493C313.185 576.41 313.005 543.837 347.574 523.746C382.143 503.655 438.374 503.655 473.164 523.737Z" fill="url(#paint36_radial_11150_236864)"/>
<path style="mix-blend-mode:overlay" opacity="0.2" d="M584.891 250.683L499.313 558.784H321.861L236.633 250.76C244.584 267.993 260.256 284.28 283.666 297.81C354.254 338.573 468.284 338.573 538.395 297.81C561.643 284.28 577.161 267.968 584.891 250.683Z" fill="url(#paint37_linear_11150_236864)"/>
<path d="M193.191 200.861C197.269 198.506 200.588 200.4 200.596 205.067L200.827 284.255L200.92 319.344C200.923 319.673 200.842 319.998 200.686 320.288C200.53 320.578 200.303 320.824 200.027 321.003C199.751 321.182 199.434 321.289 199.105 321.314C198.777 321.339 198.448 321.28 198.148 321.144L169.824 308.45C167.925 307.603 165.854 307.217 163.778 307.324C161.702 307.431 159.681 308.027 157.88 309.064L93.8094 346.056C89.7229 348.41 86.4213 346.516 86.4128 341.79L86.208 271.091C86.208 266.424 89.4755 260.725 93.5535 258.371L193.191 200.861Z" fill="url(#paint38_linear_11150_236864)"/>
<path d="M194.812 200.145C195.207 200.02 195.613 199.931 196.024 199.881H196.135C196.531 199.844 196.93 199.864 197.321 199.94H197.38C197.755 200.015 198.116 200.15 198.447 200.341L185.3 194.31H185.257C185.138 194.25 185.018 194.182 184.89 194.13L184.498 193.994L184.233 193.934H184.174H184.088C183.939 193.908 183.788 193.891 183.636 193.883C183.474 193.874 183.312 193.874 183.15 193.883H182.988H182.877H182.595C182.391 193.883 182.169 193.96 181.947 194.019L181.666 194.113L181.41 194.207L181.077 194.318C180.722 194.469 180.377 194.643 180.045 194.838L80.3814 252.374C79.8944 252.66 79.4296 252.982 78.9908 253.338L78.5642 253.713C78.3509 253.901 78.1291 254.08 77.9158 254.285L77.6343 254.583L77.3954 254.839C77.3016 254.942 77.1992 255.036 77.1139 255.138C76.9091 255.377 76.7044 255.616 76.5167 255.872L76.3205 256.136L76.2096 256.281L76.0219 256.529L75.5953 257.168C75.4673 257.373 75.3394 257.578 75.2199 257.791C75.2171 257.811 75.2171 257.831 75.2199 257.851V257.902C75.1176 258.073 75.0237 258.243 74.9299 258.414C74.836 258.585 74.7166 258.824 74.6142 259.037C74.5118 259.25 74.4351 259.429 74.3497 259.626C74.2559 259.847 74.1621 260.069 74.0767 260.291C73.9914 260.513 73.9061 260.752 73.8293 260.982C73.7525 261.212 73.7525 261.221 73.7184 261.34C73.7158 261.389 73.7158 261.437 73.7184 261.485L73.6416 261.733C73.5677 262.011 73.4994 262.296 73.4369 262.586C73.4369 262.765 73.3772 262.927 73.343 263.098C73.3089 263.268 73.343 263.277 73.343 263.371C73.3247 263.45 73.3105 263.529 73.3004 263.61C73.2399 264.091 73.2086 264.575 73.2065 265.06L73.4028 335.751C73.4028 338.088 74.2559 339.726 75.5612 340.503L88.708 346.534C87.3856 345.758 86.5581 344.12 86.5581 341.782L86.3533 271.083C86.3562 270.512 86.4018 269.941 86.4898 269.377L86.541 269.112C86.6267 268.567 86.7492 268.029 86.9079 267.5C86.9105 267.452 86.9105 267.403 86.9079 267.355C87.0886 266.773 87.3052 266.203 87.5563 265.649C87.8071 265.064 88.0919 264.494 88.4094 263.942V263.883C88.7251 263.345 89.0748 262.816 89.4417 262.313L89.5441 262.176C89.879 261.725 90.2378 261.292 90.619 260.88L90.8664 260.624C91.16 260.322 91.4704 260.037 91.7963 259.771C91.9304 259.636 92.0729 259.511 92.2229 259.395C92.6587 259.04 93.1207 258.717 93.605 258.431L193.191 200.862C193.628 200.617 194.085 200.409 194.556 200.239L194.812 200.145Z" fill="url(#paint39_linear_11150_236864)"/>
<path d="M176.299 229.696C177.741 228.843 178.909 229.526 178.918 231.198C178.874 232.096 178.62 232.97 178.175 233.751C177.73 234.533 177.108 235.198 176.359 235.694L112.484 272.575C111.043 273.428 109.865 272.745 109.865 271.09C109.907 270.189 110.16 269.31 110.605 268.524C111.05 267.738 111.673 267.069 112.425 266.569L176.299 229.696Z" fill="white"/>
<path d="M176.299 253.516C177.741 252.663 178.909 253.354 178.918 255.009C178.874 255.909 178.619 256.786 178.174 257.569C177.73 258.353 177.108 259.022 176.359 259.522L112.484 296.394C111.043 297.247 109.865 296.556 109.865 294.901C109.907 294.002 110.161 293.125 110.605 292.342C111.05 291.56 111.673 290.893 112.425 290.397L176.299 253.516Z" fill="white"/>
<path d="M176.299 277.315C177.741 276.462 178.909 277.162 178.918 278.817C178.874 279.714 178.62 280.589 178.175 281.37C177.73 282.151 177.108 282.817 176.359 283.313L112.484 320.194C111.043 321.047 109.865 320.364 109.865 318.709C109.907 317.809 110.16 316.931 110.605 316.147C111.05 315.363 111.673 314.694 112.425 314.196L176.299 277.315Z" fill="white"/>
<path d="M161.37 560.21C159.467 566.386 154.4 572.307 146.175 577.085C124.659 589.592 89.6723 589.583 68.0197 577.085C59.6505 572.247 54.4975 566.258 52.5695 560.022C52.0014 558.19 51.7137 556.283 51.7163 554.366V565.678C51.7163 573.903 57.1508 582.144 68.0283 588.414C89.6808 600.921 124.668 600.921 146.184 588.414C156.891 582.195 162.24 574.048 162.24 565.892V554.553C162.237 556.472 161.944 558.379 161.37 560.21V560.21Z" fill="url(#paint40_linear_11150_236864)"/>
<path d="M145.928 531.82C124.275 519.313 89.2798 519.313 67.7723 531.82C57.0655 538.039 51.7163 546.186 51.7163 554.342C51.7137 556.26 52.0014 558.167 52.5695 559.999V559.999C54.4975 566.252 59.6505 572.241 68.0197 577.061C89.6723 589.56 124.659 589.568 146.175 577.061C154.4 572.284 159.467 566.363 161.37 560.186C161.938 558.355 162.225 556.448 162.223 554.53C162.223 546.331 156.805 538.09 145.928 531.82Z" fill="url(#paint41_linear_11150_236864)"/>
<g style="mix-blend-mode:overlay">
<path d="M145.928 531.82C124.275 519.313 89.2798 519.313 67.7723 531.82C57.0655 538.039 51.7163 546.186 51.7163 554.342C51.7137 556.26 52.0014 558.167 52.5695 559.999V559.999C54.4975 566.252 59.6505 572.241 68.0197 577.061C89.6723 589.56 124.659 589.568 146.175 577.061C154.4 572.284 159.467 566.363 161.37 560.186C161.938 558.355 162.225 556.448 162.223 554.53C162.223 546.331 156.805 538.09 145.928 531.82Z" fill="white"/>
</g>
<path d="M107.161 585.994C92.4784 585.994 78.6661 582.684 68.2664 576.678C60.2896 572.071 55.0258 566.278 53.0465 559.931V559.862C52.486 558.076 52.1984 556.215 52.1934 554.343C52.1934 546.016 57.8155 538.133 68.019 532.229C78.3505 526.257 92.1286 522.913 106.802 522.913C121.476 522.913 135.297 526.223 145.697 532.229C156.097 538.235 161.778 546.144 161.778 554.556C161.773 556.425 161.485 558.283 160.925 560.067V560.135C158.963 566.414 153.793 572.13 145.961 576.678C135.63 582.65 121.86 585.994 107.178 585.994H107.161Z" fill="url(#paint42_linear_11150_236864)"/>
<path d="M107.161 581.73C93.212 581.73 80.159 578.624 70.3907 572.985C63.4035 568.95 58.8221 564.061 57.15 558.755L57.0988 558.61C56.6673 557.229 56.4459 555.791 56.4419 554.344C56.4334 547.596 61.3133 541.027 70.1518 535.908C79.8434 530.277 92.8537 527.172 106.837 527.172C120.819 527.172 133.838 530.277 143.607 535.917C152.599 541.112 157.555 547.732 157.555 554.557C157.552 556.004 157.33 557.442 156.898 558.823L156.856 558.96C155.201 564.164 150.705 569.018 143.846 573.002C134.154 578.641 121.144 581.738 107.203 581.738L107.161 581.73Z" fill="url(#paint43_linear_11150_236864)"/>
<path d="M98.5698 559.948L105.207 556.092C105.767 556.852 106.154 557.726 106.342 558.651C106.376 558.991 106.299 559.333 106.122 559.625C105.945 559.917 105.678 560.144 105.361 560.272C103.655 561.245 101.428 561.125 98.5357 559.99L98.5698 559.948ZM110.684 548.669C110.132 547.959 109.763 547.124 109.609 546.238C109.558 545.632 109.942 545.103 110.736 544.651C112.237 543.798 114.327 543.9 116.946 545.026L110.684 548.669ZM131.305 540.991L127.628 538.867L123.558 541.23C119.959 539.454 116.052 538.389 112.049 538.091C108.799 537.795 105.533 538.468 102.665 540.027C100.259 541.426 98.9879 543.013 98.8343 544.805C98.6808 546.596 99.6875 548.934 101.854 551.775L102.938 553.217L94.6796 558.02C92.9434 556.857 91.331 555.519 89.8679 554.027C88.4845 552.701 87.2825 551.198 86.2932 549.557L79.2549 553.643C81.1062 556.373 84.1604 559.035 88.4261 561.594L83.0855 564.7L86.7625 566.824L92.2225 563.65C95.8699 565.493 99.8504 566.584 103.928 566.858C107.367 567.122 110.807 566.362 113.815 564.674C115.128 564.024 116.206 562.984 116.904 561.697C117.377 560.493 117.361 559.152 116.861 557.96C116.383 556.535 115.044 554.437 112.885 551.647L120.76 547.074C123.262 548.741 125.461 550.825 127.261 553.234L136.022 551.067C133.701 547.89 130.754 545.222 127.363 543.226L131.322 540.931" fill="url(#paint44_linear_11150_236864)"/>
<path d="M169.397 541.212C167.495 547.397 162.427 553.309 154.203 558.095C132.687 570.594 97.6996 570.594 76.0471 558.095C67.6778 553.267 62.5249 547.269 60.5968 541.033C60.0329 539.2 59.7453 537.294 59.7437 535.376V546.655C59.7437 554.888 65.1867 563.12 76.0556 569.399C97.7081 581.898 132.695 581.906 154.211 569.399C164.927 563.172 170.276 555.024 170.276 546.868V535.564C170.269 537.48 169.973 539.384 169.397 541.212V541.212Z" fill="url(#paint45_linear_11150_236864)"/>
<path d="M153.947 512.818C132.294 500.32 97.3074 500.32 75.7913 512.818C65.0845 519.046 59.7354 527.193 59.7354 535.349C59.737 537.267 60.0246 539.173 60.5885 541.006V541.006C62.5166 547.259 67.6695 553.257 76.0388 558.068C97.6913 570.575 132.678 570.575 154.194 558.068C162.419 553.282 167.486 547.37 169.389 541.185C169.956 539.356 170.244 537.452 170.242 535.537C170.267 527.373 164.824 519.097 153.947 512.818Z" fill="url(#paint46_linear_11150_236864)"/>
<g style="mix-blend-mode:overlay">
<path d="M153.947 512.818C132.294 500.32 97.3074 500.32 75.7913 512.818C65.0845 519.046 59.7354 527.193 59.7354 535.349C59.737 537.267 60.0246 539.173 60.5885 541.006V541.006C62.5166 547.259 67.6695 553.257 76.0388 558.068C97.6913 570.575 132.678 570.575 154.194 558.068C162.419 553.282 167.486 547.37 169.389 541.185C169.956 539.356 170.244 537.452 170.242 535.537C170.267 527.373 164.824 519.097 153.947 512.818Z" fill="white"/>
</g>
<path d="M115.181 566.991C100.498 566.991 86.6859 563.681 76.2862 557.675C68.3094 553.068 63.0541 547.284 61.0748 540.928V540.86C60.5184 539.075 60.2309 537.218 60.2217 535.349C60.2217 527.014 65.8438 519.139 76.0473 513.227C86.3788 507.255 100.157 503.911 114.839 503.911C129.522 503.911 143.326 507.221 153.734 513.227C164.142 519.233 169.807 527.141 169.807 535.562C169.801 537.431 169.513 539.289 168.954 541.073V541.141C166.991 547.412 161.821 553.128 153.99 557.684C143.658 563.656 129.889 566.991 115.215 566.991H115.181Z" fill="url(#paint47_linear_11150_236864)"/>
<path d="M115.181 562.736C101.241 562.736 88.1791 559.631 78.4193 553.991C71.4236 549.956 66.8508 545.033 65.1701 539.752V539.607C64.7383 538.227 64.5169 536.789 64.5132 535.342C64.5132 528.585 69.376 522.041 78.2145 516.906C87.9061 511.266 100.925 508.169 114.899 508.169C128.874 508.169 141.901 511.275 151.661 516.914C160.653 522.101 165.61 528.721 165.61 535.555C165.605 537.002 165.383 538.44 164.953 539.821L164.91 539.949C163.255 545.161 158.759 550.016 151.9 554C142.208 559.631 129.198 562.736 115.266 562.736H115.181Z" fill="url(#paint48_linear_11150_236864)"/>
<path d="M106.598 540.945L113.235 537.089C113.788 537.854 114.174 538.726 114.37 539.649C114.4 539.99 114.32 540.332 114.142 540.625C113.964 540.918 113.697 541.147 113.38 541.278C111.708 542.251 109.433 542.154 106.555 540.988L106.598 540.945ZM118.712 529.633C118.159 528.92 117.79 528.082 117.637 527.193C117.586 526.587 117.979 526.067 118.764 525.606C120.265 524.753 122.355 524.855 124.974 525.99L118.712 529.633ZM139.333 521.903L135.656 519.788L131.586 522.151C127.99 520.367 124.081 519.301 120.077 519.011C116.827 518.709 113.561 519.38 110.693 520.939C108.287 522.339 107.016 523.934 106.862 525.725C106.709 527.517 107.716 529.855 109.882 532.696L110.966 534.137L102.716 538.932C100.975 537.776 99.3617 536.438 97.9045 534.939C96.5199 533.632 95.3124 532.149 94.3128 530.529L87.2744 534.615C89.1342 537.354 92.1799 540.007 96.4456 542.575L91.105 545.68L94.8247 547.847L100.285 544.674C103.932 546.494 107.905 547.573 111.973 547.847C115.409 548.101 118.843 547.342 121.852 545.663C123.165 545.011 124.244 543.968 124.94 542.677C125.423 541.479 125.423 540.139 124.94 538.941C124.457 537.519 123.132 535.414 120.965 532.627L128.831 528.055C131.33 529.729 133.53 531.811 135.34 534.214L144.093 532.056C141.776 528.879 138.831 526.21 135.442 524.215L139.392 521.912" fill="url(#paint49_linear_11150_236864)"/>
<path d="M169.09 510.121C167.179 516.298 162.12 522.219 153.896 526.996C132.38 539.495 97.384 539.495 75.7399 526.996C67.3707 522.159 62.2178 516.17 60.2897 509.934C59.7217 508.102 59.4341 506.195 59.4365 504.277V515.59C59.4365 523.814 64.8795 532.047 75.757 538.326C97.401 550.833 132.397 550.833 153.913 538.326C164.619 532.107 169.969 523.959 169.969 515.795V504.474C169.959 506.389 169.663 508.293 169.09 510.121V510.121Z" fill="url(#paint50_linear_11150_236864)"/>
<path d="M153.64 481.732C131.988 469.233 96.992 469.233 75.4845 481.732C64.7691 487.96 59.4199 496.107 59.4199 504.263C59.4175 506.181 59.7051 508.088 60.2731 509.919C62.2012 516.181 67.3541 522.17 75.7233 526.982C97.3674 539.48 132.363 539.48 153.879 526.982C162.103 522.204 167.162 516.284 169.073 510.107C169.637 508.277 169.925 506.374 169.926 504.459C169.952 496.244 164.509 488.011 153.64 481.732Z" fill="url(#paint51_linear_11150_236864)"/>
<g style="mix-blend-mode:overlay">
<path d="M153.64 481.732C131.988 469.233 96.992 469.233 75.4845 481.732C64.7691 487.96 59.4199 496.107 59.4199 504.263C59.4175 506.181 59.7051 508.088 60.2731 509.919C62.2012 516.181 67.3541 522.17 75.7233 526.982C97.3674 539.48 132.363 539.48 153.879 526.982C162.103 522.204 167.162 516.284 169.073 510.107C169.637 508.277 169.925 506.374 169.926 504.459C169.952 496.244 164.509 488.011 153.64 481.732Z" fill="white"/>
</g>
<path d="M114.873 535.903C100.191 535.903 86.37 532.602 75.9703 526.596C67.9935 521.989 62.7382 516.196 60.7589 509.84V509.78C60.199 507.994 59.9114 506.133 59.9058 504.26C59.9058 495.925 65.5194 488.051 75.7229 482.139C86.0629 476.167 99.8325 472.831 114.515 472.831C129.197 472.831 143.01 476.133 153.409 482.139C163.809 488.145 169.491 496.062 169.491 504.474C169.481 506.343 169.194 508.2 168.638 509.985V510.053C166.684 516.324 161.506 522.048 153.682 526.596C143.351 532.568 129.573 535.903 114.899 535.903H114.873Z" fill="url(#paint52_linear_11150_236864)"/>
<path d="M114.873 531.637C100.924 531.637 87.8629 528.531 78.103 522.892C71.1159 518.857 66.5345 513.934 64.8539 508.662L64.8112 508.508C64.3795 507.127 64.158 505.689 64.1543 504.243C64.1543 497.494 69.0257 490.942 77.8556 485.806C87.5558 480.176 100.566 477.07 114.54 477.07C128.515 477.07 141.542 480.176 151.302 485.815C160.303 491.002 165.251 497.622 165.251 504.456C165.246 505.902 165.027 507.339 164.602 508.722L164.56 508.85C162.905 514.062 158.409 518.917 151.549 522.901C141.824 528.54 128.813 531.637 114.873 531.637Z" fill="url(#paint53_linear_11150_236864)"/>
<path d="M106.282 509.871L112.919 506.015C113.47 506.762 113.856 507.617 114.054 508.523C114.087 508.864 114.01 509.207 113.833 509.5C113.656 509.794 113.39 510.022 113.073 510.153C111.367 511.125 109.14 511.006 106.248 509.871H106.282ZM118.397 498.55C117.846 497.838 117.474 497.004 117.313 496.119C117.27 495.504 117.654 494.984 118.439 494.523C119.949 493.67 122.031 493.772 124.659 494.907L118.397 498.55V498.55ZM139.017 490.829L135.331 488.705L131.262 491.068C127.669 489.284 123.763 488.217 119.762 487.928C116.511 487.634 113.245 488.307 110.377 489.865C107.971 491.264 106.7 492.851 106.555 494.643C106.41 496.434 107.408 498.772 109.567 501.613L110.659 503.055L102.4 507.849C100.662 506.692 99.0499 505.356 97.5885 503.865C96.2055 502.553 94.9982 501.068 93.9969 499.446L86.9585 503.541C88.8183 506.271 91.864 508.924 96.1382 511.492L90.8061 514.58L94.4831 516.705L99.9517 513.531C103.599 515.375 107.579 516.466 111.657 516.739C115.091 517.01 118.528 516.259 121.536 514.58C122.85 513.933 123.93 512.893 124.624 511.603C125.107 510.401 125.107 509.059 124.624 507.858C124.147 506.433 122.807 504.334 120.649 501.544L128.523 496.972C131.022 498.647 133.22 500.732 135.024 503.14L143.752 500.93C141.428 497.755 138.482 495.087 135.092 493.09L139.051 490.795" fill="url(#paint54_linear_11150_236864)"/>
<path d="M632.24 678.962C630.337 685.147 625.27 691.059 617.045 695.837C595.529 708.344 560.542 708.344 538.89 695.837C530.521 691.008 525.368 685.01 523.44 678.774C522.876 676.941 522.588 675.035 522.586 673.118V684.422C522.586 692.654 528.029 700.887 538.898 707.166C560.551 719.665 595.538 719.665 617.054 707.166C627.769 700.938 633.119 692.791 633.119 684.635V673.314C633.112 675.23 632.816 677.134 632.24 678.962V678.962Z" fill="url(#paint55_linear_11150_236864)"/>
<path d="M616.79 650.566C595.137 638.067 560.15 638.067 538.634 650.566C527.927 656.794 522.578 664.941 522.578 673.097C522.58 675.014 522.867 676.921 523.431 678.753V678.753C525.359 685.007 530.512 691.004 538.882 695.816C560.534 708.323 595.521 708.323 617.037 695.816C625.261 691.038 630.329 685.126 632.231 678.941C632.799 677.112 633.086 675.208 633.085 673.293C633.153 665.077 627.667 656.845 616.79 650.566Z" fill="url(#paint56_linear_11150_236864)"/>
<g style="mix-blend-mode:overlay">
<path d="M616.79 650.566C595.137 638.067 560.15 638.067 538.634 650.566C527.927 656.794 522.578 664.941 522.578 673.097C522.58 675.014 522.867 676.921 523.431 678.753V678.753C525.359 685.007 530.512 691.004 538.882 695.816C560.534 708.323 595.521 708.323 617.037 695.816C625.261 691.038 630.329 685.126 632.231 678.941C632.799 677.112 633.086 675.208 633.085 673.293C633.153 665.077 627.667 656.845 616.79 650.566Z" fill="white"/>
</g>
<path d="M578.023 704.739C563.34 704.739 549.528 701.428 539.128 695.422C531.152 690.815 525.896 685.031 523.917 678.675V678.607C523.361 676.822 523.073 674.965 523.064 673.096C523.064 664.761 528.686 656.886 538.89 650.974C549.093 645.062 562.982 641.692 577.699 641.692C592.415 641.692 606.185 645.002 616.593 651.008C627.001 657.014 632.666 664.923 632.666 673.343C632.66 675.213 632.372 677.071 631.813 678.854V678.923C629.851 685.193 624.681 690.867 616.849 695.465C606.518 701.437 592.748 704.773 578.074 704.773L578.023 704.739Z" fill="url(#paint57_linear_11150_236864)"/>
<path d="M578.023 700.484C564.074 700.484 551.021 697.379 541.253 691.739C534.266 687.695 529.693 682.781 528.012 677.5L527.961 677.355C527.532 675.974 527.313 674.536 527.312 673.09C527.312 666.333 532.175 659.789 541.014 654.654C550.705 649.014 563.724 645.917 577.699 645.917C591.673 645.917 604.692 649.023 614.46 654.654C623.452 659.849 628.409 666.469 628.409 673.303C628.404 674.75 628.182 676.188 627.752 677.569V677.697C626.097 682.901 621.601 687.764 614.742 691.748C605.05 697.379 592.04 700.484 578.108 700.484H578.023Z" fill="url(#paint58_linear_11150_236864)"/>
<path d="M569.44 678.693L576.078 674.837C576.625 675.589 577.011 676.446 577.212 677.354C577.243 677.695 577.163 678.036 576.985 678.328C576.807 678.62 576.54 678.847 576.223 678.975C574.551 679.953 572.29 679.859 569.44 678.693ZM581.58 667.372C581.027 666.663 580.657 665.828 580.505 664.941C580.454 664.335 580.847 663.815 581.631 663.354C583.133 662.501 585.223 662.603 587.842 663.738L581.58 667.372ZM602.201 659.652L598.524 657.527L594.454 659.899C590.858 658.115 586.949 657.049 582.945 656.759C579.695 656.457 576.428 657.128 573.561 658.687C571.155 660.087 569.884 661.682 569.73 663.474C569.577 665.265 570.583 667.603 572.75 670.444L573.834 671.885L565.576 676.672C563.834 675.516 562.221 674.177 560.764 672.679C559.379 671.372 558.172 669.889 557.172 668.268L550.134 672.406C551.982 675.136 555.039 677.789 559.305 680.366L553.964 683.471L557.641 685.595L563.101 682.422C566.754 684.258 570.736 685.348 574.815 685.629C578.251 685.884 581.686 685.124 584.694 683.445C586.005 682.79 587.084 681.748 587.783 680.459C588.266 679.261 588.266 677.921 587.783 676.723C587.299 675.301 585.974 673.196 583.807 670.41L591.673 665.837C594.172 667.511 596.372 669.593 598.182 671.996L606.935 669.838C604.617 666.659 601.669 663.99 598.276 661.998L602.235 659.694" fill="url(#paint59_linear_11150_236864)"/>
<path d="M299.27 94.092C293.238 96.4381 285.458 96.1395 276.602 92.6587C253.44 83.5558 231.719 56.1275 228.076 31.3952C226.668 21.8315 228.161 14.068 231.872 8.67619C232.956 7.0931 234.27 5.68114 235.771 4.4873L226.907 11.5086C220.457 16.6274 217.378 26.0119 219.229 38.4165C222.872 63.1574 244.593 90.5771 267.755 99.68C279.281 104.21 288.99 103.349 295.388 98.2809L304.252 91.2596C302.743 92.4485 301.063 93.4033 299.27 94.092V94.092Z" fill="url(#paint60_linear_11150_236864)"/>
<path d="M311.93 64.3526C308.287 39.6117 286.558 12.1835 263.404 3.08052C251.87 -1.44962 242.161 -0.579422 235.771 4.4882C234.27 5.67944 232.956 7.08848 231.872 8.66856V8.66856C228.161 14.0604 226.668 21.8239 228.076 31.3875C231.719 56.1284 253.439 83.5482 276.602 92.6511C285.458 96.1319 293.238 96.4305 299.27 94.0844C301.057 93.3942 302.731 92.4394 304.235 91.252C310.668 86.1502 313.765 76.7743 311.93 64.3526Z" fill="url(#paint61_linear_11150_236864)"/>
<g style="mix-blend-mode:overlay">
<path d="M311.93 64.3526C308.287 39.6117 286.558 12.1835 263.404 3.08052C251.87 -1.44962 242.161 -0.579422 235.771 4.4882C234.27 5.67944 232.956 7.08848 231.872 8.66856V8.66856C228.161 14.0604 226.668 21.8239 228.076 31.3875C231.719 56.1284 253.439 83.5482 276.602 92.6511C285.458 96.1319 293.238 96.4305 299.27 94.0844C301.057 93.3942 302.731 92.4394 304.235 91.252C310.668 86.1502 313.765 76.7743 311.93 64.3526Z" fill="white"/>
</g>
<path d="M245.395 67.6049C236.275 56.0876 230.294 43.2053 228.545 31.3297C227.197 22.2182 228.477 14.4973 232.222 9.00313L232.265 8.94341C233.321 7.40046 234.6 6.02321 236.061 4.85689C242.596 -0.313101 252.271 -0.790857 263.225 3.526C274.316 7.89405 285.501 16.6387 294.612 28.1475C303.724 39.6562 309.713 52.5386 311.461 64.4227C313.21 76.3069 310.54 85.6658 303.937 90.8699C302.471 92.0268 300.84 92.9584 299.1 93.6341H299.031C292.897 95.9972 285.202 95.4939 276.773 92.1752C265.682 87.8071 254.506 79.0625 245.395 67.5623V67.6049Z" fill="url(#paint62_linear_11150_236864)"/>
<path d="M248.73 64.9779C240.071 54.0492 234.398 41.8835 232.76 30.733C231.582 22.7477 232.598 16.1018 235.686 11.5119L235.78 11.3839C236.589 10.1888 237.575 9.12431 238.706 8.22735C244.004 4.02993 252.16 3.78252 261.672 7.51925C272.106 11.6228 282.617 19.8982 291.276 30.8184C299.935 41.7385 305.6 53.8871 307.255 65.0461C308.774 75.2837 306.658 83.3117 301.283 87.5518C300.151 88.4446 298.891 89.1634 297.547 89.6846L297.419 89.7273C292.3 91.6639 285.705 91.1606 278.326 88.2599C267.9 84.1563 257.39 75.8809 248.739 64.9779H248.73Z" fill="url(#paint63_linear_11150_236864)"/>
<path d="M260.478 44.6946L267.619 47.5014C267.37 48.3979 266.94 49.2341 266.356 49.9585C266.107 50.1927 265.79 50.3413 265.451 50.3827C265.112 50.4242 264.769 50.3562 264.471 50.1888C262.662 49.4807 261.331 47.6294 260.478 44.6946V44.6946ZM276.892 47.1858C277.107 46.3118 277.531 45.5034 278.129 44.8311C278.408 44.6262 278.741 44.5074 279.087 44.4892C279.432 44.471 279.776 44.5543 280.075 44.7287C281.696 45.3601 282.89 47.0749 283.632 49.8475L276.892 47.1943V47.1858ZM295.747 58.5666L295.124 54.3606L290.747 52.6544C289.908 48.7294 288.318 45.0038 286.064 41.6831C284.276 38.9505 281.72 36.8075 278.718 35.5234C276.125 34.5053 274.083 34.5053 272.593 35.5234C271.102 36.5415 269.905 38.7739 269.001 42.2205L268.54 43.9695L259.659 40.4716C259.482 38.391 259.528 36.2975 259.796 34.2267C259.961 32.3297 260.374 30.4626 261.024 28.6728L253.448 25.6953C252.459 28.8434 252.271 32.8872 252.911 37.8269L247.161 35.5661L247.775 39.7635L253.653 42.0755C254.48 46.0781 256.098 49.875 258.413 53.243C260.342 56.1007 263.073 58.324 266.262 59.633C267.59 60.262 269.081 60.4618 270.528 60.2046C271.766 59.8276 272.812 58.9872 273.446 57.8585C274.256 56.5958 275.075 54.2412 275.92 50.8201L284.391 54.1473C284.632 57.1454 284.363 60.1625 283.598 63.0711L290.739 68.5909C291.783 64.8017 292.045 60.8392 291.507 56.9456L295.772 58.6519" fill="url(#paint64_linear_11150_236864)"/>
<path d="M623.384 85.2222C626.395 90.9467 626.984 98.7103 624.527 107.899C618.103 131.948 593.302 156.63 569.167 163.088C559.834 165.562 551.951 164.956 546.133 161.876C544.436 160.978 542.886 159.827 541.534 158.464L549.545 166.5C555.346 172.336 565.012 174.332 577.153 171.107C601.313 164.692 626.114 140.002 632.538 115.961C635.737 104.017 633.775 94.4531 628.025 88.6603L620.048 80.6494C621.378 82.002 622.502 83.5427 623.384 85.2222V85.2222Z" fill="url(#paint65_linear_11150_236864)"/>
<path d="M592.407 76.0071C568.238 82.4227 543.437 107.112 537.013 131.145C533.822 143.089 535.776 152.661 541.535 158.446C542.886 159.809 544.437 160.959 546.133 161.858V161.858C551.909 164.938 559.783 165.544 569.168 163.069C593.337 156.645 618.138 131.964 624.562 107.923C627.019 98.7346 626.43 90.9711 623.419 85.2466C622.529 83.5529 621.394 82.0003 620.049 80.6397C614.205 74.7786 604.539 72.7823 592.407 76.0071Z" fill="url(#paint66_linear_11150_236864)"/>
<g style="mix-blend-mode:overlay">
<path d="M592.407 76.0071C568.238 82.4227 543.437 107.112 537.013 131.145C533.822 143.089 535.776 152.661 541.535 158.446C542.886 159.809 544.437 160.959 546.133 161.858V161.858C551.909 164.938 559.783 165.544 569.168 163.069C593.337 156.645 618.138 131.964 624.562 107.923C627.019 98.7346 626.43 90.9711 623.419 85.2466C622.529 83.5529 621.394 82.0003 620.049 80.6397C614.205 74.7786 604.539 72.7823 592.407 76.0071Z" fill="white"/>
</g>
<path d="M603.156 141.755C592.748 152.112 580.625 159.517 569.031 162.597C560.133 164.96 552.318 164.567 546.431 161.462H546.372C544.719 160.588 543.207 159.472 541.884 158.152C536.006 152.24 534.445 142.71 537.491 131.312C540.579 119.761 548.001 107.697 558.409 97.3403C568.818 86.9833 580.932 79.5866 592.535 76.4983C604.137 73.4099 613.744 75.0223 619.682 80.9857C620.996 82.313 622.106 83.8282 622.975 85.4818V85.55C626.012 91.3769 626.387 99.0722 624.041 107.825C620.961 119.368 613.53 131.432 603.131 141.78L603.156 141.755Z" fill="url(#paint67_linear_11150_236864)"/>
<path d="M600.145 138.73C590.266 148.566 578.817 155.579 567.922 158.471C560.116 160.544 553.419 160.288 548.488 157.729L548.36 157.661C547.08 156.988 545.909 156.125 544.888 155.101C540.119 150.315 538.916 142.245 541.586 132.374C544.487 121.539 551.516 110.192 561.396 100.322C571.275 90.4509 582.724 83.4723 593.619 80.5801C603.66 77.9098 611.842 79.1127 616.653 83.95C617.676 84.9755 618.539 86.1489 619.213 87.4308L619.281 87.5502C621.781 92.4131 622.019 99.0249 619.972 106.686C617.08 117.512 610.042 128.868 600.171 138.73H600.145Z" fill="url(#paint68_linear_11150_236864)"/>
<path d="M578.689 129.352L580.676 121.929C581.587 122.08 582.458 122.414 583.236 122.91C583.498 123.131 583.683 123.429 583.765 123.762C583.846 124.095 583.819 124.445 583.688 124.762C583.185 126.63 581.521 128.174 578.672 129.352H578.689ZM579.294 112.758C578.401 112.644 577.548 112.313 576.812 111.794C576.576 111.541 576.42 111.223 576.364 110.882C576.308 110.541 576.354 110.19 576.496 109.875C576.94 108.168 578.509 106.812 581.163 105.762L579.294 112.758ZM588.457 92.7351L584.353 93.8271L583.142 98.3743C579.335 99.6501 575.812 101.652 572.768 104.269C570.253 106.352 568.412 109.134 567.478 112.263C566.753 114.959 566.975 116.981 568.135 118.355C569.296 119.728 571.659 120.675 575.191 121.17L576.982 121.426L574.534 130.665C572.483 131.069 570.396 131.258 568.306 131.229C566.403 131.278 564.502 131.08 562.65 130.64L560.542 138.497C563.784 139.129 567.823 138.844 572.657 137.644L571.062 143.616L575.174 142.533L576.803 136.424C580.684 135.157 584.272 133.126 587.356 130.452C589.982 128.211 591.885 125.242 592.825 121.921C593.29 120.541 593.32 119.052 592.91 117.655C592.394 116.47 591.44 115.529 590.249 115.027C588.901 114.362 586.469 113.816 582.971 113.321L585.326 104.534C588.278 103.954 591.307 103.878 594.284 104.312L598.959 96.5913C595.074 95.9809 591.106 96.1696 587.297 97.1458L588.474 92.7266" fill="url(#paint69_linear_11150_236864)"/>
<path d="M259.079 451.981C254.276 456.315 246.896 458.806 237.384 458.695C212.506 458.405 182.451 440.48 170.259 418.657C165.55 410.22 164.193 402.448 165.746 396.075C166.194 394.211 166.918 392.425 167.896 390.777L162.103 400.486C157.889 407.549 158.349 417.412 164.466 428.374C176.658 450.206 206.714 468.131 231.591 468.412C243.979 468.549 252.749 464.291 256.929 457.321L262.713 447.613C261.725 449.241 260.501 450.713 259.079 451.981V451.981Z" fill="url(#paint70_linear_11150_236864)"/>
<path d="M260.333 419.68C248.142 397.849 218.086 379.924 193.208 379.643C180.821 379.506 172.051 383.763 167.87 390.734C166.892 392.382 166.168 394.168 165.72 396.032V396.032C164.168 402.387 165.524 410.177 170.233 418.614C182.425 440.437 212.481 458.362 237.358 458.652C246.87 458.754 254.25 456.271 259.053 451.937C260.478 450.657 261.703 449.17 262.688 447.527C266.936 440.505 266.475 430.643 260.333 419.68Z" fill="url(#paint71_linear_11150_236864)"/>
<g style="mix-blend-mode:overlay">
<path d="M260.333 419.68C248.142 397.849 218.086 379.924 193.208 379.643C180.821 379.506 172.051 383.763 167.87 390.734C166.892 392.382 166.168 394.168 165.72 396.032V396.032C164.168 402.387 165.524 410.177 170.233 418.614C182.425 440.437 212.481 458.362 237.358 458.652C246.87 458.754 254.25 456.271 259.053 451.937C260.478 450.657 261.703 449.17 262.688 447.527C266.936 440.505 266.475 430.643 260.333 419.68Z" fill="white"/>
</g>
<path d="M199.308 446.325C186.699 438.8 176.529 428.887 170.677 418.402C166.181 410.357 164.636 402.687 166.189 396.221V396.152C166.624 394.333 167.332 392.59 168.288 390.982C172.554 383.824 181.409 379.96 193.208 380.096C205.152 380.224 218.683 384.447 231.292 391.963C243.901 399.479 254.071 409.401 259.923 419.886C265.776 430.371 266.603 440.072 262.295 447.306C261.326 448.893 260.13 450.33 258.746 451.572H258.695C253.798 455.957 246.426 458.218 237.366 458.115C225.422 457.979 211.892 453.764 199.291 446.248L199.308 446.325Z" fill="url(#paint72_linear_11150_236864)"/>
<path d="M201.467 442.693C189.523 435.544 179.865 426.194 174.371 416.349C170.43 409.302 169.022 402.698 170.285 397.341V397.187C170.623 395.783 171.169 394.437 171.906 393.195C175.361 387.393 182.894 384.262 193.114 384.382C204.325 384.51 217.096 388.511 229.066 395.652C241.035 402.792 250.667 412.151 256.161 421.988C261.229 431.057 262.09 439.281 258.592 445.15C257.848 446.388 256.922 447.506 255.845 448.469L255.752 448.563C251.657 452.189 245.309 454.049 237.375 453.963C226.165 453.835 213.402 449.834 201.433 442.693H201.467Z" fill="url(#paint73_linear_11150_236864)"/>
<path d="M205.28 419.579L212.958 419.673C213.045 420.598 212.937 421.53 212.643 422.411C212.488 422.718 212.239 422.967 211.931 423.121C211.624 423.275 211.275 423.325 210.937 423.264C209 423.264 207.106 422.002 205.255 419.536L205.28 419.579ZM221.464 416.038C221.354 415.147 221.462 414.242 221.78 413.402C222.053 412.856 222.633 412.6 223.563 412.609C225.269 412.609 227.035 413.803 228.682 416.124L221.439 416.038H221.464ZM243.1 419.971L241.027 416.26L236.326 416.209C234.146 412.84 231.336 409.923 228.05 407.618C225.409 405.692 222.256 404.594 218.99 404.461C216.209 404.461 214.298 405.178 213.257 406.611C212.216 408.044 211.889 410.555 212.276 414.144L212.472 415.936L202.917 415.825C202.021 413.94 201.323 411.968 200.835 409.938C200.308 408.106 200.021 406.214 199.982 404.308L191.843 404.214C192.04 407.515 193.294 411.355 195.648 415.748L189.472 415.68L191.536 419.383L197.858 419.459C200.053 422.907 202.913 425.882 206.27 428.213C209.112 430.226 212.488 431.348 215.97 431.437C217.431 431.551 218.892 431.209 220.15 430.456C221.17 429.664 221.845 428.509 222.036 427.231C222.351 425.755 222.275 423.273 221.857 419.775L230.951 419.877C232.246 422.593 233.069 425.51 233.383 428.503L242.016 431.13C241.649 427.215 240.488 423.415 238.604 419.963L243.177 420.014" fill="url(#paint74_linear_11150_236864)"/>
<path d="M672.892 288.804L637.931 309.117L602.739 288.796L637.692 268.482L672.892 288.804Z" fill="url(#paint75_linear_11150_236864)"/>
<path d="M672.892 288.804L672.738 427.08L637.777 447.393L637.93 309.117L672.892 288.804Z" fill="url(#paint76_linear_11150_236864)"/>
<path d="M637.931 309.12L637.777 447.396L602.577 427.074L602.739 288.798L637.931 309.12Z" fill="url(#paint77_linear_11150_236864)"/>
<path d="M724.319 367.161L689.358 387.482L654.157 367.161L689.119 346.839L724.319 367.161Z" fill="url(#paint78_linear_11150_236864)"/>
<path d="M724.319 367.161L724.157 458.028L689.204 478.35L689.358 387.482L724.319 367.161Z" fill="url(#paint79_linear_11150_236864)"/>
<path d="M689.357 387.482L689.204 478.35L654.003 458.028L654.157 367.161L689.357 387.482Z" fill="url(#paint80_linear_11150_236864)"/>
<path d="M778.075 439.451L743.113 459.764L707.913 439.443L742.875 419.129L778.075 439.451Z" fill="url(#paint81_linear_11150_236864)"/>
<path d="M778.074 439.451L777.921 487.96L742.959 508.274L743.113 459.764L778.074 439.451Z" fill="url(#paint82_linear_11150_236864)"/>
<path d="M743.113 459.766L742.96 508.276L707.759 487.954L707.913 439.445L743.113 459.766Z" fill="url(#paint83_linear_11150_236864)"/>
<g style="mix-blend-mode:overlay" opacity="0.2">
<g style="mix-blend-mode:overlay">
<path style="mix-blend-mode:overlay" d="M638.391 114.163L638.647 24.9341L814 126.167L813.744 215.396L638.391 114.163Z" fill="url(#paint84_linear_11150_236864)"/>
<g style="mix-blend-mode:overlay">
<path style="mix-blend-mode:overlay" d="M814 126.167L638.647 24.9336L638.391 114.163L813.744 215.396L814 126.167Z" fill="url(#paint85_linear_11150_236864)"/>
</g>
</g>
</g>
<g style="mix-blend-mode:overlay">
<g style="mix-blend-mode:overlay">
<path d="M776.795 138.241L789.421 145.535L789.31 186.801L776.675 179.507L776.795 138.241Z" fill="white"/>
</g>
<g style="mix-blend-mode:overlay">
<path d="M741.1 138.761L753.734 146.055L753.675 166.232L741.048 158.937L741.1 138.761Z" fill="white"/>
</g>
<g style="mix-blend-mode:overlay">
<path d="M705.532 91.5117L718.175 98.8145L718.048 145.652L705.396 138.357L705.532 91.5117Z" fill="white"/>
</g>
<g style="mix-blend-mode:overlay">
<path d="M669.871 81.4873L682.506 88.7816L682.404 125.074L669.769 117.788L669.871 81.4873Z" fill="white"/>
</g>
</g>
<defs>
<linearGradient id="paint0_linear_11150_236864" x1="662.44" y1="335.857" x2="737.772" y2="201.668" gradientUnits="userSpaceOnUse">
<stop offset="0.69" stop-color="white" stop-opacity="0"/>
<stop offset="1" stop-color="white"/>
</linearGradient>
<linearGradient id="paint1_linear_11150_236864" x1="662.44" y1="335.856" x2="737.772" y2="201.667" gradientUnits="userSpaceOnUse">
<stop offset="0.69" stop-color="white" stop-opacity="0"/>
<stop offset="1" stop-color="white"/>
</linearGradient>
<linearGradient id="paint2_linear_11150_236864" x1="140.578" y1="250.883" x2="68.5568" y2="122.589" gradientUnits="userSpaceOnUse">
<stop offset="0.69" stop-color="white" stop-opacity="0"/>
<stop offset="1" stop-color="white"/>
</linearGradient>
<linearGradient id="paint3_linear_11150_236864" x1="140.578" y1="250.883" x2="68.5568" y2="122.589" gradientUnits="userSpaceOnUse">
<stop offset="0.69" stop-color="white" stop-opacity="0"/>
<stop offset="1" stop-color="white"/>
</linearGradient>
<linearGradient id="paint4_linear_11150_236864" x1="415.782" y1="794.031" x2="415.782" y2="626.22" gradientUnits="userSpaceOnUse">
<stop stop-color="#18367F"/>
<stop offset="1" stop-color="#081849"/>
</linearGradient>
<linearGradient id="paint5_linear_11150_236864" x1="163.57" y1="555.03" x2="668.191" y2="555.03" gradientUnits="userSpaceOnUse">
<stop stop-color="#18367F"/>
<stop offset="1" stop-color="#003CBF"/>
</linearGradient>
<linearGradient id="paint6_linear_11150_236864" x1="595.905" y1="747.995" x2="232.367" y2="358.334" gradientUnits="userSpaceOnUse">
<stop stop-color="#00CBE8"/>
<stop offset="1" stop-color="#76EEE7"/>
</linearGradient>
<linearGradient id="paint7_linear_11150_236864" x1="567.538" y1="570.008" x2="633.298" y2="570.008" gradientUnits="userSpaceOnUse">
<stop stop-color="#18367F"/>
<stop offset="1" stop-color="#003CBF"/>
</linearGradient>
<linearGradient id="paint8_linear_11150_236864" x1="610.34" y1="589.125" x2="600.452" y2="565.117" gradientUnits="userSpaceOnUse">
<stop stop-color="#18367F"/>
<stop offset="1" stop-color="#081849"/>
</linearGradient>
<linearGradient id="paint9_linear_11150_236864" x1="312.34" y1="689.001" x2="279.306" y2="559.495" gradientUnits="userSpaceOnUse">
<stop stop-color="#18367F"/>
<stop offset="1" stop-color="#003CBF"/>
</linearGradient>
<linearGradient id="paint10_linear_11150_236864" x1="496.054" y1="323.283" x2="528.985" y2="323.283" gradientUnits="userSpaceOnUse">
<stop stop-color="#00CBE8"/>
<stop offset="1" stop-color="#00AAE5"/>
</linearGradient>
<linearGradient id="paint11_linear_11150_236864" x1="473.787" y1="303.93" x2="546.678" y2="303.93" gradientUnits="userSpaceOnUse">
<stop stop-color="#00CBE8"/>
<stop offset="1" stop-color="#76EEC3"/>
</linearGradient>
<linearGradient id="paint12_linear_11150_236864" x1="464.471" y1="255.635" x2="517.365" y2="255.635" gradientUnits="userSpaceOnUse">
<stop stop-color="#00CBE8"/>
<stop offset="1" stop-color="#00AAE5"/>
</linearGradient>
<linearGradient id="paint13_linear_11150_236864" x1="291.856" y1="321.133" x2="324.779" y2="321.133" gradientUnits="userSpaceOnUse">
<stop stop-color="#00CBE8"/>
<stop offset="1" stop-color="#00AAE5"/>
</linearGradient>
<linearGradient id="paint14_linear_11150_236864" x1="274.162" y1="301.774" x2="347.054" y2="301.774" gradientUnits="userSpaceOnUse">
<stop stop-color="#00CBE8"/>
<stop offset="1" stop-color="#76D8EE"/>
</linearGradient>
<linearGradient id="paint15_linear_11150_236864" x1="303.467" y1="253.468" x2="356.362" y2="253.468" gradientUnits="userSpaceOnUse">
<stop stop-color="#00CBE8"/>
<stop offset="1" stop-color="#00AAE5"/>
</linearGradient>
<linearGradient id="paint16_linear_11150_236864" x1="495.115" y1="365.086" x2="407.114" y2="277.093" gradientUnits="userSpaceOnUse">
<stop stop-color="#081849"/>
<stop offset="1" stop-color="#18367F"/>
</linearGradient>
<linearGradient id="paint17_linear_11150_236864" x1="410.408" y1="275.302" x2="410.408" y2="238.796" gradientUnits="userSpaceOnUse">
<stop stop-color="#00CBE8"/>
<stop offset="1" stop-color="#76EEC3"/>
</linearGradient>
<linearGradient id="paint18_linear_11150_236864" x1="434.475" y1="99.1321" x2="373.442" y2="31.1288" gradientUnits="userSpaceOnUse">
<stop stop-color="#00CBE8"/>
<stop offset="1" stop-color="#76E0EE"/>
</linearGradient>
<linearGradient id="paint19_linear_11150_236864" x1="449.532" y1="421.614" x2="446.683" y2="249.707" gradientUnits="userSpaceOnUse">
<stop stop-color="white"/>
<stop offset="1" stop-color="#DCDCDC"/>
</linearGradient>
<linearGradient id="paint20_linear_11150_236864" x1="458.055" y1="131.492" x2="429.501" y2="-4.86486" gradientUnits="userSpaceOnUse">
<stop stop-color="white"/>
<stop offset="1" stop-color="#00AAE5"/>
</linearGradient>
<linearGradient id="paint21_linear_11150_236864" x1="370.754" y1="165.084" x2="449.609" y2="165.084" gradientUnits="userSpaceOnUse">
<stop stop-color="#00CBE8"/>
<stop offset="1" stop-color="#76EED8"/>
</linearGradient>
<linearGradient id="paint22_linear_11150_236864" x1="378.833" y1="166.747" x2="441.53" y2="166.747" gradientUnits="userSpaceOnUse">
<stop stop-color="#081849"/>
<stop offset="1" stop-color="#18367F"/>
</linearGradient>
<linearGradient id="paint23_linear_11150_236864" x1="391.357" y1="167.812" x2="445.608" y2="121.768" gradientUnits="userSpaceOnUse">
<stop stop-color="white" stop-opacity="0"/>
<stop offset="1" stop-color="#FDFEFF"/>
</linearGradient>
<linearGradient id="paint24_linear_11150_236864" x1="407.14" y1="186.411" x2="461.391" y2="140.368" gradientUnits="userSpaceOnUse">
<stop stop-color="white" stop-opacity="0"/>
<stop offset="1" stop-color="#FDFEFF"/>
</linearGradient>
<linearGradient id="paint25_linear_11150_236864" x1="301.053" y1="390.78" x2="373.296" y2="390.78" gradientUnits="userSpaceOnUse">
<stop stop-color="#00CBE8"/>
<stop offset="1" stop-color="#76EED1"/>
</linearGradient>
<linearGradient id="paint26_linear_11150_236864" x1="291.575" y1="418.157" x2="329.787" y2="418.157" gradientUnits="userSpaceOnUse">
<stop stop-color="#00CBE8"/>
<stop offset="1" stop-color="#00AAE5"/>
</linearGradient>
<linearGradient id="paint27_linear_11150_236864" x1="320.308" y1="328.949" x2="373.168" y2="328.949" gradientUnits="userSpaceOnUse">
<stop stop-color="#00CBE8"/>
<stop offset="1" stop-color="#00AAE5"/>
</linearGradient>
<linearGradient id="paint28_linear_11150_236864" x1="447.537" y1="390.78" x2="519.78" y2="390.78" gradientUnits="userSpaceOnUse">
<stop stop-color="#00CBE8"/>
<stop offset="1" stop-color="#76EED1"/>
</linearGradient>
<linearGradient id="paint29_linear_11150_236864" x1="495.73" y1="423.242" x2="519.285" y2="414.941" gradientUnits="userSpaceOnUse">
<stop stop-color="#00CBE8"/>
<stop offset="1" stop-color="#00AAE5"/>
</linearGradient>
<linearGradient id="paint30_linear_11150_236864" x1="451.188" y1="299.149" x2="489.468" y2="348.947" gradientUnits="userSpaceOnUse">
<stop stop-color="#00BCE5"/>
<stop offset="1" stop-color="#00CBE8"/>
</linearGradient>
<linearGradient id="paint31_linear_11150_236864" x1="410.092" y1="431.177" x2="410.092" y2="398.408" gradientUnits="userSpaceOnUse">
<stop stop-color="#00CBE8"/>
<stop offset="1" stop-color="#9CEE76"/>
</linearGradient>
<linearGradient id="paint32_linear_11150_236864" x1="410.049" y1="574.654" x2="410.049" y2="434.885" gradientUnits="userSpaceOnUse">
<stop stop-color="#FF9500"/>
<stop offset="0.5" stop-color="#FFE152"/>
<stop offset="1" stop-color="white"/>
</linearGradient>
<radialGradient id="paint33_radial_11150_236864" cx="0" cy="0" r="1" gradientUnits="userSpaceOnUse" gradientTransform="translate(409.616 432.803) scale(102.606)">
<stop stop-color="#FFE355"/>
<stop offset="1"/>
</radialGradient>
<radialGradient id="paint34_radial_11150_236864" cx="0" cy="0" r="1" gradientUnits="userSpaceOnUse" gradientTransform="translate(409.025 226.982) scale(170.2 90.2062)">
<stop offset="0.69" stop-color="white" stop-opacity="0"/>
<stop offset="1" stop-color="white"/>
</radialGradient>
<radialGradient id="paint35_radial_11150_236864" cx="0" cy="0" r="1" gradientUnits="userSpaceOnUse" gradientTransform="translate(409.324 358.877) scale(137.201 72.7166)">
<stop offset="0.69" stop-color="white" stop-opacity="0"/>
<stop offset="1" stop-color="white"/>
</radialGradient>
<radialGradient id="paint36_radial_11150_236864" cx="0" cy="0" r="1" gradientUnits="userSpaceOnUse" gradientTransform="translate(410.578 559.495) scale(83.9228 46.9968)">
<stop stop-color="white" stop-opacity="0"/>
<stop offset="1" stop-color="white"/>
</radialGradient>
<linearGradient id="paint37_linear_11150_236864" x1="410.74" y1="594.616" x2="410.74" y2="434.576" gradientUnits="userSpaceOnUse">
<stop stop-color="white" stop-opacity="0"/>
<stop offset="1" stop-color="white"/>
</linearGradient>
<linearGradient id="paint38_linear_11150_236864" x1="169.687" y1="333.566" x2="137.132" y2="258.857" gradientUnits="userSpaceOnUse">
<stop stop-color="#00CBE8"/>
<stop offset="1" stop-color="#76EED1"/>
</linearGradient>
<linearGradient id="paint39_linear_11150_236864" x1="73.0359" y1="270.196" x2="198.447" y2="270.196" gradientUnits="userSpaceOnUse">
<stop stop-color="#00CBE8"/>
<stop offset="1" stop-color="#00AAE5"/>
</linearGradient>
<linearGradient id="paint40_linear_11150_236864" x1="106.974" y1="605.213" x2="106.974" y2="557.352" gradientUnits="userSpaceOnUse">
<stop stop-color="#FF9500"/>
<stop offset="1" stop-color="#FFE152"/>
</linearGradient>
<linearGradient id="paint41_linear_11150_236864" x1="51.7163" y1="554.453" x2="162.24" y2="554.453" gradientUnits="userSpaceOnUse">
<stop stop-color="#FF9500"/>
<stop offset="1" stop-color="#FFAF52"/>
</linearGradient>
<linearGradient id="paint42_linear_11150_236864" x1="112.851" y1="583.494" x2="100.6" y2="522.87" gradientUnits="userSpaceOnUse">
<stop stop-color="#FF9500"/>
<stop offset="1" stop-color="#FF8752"/>
</linearGradient>
<linearGradient id="paint43_linear_11150_236864" x1="151.592" y1="589.237" x2="83.1109" y2="535.84" gradientUnits="userSpaceOnUse">
<stop stop-color="#FF9500"/>
<stop offset="1" stop-color="#FFE152"/>
</linearGradient>
<linearGradient id="paint44_linear_11150_236864" x1="89.4584" y1="592.307" x2="114.455" y2="537.382" gradientUnits="userSpaceOnUse">
<stop stop-color="#FF9500"/>
<stop offset="1" stop-color="#FF5552"/>
</linearGradient>
<linearGradient id="paint45_linear_11150_236864" x1="115.001" y1="586.215" x2="115.001" y2="538.354" gradientUnits="userSpaceOnUse">
<stop stop-color="#FF9500"/>
<stop offset="1" stop-color="#FFE152"/>
</linearGradient>
<linearGradient id="paint46_linear_11150_236864" x1="59.7354" y1="535.452" x2="170.267" y2="535.452" gradientUnits="userSpaceOnUse">
<stop stop-color="#FF9500"/>
<stop offset="1" stop-color="#FFAF52"/>
</linearGradient>
<linearGradient id="paint47_linear_11150_236864" x1="120.871" y1="564.5" x2="108.62" y2="503.877" gradientUnits="userSpaceOnUse">
<stop stop-color="#FF9500"/>
<stop offset="1" stop-color="#FF8752"/>
</linearGradient>
<linearGradient id="paint48_linear_11150_236864" x1="159.612" y1="570.244" x2="91.131" y2="516.846" gradientUnits="userSpaceOnUse">
<stop stop-color="#FF9500"/>
<stop offset="1" stop-color="#FFE152"/>
</linearGradient>
<linearGradient id="paint49_linear_11150_236864" x1="97.4864" y1="573.305" x2="122.483" y2="518.38" gradientUnits="userSpaceOnUse">
<stop stop-color="#FF9500"/>
<stop offset="1" stop-color="#FF5552"/>
</linearGradient>
<linearGradient id="paint50_linear_11150_236864" x1="114.686" y1="555.124" x2="114.686" y2="507.272" gradientUnits="userSpaceOnUse">
<stop stop-color="#FF9500"/>
<stop offset="1" stop-color="#FFE152"/>
</linearGradient>
<linearGradient id="paint51_linear_11150_236864" x1="59.4199" y1="504.374" x2="169.952" y2="504.374" gradientUnits="userSpaceOnUse">
<stop stop-color="#FF9500"/>
<stop offset="1" stop-color="#FFAF52"/>
</linearGradient>
<linearGradient id="paint52_linear_11150_236864" x1="120.564" y1="533.412" x2="108.313" y2="472.788" gradientUnits="userSpaceOnUse">
<stop stop-color="#FF9500"/>
<stop offset="1" stop-color="#FF8752"/>
</linearGradient>
<linearGradient id="paint53_linear_11150_236864" x1="159.296" y1="539.153" x2="90.8233" y2="485.755" gradientUnits="userSpaceOnUse">
<stop stop-color="#FF9500"/>
<stop offset="1" stop-color="#FFE152"/>
</linearGradient>
<linearGradient id="paint54_linear_11150_236864" x1="97.1705" y1="542.231" x2="122.167" y2="487.306" gradientUnits="userSpaceOnUse">
<stop stop-color="#FF9500"/>
<stop offset="1" stop-color="#FF5552"/>
</linearGradient>
<linearGradient id="paint55_linear_11150_236864" x1="577.844" y1="723.964" x2="577.844" y2="676.104" gradientUnits="userSpaceOnUse">
<stop stop-color="#FF9500"/>
<stop offset="1" stop-color="#FFE152"/>
</linearGradient>
<linearGradient id="paint56_linear_11150_236864" x1="522.578" y1="673.199" x2="633.11" y2="673.199" gradientUnits="userSpaceOnUse">
<stop stop-color="#FF9500"/>
<stop offset="1" stop-color="#FFAF52"/>
</linearGradient>
<linearGradient id="paint57_linear_11150_236864" x1="583.713" y1="702.247" x2="571.462" y2="641.624" gradientUnits="userSpaceOnUse">
<stop stop-color="#FF9500"/>
<stop offset="1" stop-color="#FF8752"/>
</linearGradient>
<linearGradient id="paint58_linear_11150_236864" x1="622.454" y1="707.992" x2="553.973" y2="654.585" gradientUnits="userSpaceOnUse">
<stop stop-color="#FF9500"/>
<stop offset="1" stop-color="#FFE152"/>
</linearGradient>
<linearGradient id="paint59_linear_11150_236864" x1="560.329" y1="711.053" x2="585.317" y2="656.128" gradientUnits="userSpaceOnUse">
<stop stop-color="#FF9500"/>
<stop offset="1" stop-color="#FF5552"/>
</linearGradient>
<linearGradient id="paint60_linear_11150_236864" x1="226.603" y1="81.9901" x2="263.934" y2="52.3164" gradientUnits="userSpaceOnUse">
<stop stop-color="#FF9500"/>
<stop offset="1" stop-color="#FFE152"/>
</linearGradient>
<linearGradient id="paint61_linear_11150_236864" x1="231.932" y1="7.41138" x2="300.462" y2="93.6264" gradientUnits="userSpaceOnUse">
<stop stop-color="#FF9500"/>
<stop offset="1" stop-color="#FFAF52"/>
</linearGradient>
<linearGradient id="paint62_linear_11150_236864" x1="247.185" y1="73.1042" x2="286.875" y2="25.9617" gradientUnits="userSpaceOnUse">
<stop stop-color="#FF9500"/>
<stop offset="1" stop-color="#FF8752"/>
</linearGradient>
<linearGradient id="paint63_linear_11150_236864" x1="266.725" y1="106.882" x2="265.917" y2="20.3606" gradientUnits="userSpaceOnUse">
<stop stop-color="#FF9500"/>
<stop offset="1" stop-color="#FFE152"/>
</linearGradient>
<linearGradient id="paint64_linear_11150_236864" x1="225.812" y1="60.3247" x2="284.152" y2="45.7689" gradientUnits="userSpaceOnUse">
<stop stop-color="#FF9500"/>
<stop offset="1" stop-color="#FF5552"/>
</linearGradient>
<linearGradient id="paint65_linear_11150_236864" x1="622.85" y1="157.184" x2="588.875" y2="123.209" gradientUnits="userSpaceOnUse">
<stop stop-color="#FF9500"/>
<stop offset="1" stop-color="#FFE152"/>
</linearGradient>
<linearGradient id="paint66_linear_11150_236864" x1="547.577" y1="160.387" x2="626.055" y2="81.9092" gradientUnits="userSpaceOnUse">
<stop stop-color="#FF9500"/>
<stop offset="1" stop-color="#FFAF52"/>
</linearGradient>
<linearGradient id="paint67_linear_11150_236864" x1="611.608" y1="137.59" x2="559.867" y2="103.245" gradientUnits="userSpaceOnUse">
<stop stop-color="#FF9500"/>
<stop offset="1" stop-color="#FF8752"/>
</linearGradient>
<linearGradient id="paint68_linear_11150_236864" x1="643.191" y1="114.164" x2="556.657" y2="124.874" gradientUnits="userSpaceOnUse">
<stop stop-color="#FF9500"/>
<stop offset="1" stop-color="#FFE152"/>
</linearGradient>
<linearGradient id="paint69_linear_11150_236864" x1="601.256" y1="160.458" x2="580.007" y2="103.713" gradientUnits="userSpaceOnUse">
<stop stop-color="#FF9500"/>
<stop offset="1" stop-color="#FF5552"/>
</linearGradient>
<linearGradient id="paint70_linear_11150_236864" x1="188.856" y1="462.143" x2="213.265" y2="420.983" gradientUnits="userSpaceOnUse">
<stop stop-color="#FF9500"/>
<stop offset="1" stop-color="#FFE152"/>
</linearGradient>
<linearGradient id="paint71_linear_11150_236864" x1="167.215" y1="390.302" x2="262.273" y2="446.673" gradientUnits="userSpaceOnUse">
<stop stop-color="#FF9500"/>
<stop offset="1" stop-color="#FFAF52"/>
</linearGradient>
<linearGradient id="paint72_linear_11150_236864" x1="204.981" y1="446.457" x2="225.37" y2="388.077" gradientUnits="userSpaceOnUse">
<stop stop-color="#FF9500"/>
<stop offset="1" stop-color="#FF8752"/>
</linearGradient>
<linearGradient id="paint73_linear_11150_236864" x1="235.37" y1="471.156" x2="203.716" y2="390.313" gradientUnits="userSpaceOnUse">
<stop stop-color="#FF9500"/>
<stop offset="1" stop-color="#FFE152"/>
</linearGradient>
<linearGradient id="paint74_linear_11150_236864" x1="180.376" y1="442.11" x2="229.885" y2="407.623" gradientUnits="userSpaceOnUse">
<stop stop-color="#FF9500"/>
<stop offset="1" stop-color="#FF5552"/>
</linearGradient>
<linearGradient id="paint75_linear_11150_236864" x1="602.739" y1="288.796" x2="672.892" y2="288.796" gradientUnits="userSpaceOnUse">
<stop stop-color="#00CBE8"/>
<stop offset="1" stop-color="#00CDE9"/>
</linearGradient>
<linearGradient id="paint76_linear_11150_236864" x1="690.014" y1="402.774" x2="611.773" y2="324.533" gradientUnits="userSpaceOnUse">
<stop stop-color="#00CBE8"/>
<stop offset="1" stop-color="#00AAE5"/>
</linearGradient>
<linearGradient id="paint77_linear_11150_236864" x1="579.448" y1="368.097" x2="633.853" y2="368.097" gradientUnits="userSpaceOnUse">
<stop stop-color="#00BEE8"/>
<stop offset="1" stop-color="#76EEC3"/>
</linearGradient>
<linearGradient id="paint78_linear_11150_236864" x1="654.166" y1="367.161" x2="724.319" y2="367.161" gradientUnits="userSpaceOnUse">
<stop stop-color="#00CBE8"/>
<stop offset="1" stop-color="#00BFE9"/>
</linearGradient>
<linearGradient id="paint79_linear_11150_236864" x1="730.675" y1="446.673" x2="676.714" y2="392.712" gradientUnits="userSpaceOnUse">
<stop stop-color="#00CBE8"/>
<stop offset="1" stop-color="#00AAE5"/>
</linearGradient>
<linearGradient id="paint80_linear_11150_236864" x1="630.875" y1="422.751" x2="685.279" y2="422.751" gradientUnits="userSpaceOnUse">
<stop stop-color="#00CBE8"/>
<stop offset="1" stop-color="#76EED1"/>
</linearGradient>
<linearGradient id="paint81_linear_11150_236864" x1="707.922" y1="439.451" x2="778.075" y2="439.451" gradientUnits="userSpaceOnUse">
<stop stop-color="#00A2E8"/>
<stop offset="1" stop-color="#00E9E9"/>
</linearGradient>
<linearGradient id="paint82_linear_11150_236864" x1="774.815" y1="488.165" x2="742.55" y2="455.9" gradientUnits="userSpaceOnUse">
<stop stop-color="#00CBE8"/>
<stop offset="1" stop-color="#00AAE5"/>
</linearGradient>
<linearGradient id="paint83_linear_11150_236864" x1="684.631" y1="473.86" x2="739.035" y2="473.86" gradientUnits="userSpaceOnUse">
<stop stop-color="#00CBE8"/>
<stop offset="1" stop-color="#76EEE7"/>
</linearGradient>
<linearGradient id="paint84_linear_11150_236864" x1="667.986" y1="223.851" x2="743.318" y2="89.6614" gradientUnits="userSpaceOnUse">
<stop offset="0.69" stop-color="white" stop-opacity="0"/>
<stop offset="1" stop-color="white"/>
</linearGradient>
<linearGradient id="paint85_linear_11150_236864" x1="667.986" y1="223.85" x2="743.318" y2="89.6609" gradientUnits="userSpaceOnUse">
<stop offset="0.69" stop-color="white" stop-opacity="0"/>
<stop offset="1" stop-color="white"/>
</linearGradient>
</defs>
</svg>
