<svg width="6" height="12" viewBox="0 0 6 12" fill="none" xmlns="http://www.w3.org/2000/svg">
<path d="M5.52849 5.64517L0.477546 0.690536C0.464347 0.677486 0.448486 0.669376 0.431783 0.667137C0.41508 0.664899 0.398213 0.668622 0.383119 0.67788C0.368025 0.687138 0.355317 0.701554 0.346453 0.719474C0.337589 0.737394 0.332929 0.758091 0.333009 0.779187V1.86693C0.333009 1.93588 0.358779 2.00202 0.401356 2.04423L4.43494 5.99978L0.401356 9.95533C0.357659 9.99754 0.333009 10.0637 0.333009 10.1326V11.2204C0.333009 11.3146 0.419283 11.3667 0.477546 11.309L5.52849 6.35438C5.57142 6.31233 5.60615 6.25853 5.63004 6.19708C5.65393 6.13564 5.66634 6.06816 5.66634 5.99978C5.66634 5.9314 5.65393 5.86392 5.63004 5.80247C5.60615 5.74103 5.57142 5.68723 5.52849 5.64517Z" fill="white"/>
</svg>
