<svg width="32" height="33" viewBox="0 0 32 33" fill="none" xmlns="http://www.w3.org/2000/svg">
<rect y="0.833252" width="32" height="32" rx="4" fill="#34AADF"/>
<path d="M5.30791 15.1822C5.30791 15.1822 14.7431 11.3099 18.0154 9.94638C19.2699 9.40102 23.5239 7.65571 23.5239 7.65571C23.5239 7.65571 25.4873 6.89221 25.3236 8.74651C25.2691 9.51009 24.8328 12.1825 24.3965 15.0731C23.742 19.1636 23.033 23.6358 23.033 23.6358C23.033 23.6358 22.9239 24.8902 21.9968 25.1083C21.0696 25.3265 19.5425 24.3448 19.2699 24.1266C19.0516 23.9631 15.1794 21.5087 13.7614 20.3089C13.3796 19.9816 12.9433 19.3272 13.8159 18.5636C15.7793 16.7638 18.1245 14.5277 19.5425 13.1097C20.197 12.4552 20.8514 10.9281 18.1245 12.7824C14.2523 15.4549 10.4346 17.9637 10.4346 17.9637C10.4346 17.9637 9.56191 18.5091 7.92577 18.0182C6.28955 17.5274 4.38069 16.8729 4.38069 16.8729C4.38069 16.8729 3.07184 16.0548 5.30791 15.1822Z" fill="white"/>
</svg>
