<svg width="32" height="33" viewBox="0 0 32 33" fill="none" xmlns="http://www.w3.org/2000/svg">
<rect y="0.833252" width="32" height="32" rx="4" fill="#1DA1F2"/>
<g clip-path="url(#clip0_11883_27784)">
<path d="M12.0441 24.8334C20.0949 24.8334 24.4975 18.164 24.4975 12.3805C24.4975 12.1911 24.4937 12.0026 24.4851 11.8148C25.3418 11.195 26.0811 10.4275 26.6684 9.54844C25.8842 9.89709 25.0402 10.1317 24.1549 10.2375C25.0586 9.69572 25.7523 8.83853 26.0796 7.81677C25.2204 8.32644 24.2805 8.68572 23.3003 8.87914C22.5016 8.02841 21.3645 7.49634 20.1054 7.49634C17.6883 7.49634 15.7282 9.45638 15.7282 11.8724C15.7282 12.2159 15.7667 12.5499 15.8418 12.8704C12.204 12.6874 8.97834 10.9458 6.81954 8.29757C6.43072 8.9655 6.22621 9.72461 6.22689 10.4974C6.22689 12.0159 6.99958 13.3563 8.17465 14.1406C7.47958 14.1193 6.79977 13.9316 6.19238 13.5931C6.19172 13.6115 6.19172 13.6294 6.19172 13.6491C6.19172 15.7686 7.70042 17.5384 9.70316 17.9394C9.32702 18.0418 8.93888 18.0936 8.54903 18.0934C8.26749 18.0934 7.9931 18.0657 7.72643 18.0145C8.28366 19.7535 9.89945 21.019 11.8152 21.0543C10.3171 22.2284 8.43 22.9278 6.379 22.9278C6.0301 22.9281 5.68148 22.9078 5.33496 22.8671C7.27206 24.1087 9.57217 24.8331 12.0443 24.8331" fill="white"/>
</g>
<defs>
<clipPath id="clip0_11883_27784">
<rect width="21.3333" height="17.3333" fill="white" transform="translate(5.33337 7.5)"/>
</clipPath>
</defs>
</svg>
