<svg width="407" height="74" viewBox="0 0 407 74" fill="none" xmlns="http://www.w3.org/2000/svg">
<ellipse cx="37.5" cy="37.333" rx="37.5" ry="36.5" fill="url(#paint0_linear_10741_232880)"/>
<path d="M25.7495 34.8991C25.7495 41.3441 31.0154 46.5863 37.4894 46.5863C43.9635 46.5863 49.2294 41.3441 49.2294 34.8991C49.2294 28.5159 44.1183 23.3661 37.7373 23.2119H37.2416C30.8915 23.3661 25.7495 28.5467 25.7495 34.8991Z" fill="white"/>
<path d="M54.123 38.5916L62.8583 23.5123C64.0664 21.4463 62.5485 18.856 60.1634 18.856H42.8477C42.5999 18.856 42.4141 19.041 42.4141 19.2877C42.4141 19.411 42.476 19.5035 42.538 19.596C42.5689 19.6269 42.6309 19.6577 42.6928 19.6886C49.1669 21.8163 53.6894 27.8295 53.6894 34.9529C53.6894 34.9529 53.6584 36.1555 53.3486 38.3449C53.3176 38.5916 53.5345 38.7766 53.7823 38.7766C53.9062 38.7458 54.0301 38.6841 54.123 38.5916Z" fill="white"/>
<path d="M21.2258 38.7458C21.4736 38.7458 21.7214 38.5608 21.6595 38.3141C21.3497 36.8031 21.3187 34.922 21.3187 34.922C21.3187 27.7987 25.8722 21.8163 32.3152 19.6886C32.3772 19.6577 32.4082 19.6269 32.4701 19.596C32.5631 19.5035 32.594 19.411 32.594 19.2877C32.594 19.041 32.4082 18.856 32.1604 18.856H14.8447C12.4286 18.856 10.9417 21.4463 12.1498 23.5123L20.8851 38.5916C20.947 38.6841 21.1019 38.7458 21.2258 38.7458Z" fill="white"/>
<path d="M48.8843 47.0418C48.7604 46.826 48.4506 46.7026 48.2958 46.8876C47.3665 47.8127 45.5389 48.8612 45.5389 48.8612C39.3127 52.4074 31.8165 51.4515 26.7674 46.9493C26.7364 46.9185 26.6744 46.8876 26.6125 46.8568C26.4886 46.826 26.3956 46.826 26.2717 46.8876C26.0549 47.011 25.993 47.2577 26.1169 47.4735L34.7282 62.4603C35.9363 64.5264 38.91 64.5572 40.149 62.4911L48.9463 47.4427C48.9463 47.3193 48.9463 47.1652 48.8843 47.0418Z" fill="white"/>
<path d="M130.722 58.833L151.083 16.4302H140.3L125.541 46.8886L110.783 16.4302H100L120.421 58.833H130.722Z" fill="url(#paint1_linear_10741_232880)"/>
<path d="M157.707 16.4302V24.8511H195.357V16.4302H157.707ZM157.707 33.1525V41.5136H195.357V33.1525H157.707ZM157.888 49.815V58.2358H195.357V49.815H157.888Z" fill="url(#paint2_linear_10741_232880)"/>
<path d="M231.288 58.2358C239.782 58.2358 244.179 52.3233 244.179 46.2316C244.179 42.2302 242.312 38.1691 238.396 35.6608C239.902 33.5705 240.686 31.0622 240.686 28.5538C240.686 22.4622 236.288 16.4302 227.493 16.4302H204.181V24.015H225.385C228.818 24.015 230.565 26.3441 230.565 28.6136C230.565 30.9427 228.818 33.2122 225.385 33.2122H204.181V40.6775H229.18C232.614 40.6775 234.36 43.0066 234.36 45.3358C234.36 47.7247 232.614 50.0538 229.18 50.0538H204.181V58.2358H231.288Z" fill="url(#paint3_linear_10741_232880)"/>
<path d="M250.622 58.2358H261.405L276.163 27.7775L290.922 58.2358H301.704L281.344 15.833H271.043L250.622 58.2358Z" fill="url(#paint4_linear_10741_232880)"/>
<path d="M307.305 58.2358H317.485V29.4497L342.063 58.3552L353.568 58.2358L317.485 16.4302H307.305V58.2358ZM343.388 35.7802L353.568 47.0677V16.4302H343.388V35.7802Z" fill="url(#paint5_linear_10741_232880)"/>
<path d="M395.073 58.2358H407L389.832 35.1233L404.289 16.4302H392.422L378.326 34.8247L395.073 58.2358ZM362.544 58.2358H372.724V16.4302H362.544V58.2358Z" fill="url(#paint6_linear_10741_232880)"/>
<defs>
<linearGradient id="paint0_linear_10741_232880" x1="0" y1="0.833008" x2="70.8329" y2="14.4805" gradientUnits="userSpaceOnUse">
<stop offset="0.244792" stop-color="#00FFFE"/>
<stop offset="1" stop-color="#00A1FA"/>
</linearGradient>
<linearGradient id="paint1_linear_10741_232880" x1="100" y1="15.833" x2="207.677" y2="160.002" gradientUnits="userSpaceOnUse">
<stop offset="0.244792" stop-color="#00FFFE"/>
<stop offset="1" stop-color="#00A1FA"/>
</linearGradient>
<linearGradient id="paint2_linear_10741_232880" x1="100" y1="15.833" x2="207.677" y2="160.002" gradientUnits="userSpaceOnUse">
<stop offset="0.244792" stop-color="#00FFFE"/>
<stop offset="1" stop-color="#00A1FA"/>
</linearGradient>
<linearGradient id="paint3_linear_10741_232880" x1="100" y1="15.833" x2="207.677" y2="160.002" gradientUnits="userSpaceOnUse">
<stop offset="0.244792" stop-color="#00FFFE"/>
<stop offset="1" stop-color="#00A1FA"/>
</linearGradient>
<linearGradient id="paint4_linear_10741_232880" x1="100" y1="15.833" x2="207.677" y2="160.002" gradientUnits="userSpaceOnUse">
<stop offset="0.244792" stop-color="#00FFFE"/>
<stop offset="1" stop-color="#00A1FA"/>
</linearGradient>
<linearGradient id="paint5_linear_10741_232880" x1="100" y1="15.833" x2="207.677" y2="160.002" gradientUnits="userSpaceOnUse">
<stop offset="0.244792" stop-color="#00FFFE"/>
<stop offset="1" stop-color="#00A1FA"/>
</linearGradient>
<linearGradient id="paint6_linear_10741_232880" x1="100" y1="15.833" x2="207.677" y2="160.002" gradientUnits="userSpaceOnUse">
<stop offset="0.244792" stop-color="#00FFFE"/>
<stop offset="1" stop-color="#00A1FA"/>
</linearGradient>
</defs>
</svg>
