<svg width="32" height="33" viewBox="0 0 32 33" fill="none" xmlns="http://www.w3.org/2000/svg">
<g clip-path="url(#clip0_11883_27791)">
<path d="M0.00292969 24.6699V24.6713C0.0221415 25.381 0.0285454 26.0948 0.147915 26.8C0.274969 27.5462 0.456584 28.2738 0.803037 28.951C1.27146 29.8676 1.91275 30.6419 2.7269 31.274C3.30992 31.7279 3.94685 32.0884 4.65193 32.3157C5.67988 32.6468 6.7405 32.7737 7.81662 32.7799C8.48801 32.7841 9.15901 32.8009 9.83066 32.7981C14.7081 32.7776 19.5858 32.8333 24.4635 32.768C25.1107 32.7593 25.7474 32.6804 26.3826 32.5645C27.6001 32.342 28.6761 31.8228 29.5968 31.0033C30.6697 30.0479 31.3936 28.8785 31.7204 27.4673C31.9342 26.5448 31.9877 25.609 31.9968 24.6698V24.4825C31.9968 24.4098 31.9692 8.52498 31.9666 8.31501C31.9596 7.7383 31.9169 7.16581 31.8087 6.59831C31.6769 5.90677 31.4908 5.23287 31.1592 4.60732C30.8089 3.94621 30.3702 3.35198 29.8272 2.83256C28.9961 2.0368 28.0369 1.47415 26.9198 1.17646C25.9113 0.90793 24.8825 0.848085 23.8459 0.849108C23.8426 0.844448 23.8406 0.838964 23.8401 0.833252H8.15385C8.15385 0.838623 8.15385 0.843865 8.15295 0.849108C7.56469 0.85985 6.97566 0.855374 6.39046 0.927878C5.74943 1.00742 5.11442 1.12723 4.50771 1.35101C3.55199 1.70394 2.72153 2.25367 2.01223 2.9878C1.20853 3.81897 0.641786 4.78084 0.341569 5.90063C0.0732448 6.89971 0.014841 7.9186 0.0134321 8.94479" fill="white"/>
<path d="M16.5667 25.6231L11.3213 25.5273C9.623 25.494 7.92045 25.5606 6.25543 25.2148C3.72255 24.6982 3.54311 22.1652 3.35534 20.0404C3.09663 17.0533 3.19678 14.0119 3.68502 11.0497C3.96064 9.38763 5.04534 8.39585 6.72279 8.28792C12.3854 7.89624 18.0857 7.94266 23.7357 8.12539C24.3324 8.14215 24.9333 8.2337 25.5217 8.33792C28.4261 8.84622 28.4969 11.7167 28.6852 14.1332C28.873 16.5745 28.7937 19.0284 28.4348 21.4532C28.1469 23.4608 27.596 25.1444 25.2713 25.3069C22.3585 25.5194 19.5126 25.6905 16.5916 25.636C16.5918 25.6231 16.575 25.6231 16.5667 25.6231ZM13.4829 20.5404C15.6779 19.2821 17.831 18.0448 20.0135 16.795C17.8144 15.5367 15.6654 14.2994 13.4829 13.0496V20.5404Z" fill="#FF0000"/>
</g>
<defs>
<clipPath id="clip0_11883_27791">
<rect width="32" height="32" fill="white" transform="translate(0 0.833252)"/>
</clipPath>
</defs>
</svg>
