<svg width="24" height="20" viewBox="0 0 24 20" fill="none" xmlns="http://www.w3.org/2000/svg">
<path d="M20.25 3.25V2.875C20.25 1.42773 18.9042 0.25 17.25 0.25H5.25C2.76855 0.25 0.75 2.26855 0.75 4.75V16.75C0.75 18.4045 2.09583 19.75 3.75 19.75H20.25C21.9042 19.75 23.25 18.4045 23.25 16.75V6.25C23.25 4.59546 21.9042 3.25 20.25 3.25ZM21.75 12.25H21C20.5865 12.25 20.25 11.9138 20.25 11.5C20.25 11.0862 20.5865 10.75 21 10.75H21.75V12.25ZM20.25 18.25H3.75C2.92273 18.25 2.25 17.5769 2.25 16.75V4.75C2.25 3.09546 3.59583 1.75 5.25 1.75H17.25C18.063 1.75 18.75 2.26489 18.75 2.875V3.25H6.75C6.33582 3.25 6 3.58545 6 4C6 4.41455 6.33582 4.75 6.75 4.75H20.25C21.0773 4.75 21.75 5.4231 21.75 6.25V9.25H21C19.7593 9.25 18.75 10.2593 18.75 11.5C18.75 12.7407 19.7593 13.75 21 13.75H21.75V16.75C21.75 17.5769 21.0773 18.25 20.25 18.25ZM16.2429 9.50708C16.5359 9.80005 16.5359 10.2747 16.2429 10.5676C16.0964 10.7141 15.9045 10.7874 15.7126 10.7874C15.5208 10.7874 15.3289 10.7141 15.1824 10.5676C14.3328 9.71802 13.2023 9.25 12 9.25C10.7974 9.25 9.66724 9.71802 8.81763 10.5676C8.52539 10.8606 8.05005 10.8606 7.75708 10.5676C7.46411 10.2747 7.46411 9.80005 7.75708 9.50708C8.8894 8.37402 10.3964 7.75 12 7.75C13.6033 7.75 15.1099 8.37402 16.2429 9.50708ZM14.1204 11.6296C14.4133 11.9226 14.4133 12.3972 14.1204 12.6902C13.9739 12.8367 13.782 12.9099 13.5901 12.9099C13.3982 12.9099 13.2063 12.8367 13.0598 12.6902C12.4922 12.1218 11.5078 12.1218 10.9402 12.6902C10.6472 12.9832 10.1726 12.9832 9.87964 12.6902C9.58667 12.3972 9.58667 11.9226 9.87964 11.6296C11.0142 10.4944 12.9858 10.4944 14.1204 11.6296ZM12.75 14.5C12.75 14.9146 12.4142 15.25 12 15.25C11.5858 15.25 11.25 14.9146 11.25 14.5C11.25 14.0854 11.5858 13.75 12 13.75C12.4142 13.75 12.75 14.0854 12.75 14.5Z" fill="url(#paint0_linear_9006_715)"/>
<defs>
<linearGradient id="paint0_linear_9006_715" x1="0.75" y1="0.25" x2="23.9852" y2="1.16941" gradientUnits="userSpaceOnUse">
<stop stop-color="#0FE3E3"/>
<stop offset="1" stop-color="#02A4FF"/>
</linearGradient>
</defs>
</svg>
