<svg width="46" height="43" viewBox="0 0 46 43" fill="none" xmlns="http://www.w3.org/2000/svg">
<path d="M12.3679 15.3209C12.3679 21.4087 17.011 26.3605 22.7192 26.3605C28.4275 26.3605 33.0706 21.4087 33.0706 15.3209C33.0706 9.29133 28.5641 4.42691 22.9377 4.28127H22.5007C16.9017 4.42691 12.3679 9.32045 12.3679 15.3209Z" fill="url(#paint0_linear_9853_3406)"/>
<path d="M37.3865 18.8086L45.0886 4.56487C46.1538 2.61328 44.8155 0.166504 42.7124 0.166504H27.4449C27.2264 0.166504 27.0625 0.341273 27.0625 0.5743C27.0625 0.690813 27.1171 0.778197 27.1718 0.865582C27.1991 0.894711 27.2537 0.923839 27.3083 0.952967C33.0166 2.96282 37.0042 8.64283 37.0042 15.3715C37.0042 15.3715 36.9768 16.5075 36.7037 18.5756C36.6764 18.8086 36.8676 18.9834 37.0861 18.9834C37.1954 18.9542 37.3046 18.896 37.3865 18.8086Z" fill="url(#paint1_linear_9853_3406)"/>
<path d="M8.38041 18.9542C8.59891 18.9542 8.81741 18.7795 8.76278 18.5464C8.48966 17.1192 8.46235 15.3423 8.46235 15.3423C8.46235 8.6137 12.4773 2.96282 18.1582 0.952967C18.2128 0.923839 18.2401 0.894711 18.2948 0.865582C18.3767 0.778197 18.404 0.690813 18.404 0.5743C18.404 0.341273 18.2401 0.166504 18.0216 0.166504H2.75409C0.623734 0.166504 -0.687253 2.61328 0.377924 4.56487L8.07998 18.8086C8.1346 18.896 8.27116 18.9542 8.38041 18.9542Z" fill="url(#paint2_linear_9853_3406)"/>
<path d="M32.7709 26.7907C32.6616 26.5868 32.3885 26.4703 32.2519 26.6451C31.4326 27.5189 29.8212 28.5093 29.8212 28.5093C24.3314 31.859 17.7218 30.956 13.2699 26.7033C13.2426 26.6742 13.188 26.6451 13.1334 26.6159C13.0241 26.5868 12.9422 26.5868 12.8329 26.6451C12.6417 26.7616 12.5871 26.9946 12.6964 27.1985L20.2892 41.3548C21.3544 43.3064 23.9763 43.3355 25.0688 41.384L32.8255 27.1694C32.8255 27.0529 32.8255 26.9072 32.7709 26.7907Z" fill="url(#paint3_linear_9853_3406)"/>
<defs>
<linearGradient id="paint0_linear_9853_3406" x1="0" y1="0.166504" x2="42.8209" y2="8.72317" gradientUnits="userSpaceOnUse">
<stop offset="0.244792" stop-color="#00FFFE"/>
<stop offset="1" stop-color="#00A1FA"/>
</linearGradient>
<linearGradient id="paint1_linear_9853_3406" x1="0" y1="0.166504" x2="42.8209" y2="8.72317" gradientUnits="userSpaceOnUse">
<stop offset="0.244792" stop-color="#00FFFE"/>
<stop offset="1" stop-color="#00A1FA"/>
</linearGradient>
<linearGradient id="paint2_linear_9853_3406" x1="0" y1="0.166504" x2="42.8209" y2="8.72317" gradientUnits="userSpaceOnUse">
<stop offset="0.244792" stop-color="#00FFFE"/>
<stop offset="1" stop-color="#00A1FA"/>
</linearGradient>
<linearGradient id="paint3_linear_9853_3406" x1="0" y1="0.166504" x2="42.8209" y2="8.72317" gradientUnits="userSpaceOnUse">
<stop offset="0.244792" stop-color="#00FFFE"/>
<stop offset="1" stop-color="#00A1FA"/>
</linearGradient>
</defs>
</svg>
