<svg width="24" height="24" viewBox="0 0 24 24" fill="none" xmlns="http://www.w3.org/2000/svg">
<rect width="24" height="24" rx="4" fill="url(#paint0_linear_9861_27964)"/>
<path d="M3.98093 10.7616C3.98093 10.7616 11.0574 7.85743 13.5116 6.83479C14.4524 6.42577 17.6429 5.11678 17.6429 5.11678C17.6429 5.11678 19.1155 4.54416 18.9927 5.93488C18.9518 6.50757 18.6246 8.51186 18.2974 10.6798C17.8065 13.7477 17.2747 17.1018 17.2747 17.1018C17.2747 17.1018 17.1929 18.0427 16.4976 18.2063C15.8022 18.3699 14.6569 17.6336 14.4524 17.47C14.2887 17.3473 11.3846 15.5066 10.3211 14.6066C10.0347 14.3612 9.70751 13.8704 10.3619 13.2977C11.8345 11.9479 13.5934 10.2708 14.6569 9.20728C15.1477 8.7164 15.6386 7.57108 13.5934 8.96181C10.6892 10.9662 7.82592 12.8478 7.82592 12.8478C7.82592 12.8478 7.17144 13.2568 5.94433 12.8886C4.71716 12.5206 3.28552 12.0297 3.28552 12.0297C3.28552 12.0297 2.30388 11.4161 3.98093 10.7616Z" fill="white"/>
<defs>
<linearGradient id="paint0_linear_9861_27964" x1="0" y1="0" x2="24.7939" y2="0.85027" gradientUnits="userSpaceOnUse">
<stop stop-color="#0FE3E3"/>
<stop offset="1" stop-color="#02A4FF"/>
</linearGradient>
</defs>
</svg>
