<svg width="24" height="24" viewBox="0 0 24 24" fill="none" xmlns="http://www.w3.org/2000/svg">
<rect width="24" height="24" rx="4" fill="url(#paint0_linear_9861_27971)"/>
<g clip-path="url(#clip0_9861_27971)">
<path d="M9.03284 17.9999C15.0709 17.9999 18.3729 12.9978 18.3729 8.66022C18.3729 8.51817 18.37 8.37676 18.3636 8.23594C19.0061 7.77106 19.5606 7.19547 20.0011 6.53615C19.4129 6.79763 18.7799 6.97363 18.1159 7.05298C18.7937 6.64661 19.314 6.00372 19.5595 5.23739C18.9151 5.61964 18.2101 5.88911 17.475 6.03417C16.8759 5.39613 16.0231 4.99707 15.0788 4.99707C13.266 4.99707 11.7959 6.4671 11.7959 8.27914C11.7959 8.53676 11.8248 8.78726 11.8811 9.02762C9.15278 8.89034 6.73351 7.58414 5.11441 5.598C4.8228 6.09894 4.66941 6.66827 4.66992 7.24786C4.66992 8.38671 5.24944 9.39205 6.13074 9.98024C5.60944 9.96431 5.09958 9.82351 4.64404 9.56967C4.64355 9.58345 4.64355 9.59688 4.64355 9.61161C4.64355 11.2013 5.77507 12.5286 7.27713 12.8293C6.99502 12.9062 6.70392 12.945 6.41153 12.9448C6.20037 12.9448 5.99458 12.9241 5.79458 12.8857C6.2125 14.1899 7.42435 15.139 8.86114 15.1656C7.73758 16.0461 6.32226 16.5706 4.78401 16.5706C4.52233 16.5709 4.26087 16.5557 4.00098 16.5252C5.4538 17.4563 7.17888 17.9997 9.03301 17.9997" fill="white"/>
</g>
<defs>
<linearGradient id="paint0_linear_9861_27971" x1="0" y1="0" x2="24.7939" y2="0.85027" gradientUnits="userSpaceOnUse">
<stop stop-color="#0FE3E3"/>
<stop offset="1" stop-color="#02A4FF"/>
</linearGradient>
<clipPath id="clip0_9861_27971">
<rect width="16" height="13" fill="white" transform="translate(4 5)"/>
</clipPath>
</defs>
</svg>
