<svg width="52" height="52" viewBox="0 0 52 52" fill="none" xmlns="http://www.w3.org/2000/svg">
<path fill-rule="evenodd" clip-rule="evenodd" d="M37.0571 27.0971C37.5896 27.0238 38 26.5606 38 26.0001C38 25.3887 37.5116 24.8931 36.9091 24.8931L17.7334 24.8931L24.6604 17.8915L24.7663 17.7676C25.0841 17.3349 25.0501 16.7197 24.6636 16.3259C24.2385 15.8926 23.5477 15.8912 23.1208 16.3226L14.3364 25.2005C14.2841 25.2514 14.2368 25.3075 14.1952 25.368C13.8978 25.8003 13.9397 26.4001 14.3209 26.7853L23.1209 35.6774L23.2435 35.7844C23.6712 36.105 24.2772 36.0679 24.6637 35.6741C25.0888 35.2408 25.0873 34.5398 24.6603 34.1084L17.7317 27.1072L36.9091 27.1072L37.0571 27.0971Z" fill="white"/>
</svg>
