<svg width="44" height="44" viewBox="0 0 44 44" fill="none" xmlns="http://www.w3.org/2000/svg">
<path d="M29.9682 25.8016L22.5454 18.2062C22.2759 17.9313 21.7244 17.9313 21.457 18.2062L14.0321 25.8016C14.0139 25.8202 14.0029 25.8423 14.0005 25.8653C13.9981 25.8883 14.0043 25.9114 14.0185 25.932C14.0327 25.9525 14.0542 25.9697 14.0808 25.9817C14.1073 25.9938 14.1379 26.0001 14.169 26H15.7478C15.8552 26 15.9562 25.9609 16.0194 25.8969L22.0001 19.7781L27.9809 25.8969C28.044 25.9609 28.1451 26 28.2525 26H29.8313C29.9682 26 30.0482 25.8844 29.9682 25.8016Z" fill="white"/>
</svg>
