<svg width="32" height="32" viewBox="0 0 32 32" fill="none" xmlns="http://www.w3.org/2000/svg">
<path d="M16 2C12.2153 2 8.78573 3.52057 6.26367 5.9668L6.67188 3.2793C6.75473 2.73353 6.37969 2.22386 5.83398 2.14062C5.24594 2.02268 4.78753 2.48487 4.69531 2.97852L3.81641 8.76953C3.71696 9.42823 4.27718 9.99822 4.9375 9.91016L10.7383 9.13281C11.2849 9.059 11.6685 8.55652 11.5957 8.00977C11.5229 7.46235 11.0201 7.07761 10.4727 7.15039L7.49219 7.54883C9.66499 5.36075 12.6665 4 16 4C22.6393 4 28 9.36074 28 16C28 22.6393 22.6393 28 16 28C9.36074 28 4 22.6393 4 16C4 15.7348 3.89464 15.4804 3.70711 15.2929C3.51957 15.1054 3.26522 15 3 15C2.73478 15 2.48043 15.1054 2.29289 15.2929C2.10536 15.4804 2 15.7348 2 16C2 23.7201 8.27986 30 16 30C23.7201 30 30 23.7201 30 16C30 8.27986 23.7201 2 16 2Z" fill="white"/>
<path d="M16 10C15.7348 10 15.4804 10.1054 15.2929 10.2929C15.1054 10.4804 15 10.7348 15 11V18C15 18.2652 15.1054 18.5195 15.2929 18.7071C15.4805 18.8946 15.7348 19 16 19H23C23.2652 19 23.5196 18.8946 23.7071 18.7071C23.8946 18.5196 24 18.2652 24 18C24 17.7348 23.8946 17.4804 23.7071 17.2929C23.5196 17.1054 23.2652 17 23 17H17V11C17 10.7348 16.8946 10.4804 16.7071 10.2929C16.5196 10.1054 16.2652 10 16 10Z" fill="white"/>
</svg>
