<svg width="16" height="16" viewBox="0 0 16 16" fill="none" xmlns="http://www.w3.org/2000/svg">
<mask id="mask0_4061_196643" style="mask-type:alpha" maskUnits="userSpaceOnUse" x="0" y="0" width="16" height="16">
<rect width="16" height="16" fill="#C4C4C4"/>
</mask>
<g mask="url(#mask0_4061_196643)">
<path d="M7.99995 14.2863C9.24314 14.2863 10.4584 13.9176 11.4921 13.2269C12.5258 12.5363 13.3314 11.5545 13.8072 10.406C14.2829 9.2574 14.4074 7.99357 14.1649 6.77426C13.9223 5.55495 13.3237 4.43498 12.4446 3.5559C11.5656 2.67683 10.4455 2.07815 9.22623 1.83562C8.00692 1.59308 6.74308 1.71758 5.59451 2.19333C4.44595 2.66908 3.46425 3.47475 2.77357 4.50843C2.08288 5.54211 1.71423 6.75736 1.71423 8.00056C1.71423 9.66764 2.37647 11.2664 3.55527 12.4452C4.73407 13.624 6.33287 14.2863 7.99995 14.2863V14.2863Z" stroke="#1890FF" stroke-linecap="round" stroke-linejoin="round"/>
<path d="M6.17065 6.11543C6.31843 5.69533 6.61012 5.34113 6.99405 5.11548C7.37799 4.88984 7.82939 4.80732 8.26831 4.88261C8.70723 4.9579 9.10534 5.18607 9.39213 5.52676C9.67892 5.86745 9.83589 6.29867 9.83523 6.744C9.83523 8.00114 7.94951 8.62971 7.94951 8.62971" stroke="#1890FF" stroke-linecap="round" stroke-linejoin="round"/>
<path d="M8 11.1426H8.00571" stroke="#1890FF" stroke-linecap="round" stroke-linejoin="round"/>
</g>
</svg>
