<svg width="32" height="32" viewBox="0 0 32 32" fill="none" xmlns="http://www.w3.org/2000/svg">
<path fill-rule="evenodd" clip-rule="evenodd" d="M25.3206 11.7398L24.6487 10.661C24.0803 9.74809 22.8207 9.43316 21.8328 9.95696V9.95696C21.3625 10.2133 20.8014 10.286 20.2732 10.1591C19.7449 10.0322 19.2929 9.71604 19.0168 9.28039C18.8392 9.00349 18.7438 8.68809 18.7402 8.36611V8.36611C18.7562 7.84988 18.5457 7.34963 18.1567 6.97932C17.7677 6.60901 17.2333 6.40018 16.6752 6.40039H15.3215C14.7748 6.40038 14.2505 6.602 13.8648 6.96062C13.4791 7.31924 13.2638 7.8053 13.2664 8.31125V8.31125C13.2502 9.35586 12.3304 10.1948 11.2014 10.1947C10.8534 10.1913 10.5126 10.103 10.2133 9.93868V9.93868C9.22544 9.41488 7.96578 9.7298 7.39737 10.6427L6.6761 11.7398C6.10838 12.6516 6.44407 13.8164 7.42701 14.3455V14.3455C8.06594 14.6869 8.45954 15.3177 8.45954 16.0004C8.45954 16.6831 8.06594 17.3139 7.42701 17.6552V17.6552C6.44532 18.1808 6.10926 19.3428 6.6761 20.2518V20.2518L7.35785 21.3398C7.62417 21.7845 8.07102 22.1126 8.5995 22.2516C9.12799 22.3906 9.69454 22.329 10.1738 22.0804V22.0804C10.6449 21.826 11.2064 21.7563 11.7333 21.8868C12.2602 22.0173 12.709 22.3371 12.9799 22.7752C13.1575 23.0522 13.2529 23.3675 13.2565 23.6895V23.6895C13.2565 24.7449 14.1811 25.6004 15.3215 25.6004H16.6752C17.8118 25.6004 18.7347 24.7504 18.7402 23.6987V23.6987C18.7375 23.1911 18.9543 22.7037 19.3421 22.3448C19.7299 21.9859 20.2567 21.7854 20.8052 21.7878C21.1523 21.7964 21.4918 21.8844 21.7933 22.0438V22.0438C22.7786 22.5692 24.0374 22.2585 24.6092 21.349V21.349L25.3206 20.2518C25.596 19.8145 25.6715 19.2936 25.5306 18.8045C25.3897 18.3154 25.0438 17.8985 24.5697 17.6461V17.6461C24.0955 17.3937 23.7497 16.9768 23.6088 16.4877C23.4678 15.9986 23.5434 15.4777 23.8188 15.0404C23.9978 14.7511 24.257 14.5112 24.5697 14.3455V14.3455C25.5467 13.8167 25.8816 12.6586 25.3206 11.749V11.749V11.7398Z" stroke="white" stroke-width="1.5" stroke-linecap="round" stroke-linejoin="round"/>
<ellipse cx="16.0018" cy="16.0003" rx="2.84558" ry="2.63314" stroke="white" stroke-width="1.5" stroke-linecap="round" stroke-linejoin="round"/>
</svg>
