<svg width="32" height="32" viewBox="0 0 32 32" fill="none" xmlns="http://www.w3.org/2000/svg">
<path fill-rule="evenodd" clip-rule="evenodd" d="M27.203 18.106C27.68 18.3593 28.0479 18.7593 28.3068 19.1593C28.8109 19.986 28.77 20.9993 28.2795 21.8927L27.3257 23.4927C26.8215 24.346 25.8813 24.8793 24.9139 24.8793C24.4369 24.8793 23.9055 24.746 23.4695 24.4793C23.1152 24.2527 22.7064 24.1727 22.2704 24.1727C20.9214 24.1727 19.7904 25.2793 19.7496 26.5993C19.7496 28.1327 18.496 29.3327 16.929 29.3327H15.0758C13.4952 29.3327 12.2416 28.1327 12.2416 26.5993C12.2143 25.2793 11.0834 24.1727 9.73439 24.1727C9.28473 24.1727 8.87594 24.2527 8.53529 24.4793C8.09926 24.746 7.55421 24.8793 7.09092 24.8793C6.10985 24.8793 5.16964 24.346 4.66548 23.4927L3.72528 21.8927C3.22111 21.026 3.19386 19.986 3.69803 19.1593C3.91604 18.7593 4.32483 18.3593 4.78811 18.106C5.16964 17.9193 5.41491 17.6127 5.64656 17.2527C6.32786 16.106 5.91908 14.5993 4.76086 13.9193C3.41188 13.1593 2.97584 11.466 3.75253 10.146L4.66548 8.57268C5.45579 7.25268 7.14543 6.78602 8.50804 7.55935C9.69351 8.19935 11.2333 7.77268 11.9282 6.63935C12.1462 6.26602 12.2688 5.86602 12.2416 5.46602C12.2143 4.94602 12.3642 4.45268 12.6231 4.05268C13.1273 3.22602 14.0402 2.69268 15.0349 2.66602H16.9562C17.9646 2.66602 18.8775 3.22602 19.3817 4.05268C19.6269 4.45268 19.7904 4.94602 19.7496 5.46602C19.7223 5.86602 19.845 6.26602 20.063 6.63935C20.7579 7.77268 22.2976 8.19935 23.4967 7.55935C24.8457 6.78602 26.549 7.25268 27.3257 8.57268L28.2386 10.146C29.0289 11.466 28.5929 13.1593 27.2303 13.9193C26.0721 14.5993 25.6633 16.106 26.3582 17.2527C26.5762 17.6127 26.8215 17.9193 27.203 18.106ZM12.1462 16.0127C12.1462 18.106 13.8767 19.7727 16.016 19.7727C18.1553 19.7727 19.845 18.106 19.845 16.0127C19.845 13.9193 18.1553 12.2393 16.016 12.2393C13.8767 12.2393 12.1462 13.9193 12.1462 16.0127Z" fill="white"/>
</svg>
