<svg width="274" height="210" viewBox="0 0 274 210" fill="none" xmlns="http://www.w3.org/2000/svg">
<rect x="0.465054" y="1.09787" width="272.521" height="207.801" rx="6.97581" fill="#0D1B31"/>
<path d="M72.4731 42.0725C71.6136 42.0725 70.8435 41.933 70.1627 41.654C69.4818 41.3749 68.9349 40.962 68.522 40.4151C68.1202 39.8682 67.9081 39.2096 67.8858 38.4395H70.9328C70.9775 38.8748 71.1281 39.2096 71.3848 39.444C71.6416 39.6673 71.9764 39.7789 72.3894 39.7789C72.8135 39.7789 73.1483 39.684 73.3939 39.4943C73.6394 39.2934 73.7622 39.0199 73.7622 38.6739C73.7622 38.3837 73.6617 38.1437 73.4608 37.954C73.2711 37.7643 73.0311 37.608 72.7409 37.4852C72.4619 37.3625 72.0601 37.2229 71.5355 37.0667C70.7766 36.8323 70.1571 36.5979 69.6772 36.3635C69.1972 36.1291 68.7843 35.7831 68.4383 35.3255C68.0923 34.8679 67.9193 34.2708 67.9193 33.5341C67.9193 32.4403 68.3155 31.5865 69.1079 30.9726C69.9004 30.3476 70.9328 30.0351 72.2052 30.0351C73.4999 30.0351 74.5435 30.3476 75.3359 30.9726C76.1284 31.5865 76.5525 32.4459 76.6083 33.5509H73.5111C73.4887 33.1714 73.3492 32.8756 73.0925 32.6635C72.8358 32.4403 72.5066 32.3287 72.1047 32.3287C71.7587 32.3287 71.4797 32.4236 71.2676 32.6133C71.0556 32.7919 70.9496 33.0542 70.9496 33.4002C70.9496 33.7797 71.1281 34.0755 71.4853 34.2875C71.8425 34.4996 72.4005 34.7284 73.1595 34.9739C73.9185 35.2306 74.5323 35.4762 75.0011 35.7106C75.481 35.945 75.894 36.2854 76.24 36.7318C76.586 37.1783 76.759 37.7531 76.759 38.4563C76.759 39.1259 76.586 39.7342 76.24 40.2811C75.9052 40.828 75.4141 41.2633 74.7667 41.587C74.1194 41.9107 73.3548 42.0725 72.4731 42.0725ZM83.7276 39.5277V41.9553H82.271C81.233 41.9553 80.4238 41.7042 79.8434 41.2019C79.2631 40.6885 78.9729 39.857 78.9729 38.7074V34.9907H77.8344V32.6133H78.9729V30.3364H81.8357V32.6133H83.7108V34.9907H81.8357V38.7409C81.8357 39.0199 81.9027 39.2208 82.0366 39.3436C82.1706 39.4664 82.3938 39.5277 82.7063 39.5277H83.7276ZM84.753 37.2676C84.753 36.3077 84.9316 35.465 85.2888 34.7395C85.6571 34.0141 86.1538 33.456 86.7788 33.0654C87.4038 32.6747 88.1014 32.4794 88.8715 32.4794C89.5301 32.4794 90.1049 32.6133 90.596 32.8812C91.0982 33.1491 91.4833 33.5006 91.7511 33.9359V32.6133H94.614V41.9553H91.7511V40.6327C91.4721 41.068 91.0815 41.4196 90.5792 41.6875C90.0881 41.9553 89.5133 42.0893 88.8548 42.0893C88.0958 42.0893 87.4038 41.8939 86.7788 41.5033C86.1538 41.1015 85.6571 40.5378 85.2888 39.8124C84.9316 39.0757 84.753 38.2275 84.753 37.2676ZM91.7511 37.2843C91.7511 36.57 91.5502 36.0064 91.1484 35.5934C90.7578 35.1804 90.2779 34.9739 89.7086 34.9739C89.1394 34.9739 88.6539 35.1804 88.2521 35.5934C87.8614 35.9952 87.6661 36.5533 87.6661 37.2676C87.6661 37.9819 87.8614 38.5511 88.2521 38.9753C88.6539 39.3882 89.1394 39.5947 89.7086 39.5947C90.2779 39.5947 90.7578 39.3882 91.1484 38.9753C91.5502 38.5623 91.7511 37.9986 91.7511 37.2843ZM102.394 41.9553L99.548 38.0377V41.9553H96.6852V29.5663H99.548V36.4137L102.377 32.6133H105.91L102.026 37.3011L105.943 41.9553H102.394ZM115.841 37.1336C115.841 37.4015 115.824 37.6805 115.79 37.9707H109.311C109.356 38.5511 109.54 38.9976 109.864 39.3101C110.199 39.6115 110.606 39.7621 111.086 39.7621C111.8 39.7621 112.297 39.4608 112.576 38.8581H115.623C115.467 39.4719 115.182 40.0244 114.769 40.5155C114.367 41.0066 113.86 41.3917 113.246 41.6707C112.632 41.9497 111.945 42.0893 111.186 42.0893C110.271 42.0893 109.456 41.8939 108.742 41.5033C108.028 41.1126 107.47 40.5546 107.068 39.8291C106.666 39.1036 106.465 38.2554 106.465 37.2843C106.465 36.3133 106.661 35.465 107.051 34.7395C107.453 34.0141 108.011 33.456 108.725 33.0654C109.44 32.6747 110.26 32.4794 111.186 32.4794C112.091 32.4794 112.894 32.6691 113.597 33.0486C114.3 33.4281 114.847 33.9694 115.238 34.6726C115.64 35.3757 115.841 36.1961 115.841 37.1336ZM112.911 36.3803C112.911 35.8892 112.743 35.4985 112.409 35.2083C112.074 34.9181 111.655 34.773 111.153 34.773C110.673 34.773 110.266 34.9125 109.931 35.1916C109.607 35.4706 109.406 35.8668 109.328 36.3803H112.911ZM129.789 38.54C129.789 39.1538 129.627 39.7231 129.303 40.2476C128.991 40.7611 128.522 41.1852 127.897 41.52C127.283 41.8437 126.552 42.0223 125.704 42.0558V43.4119H124.632V42.039C123.449 41.9386 122.495 41.587 121.769 40.9843C121.044 40.3704 120.659 39.5389 120.614 38.4897H123.661C123.728 39.1594 124.052 39.5891 124.632 39.7789V37.1336C123.762 36.9104 123.064 36.6928 122.54 36.4807C122.026 36.2686 121.574 35.9282 121.183 35.4595C120.793 34.9907 120.598 34.3489 120.598 33.5341C120.598 32.5185 120.971 31.7037 121.719 31.0898C122.478 30.4759 123.449 30.1299 124.632 30.0518V28.6957H125.704V30.0518C126.876 30.1411 127.802 30.4815 128.483 31.0731C129.164 31.6646 129.543 32.485 129.621 33.5341H126.558C126.491 32.9314 126.206 32.5408 125.704 32.3622V34.9572C126.63 35.2139 127.345 35.4427 127.847 35.6436C128.349 35.8445 128.795 36.1794 129.186 36.6481C129.588 37.1057 129.789 37.7364 129.789 38.54ZM123.628 33.4002C123.628 33.6792 123.712 33.9136 123.879 34.1034C124.058 34.2931 124.309 34.4605 124.632 34.6056V32.2785C124.32 32.3343 124.074 32.4571 123.896 32.6468C123.717 32.8254 123.628 33.0765 123.628 33.4002ZM125.704 39.8291C126.039 39.7733 126.301 39.6394 126.491 39.4273C126.692 39.2152 126.792 38.9529 126.792 38.6404C126.792 38.3502 126.697 38.1158 126.507 37.9373C126.329 37.7475 126.061 37.5857 125.704 37.4517V39.8291ZM142.951 30.2025L138.783 41.9553H135.2L131.031 30.2025H134.078L136.991 39.0757L139.921 30.2025H142.951ZM151.263 35.9282C151.944 36.0733 152.491 36.4137 152.904 36.9495C153.317 37.4741 153.523 38.0768 153.523 38.7576C153.523 39.7398 153.177 40.5211 152.485 41.1015C151.805 41.6707 150.85 41.9553 149.623 41.9553H144.148V30.2025H149.438C150.633 30.2025 151.565 30.4759 152.234 31.0228C152.915 31.5697 153.256 32.312 153.256 33.2495C153.256 33.9415 153.071 34.5163 152.703 34.9739C152.346 35.4315 151.866 35.7496 151.263 35.9282ZM147.011 34.9572H148.886C149.355 34.9572 149.712 34.8567 149.957 34.6558C150.214 34.4438 150.342 34.1368 150.342 33.735C150.342 33.3332 150.214 33.0263 149.957 32.8142C149.712 32.6022 149.355 32.4961 148.886 32.4961H147.011V34.9572ZM149.12 39.6449C149.6 39.6449 149.969 39.5389 150.225 39.3268C150.493 39.1036 150.627 38.7855 150.627 38.3725C150.627 37.9596 150.488 37.6359 150.208 37.4015C149.941 37.1671 149.567 37.0499 149.087 37.0499H147.011V39.6449H149.12Z" fill="white"/>
<circle cx="191.387" cy="37.837" r="14.8817" fill="url(#paint0_linear_10741_232942)"/>
<path d="M186.724 36.8447C186.724 39.4724 188.813 41.6098 191.383 41.6098C193.952 41.6098 196.042 39.4724 196.042 36.8447C196.042 34.2421 194.013 32.1425 191.481 32.0796H191.284C188.764 32.1425 186.724 34.2547 186.724 36.8447Z" fill="white"/>
<path d="M197.984 38.3501L201.451 32.202C201.93 31.3596 201.328 30.3035 200.381 30.3035H193.51C193.411 30.3035 193.337 30.3789 193.337 30.4795C193.337 30.5298 193.362 30.5675 193.387 30.6052C193.399 30.6178 193.423 30.6304 193.448 30.6429C196.017 31.5105 197.812 33.9622 197.812 36.8665C197.812 36.8665 197.8 37.3568 197.677 38.2495C197.664 38.3501 197.75 38.4255 197.849 38.4255C197.898 38.4129 197.947 38.3878 197.984 38.3501Z" fill="white"/>
<path d="M184.929 38.4129C185.027 38.4129 185.125 38.3375 185.101 38.2369C184.978 37.6208 184.965 36.8539 184.965 36.8539C184.965 33.9496 186.773 31.5105 189.329 30.6429C189.354 30.6304 189.366 30.6178 189.391 30.6052C189.428 30.5675 189.44 30.5298 189.44 30.4795C189.44 30.3789 189.366 30.3035 189.268 30.3035H182.396C181.437 30.3035 180.847 31.3596 181.327 32.202L184.793 38.3501C184.818 38.3878 184.879 38.4129 184.929 38.4129Z" fill="white"/>
<path d="M195.905 41.7955C195.856 41.7075 195.733 41.6572 195.671 41.7326C195.303 42.1098 194.577 42.5373 194.577 42.5373C192.106 43.9831 189.132 43.5934 187.128 41.7577C187.116 41.7452 187.091 41.7326 187.066 41.72C187.017 41.7075 186.98 41.7075 186.931 41.7326C186.845 41.7829 186.821 41.8835 186.87 41.9715L190.287 48.0819C190.767 48.9242 191.947 48.9368 192.438 48.0944L195.93 41.9589C195.93 41.9086 195.93 41.8458 195.905 41.7955Z" fill="white"/>
<path d="M24.6355 86.3981C24.323 86.3981 24.0365 86.3243 23.7761 86.1768C23.5243 86.0205 23.3203 85.8165 23.1641 85.5648C23.0165 85.3043 22.9427 85.0179 22.9427 84.7053C22.9427 84.2279 23.1076 83.8242 23.4375 83.4943C23.7674 83.1645 24.1667 82.9995 24.6355 82.9995C25.1216 82.9995 25.5296 83.1645 25.8595 83.4943C26.1894 83.8242 26.3543 84.2279 26.3543 84.7053C26.3543 85.1828 26.1894 85.5865 25.8595 85.9163C25.5296 86.2375 25.1216 86.3981 24.6355 86.3981ZM40.0915 89.0415L38.008 85.4215H36.8752V89.0415H35.3907V79.9916H38.5159C39.2103 79.9916 39.7963 80.1131 40.2738 80.3562C40.7599 80.5992 41.1202 80.9248 41.3546 81.3328C41.5976 81.7408 41.7192 82.1965 41.7192 82.7C41.7192 83.2903 41.5455 83.8286 41.1983 84.3147C40.8597 84.7922 40.3345 85.1177 39.6227 85.2913L41.8624 89.0415H40.0915ZM36.8752 84.2366H38.5159C39.0715 84.2366 39.4881 84.0977 39.7659 83.8199C40.0524 83.5421 40.1956 83.1688 40.1956 82.7C40.1956 82.2313 40.0567 81.8667 39.779 81.6062C39.5012 81.3371 39.0801 81.2026 38.5159 81.2026H36.8752V84.2366ZM50.194 85.2783C50.194 85.5474 50.1767 85.7905 50.1419 86.0075H44.6599C44.7033 86.5804 44.916 87.0405 45.2979 87.3878C45.6799 87.735 46.1487 87.9086 46.7043 87.9086C47.5029 87.9086 48.0672 87.5744 48.3971 86.906H49.9987C49.7817 87.5657 49.3867 88.1083 48.8137 88.5337C48.2495 88.9504 47.5463 89.1587 46.7043 89.1587C46.0185 89.1587 45.4021 89.0068 44.8552 88.7029C44.317 88.3904 43.8916 87.9564 43.5791 87.4008C43.2753 86.8365 43.1233 86.1855 43.1233 85.4476C43.1233 84.7097 43.2709 84.0629 43.5661 83.5074C43.8699 82.9431 44.2909 82.509 44.8292 82.2052C45.3761 81.9014 46.0011 81.7495 46.7043 81.7495C47.3814 81.7495 47.9847 81.897 48.5142 82.1922C49.0438 82.4873 49.4561 82.904 49.7513 83.4423C50.0464 83.9718 50.194 84.5838 50.194 85.2783ZM48.6445 84.8095C48.6358 84.2626 48.4405 83.8242 48.0585 83.4943C47.6765 83.1645 47.2034 82.9995 46.6392 82.9995C46.127 82.9995 45.6886 83.1645 45.324 83.4943C44.9594 83.8155 44.7424 84.2539 44.6729 84.8095H48.6445ZM51.1601 85.4476C51.1601 84.7097 51.3076 84.0629 51.6028 83.5074C51.9066 82.9431 52.3233 82.509 52.8529 82.2052C53.3824 81.9014 53.9901 81.7495 54.6759 81.7495C55.544 81.7495 56.2601 81.9578 56.8244 82.3745C57.3974 82.7825 57.7837 83.3685 57.9833 84.1324H56.3817C56.2515 83.7765 56.0431 83.4987 55.7566 83.299C55.4702 83.0994 55.1099 82.9995 54.6759 82.9995C54.0682 82.9995 53.5821 83.2166 53.2175 83.6506C52.8615 84.076 52.6836 84.675 52.6836 85.4476C52.6836 86.2202 52.8615 86.8235 53.2175 87.2576C53.5821 87.6916 54.0682 87.9086 54.6759 87.9086C55.5353 87.9086 56.1039 87.531 56.3817 86.7758H57.9833C57.775 87.505 57.3843 88.0866 56.8114 88.5206C56.2384 88.946 55.5266 89.1587 54.6759 89.1587C53.9901 89.1587 53.3824 89.0068 52.8529 88.7029C52.3233 88.3904 51.9066 87.9564 51.6028 87.4008C51.3076 86.8365 51.1601 86.1855 51.1601 85.4476ZM66.0386 85.2783C66.0386 85.5474 66.0212 85.7905 65.9865 86.0075H60.5044C60.5478 86.5804 60.7605 87.0405 61.1425 87.3878C61.5244 87.735 61.9932 87.9086 62.5488 87.9086C63.3474 87.9086 63.9117 87.5744 64.2416 86.906H65.8432C65.6262 87.5657 65.2312 88.1083 64.6583 88.5337C64.094 88.9504 63.3908 89.1587 62.5488 89.1587C61.863 89.1587 61.2466 89.0068 60.6997 88.7029C60.1615 88.3904 59.7361 87.9564 59.4236 87.4008C59.1198 86.8365 58.9679 86.1855 58.9679 85.4476C58.9679 84.7097 59.1154 84.0629 59.4106 83.5074C59.7144 82.9431 60.1355 82.509 60.6737 82.2052C61.2206 81.9014 61.8456 81.7495 62.5488 81.7495C63.2259 81.7495 63.8292 81.897 64.3588 82.1922C64.8883 82.4873 65.3007 82.904 65.5958 83.4423C65.891 83.9718 66.0386 84.5838 66.0386 85.2783ZM64.489 84.8095C64.4803 84.2626 64.285 83.8242 63.903 83.4943C63.5211 83.1645 63.0479 82.9995 62.4837 82.9995C61.9715 82.9995 61.5331 83.1645 61.1685 83.4943C60.8039 83.8155 60.5869 84.2539 60.5174 84.8095H64.489ZM68.2546 80.9161C67.9855 80.9161 67.7598 80.8249 67.5775 80.6426C67.3952 80.4603 67.3041 80.2346 67.3041 79.9655C67.3041 79.6964 67.3952 79.4707 67.5775 79.2884C67.7598 79.1061 67.9855 79.0149 68.2546 79.0149C68.5151 79.0149 68.7364 79.1061 68.9187 79.2884C69.101 79.4707 69.1922 79.6964 69.1922 79.9655C69.1922 80.2346 69.101 80.4603 68.9187 80.6426C68.7364 80.8249 68.5151 80.9161 68.2546 80.9161ZM68.9839 81.8667V89.0415H67.4994V81.8667H68.9839ZM73.7064 87.7133L75.7377 81.8667H77.3133L74.5788 89.0415H72.8079L70.0864 81.8667H71.675L73.7064 87.7133ZM85.0113 85.2783C85.0113 85.5474 84.9939 85.7905 84.9592 86.0075H79.4771C79.5206 86.5804 79.7332 87.0405 80.1152 87.3878C80.4972 87.735 80.9659 87.9086 81.5215 87.9086C82.3202 87.9086 82.8844 87.5744 83.2143 86.906H84.816C84.5989 87.5657 84.204 88.1083 83.631 88.5337C83.0667 88.9504 82.3636 89.1587 81.5215 89.1587C80.8357 89.1587 80.2194 89.0068 79.6725 88.7029C79.1343 88.3904 78.7089 87.9564 78.3964 87.4008C78.0925 86.8365 77.9406 86.1855 77.9406 85.4476C77.9406 84.7097 78.0882 84.0629 78.3833 83.5074C78.6872 82.9431 79.1082 82.509 79.6464 82.2052C80.1933 81.9014 80.8184 81.7495 81.5215 81.7495C82.1986 81.7495 82.802 81.897 83.3315 82.1922C83.8611 82.4873 84.2734 82.904 84.5686 83.4423C84.8637 83.9718 85.0113 84.5838 85.0113 85.2783ZM83.4617 84.8095C83.453 84.2626 83.2577 83.8242 82.8758 83.4943C82.4938 83.1645 82.0207 82.9995 81.4564 82.9995C80.9442 82.9995 80.5058 83.1645 80.1412 83.4943C79.7766 83.8155 79.5596 84.2539 79.4902 84.8095H83.4617ZM89.3599 85.4215C89.3599 84.701 89.5074 84.0629 89.8026 83.5074C90.1064 82.9518 90.5144 82.5221 91.0266 82.2182C91.5475 81.9057 92.1204 81.7495 92.7455 81.7495C93.3097 81.7495 93.8002 81.8623 94.2169 82.088C94.6423 82.305 94.9808 82.5785 95.2326 82.9084V81.8667H96.73V89.0415H95.2326V87.9737C94.9808 88.3123 94.6379 88.5944 94.2039 88.8201C93.7698 89.0458 93.275 89.1587 92.7194 89.1587C92.1031 89.1587 91.5388 89.0024 91.0266 88.6899C90.5144 88.3687 90.1064 87.926 89.8026 87.3617C89.5074 86.7888 89.3599 86.142 89.3599 85.4215ZM95.2326 85.4476C95.2326 84.9528 95.1284 84.523 94.92 84.1584C94.7204 83.7938 94.4556 83.516 94.1257 83.3251C93.7959 83.1341 93.4399 83.0386 93.058 83.0386C92.676 83.0386 92.3201 83.1341 91.9902 83.3251C91.6603 83.5074 91.3912 83.7808 91.1829 84.1454C90.9832 84.5013 90.8834 84.9267 90.8834 85.4215C90.8834 85.9163 90.9832 86.3504 91.1829 86.7237C91.3912 87.097 91.6603 87.3834 91.9902 87.5831C92.3288 87.7741 92.6847 87.8696 93.058 87.8696C93.4399 87.8696 93.7959 87.7741 94.1257 87.5831C94.4556 87.3921 94.7204 87.1143 94.92 86.7497C95.1284 86.3764 95.2326 85.9424 95.2326 85.4476ZM104.667 89.1587C104.102 89.1587 103.595 89.0589 103.143 88.8592C102.7 88.6509 102.349 88.3731 102.088 88.0258C101.828 87.6699 101.689 87.2749 101.672 86.8409H103.208C103.234 87.1447 103.378 87.4008 103.638 87.6091C103.907 87.8088 104.241 87.9086 104.641 87.9086C105.057 87.9086 105.378 87.8305 105.604 87.6742C105.839 87.5093 105.956 87.301 105.956 87.0492C105.956 86.7801 105.826 86.5804 105.565 86.4502C105.313 86.32 104.91 86.1768 104.354 86.0205C103.816 85.8729 103.378 85.7297 103.039 85.5908C102.7 85.4519 102.405 85.2392 102.153 84.9528C101.91 84.6663 101.789 84.2887 101.789 83.8199C101.789 83.4379 101.902 83.0907 102.127 82.7782C102.353 82.457 102.674 82.2052 103.091 82.0229C103.516 81.8406 104.003 81.7495 104.549 81.7495C105.365 81.7495 106.021 81.9578 106.516 82.3745C107.019 82.7825 107.288 83.3424 107.323 84.0543H105.839C105.813 83.7331 105.682 83.477 105.448 83.286C105.214 83.095 104.897 82.9995 104.497 82.9995C104.107 82.9995 103.807 83.0733 103.599 83.2209C103.391 83.3685 103.286 83.5638 103.286 83.8069C103.286 83.9978 103.356 84.1584 103.495 84.2887C103.634 84.4189 103.803 84.523 104.003 84.6012C104.202 84.6706 104.497 84.7618 104.888 84.8746C105.409 85.0135 105.834 85.1568 106.164 85.3043C106.503 85.4432 106.793 85.6516 107.037 85.9294C107.28 86.2072 107.406 86.5761 107.414 87.0362C107.414 87.4442 107.301 87.8088 107.076 88.13C106.85 88.4512 106.529 88.7029 106.112 88.8852C105.704 89.0675 105.222 89.1587 104.667 89.1587ZM112.729 81.7495C113.276 81.7495 113.762 81.8667 114.188 82.101C114.622 82.3354 114.96 82.6827 115.203 83.1428C115.455 83.6029 115.581 84.1584 115.581 84.8095V89.0415H114.11V85.0309C114.11 84.3885 113.949 83.898 113.628 83.5594C113.307 83.2122 112.868 83.0386 112.313 83.0386C111.757 83.0386 111.314 83.2122 110.984 83.5594C110.663 83.898 110.503 84.3885 110.503 85.0309V89.0415H109.018V79.4056H110.503V82.7C110.754 82.3962 111.071 82.1618 111.453 81.9969C111.844 81.8319 112.269 81.7495 112.729 81.7495ZM116.98 85.4215C116.98 84.701 117.127 84.0629 117.422 83.5074C117.726 82.9518 118.134 82.5221 118.646 82.2182C119.167 81.9057 119.74 81.7495 120.365 81.7495C120.93 81.7495 121.42 81.8623 121.837 82.088C122.262 82.305 122.601 82.5785 122.852 82.9084V81.8667H124.35V89.0415H122.852V87.9737C122.601 88.3123 122.258 88.5944 121.824 88.8201C121.39 89.0458 120.895 89.1587 120.339 89.1587C119.723 89.1587 119.159 89.0024 118.646 88.6899C118.134 88.3687 117.726 87.926 117.422 87.3617C117.127 86.7888 116.98 86.142 116.98 85.4215ZM122.852 85.4476C122.852 84.9528 122.748 84.523 122.54 84.1584C122.34 83.7938 122.075 83.516 121.746 83.3251C121.416 83.1341 121.06 83.0386 120.678 83.0386C120.296 83.0386 119.94 83.1341 119.61 83.3251C119.28 83.5074 119.011 83.7808 118.803 84.1454C118.603 84.5013 118.503 84.9267 118.503 85.4215C118.503 85.9163 118.603 86.3504 118.803 86.7237C119.011 87.097 119.28 87.3834 119.61 87.5831C119.949 87.7741 120.305 87.8696 120.678 87.8696C121.06 87.8696 121.416 87.7741 121.746 87.5831C122.075 87.3921 122.34 87.1143 122.54 86.7497C122.748 86.3764 122.852 85.9424 122.852 85.4476ZM127.784 82.9084C128.001 82.5438 128.288 82.2616 128.644 82.062C129.008 81.8536 129.438 81.7495 129.933 81.7495V83.286H129.555C128.973 83.286 128.531 83.4336 128.227 83.7287C127.932 84.0239 127.784 84.5361 127.784 85.2653V89.0415H126.3V81.8667H127.784V82.9084ZM137.873 85.2783C137.873 85.5474 137.856 85.7905 137.821 86.0075H132.339C132.382 86.5804 132.595 87.0405 132.977 87.3878C133.359 87.735 133.828 87.9086 134.383 87.9086C135.182 87.9086 135.746 87.5744 136.076 86.906H137.678C137.461 87.5657 137.066 88.1083 136.493 88.5337C135.928 88.9504 135.225 89.1587 134.383 89.1587C133.697 89.1587 133.081 89.0068 132.534 88.7029C131.996 88.3904 131.571 87.9564 131.258 87.4008C130.954 86.8365 130.802 86.1855 130.802 85.4476C130.802 84.7097 130.95 84.0629 131.245 83.5074C131.549 82.9431 131.97 82.509 132.508 82.2052C133.055 81.9014 133.68 81.7495 134.383 81.7495C135.06 81.7495 135.664 81.897 136.193 82.1922C136.723 82.4873 137.135 82.904 137.43 83.4423C137.725 83.9718 137.873 84.5838 137.873 85.2783ZM136.323 84.8095C136.315 84.2626 136.119 83.8242 135.737 83.4943C135.356 83.1645 134.882 82.9995 134.318 82.9995C133.806 82.9995 133.368 83.1645 133.003 83.4943C132.638 83.8155 132.421 84.2539 132.352 84.8095H136.323ZM145.829 89.1587C145.151 89.1587 144.539 89.0068 143.993 88.7029C143.446 88.3904 143.016 87.9564 142.703 87.4008C142.391 86.8365 142.235 86.1855 142.235 85.4476C142.235 84.7184 142.395 84.0716 142.716 83.5074C143.038 82.9431 143.476 82.509 144.032 82.2052C144.587 81.9014 145.208 81.7495 145.894 81.7495C146.579 81.7495 147.2 81.9014 147.756 82.2052C148.311 82.509 148.75 82.9431 149.071 83.5074C149.392 84.0716 149.553 84.7184 149.553 85.4476C149.553 86.1768 149.388 86.8235 149.058 87.3878C148.728 87.952 148.277 88.3904 147.704 88.7029C147.139 89.0068 146.514 89.1587 145.829 89.1587ZM145.829 87.8696C146.211 87.8696 146.566 87.7784 146.896 87.5961C147.235 87.4138 147.508 87.1404 147.717 86.7758C147.925 86.4112 148.029 85.9684 148.029 85.4476C148.029 84.9267 147.929 84.4883 147.73 84.1324C147.53 83.7678 147.265 83.4943 146.935 83.312C146.605 83.1297 146.25 83.0386 145.868 83.0386C145.486 83.0386 145.13 83.1297 144.8 83.312C144.479 83.4943 144.223 83.7678 144.032 84.1324C143.841 84.4883 143.745 84.9267 143.745 85.4476C143.745 86.2202 143.94 86.8192 144.331 87.2445C144.73 87.6612 145.23 87.8696 145.829 87.8696ZM154.028 83.0777H152.7V89.0415H151.202V83.0777H150.356V81.8667H151.202V81.3588C151.202 80.5341 151.419 79.9351 151.854 79.5618C152.296 79.1799 152.986 78.9889 153.924 78.9889V80.2259C153.473 80.2259 153.156 80.3128 152.973 80.4864C152.791 80.6513 152.7 80.9421 152.7 81.3588V81.8667H154.028V83.0777ZM165.055 82.687C165.055 83.1471 164.946 83.5812 164.729 83.9892C164.512 84.3972 164.165 84.7314 163.687 84.9918C163.21 85.2436 162.598 85.3694 161.851 85.3694H160.211V89.0415H158.726V79.9916H161.851C162.546 79.9916 163.132 80.1131 163.609 80.3562C164.095 80.5905 164.456 80.9117 164.69 81.3198C164.933 81.7278 165.055 82.1835 165.055 82.687ZM161.851 84.1584C162.416 84.1584 162.837 84.0326 163.114 83.7808C163.392 83.5204 163.531 83.1558 163.531 82.687C163.531 81.6974 162.971 81.2026 161.851 81.2026H160.211V84.1584H161.851ZM167.955 82.9084C168.172 82.5438 168.458 82.2616 168.814 82.062C169.179 81.8536 169.609 81.7495 170.103 81.7495V83.286H169.726C169.144 83.286 168.701 83.4336 168.398 83.7287C168.103 84.0239 167.955 84.5361 167.955 85.2653V89.0415H166.47V81.8667H167.955V82.9084ZM174.58 89.1587C173.903 89.1587 173.291 89.0068 172.744 88.7029C172.197 88.3904 171.767 87.9564 171.455 87.4008C171.142 86.8365 170.986 86.1855 170.986 85.4476C170.986 84.7184 171.147 84.0716 171.468 83.5074C171.789 82.9431 172.228 82.509 172.783 82.2052C173.339 81.9014 173.959 81.7495 174.645 81.7495C175.331 81.7495 175.952 81.9014 176.507 82.2052C177.063 82.509 177.501 82.9431 177.822 83.5074C178.144 84.0716 178.304 84.7184 178.304 85.4476C178.304 86.1768 178.139 86.8235 177.809 87.3878C177.48 87.952 177.028 88.3904 176.455 88.7029C175.891 89.0068 175.266 89.1587 174.58 89.1587ZM174.58 87.8696C174.962 87.8696 175.318 87.7784 175.648 87.5961C175.986 87.4138 176.26 87.1404 176.468 86.7758C176.677 86.4112 176.781 85.9684 176.781 85.4476C176.781 84.9267 176.681 84.4883 176.481 84.1324C176.282 83.7678 176.017 83.4943 175.687 83.312C175.357 83.1297 175.001 83.0386 174.619 83.0386C174.237 83.0386 173.881 83.1297 173.551 83.312C173.23 83.4943 172.974 83.7678 172.783 84.1324C172.592 84.4883 172.497 84.9267 172.497 85.4476C172.497 86.2202 172.692 86.8192 173.083 87.2445C173.482 87.6612 173.981 87.8696 174.58 87.8696ZM181.504 83.0777V87.0492C181.504 87.3183 181.564 87.5136 181.686 87.6352C181.816 87.748 182.033 87.8045 182.337 87.8045H183.248V89.0415H182.077C181.408 89.0415 180.896 88.8852 180.54 88.5727C180.184 88.2602 180.006 87.7524 180.006 87.0492V83.0777H179.16V81.8667H180.006V80.0827H181.504V81.8667H183.248V83.0777H181.504ZM187.729 89.1587C187.052 89.1587 186.44 89.0068 185.893 88.7029C185.346 88.3904 184.916 87.9564 184.604 87.4008C184.291 86.8365 184.135 86.1855 184.135 85.4476C184.135 84.7184 184.295 84.0716 184.617 83.5074C184.938 82.9431 185.376 82.509 185.932 82.2052C186.487 81.9014 187.108 81.7495 187.794 81.7495C188.48 81.7495 189.1 81.9014 189.656 82.2052C190.212 82.509 190.65 82.9431 190.971 83.5074C191.292 84.0716 191.453 84.7184 191.453 85.4476C191.453 86.1768 191.288 86.8235 190.958 87.3878C190.628 87.952 190.177 88.3904 189.604 88.7029C189.04 89.0068 188.415 89.1587 187.729 89.1587ZM187.729 87.8696C188.111 87.8696 188.467 87.7784 188.797 87.5961C189.135 87.4138 189.409 87.1404 189.617 86.7758C189.825 86.4112 189.929 85.9684 189.929 85.4476C189.929 84.9267 189.83 84.4883 189.63 84.1324C189.43 83.7678 189.166 83.4943 188.836 83.312C188.506 83.1297 188.15 83.0386 187.768 83.0386C187.386 83.0386 187.03 83.1297 186.7 83.312C186.379 83.4943 186.123 83.7678 185.932 84.1324C185.741 84.4883 185.645 84.9267 185.645 85.4476C185.645 86.2202 185.841 86.8192 186.231 87.2445C186.631 87.6612 187.13 87.8696 187.729 87.8696ZM192.426 85.4476C192.426 84.7097 192.573 84.0629 192.868 83.5074C193.172 82.9431 193.589 82.509 194.118 82.2052C194.648 81.9014 195.256 81.7495 195.941 81.7495C196.809 81.7495 197.526 81.9578 198.09 82.3745C198.663 82.7825 199.049 83.3685 199.249 84.1324H197.647C197.517 83.7765 197.309 83.4987 197.022 83.299C196.736 83.0994 196.375 82.9995 195.941 82.9995C195.334 82.9995 194.848 83.2166 194.483 83.6506C194.127 84.076 193.949 84.675 193.949 85.4476C193.949 86.2202 194.127 86.8235 194.483 87.2576C194.848 87.6916 195.334 87.9086 195.941 87.9086C196.801 87.9086 197.369 87.531 197.647 86.7758H199.249C199.041 87.505 198.65 88.0866 198.077 88.5206C197.504 88.946 196.792 89.1587 195.941 89.1587C195.256 89.1587 194.648 89.0068 194.118 88.7029C193.589 88.3904 193.172 87.9564 192.868 87.4008C192.573 86.8365 192.426 86.1855 192.426 85.4476ZM203.84 89.1587C203.163 89.1587 202.551 89.0068 202.004 88.7029C201.457 88.3904 201.028 87.9564 200.715 87.4008C200.403 86.8365 200.246 86.1855 200.246 85.4476C200.246 84.7184 200.407 84.0716 200.728 83.5074C201.049 82.9431 201.488 82.509 202.043 82.2052C202.599 81.9014 203.22 81.7495 203.905 81.7495C204.591 81.7495 205.212 81.9014 205.768 82.2052C206.323 82.509 206.762 82.9431 207.083 83.5074C207.404 84.0716 207.565 84.7184 207.565 85.4476C207.565 86.1768 207.4 86.8235 207.07 87.3878C206.74 87.952 206.288 88.3904 205.715 88.7029C205.151 89.0068 204.526 89.1587 203.84 89.1587ZM203.84 87.8696C204.222 87.8696 204.578 87.7784 204.908 87.5961C205.247 87.4138 205.52 87.1404 205.728 86.7758C205.937 86.4112 206.041 85.9684 206.041 85.4476C206.041 84.9267 205.941 84.4883 205.741 84.1324C205.542 83.7678 205.277 83.4943 204.947 83.312C204.617 83.1297 204.261 83.0386 203.879 83.0386C203.497 83.0386 203.142 83.1297 202.812 83.312C202.49 83.4943 202.234 83.7678 202.043 84.1324C201.852 84.4883 201.757 84.9267 201.757 85.4476C201.757 86.2202 201.952 86.8192 202.343 87.2445C202.742 87.6612 203.241 87.8696 203.84 87.8696ZM210.516 79.4056V89.0415H209.032V79.4056H210.516ZM40.0915 107.042L38.008 103.422H36.8752V107.042H35.3907V97.9916H38.5159C39.2103 97.9916 39.7963 98.1131 40.2738 98.3562C40.7599 98.5992 41.1202 98.9248 41.3546 99.3328C41.5976 99.7408 41.7192 100.197 41.7192 100.7C41.7192 101.29 41.5455 101.829 41.1983 102.315C40.8597 102.792 40.3345 103.118 39.6227 103.291L41.8624 107.042H40.0915ZM36.8752 102.237H38.5159C39.0715 102.237 39.4881 102.098 39.7659 101.82C40.0524 101.542 40.1956 101.169 40.1956 100.7C40.1956 100.231 40.0567 99.8667 39.779 99.6062C39.5012 99.3371 39.0801 99.2026 38.5159 99.2026H36.8752V102.237ZM50.194 103.278C50.194 103.547 50.1767 103.79 50.1419 104.007H44.6599C44.7033 104.58 44.916 105.041 45.2979 105.388C45.6799 105.735 46.1487 105.909 46.7043 105.909C47.5029 105.909 48.0672 105.574 48.3971 104.906H49.9987C49.7817 105.566 49.3867 106.108 48.8137 106.534C48.2495 106.95 47.5463 107.159 46.7043 107.159C46.0185 107.159 45.4021 107.007 44.8552 106.703C44.317 106.39 43.8916 105.956 43.5791 105.401C43.2753 104.837 43.1233 104.185 43.1233 103.448C43.1233 102.71 43.2709 102.063 43.5661 101.507C43.8699 100.943 44.2909 100.509 44.8292 100.205C45.3761 99.9014 46.0011 99.7495 46.7043 99.7495C47.3814 99.7495 47.9847 99.897 48.5142 100.192C49.0438 100.487 49.4561 100.904 49.7513 101.442C50.0464 101.972 50.194 102.584 50.194 103.278ZM48.6445 102.81C48.6358 102.263 48.4405 101.824 48.0585 101.494C47.6765 101.164 47.2034 101 46.6392 101C46.127 101 45.6886 101.164 45.324 101.494C44.9594 101.816 44.7424 102.254 44.6729 102.81H48.6445ZM54.4285 105.713L56.4598 99.8667H58.0354L55.3009 107.042H53.53L50.8085 99.8667H52.3971L54.4285 105.713ZM65.7334 103.278C65.7334 103.547 65.716 103.79 65.6813 104.007H60.1992C60.2426 104.58 60.4553 105.041 60.8373 105.388C61.2192 105.735 61.688 105.909 62.2436 105.909C63.0422 105.909 63.6065 105.574 63.9364 104.906H65.538C65.321 105.566 64.926 106.108 64.3531 106.534C63.7888 106.95 63.0857 107.159 62.2436 107.159C61.5578 107.159 60.9414 107.007 60.3945 106.703C59.8563 106.39 59.4309 105.956 59.1184 105.401C58.8146 104.837 58.6627 104.185 58.6627 103.448C58.6627 102.71 58.8103 102.063 59.1054 101.507C59.4092 100.943 59.8303 100.509 60.3685 100.205C60.9154 99.9014 61.5404 99.7495 62.2436 99.7495C62.9207 99.7495 63.524 99.897 64.0536 100.192C64.5831 100.487 64.9955 100.904 65.2906 101.442C65.5858 101.972 65.7334 102.584 65.7334 103.278ZM64.1838 102.81C64.1751 102.263 63.9798 101.824 63.5978 101.494C63.2159 101.164 62.7428 101 62.1785 101C61.6663 101 61.2279 101.164 60.8633 101.494C60.4987 101.816 60.2817 102.254 60.2122 102.81H64.1838ZM70.8142 99.7495C71.3785 99.7495 71.8819 99.8667 72.3247 100.101C72.7761 100.335 73.1277 100.683 73.3794 101.143C73.6312 101.603 73.757 102.158 73.757 102.81V107.042H72.2856V103.031C72.2856 102.388 72.125 101.898 71.8038 101.559C71.4826 101.212 71.0442 101.039 70.4886 101.039C69.9331 101.039 69.4903 101.212 69.1605 101.559C68.8393 101.898 68.6787 102.388 68.6787 103.031V107.042H67.1942V99.8667H68.6787V100.687C68.9217 100.392 69.2299 100.162 69.6032 99.9969C69.9851 99.8319 70.3888 99.7495 70.8142 99.7495ZM82.1483 99.8667V107.042H80.6638V106.195C80.4294 106.49 80.1213 106.725 79.7393 106.898C79.366 107.063 78.9667 107.146 78.5413 107.146C77.9771 107.146 77.4692 107.028 77.0178 106.794C76.5751 106.56 76.2235 106.212 75.9631 105.752C75.7113 105.292 75.5854 104.737 75.5854 104.086V99.8667H77.0569V103.864C77.0569 104.507 77.2175 105.001 77.5387 105.349C77.8599 105.687 78.2983 105.857 78.8538 105.857C79.4094 105.857 79.8478 105.687 80.169 105.349C80.4989 105.001 80.6638 104.507 80.6638 103.864V99.8667H82.1483ZM90.6828 103.278C90.6828 103.547 90.6654 103.79 90.6307 104.007H85.1486C85.192 104.58 85.4047 105.041 85.7867 105.388C86.1686 105.735 86.6374 105.909 87.193 105.909C87.9917 105.909 88.5559 105.574 88.8858 104.906H90.4874C90.2704 105.566 89.8754 106.108 89.3025 106.534C88.7382 106.95 88.0351 107.159 87.193 107.159C86.5072 107.159 85.8909 107.007 85.344 106.703C84.8057 106.39 84.3804 105.956 84.0678 105.401C83.764 104.837 83.6121 104.185 83.6121 103.448C83.6121 102.71 83.7597 102.063 84.0548 101.507C84.3587 100.943 84.7797 100.509 85.3179 100.205C85.8648 99.9014 86.4898 99.7495 87.193 99.7495C87.8701 99.7495 88.4735 99.897 89.003 100.192C89.5325 100.487 89.9449 100.904 90.24 101.442C90.5352 101.972 90.6828 102.584 90.6828 103.278ZM89.1332 102.81C89.1245 102.263 88.9292 101.824 88.5472 101.494C88.1653 101.164 87.6922 101 87.1279 101C86.6157 101 86.1773 101.164 85.8127 101.494C85.4481 101.816 85.2311 102.254 85.1616 102.81H89.1332ZM24.6355 123.398C24.323 123.398 24.0365 123.324 23.7761 123.177C23.5243 123.021 23.3203 122.817 23.1641 122.565C23.0165 122.304 22.9427 122.018 22.9427 121.705C22.9427 121.228 23.1076 120.824 23.4375 120.494C23.7674 120.164 24.1667 120 24.6355 120C25.1216 120 25.5296 120.164 25.8595 120.494C26.1894 120.824 26.3543 121.228 26.3543 121.705C26.3543 122.183 26.1894 122.586 25.8595 122.916C25.5296 123.238 25.1216 123.398 24.6355 123.398ZM41.7192 119.687C41.7192 120.147 41.6106 120.581 41.3936 120.989C41.1766 121.397 40.8294 121.731 40.3519 121.992C39.8744 122.244 39.2624 122.369 38.5159 122.369H36.8752V126.042H35.3907V116.992H38.5159C39.2103 116.992 39.7963 117.113 40.2738 117.356C40.7599 117.591 41.1202 117.912 41.3546 118.32C41.5976 118.728 41.7192 119.184 41.7192 119.687ZM38.5159 121.158C39.0801 121.158 39.5012 121.033 39.779 120.781C40.0567 120.52 40.1956 120.156 40.1956 119.687C40.1956 118.697 39.6357 118.203 38.5159 118.203H36.8752V121.158H38.5159ZM42.6401 122.422C42.6401 121.701 42.7877 121.063 43.0829 120.507C43.3867 119.952 43.7947 119.522 44.3069 119.218C44.8277 118.906 45.4007 118.749 46.0257 118.749C46.59 118.749 47.0805 118.862 47.4971 119.088C47.9225 119.305 48.2611 119.578 48.5128 119.908V118.867H50.0103V126.042H48.5128V124.974C48.2611 125.312 47.9182 125.594 47.4841 125.82C47.0501 126.046 46.5553 126.159 45.9997 126.159C45.3833 126.159 44.8191 126.002 44.3069 125.69C43.7947 125.369 43.3867 124.926 43.0829 124.362C42.7877 123.789 42.6401 123.142 42.6401 122.422ZM48.5128 122.448C48.5128 121.953 48.4087 121.523 48.2003 121.158C48.0006 120.794 47.7359 120.516 47.406 120.325C47.0761 120.134 46.7202 120.039 46.3382 120.039C45.9563 120.039 45.6003 120.134 45.2705 120.325C44.9406 120.507 44.6715 120.781 44.4631 121.145C44.2635 121.501 44.1636 121.927 44.1636 122.422C44.1636 122.916 44.2635 123.35 44.4631 123.724C44.6715 124.097 44.9406 124.383 45.2705 124.583C45.609 124.774 45.9649 124.87 46.3382 124.87C46.7202 124.87 47.0761 124.774 47.406 124.583C47.7359 124.392 48.0006 124.114 48.2003 123.75C48.4087 123.376 48.5128 122.942 48.5128 122.448ZM53.4445 119.908C53.6615 119.544 53.948 119.262 54.3039 119.062C54.6685 118.854 55.0982 118.749 55.5931 118.749V120.286H55.2154C54.6338 120.286 54.1911 120.434 53.8872 120.729C53.5921 121.024 53.4445 121.536 53.4445 122.265V126.042H51.9601V118.867H53.4445V119.908ZM58.6894 120.078V124.049C58.6894 124.318 58.7502 124.514 58.8717 124.635C59.002 124.748 59.219 124.804 59.5228 124.804H60.4343V126.042H59.2624C58.5939 126.042 58.0818 125.885 57.7258 125.573C57.3699 125.26 57.192 124.752 57.192 124.049V120.078H56.3456V118.867H57.192V117.083H58.6894V118.867H60.4343V120.078H58.6894ZM62.5577 117.916C62.2886 117.916 62.0629 117.825 61.8806 117.643C61.6983 117.46 61.6072 117.235 61.6072 116.966C61.6072 116.696 61.6983 116.471 61.8806 116.288C62.0629 116.106 62.2886 116.015 62.5577 116.015C62.8182 116.015 63.0395 116.106 63.2218 116.288C63.4041 116.471 63.4953 116.696 63.4953 116.966C63.4953 117.235 63.4041 117.46 63.2218 117.643C63.0395 117.825 62.8182 117.916 62.5577 117.916ZM63.2869 118.867V126.042H61.8025V118.867H63.2869ZM64.7411 122.448C64.7411 121.71 64.8887 121.063 65.1838 120.507C65.4876 119.943 65.9043 119.509 66.4339 119.205C66.9634 118.901 67.5711 118.749 68.2569 118.749C69.125 118.749 69.8412 118.958 70.4054 119.374C70.9784 119.782 71.3647 120.368 71.5643 121.132H69.9627C69.8325 120.776 69.6241 120.499 69.3377 120.299C69.0512 120.099 68.6909 120 68.2569 120C67.6492 120 67.1631 120.217 66.7985 120.651C66.4426 121.076 66.2646 121.675 66.2646 122.448C66.2646 123.22 66.4426 123.824 66.7985 124.258C67.1631 124.692 67.6492 124.909 68.2569 124.909C69.1163 124.909 69.6849 124.531 69.9627 123.776H71.5643C71.356 124.505 70.9654 125.087 70.3924 125.521C69.8195 125.946 69.1076 126.159 68.2569 126.159C67.5711 126.159 66.9634 126.007 66.4339 125.703C65.9043 125.39 65.4876 124.956 65.1838 124.401C64.8887 123.837 64.7411 123.185 64.7411 122.448ZM73.799 117.916C73.5298 117.916 73.3041 117.825 73.1218 117.643C72.9395 117.46 72.8484 117.235 72.8484 116.966C72.8484 116.696 72.9395 116.471 73.1218 116.288C73.3041 116.106 73.5298 116.015 73.799 116.015C74.0594 116.015 74.2808 116.106 74.4631 116.288C74.6454 116.471 74.7365 116.696 74.7365 116.966C74.7365 117.235 74.6454 117.46 74.4631 117.643C74.2808 117.825 74.0594 117.916 73.799 117.916ZM74.5282 118.867V126.042H73.0437V118.867H74.5282ZM77.9616 119.921C78.2133 119.592 78.5562 119.314 78.9903 119.088C79.4243 118.862 79.9148 118.749 80.4617 118.749C81.0867 118.749 81.6553 118.906 82.1675 119.218C82.6884 119.522 83.0964 119.952 83.3915 120.507C83.6867 121.063 83.8343 121.701 83.8343 122.422C83.8343 123.142 83.6867 123.789 83.3915 124.362C83.0964 124.926 82.6884 125.369 82.1675 125.69C81.6553 126.002 81.0867 126.159 80.4617 126.159C79.9148 126.159 79.4287 126.05 79.0033 125.833C78.5779 125.607 78.2307 125.33 77.9616 125V129.453H76.4771V118.867H77.9616V119.921ZM82.3238 122.422C82.3238 121.927 82.2196 121.501 82.0113 121.145C81.8116 120.781 81.5425 120.507 81.2039 120.325C80.874 120.134 80.5181 120.039 80.1362 120.039C79.7629 120.039 79.407 120.134 79.0684 120.325C78.7385 120.516 78.4694 120.794 78.2611 121.158C78.0614 121.523 77.9616 121.953 77.9616 122.448C77.9616 122.942 78.0614 123.376 78.2611 123.75C78.4694 124.114 78.7385 124.392 79.0684 124.583C79.407 124.774 79.7629 124.87 80.1362 124.87C80.5181 124.87 80.874 124.774 81.2039 124.583C81.5425 124.383 81.8116 124.097 82.0113 123.724C82.2196 123.35 82.3238 122.916 82.3238 122.422ZM84.8074 122.422C84.8074 121.701 84.955 121.063 85.2501 120.507C85.554 119.952 85.962 119.522 86.4742 119.218C86.995 118.906 87.568 118.749 88.193 118.749C88.7573 118.749 89.2478 118.862 89.6644 119.088C90.0898 119.305 90.4284 119.578 90.6801 119.908V118.867H92.1776V126.042H90.6801V124.974C90.4284 125.312 90.0855 125.594 89.6514 125.82C89.2174 126.046 88.7226 126.159 88.167 126.159C87.5506 126.159 86.9864 126.002 86.4742 125.69C85.962 125.369 85.554 124.926 85.2501 124.362C84.955 123.789 84.8074 123.142 84.8074 122.422ZM90.6801 122.448C90.6801 121.953 90.5759 121.523 90.3676 121.158C90.1679 120.794 89.9032 120.516 89.5733 120.325C89.2434 120.134 88.8875 120.039 88.5055 120.039C88.1236 120.039 87.7676 120.134 87.4378 120.325C87.1079 120.507 86.8388 120.781 86.6304 121.145C86.4308 121.501 86.3309 121.927 86.3309 122.422C86.3309 122.916 86.4308 123.35 86.6304 123.724C86.8388 124.097 87.1079 124.383 87.4378 124.583C87.7763 124.774 88.1322 124.87 88.5055 124.87C88.8875 124.87 89.2434 124.774 89.5733 124.583C89.9032 124.392 90.1679 124.114 90.3676 123.75C90.5759 123.376 90.6801 122.942 90.6801 122.448ZM95.8592 120.078V124.049C95.8592 124.318 95.92 124.514 96.0415 124.635C96.1717 124.748 96.3888 124.804 96.6926 124.804H97.6041V126.042H96.4322C95.7637 126.042 95.2516 125.885 94.8956 125.573C94.5397 125.26 94.3617 124.752 94.3617 124.049V120.078H93.5154V118.867H94.3617V117.083H95.8592V118.867H97.6041V120.078H95.8592ZM105.548 122.278C105.548 122.547 105.531 122.79 105.496 123.007H100.014C100.057 123.58 100.27 124.041 100.652 124.388C101.034 124.735 101.503 124.909 102.058 124.909C102.857 124.909 103.421 124.574 103.751 123.906H105.353C105.136 124.566 104.741 125.108 104.168 125.534C103.604 125.95 102.9 126.159 102.058 126.159C101.373 126.159 100.756 126.007 100.209 125.703C99.6711 125.39 99.2457 124.956 98.9332 124.401C98.6294 123.837 98.4775 123.185 98.4775 122.448C98.4775 121.71 98.625 121.063 98.9202 120.507C99.224 119.943 99.6451 119.509 100.183 119.205C100.73 118.901 101.355 118.749 102.058 118.749C102.735 118.749 103.339 118.897 103.868 119.192C104.398 119.487 104.81 119.904 105.105 120.442C105.401 120.972 105.548 121.584 105.548 122.278ZM103.999 121.81C103.99 121.263 103.795 120.824 103.413 120.494C103.031 120.164 102.558 120 101.993 120C101.481 120 101.043 120.164 100.678 120.494C100.313 120.816 100.096 121.254 100.027 121.81H103.999ZM111.147 117.916C110.878 117.916 110.652 117.825 110.47 117.643C110.287 117.46 110.196 117.235 110.196 116.966C110.196 116.696 110.287 116.471 110.47 116.288C110.652 116.106 110.878 116.015 111.147 116.015C111.407 116.015 111.629 116.106 111.811 116.288C111.993 116.471 112.084 116.696 112.084 116.966C112.084 117.235 111.993 117.46 111.811 117.643C111.629 117.825 111.407 117.916 111.147 117.916ZM111.876 118.867V126.042H110.392V118.867H111.876ZM117.445 118.749C118.009 118.749 118.513 118.867 118.955 119.101C119.407 119.335 119.758 119.683 120.01 120.143C120.262 120.603 120.388 121.158 120.388 121.81V126.042H118.916V122.031C118.916 121.388 118.756 120.898 118.435 120.559C118.113 120.212 117.675 120.039 117.119 120.039C116.564 120.039 116.121 120.212 115.791 120.559C115.47 120.898 115.309 121.388 115.309 122.031V126.042H113.825V118.867H115.309V119.687C115.552 119.392 115.861 119.162 116.234 118.997C116.616 118.832 117.02 118.749 117.445 118.749ZM128.646 126.133C128.038 126.133 127.491 126.028 127.005 125.82C126.519 125.603 126.137 125.299 125.859 124.909C125.581 124.518 125.442 124.062 125.442 123.541H127.031C127.066 123.932 127.218 124.253 127.487 124.505C127.765 124.757 128.151 124.883 128.646 124.883C129.158 124.883 129.557 124.761 129.844 124.518C130.13 124.266 130.273 123.945 130.273 123.554C130.273 123.251 130.182 123.003 130 122.812C129.826 122.621 129.605 122.474 129.336 122.369C129.075 122.265 128.711 122.152 128.242 122.031C127.652 121.875 127.17 121.718 126.797 121.562C126.432 121.397 126.12 121.145 125.859 120.807C125.599 120.468 125.468 120.017 125.468 119.453C125.468 118.932 125.599 118.476 125.859 118.085C126.12 117.695 126.484 117.395 126.953 117.187C127.422 116.979 127.964 116.874 128.581 116.874C129.457 116.874 130.174 117.096 130.729 117.538C131.293 117.973 131.606 118.571 131.667 119.335H130.026C130 119.006 129.844 118.723 129.557 118.489C129.271 118.255 128.893 118.137 128.424 118.137C127.999 118.137 127.652 118.246 127.383 118.463C127.114 118.68 126.979 118.993 126.979 119.401C126.979 119.678 127.061 119.908 127.226 120.091C127.4 120.264 127.617 120.403 127.877 120.507C128.138 120.612 128.494 120.724 128.945 120.846C129.544 121.011 130.03 121.176 130.404 121.341C130.786 121.506 131.107 121.762 131.367 122.109C131.636 122.448 131.771 122.903 131.771 123.476C131.771 123.936 131.645 124.37 131.393 124.778C131.15 125.186 130.79 125.516 130.312 125.768C129.844 126.011 129.288 126.133 128.646 126.133ZM133.028 122.422C133.028 121.701 133.175 121.063 133.47 120.507C133.774 119.952 134.182 119.522 134.694 119.218C135.215 118.906 135.788 118.749 136.413 118.749C136.978 118.749 137.468 118.862 137.885 119.088C138.31 119.305 138.649 119.578 138.9 119.908V118.867H140.398V126.042H138.9V124.974C138.649 125.312 138.306 125.594 137.872 125.82C137.438 126.046 136.943 126.159 136.387 126.159C135.771 126.159 135.207 126.002 134.694 125.69C134.182 125.369 133.774 124.926 133.47 124.362C133.175 123.789 133.028 123.142 133.028 122.422ZM138.9 122.448C138.9 121.953 138.796 121.523 138.588 121.158C138.388 120.794 138.123 120.516 137.794 120.325C137.464 120.134 137.108 120.039 136.726 120.039C136.344 120.039 135.988 120.134 135.658 120.325C135.328 120.507 135.059 120.781 134.851 121.145C134.651 121.501 134.551 121.927 134.551 122.422C134.551 122.916 134.651 123.35 134.851 123.724C135.059 124.097 135.328 124.383 135.658 124.583C135.997 124.774 136.353 124.87 136.726 124.87C137.108 124.87 137.464 124.774 137.794 124.583C138.123 124.392 138.388 124.114 138.588 123.75C138.796 123.376 138.9 122.942 138.9 122.448ZM145.356 120.078H144.027V126.042H142.53V120.078H141.684V118.867H142.53V118.359C142.53 117.534 142.747 116.935 143.181 116.562C143.624 116.18 144.314 115.989 145.251 115.989V117.226C144.8 117.226 144.483 117.313 144.301 117.486C144.119 117.651 144.027 117.942 144.027 118.359V118.867H145.356V120.078ZM153.247 122.278C153.247 122.547 153.23 122.79 153.195 123.007H147.713C147.756 123.58 147.969 124.041 148.351 124.388C148.733 124.735 149.202 124.909 149.757 124.909C150.556 124.909 151.12 124.574 151.45 123.906H153.052C152.835 124.566 152.44 125.108 151.867 125.534C151.302 125.95 150.599 126.159 149.757 126.159C149.071 126.159 148.455 126.007 147.908 125.703C147.37 125.39 146.945 124.956 146.632 124.401C146.328 123.837 146.176 123.185 146.176 122.448C146.176 121.71 146.324 121.063 146.619 120.507C146.923 119.943 147.344 119.509 147.882 119.205C148.429 118.901 149.054 118.749 149.757 118.749C150.434 118.749 151.038 118.897 151.567 119.192C152.097 119.487 152.509 119.904 152.804 120.442C153.099 120.972 153.247 121.584 153.247 122.278ZM151.697 121.81C151.689 121.263 151.493 120.824 151.111 120.494C150.73 120.164 150.256 120 149.692 120C149.18 120 148.742 120.164 148.377 120.494C148.012 120.816 147.795 121.254 147.726 121.81H151.697ZM156.44 120.078V124.049C156.44 124.318 156.501 124.514 156.622 124.635C156.752 124.748 156.969 124.804 157.273 124.804H158.185V126.042H157.013C156.344 126.042 155.832 125.885 155.476 125.573C155.12 125.26 154.942 124.752 154.942 124.049V120.078H154.096V118.867H154.942V117.083H156.44V118.867H158.185V120.078H156.44ZM166.011 118.867L161.61 129.414H160.074L161.532 125.924L158.706 118.867H160.36L162.378 124.336L164.475 118.867H166.011ZM180.046 116.992V126.042H178.562V119.843L175.801 126.042H174.772L171.999 119.843V126.042H170.514V116.992H172.116L175.293 124.088L178.457 116.992H180.046ZM185.109 126.159C184.432 126.159 183.82 126.007 183.273 125.703C182.726 125.39 182.297 124.956 181.984 124.401C181.672 123.837 181.515 123.185 181.515 122.448C181.515 121.718 181.676 121.072 181.997 120.507C182.318 119.943 182.757 119.509 183.312 119.205C183.868 118.901 184.489 118.749 185.174 118.749C185.86 118.749 186.481 118.901 187.036 119.205C187.592 119.509 188.03 119.943 188.352 120.507C188.673 121.072 188.833 121.718 188.833 122.448C188.833 123.177 188.668 123.824 188.339 124.388C188.009 124.952 187.557 125.39 186.984 125.703C186.42 126.007 185.795 126.159 185.109 126.159ZM185.109 124.87C185.491 124.87 185.847 124.778 186.177 124.596C186.516 124.414 186.789 124.14 186.997 123.776C187.206 123.411 187.31 122.968 187.31 122.448C187.31 121.927 187.21 121.488 187.01 121.132C186.811 120.768 186.546 120.494 186.216 120.312C185.886 120.13 185.53 120.039 185.148 120.039C184.766 120.039 184.41 120.13 184.081 120.312C183.759 120.494 183.503 120.768 183.312 121.132C183.121 121.488 183.026 121.927 183.026 122.448C183.026 123.22 183.221 123.819 183.612 124.245C184.011 124.661 184.51 124.87 185.109 124.87ZM189.806 122.422C189.806 121.701 189.954 121.063 190.249 120.507C190.553 119.952 190.961 119.522 191.473 119.218C191.994 118.906 192.571 118.749 193.205 118.749C193.673 118.749 194.134 118.854 194.585 119.062C195.045 119.262 195.41 119.531 195.679 119.869V116.406H197.176V126.042H195.679V124.961C195.436 125.308 195.097 125.594 194.663 125.82C194.238 126.046 193.747 126.159 193.192 126.159C192.567 126.159 191.994 126.002 191.473 125.69C190.961 125.369 190.553 124.926 190.249 124.362C189.954 123.789 189.806 123.142 189.806 122.422ZM195.679 122.448C195.679 121.953 195.575 121.523 195.366 121.158C195.167 120.794 194.902 120.516 194.572 120.325C194.242 120.134 193.886 120.039 193.504 120.039C193.122 120.039 192.766 120.134 192.436 120.325C192.106 120.507 191.837 120.781 191.629 121.145C191.429 121.501 191.33 121.927 191.33 122.422C191.33 122.916 191.429 123.35 191.629 123.724C191.837 124.097 192.106 124.383 192.436 124.583C192.775 124.774 193.131 124.87 193.504 124.87C193.886 124.87 194.242 124.774 194.572 124.583C194.902 124.392 195.167 124.114 195.366 123.75C195.575 123.376 195.679 122.942 195.679 122.448ZM205.624 118.867V126.042H204.139V125.195C203.905 125.49 203.597 125.725 203.215 125.898C202.841 126.063 202.442 126.146 202.017 126.146C201.452 126.146 200.945 126.028 200.493 125.794C200.05 125.56 199.699 125.212 199.438 124.752C199.187 124.292 199.061 123.737 199.061 123.086V118.867H200.532V122.864C200.532 123.507 200.693 124.001 201.014 124.349C201.335 124.687 201.774 124.857 202.329 124.857C202.885 124.857 203.323 124.687 203.644 124.349C203.974 124.001 204.139 123.507 204.139 122.864V118.867H205.624ZM209.067 116.406V126.042H207.582V116.406H209.067ZM217.592 122.278C217.592 122.547 217.574 122.79 217.539 123.007H212.057C212.101 123.58 212.314 124.041 212.695 124.388C213.077 124.735 213.546 124.909 214.102 124.909C214.9 124.909 215.465 124.574 215.795 123.906H217.396C217.179 124.566 216.784 125.108 216.211 125.534C215.647 125.95 214.944 126.159 214.102 126.159C213.416 126.159 212.8 126.007 212.253 125.703C211.715 125.39 211.289 124.956 210.977 124.401C210.673 123.837 210.521 123.185 210.521 122.448C210.521 121.71 210.668 121.063 210.964 120.507C211.267 119.943 211.688 119.509 212.227 119.205C212.774 118.901 213.399 118.749 214.102 118.749C214.779 118.749 215.382 118.897 215.912 119.192C216.441 119.487 216.854 119.904 217.149 120.442C217.444 120.972 217.592 121.584 217.592 122.278ZM216.042 121.81C216.033 121.263 215.838 120.824 215.456 120.494C215.074 120.164 214.601 120 214.037 120C213.525 120 213.086 120.164 212.722 120.494C212.357 120.816 212.14 121.254 212.07 121.81H216.042ZM224.167 120.078V124.049C224.167 124.318 224.228 124.514 224.349 124.635C224.479 124.748 224.696 124.804 225 124.804H225.912V126.042H224.74C224.071 126.042 223.559 125.885 223.203 125.573C222.847 125.26 222.669 124.752 222.669 124.049V120.078H221.823V118.867H222.669V117.083H224.167V118.867H225.912V120.078H224.167ZM230.392 126.159C229.715 126.159 229.103 126.007 228.556 125.703C228.009 125.39 227.579 124.956 227.267 124.401C226.954 123.837 226.798 123.185 226.798 122.448C226.798 121.718 226.959 121.072 227.28 120.507C227.601 119.943 228.039 119.509 228.595 119.205C229.151 118.901 229.771 118.749 230.457 118.749C231.143 118.749 231.764 118.901 232.319 119.205C232.875 119.509 233.313 119.943 233.634 120.507C233.956 121.072 234.116 121.718 234.116 122.448C234.116 123.177 233.951 123.824 233.621 124.388C233.291 124.952 232.84 125.39 232.267 125.703C231.703 126.007 231.078 126.159 230.392 126.159ZM230.392 124.87C230.774 124.87 231.13 124.778 231.46 124.596C231.798 124.414 232.072 124.14 232.28 123.776C232.488 123.411 232.593 122.968 232.593 122.448C232.593 121.927 232.493 121.488 232.293 121.132C232.093 120.768 231.829 120.494 231.499 120.312C231.169 120.13 230.813 120.039 230.431 120.039C230.049 120.039 229.693 120.13 229.363 120.312C229.042 120.494 228.786 120.768 228.595 121.132C228.404 121.488 228.309 121.927 228.309 122.448C228.309 123.22 228.504 123.819 228.895 124.245C229.294 124.661 229.793 124.87 230.392 124.87ZM41.9666 141.278C41.9666 141.547 41.9492 141.79 41.9145 142.007H36.4324C36.4758 142.58 36.6885 143.041 37.0705 143.388C37.4524 143.735 37.9212 143.909 38.4768 143.909C39.2755 143.909 39.8397 143.574 40.1696 142.906H41.7712C41.5542 143.566 41.1592 144.108 40.5863 144.534C40.022 144.95 39.3189 145.159 38.4768 145.159C37.791 145.159 37.1747 145.007 36.6277 144.703C36.0895 144.39 35.6642 143.956 35.3516 143.401C35.0478 142.837 34.8959 142.185 34.8959 141.448C34.8959 140.71 35.0435 140.063 35.3386 139.507C35.6425 138.943 36.0635 138.509 36.6017 138.205C37.1486 137.901 37.7736 137.749 38.4768 137.749C39.1539 137.749 39.7573 137.897 40.2868 138.192C40.8163 138.487 41.2287 138.904 41.5238 139.442C41.819 139.972 41.9666 140.584 41.9666 141.278ZM40.417 140.81C40.4083 140.263 40.213 139.824 39.831 139.494C39.4491 139.164 38.976 139 38.4117 139C37.8995 139 37.4611 139.164 37.0965 139.494C36.7319 139.816 36.5149 140.254 36.4454 140.81H40.417ZM42.9326 141.422C42.9326 140.701 43.0802 140.063 43.3753 139.507C43.6792 138.952 44.0872 138.522 44.5994 138.218C45.1202 137.906 45.6932 137.749 46.3182 137.749C46.8825 137.749 47.3729 137.862 47.7896 138.088C48.215 138.305 48.5536 138.578 48.8053 138.908V137.867H50.3028V145.042H48.8053V143.974C48.5536 144.312 48.2107 144.594 47.7766 144.82C47.3426 145.046 46.8477 145.159 46.2921 145.159C45.6758 145.159 45.1115 145.002 44.5994 144.69C44.0872 144.369 43.6792 143.926 43.3753 143.362C43.0802 142.789 42.9326 142.142 42.9326 141.422ZM48.8053 141.448C48.8053 140.953 48.7011 140.523 48.4928 140.158C48.2931 139.794 48.0284 139.516 47.6985 139.325C47.3686 139.134 47.0127 139.039 46.6307 139.039C46.2487 139.039 45.8928 139.134 45.5629 139.325C45.2331 139.507 44.964 139.781 44.7556 140.145C44.5559 140.501 44.4561 140.927 44.4561 141.422C44.4561 141.916 44.5559 142.35 44.7556 142.724C44.964 143.097 45.2331 143.383 45.5629 143.583C45.9015 143.774 46.2574 143.87 46.6307 143.87C47.0127 143.87 47.3686 143.774 47.6985 143.583C48.0284 143.392 48.2931 143.114 48.4928 142.75C48.7011 142.376 48.8053 141.942 48.8053 141.448ZM53.737 138.908C53.954 138.544 54.2405 138.262 54.5964 138.062C54.961 137.854 55.3907 137.749 55.8855 137.749V139.286H55.5079C54.9263 139.286 54.4836 139.434 54.1797 139.729C53.8846 140.024 53.737 140.536 53.737 141.265V145.042H52.2525V137.867H53.737V138.908ZM60.87 137.749C61.4343 137.749 61.9378 137.867 62.3805 138.101C62.8319 138.335 63.1835 138.683 63.4353 139.143C63.687 139.603 63.8129 140.158 63.8129 140.81V145.042H62.3415V141.031C62.3415 140.388 62.1809 139.898 61.8597 139.559C61.5385 139.212 61.1001 139.039 60.5445 139.039C59.9889 139.039 59.5462 139.212 59.2163 139.559C58.8951 139.898 58.7345 140.388 58.7345 141.031V145.042H57.2501V137.867H58.7345V138.687C58.9776 138.392 59.2857 138.162 59.659 137.997C60.041 137.832 60.4447 137.749 60.87 137.749ZM75.196 142.463C75.196 142.897 75.0875 143.305 74.8705 143.687C74.6621 144.069 74.3496 144.39 73.9329 144.651C73.5249 144.911 73.0388 145.068 72.4745 145.12V146.174H71.6281V145.12C70.8121 145.042 70.1524 144.785 69.6489 144.351C69.1454 143.917 68.8936 143.344 68.8936 142.633H70.4822C70.5083 142.971 70.6168 143.253 70.8078 143.479C70.9988 143.696 71.2722 143.835 71.6281 143.896V141.031C71.0465 140.883 70.5734 140.736 70.2088 140.588C69.8442 140.432 69.5317 140.189 69.2712 139.859C69.0195 139.529 68.8936 139.078 68.8936 138.505C68.8936 137.784 69.1454 137.19 69.6489 136.721C70.1524 136.243 70.8121 135.966 71.6281 135.887V134.833H72.4745V135.887C73.2385 135.957 73.8505 136.2 74.3106 136.617C74.7793 137.025 75.0441 137.589 75.1049 138.309H73.5163C73.4902 138.04 73.386 137.802 73.2037 137.593C73.0214 137.376 72.7784 137.229 72.4745 137.15V139.963C73.0562 140.102 73.5293 140.25 73.8939 140.406C74.2585 140.553 74.5667 140.792 74.8184 141.122C75.0702 141.443 75.196 141.89 75.196 142.463ZM70.4041 138.427C70.4041 138.783 70.5083 139.06 70.7166 139.26C70.9337 139.46 71.2375 139.62 71.6281 139.742V137.111C71.2549 137.155 70.9554 137.289 70.7297 137.515C70.5126 137.741 70.4041 138.045 70.4041 138.427ZM72.4745 143.896C72.8565 143.835 73.156 143.683 73.373 143.44C73.59 143.188 73.6986 142.889 73.6986 142.541C73.6986 142.194 73.59 141.925 73.373 141.734C73.1647 141.534 72.8652 141.374 72.4745 141.252V143.896ZM85.3579 135.992L81.9593 145.042H80.2404L76.8288 135.992H78.4174L81.0999 143.518L83.7953 135.992H85.3579ZM91.4433 140.393C91.9294 140.48 92.3418 140.736 92.6803 141.161C93.0189 141.586 93.1882 142.068 93.1882 142.606C93.1882 143.067 93.0666 143.483 92.8236 143.857C92.5892 144.221 92.2463 144.512 91.7949 144.729C91.3435 144.937 90.8183 145.042 90.2193 145.042H86.5993V135.992H90.05C90.6664 135.992 91.1959 136.096 91.6386 136.304C92.0814 136.512 92.4156 136.795 92.6413 137.15C92.867 137.498 92.9798 137.888 92.9798 138.322C92.9798 138.843 92.8409 139.277 92.5632 139.625C92.2854 139.972 91.9121 140.228 91.4433 140.393ZM88.0838 139.794H89.9198C90.4059 139.794 90.7835 139.685 91.0527 139.468C91.3304 139.243 91.4693 138.921 91.4693 138.505C91.4693 138.097 91.3304 137.78 91.0527 137.554C90.7835 137.32 90.4059 137.203 89.9198 137.203H88.0838V139.794ZM90.0891 143.831C90.5926 143.831 90.9875 143.709 91.274 143.466C91.5605 143.223 91.7037 142.884 91.7037 142.45C91.7037 142.007 91.5518 141.656 91.248 141.395C90.9441 141.135 90.5405 141.005 90.037 141.005H88.0838V143.831H90.0891ZM99.6683 138.908C99.8853 138.544 100.172 138.262 100.528 138.062C100.892 137.854 101.322 137.749 101.817 137.749V139.286H101.439C100.858 139.286 100.415 139.434 100.111 139.729C99.8159 140.024 99.6683 140.536 99.6683 141.265V145.042H98.1839V137.867H99.6683V138.908ZM109.757 141.278C109.757 141.547 109.74 141.79 109.705 142.007H104.223C104.267 142.58 104.479 143.041 104.861 143.388C105.243 143.735 105.712 143.909 106.267 143.909C107.066 143.909 107.63 143.574 107.96 142.906H109.562C109.345 143.566 108.95 144.108 108.377 144.534C107.813 144.95 107.11 145.159 106.267 145.159C105.582 145.159 104.965 145.007 104.418 144.703C103.88 144.39 103.455 143.956 103.142 143.401C102.838 142.837 102.687 142.185 102.687 141.448C102.687 140.71 102.834 140.063 103.129 139.507C103.433 138.943 103.854 138.509 104.392 138.205C104.939 137.901 105.564 137.749 106.267 137.749C106.945 137.749 107.548 137.897 108.077 138.192C108.607 138.487 109.019 138.904 109.315 139.442C109.61 139.972 109.757 140.584 109.757 141.278ZM108.208 140.81C108.199 140.263 108.004 139.824 107.622 139.494C107.24 139.164 106.767 139 106.202 139C105.69 139 105.252 139.164 104.887 139.494C104.523 139.816 104.306 140.254 104.236 140.81H108.208ZM120.854 137.867L118.627 145.042H117.065L115.619 139.742L114.174 145.042H112.611L110.372 137.867H111.882L113.38 143.635L114.903 137.867H116.453L117.911 143.609L119.396 137.867H120.854ZM121.469 141.422C121.469 140.701 121.616 140.063 121.911 139.507C122.215 138.952 122.623 138.522 123.135 138.218C123.656 137.906 124.229 137.749 124.854 137.749C125.418 137.749 125.909 137.862 126.326 138.088C126.751 138.305 127.09 138.578 127.341 138.908V137.867H128.839V145.042H127.341V143.974C127.09 144.312 126.747 144.594 126.313 144.82C125.879 145.046 125.384 145.159 124.828 145.159C124.212 145.159 123.647 145.002 123.135 144.69C122.623 144.369 122.215 143.926 121.911 143.362C121.616 142.789 121.469 142.142 121.469 141.422ZM127.341 141.448C127.341 140.953 127.237 140.523 127.029 140.158C126.829 139.794 126.564 139.516 126.234 139.325C125.905 139.134 125.549 139.039 125.167 139.039C124.785 139.039 124.429 139.134 124.099 139.325C123.769 139.507 123.5 139.781 123.292 140.145C123.092 140.501 122.992 140.927 122.992 141.422C122.992 141.916 123.092 142.35 123.292 142.724C123.5 143.097 123.769 143.383 124.099 143.583C124.437 143.774 124.793 143.87 125.167 143.87C125.549 143.87 125.905 143.774 126.234 143.583C126.564 143.392 126.829 143.114 127.029 142.75C127.237 142.376 127.341 141.942 127.341 141.448ZM132.273 138.908C132.49 138.544 132.776 138.262 133.132 138.062C133.497 137.854 133.927 137.749 134.421 137.749V139.286H134.044C133.462 139.286 133.02 139.434 132.716 139.729C132.421 140.024 132.273 140.536 132.273 141.265V145.042H130.788V137.867H132.273V138.908ZM135.291 141.422C135.291 140.701 135.439 140.063 135.734 139.507C136.038 138.952 136.446 138.522 136.958 138.218C137.479 137.906 138.056 137.749 138.69 137.749C139.159 137.749 139.619 137.854 140.07 138.062C140.53 138.262 140.895 138.531 141.164 138.869V135.406H142.661V145.042H141.164V143.961C140.921 144.308 140.582 144.594 140.148 144.82C139.723 145.046 139.232 145.159 138.677 145.159C138.052 145.159 137.479 145.002 136.958 144.69C136.446 144.369 136.038 143.926 135.734 143.362C135.439 142.789 135.291 142.142 135.291 141.422ZM141.164 141.448C141.164 140.953 141.06 140.523 140.851 140.158C140.652 139.794 140.387 139.516 140.057 139.325C139.727 139.134 139.371 139.039 138.989 139.039C138.607 139.039 138.251 139.134 137.922 139.325C137.592 139.507 137.323 139.781 137.114 140.145C136.915 140.501 136.815 140.927 136.815 141.422C136.815 141.916 136.915 142.35 137.114 142.724C137.323 143.097 137.592 143.383 137.922 143.583C138.26 143.774 138.616 143.87 138.989 143.87C139.371 143.87 139.727 143.774 140.057 143.583C140.387 143.392 140.652 143.114 140.851 142.75C141.06 142.376 141.164 141.942 141.164 141.448ZM147.215 145.159C146.651 145.159 146.143 145.059 145.692 144.859C145.249 144.651 144.898 144.373 144.637 144.026C144.377 143.67 144.238 143.275 144.22 142.841H145.757C145.783 143.145 145.926 143.401 146.187 143.609C146.456 143.809 146.79 143.909 147.189 143.909C147.606 143.909 147.927 143.831 148.153 143.674C148.387 143.509 148.505 143.301 148.505 143.049C148.505 142.78 148.374 142.58 148.114 142.45C147.862 142.32 147.459 142.177 146.903 142.021C146.365 141.873 145.926 141.73 145.588 141.591C145.249 141.452 144.954 141.239 144.702 140.953C144.459 140.666 144.338 140.289 144.338 139.82C144.338 139.438 144.451 139.091 144.676 138.778C144.902 138.457 145.223 138.205 145.64 138.023C146.065 137.841 146.551 137.749 147.098 137.749C147.914 137.749 148.57 137.958 149.064 138.374C149.568 138.782 149.837 139.342 149.872 140.054H148.387C148.361 139.733 148.231 139.477 147.997 139.286C147.762 139.095 147.445 139 147.046 139C146.656 139 146.356 139.073 146.148 139.221C145.939 139.368 145.835 139.564 145.835 139.807C145.835 139.998 145.905 140.158 146.044 140.289C146.182 140.419 146.352 140.523 146.551 140.601C146.751 140.671 147.046 140.762 147.437 140.875C147.958 141.014 148.383 141.157 148.713 141.304C149.051 141.443 149.342 141.652 149.585 141.929C149.828 142.207 149.954 142.576 149.963 143.036C149.963 143.444 149.85 143.809 149.624 144.13C149.399 144.451 149.078 144.703 148.661 144.885C148.253 145.068 147.771 145.159 147.215 145.159ZM24.6355 160.398C24.323 160.398 24.0365 160.324 23.7761 160.177C23.5243 160.021 23.3203 159.817 23.1641 159.565C23.0165 159.304 22.9427 159.018 22.9427 158.705C22.9427 158.228 23.1076 157.824 23.4375 157.494C23.7674 157.164 24.1667 157 24.6355 157C25.1216 157 25.5296 157.164 25.8595 157.494C26.1894 157.824 26.3543 158.228 26.3543 158.705C26.3543 159.183 26.1894 159.586 25.8595 159.916C25.5296 160.238 25.1216 160.398 24.6355 160.398ZM36.8752 155.19V157.846H40.0003V159.057H36.8752V161.831H40.391V163.042H35.3907V153.979H40.391V155.19H36.8752ZM41.7245 159.422C41.7245 158.701 41.8721 158.063 42.1673 157.507C42.4711 156.952 42.8791 156.522 43.3913 156.218C43.9122 155.906 44.4851 155.749 45.1101 155.749C45.6744 155.749 46.1649 155.862 46.5816 156.088C47.0069 156.305 47.3455 156.578 47.5972 156.908V155.867H49.0947V163.042H47.5972V161.974C47.3455 162.312 47.0026 162.594 46.5685 162.82C46.1345 163.046 45.6397 163.159 45.0841 163.159C44.4677 163.159 43.9035 163.002 43.3913 162.69C42.8791 162.369 42.4711 161.926 42.1673 161.362C41.8721 160.789 41.7245 160.142 41.7245 159.422ZM47.5972 159.448C47.5972 158.953 47.4931 158.523 47.2847 158.158C47.0851 157.794 46.8203 157.516 46.4904 157.325C46.1605 157.134 45.8046 157.039 45.4227 157.039C45.0407 157.039 44.6848 157.134 44.3549 157.325C44.025 157.507 43.7559 157.781 43.5476 158.145C43.3479 158.501 43.2481 158.927 43.2481 159.422C43.2481 159.916 43.3479 160.35 43.5476 160.724C43.7559 161.097 44.025 161.383 44.3549 161.583C44.6935 161.774 45.0494 161.87 45.4227 161.87C45.8046 161.87 46.1605 161.774 46.4904 161.583C46.8203 161.392 47.0851 161.114 47.2847 160.75C47.4931 160.376 47.5972 159.942 47.5972 159.448ZM52.5289 156.908C52.746 156.544 53.0324 156.262 53.3884 156.062C53.753 155.854 54.1827 155.749 54.6775 155.749V157.286H54.2999C53.7182 157.286 53.2755 157.434 52.9717 157.729C52.6765 158.024 52.5289 158.536 52.5289 159.265V163.042H51.0445V155.867H52.5289V156.908ZM59.662 155.749C60.2262 155.749 60.7297 155.867 61.1725 156.101C61.6239 156.335 61.9755 156.683 62.2272 157.143C62.479 157.603 62.6048 158.158 62.6048 158.81V163.042H61.1334V159.031C61.1334 158.388 60.9728 157.898 60.6516 157.559C60.3304 157.212 59.892 157.039 59.3364 157.039C58.7809 157.039 58.3381 157.212 58.0082 157.559C57.6871 157.898 57.5265 158.388 57.5265 159.031V163.042H56.042V155.867H57.5265V156.687C57.7695 156.392 58.0777 156.162 58.451 155.997C58.8329 155.832 59.2366 155.749 59.662 155.749ZM69.3653 156.908C69.5824 156.544 69.8688 156.262 70.2248 156.062C70.5894 155.854 71.0191 155.749 71.5139 155.749V157.286H71.1363C70.5546 157.286 70.1119 157.434 69.8081 157.729C69.5129 158.024 69.3653 158.536 69.3653 159.265V163.042H67.8809V155.867H69.3653V156.908ZM73.6336 154.916C73.3645 154.916 73.1388 154.825 72.9565 154.643C72.7742 154.46 72.6831 154.235 72.6831 153.966C72.6831 153.696 72.7742 153.471 72.9565 153.288C73.1388 153.106 73.3645 153.015 73.6336 153.015C73.8941 153.015 74.1154 153.106 74.2977 153.288C74.48 153.471 74.5712 153.696 74.5712 153.966C74.5712 154.235 74.48 154.46 74.2977 154.643C74.1154 154.825 73.8941 154.916 73.6336 154.916ZM74.3629 155.867V163.042H72.8784V155.867H74.3629ZM79.2026 155.749C79.7582 155.749 80.2486 155.862 80.674 156.088C81.1081 156.305 81.4466 156.578 81.6897 156.908V155.867H83.1872V163.159C83.1872 163.818 83.0483 164.404 82.7705 164.917C82.4927 165.437 82.089 165.845 81.5595 166.141C81.0386 166.436 80.4136 166.583 79.6844 166.583C78.7121 166.583 77.9048 166.353 77.2624 165.893C76.62 165.442 76.2554 164.825 76.1686 164.044H77.64C77.7528 164.417 77.9916 164.717 78.3562 164.943C78.7295 165.177 79.1722 165.294 79.6844 165.294C80.2834 165.294 80.7652 165.112 81.1298 164.747C81.503 164.383 81.6897 163.853 81.6897 163.159V161.961C81.4379 162.299 81.095 162.586 80.661 162.82C80.2356 163.046 79.7495 163.159 79.2026 163.159C78.5775 163.159 78.0046 163.002 77.4837 162.69C76.9716 162.369 76.5636 161.926 76.2597 161.362C75.9646 160.789 75.817 160.142 75.817 159.422C75.817 158.701 75.9646 158.063 76.2597 157.507C76.5636 156.952 76.9716 156.522 77.4837 156.218C78.0046 155.906 78.5775 155.749 79.2026 155.749ZM81.6897 159.448C81.6897 158.953 81.5855 158.523 81.3772 158.158C81.1775 157.794 80.9127 157.516 80.5829 157.325C80.253 157.134 79.8971 157.039 79.5151 157.039C79.1331 157.039 78.7772 157.134 78.4473 157.325C78.1175 157.507 77.8483 157.781 77.64 158.145C77.4403 158.501 77.3405 158.927 77.3405 159.422C77.3405 159.916 77.4403 160.35 77.64 160.724C77.8483 161.097 78.1175 161.383 78.4473 161.583C78.7859 161.774 79.1418 161.87 79.5151 161.87C79.8971 161.87 80.253 161.774 80.5829 161.583C80.9127 161.392 81.1775 161.114 81.3772 160.75C81.5855 160.376 81.6897 159.942 81.6897 159.448ZM88.8481 155.749C89.395 155.749 89.8811 155.867 90.3065 156.101C90.7405 156.335 91.0791 156.683 91.3221 157.143C91.5739 157.603 91.6998 158.158 91.6998 158.81V163.042H90.2283V159.031C90.2283 158.388 90.0677 157.898 89.7465 157.559C89.4253 157.212 88.987 157.039 88.4314 157.039C87.8758 157.039 87.4331 157.212 87.1032 157.559C86.782 157.898 86.6214 158.388 86.6214 159.031V163.042H85.1369V153.406H86.6214V156.7C86.8731 156.396 87.19 156.162 87.572 155.997C87.9626 155.832 88.388 155.749 88.8481 155.749ZM95.3251 157.078V161.049C95.3251 161.318 95.3859 161.514 95.5074 161.635C95.6377 161.748 95.8547 161.804 96.1585 161.804H97.07V163.042H95.8981C95.2296 163.042 94.7175 162.885 94.3615 162.573C94.0056 162.26 93.8277 161.752 93.8277 161.049V157.078H92.9813V155.867H93.8277V154.083H95.3251V155.867H97.07V157.078H95.3251ZM101.042 163.159C100.478 163.159 99.9704 163.059 99.519 162.859C99.0762 162.651 98.7247 162.373 98.4642 162.026C98.2038 161.67 98.0649 161.275 98.0475 160.841H99.5841C99.6101 161.145 99.7534 161.401 100.014 161.609C100.283 161.809 100.617 161.909 101.016 161.909C101.433 161.909 101.754 161.831 101.98 161.674C102.214 161.509 102.332 161.301 102.332 161.049C102.332 160.78 102.201 160.58 101.941 160.45C101.689 160.32 101.286 160.177 100.73 160.021C100.192 159.873 99.7534 159.73 99.4148 159.591C99.0762 159.452 98.7811 159.239 98.5293 158.953C98.2863 158.666 98.1647 158.289 98.1647 157.82C98.1647 157.438 98.2776 157.091 98.5033 156.778C98.729 156.457 99.0502 156.205 99.4669 156.023C99.8923 155.841 100.378 155.749 100.925 155.749C101.741 155.749 102.397 155.958 102.892 156.374C103.395 156.782 103.664 157.342 103.699 158.054H102.214C102.188 157.733 102.058 157.477 101.824 157.286C101.589 157.095 101.273 157 100.873 157C100.483 157 100.183 157.073 99.9747 157.221C99.7664 157.368 99.6622 157.564 99.6622 157.807C99.6622 157.998 99.7317 158.158 99.8706 158.289C100.009 158.419 100.179 158.523 100.378 158.601C100.578 158.671 100.873 158.762 101.264 158.875C101.785 159.014 102.21 159.157 102.54 159.304C102.879 159.443 103.169 159.652 103.412 159.929C103.655 160.207 103.781 160.576 103.79 161.036C103.79 161.444 103.677 161.809 103.451 162.13C103.226 162.451 102.905 162.703 102.488 162.885C102.08 163.068 101.598 163.159 101.042 163.159ZM110.508 157.078V161.049C110.508 161.318 110.569 161.514 110.691 161.635C110.821 161.748 111.038 161.804 111.342 161.804H112.253V163.042H111.081C110.413 163.042 109.901 162.885 109.545 162.573C109.189 162.26 109.011 161.752 109.011 161.049V157.078H108.165V155.867H109.011V154.083H110.508V155.867H112.253V157.078H110.508ZM116.734 163.159C116.056 163.159 115.444 163.007 114.898 162.703C114.351 162.39 113.921 161.956 113.608 161.401C113.296 160.837 113.14 160.185 113.14 159.448C113.14 158.718 113.3 158.072 113.621 157.507C113.943 156.943 114.381 156.509 114.937 156.205C115.492 155.901 116.113 155.749 116.799 155.749C117.485 155.749 118.105 155.901 118.661 156.205C119.216 156.509 119.655 156.943 119.976 157.507C120.297 158.072 120.458 158.718 120.458 159.448C120.458 160.177 120.293 160.824 119.963 161.388C119.633 161.952 119.182 162.39 118.609 162.703C118.044 163.007 117.419 163.159 116.734 163.159ZM116.734 161.87C117.116 161.87 117.471 161.778 117.801 161.596C118.14 161.414 118.413 161.14 118.622 160.776C118.83 160.411 118.934 159.968 118.934 159.448C118.934 158.927 118.834 158.488 118.635 158.132C118.435 157.768 118.17 157.494 117.84 157.312C117.511 157.13 117.155 157.039 116.773 157.039C116.391 157.039 116.035 157.13 115.705 157.312C115.384 157.494 115.128 157.768 114.937 158.132C114.746 158.488 114.65 158.927 114.65 159.448C114.65 160.22 114.845 160.819 115.236 161.245C115.635 161.661 116.135 161.87 116.734 161.87ZM126.792 156.921C127.044 156.592 127.387 156.314 127.821 156.088C128.255 155.862 128.745 155.749 129.292 155.749C129.917 155.749 130.486 155.906 130.998 156.218C131.519 156.522 131.927 156.952 132.222 157.507C132.517 158.063 132.665 158.701 132.665 159.422C132.665 160.142 132.517 160.789 132.222 161.362C131.927 161.926 131.519 162.369 130.998 162.69C130.486 163.002 129.917 163.159 129.292 163.159C128.745 163.159 128.259 163.05 127.834 162.833C127.409 162.607 127.061 162.33 126.792 162V166.453H125.308V155.867H126.792V156.921ZM131.154 159.422C131.154 158.927 131.05 158.501 130.842 158.145C130.642 157.781 130.373 157.507 130.035 157.325C129.705 157.134 129.349 157.039 128.967 157.039C128.594 157.039 128.238 157.134 127.899 157.325C127.569 157.516 127.3 157.794 127.092 158.158C126.892 158.523 126.792 158.953 126.792 159.448C126.792 159.942 126.892 160.376 127.092 160.75C127.3 161.114 127.569 161.392 127.899 161.583C128.238 161.774 128.594 161.87 128.967 161.87C129.349 161.87 129.705 161.774 130.035 161.583C130.373 161.383 130.642 161.097 130.842 160.724C131.05 160.35 131.154 159.916 131.154 159.422ZM133.638 159.422C133.638 158.701 133.786 158.063 134.081 157.507C134.385 156.952 134.793 156.522 135.305 156.218C135.826 155.906 136.399 155.749 137.024 155.749C137.588 155.749 138.078 155.862 138.495 156.088C138.92 156.305 139.259 156.578 139.511 156.908V155.867H141.008V163.042H139.511V161.974C139.259 162.312 138.916 162.594 138.482 162.82C138.048 163.046 137.553 163.159 136.998 163.159C136.381 163.159 135.817 163.002 135.305 162.69C134.793 162.369 134.385 161.926 134.081 161.362C133.786 160.789 133.638 160.142 133.638 159.422ZM139.511 159.448C139.511 158.953 139.407 158.523 139.198 158.158C138.999 157.794 138.734 157.516 138.404 157.325C138.074 157.134 137.718 157.039 137.336 157.039C136.954 157.039 136.598 157.134 136.268 157.325C135.939 157.507 135.669 157.781 135.461 158.145C135.261 158.501 135.162 158.927 135.162 159.422C135.162 159.916 135.261 160.35 135.461 160.724C135.669 161.097 135.939 161.383 136.268 161.583C136.607 161.774 136.963 161.87 137.336 161.87C137.718 161.87 138.074 161.774 138.404 161.583C138.734 161.392 138.999 161.114 139.198 160.75C139.407 160.376 139.511 159.942 139.511 159.448ZM144.442 156.908C144.659 156.544 144.946 156.262 145.302 156.062C145.666 155.854 146.096 155.749 146.591 155.749V157.286H146.213C145.632 157.286 145.189 157.434 144.885 157.729C144.59 158.024 144.442 158.536 144.442 159.265V163.042H142.958V155.867H144.442V156.908ZM149.687 157.078V161.049C149.687 161.318 149.748 161.514 149.87 161.635C150 161.748 150.217 161.804 150.521 161.804H151.432V163.042H150.26C149.592 163.042 149.08 162.885 148.724 162.573C148.368 162.26 148.19 161.752 148.19 161.049V157.078H147.343V155.867H148.19V154.083H149.687V155.867H151.432V157.078H149.687ZM153.556 154.916C153.287 154.916 153.061 154.825 152.879 154.643C152.696 154.46 152.605 154.235 152.605 153.966C152.605 153.696 152.696 153.471 152.879 153.288C153.061 153.106 153.287 153.015 153.556 153.015C153.816 153.015 154.037 153.106 154.22 153.288C154.402 153.471 154.493 153.696 154.493 153.966C154.493 154.235 154.402 154.46 154.22 154.643C154.037 154.825 153.816 154.916 153.556 154.916ZM154.285 155.867V163.042H152.8V155.867H154.285ZM155.739 159.448C155.739 158.71 155.887 158.063 156.182 157.507C156.486 156.943 156.902 156.509 157.432 156.205C157.961 155.901 158.569 155.749 159.255 155.749C160.123 155.749 160.839 155.958 161.403 156.374C161.976 156.782 162.363 157.368 162.562 158.132H160.961C160.83 157.776 160.622 157.499 160.336 157.299C160.049 157.099 159.689 157 159.255 157C158.647 157 158.161 157.217 157.796 157.651C157.44 158.076 157.263 158.675 157.263 159.448C157.263 160.22 157.44 160.824 157.796 161.258C158.161 161.692 158.647 161.909 159.255 161.909C160.114 161.909 160.683 161.531 160.961 160.776H162.562C162.354 161.505 161.963 162.087 161.39 162.521C160.817 162.946 160.106 163.159 159.255 163.159C158.569 163.159 157.961 163.007 157.432 162.703C156.902 162.39 156.486 161.956 156.182 161.401C155.887 160.837 155.739 160.185 155.739 159.448ZM164.797 154.916C164.528 154.916 164.302 154.825 164.12 154.643C163.937 154.46 163.846 154.235 163.846 153.966C163.846 153.696 163.937 153.471 164.12 153.288C164.302 153.106 164.528 153.015 164.797 153.015C165.057 153.015 165.279 153.106 165.461 153.288C165.643 153.471 165.734 153.696 165.734 153.966C165.734 154.235 165.643 154.46 165.461 154.643C165.279 154.825 165.057 154.916 164.797 154.916ZM165.526 155.867V163.042H164.042V155.867H165.526ZM168.96 156.921C169.211 156.592 169.554 156.314 169.988 156.088C170.422 155.862 170.913 155.749 171.46 155.749C172.085 155.749 172.653 155.906 173.165 156.218C173.686 156.522 174.094 156.952 174.389 157.507C174.685 158.063 174.832 158.701 174.832 159.422C174.832 160.142 174.685 160.789 174.389 161.362C174.094 161.926 173.686 162.369 173.165 162.69C172.653 163.002 172.085 163.159 171.46 163.159C170.913 163.159 170.427 163.05 170.001 162.833C169.576 162.607 169.229 162.33 168.96 162V166.453H167.475V155.867H168.96V156.921ZM173.322 159.422C173.322 158.927 173.218 158.501 173.009 158.145C172.81 157.781 172.54 157.507 172.202 157.325C171.872 157.134 171.516 157.039 171.134 157.039C170.761 157.039 170.405 157.134 170.066 157.325C169.736 157.516 169.467 157.794 169.259 158.158C169.059 158.523 168.96 158.953 168.96 159.448C168.96 159.942 169.059 160.376 169.259 160.75C169.467 161.114 169.736 161.392 170.066 161.583C170.405 161.774 170.761 161.87 171.134 161.87C171.516 161.87 171.872 161.774 172.202 161.583C172.54 161.383 172.81 161.097 173.009 160.724C173.218 160.35 173.322 159.916 173.322 159.422ZM175.805 159.422C175.805 158.701 175.953 158.063 176.248 157.507C176.552 156.952 176.96 156.522 177.472 156.218C177.993 155.906 178.566 155.749 179.191 155.749C179.755 155.749 180.246 155.862 180.662 156.088C181.088 156.305 181.426 156.578 181.678 156.908V155.867H183.176V163.042H181.678V161.974C181.426 162.312 181.083 162.594 180.649 162.82C180.215 163.046 179.72 163.159 179.165 163.159C178.549 163.159 177.984 163.002 177.472 162.69C176.96 162.369 176.552 161.926 176.248 161.362C175.953 160.789 175.805 160.142 175.805 159.422ZM181.678 159.448C181.678 158.953 181.574 158.523 181.366 158.158C181.166 157.794 180.901 157.516 180.571 157.325C180.241 157.134 179.885 157.039 179.503 157.039C179.122 157.039 178.766 157.134 178.436 157.325C178.106 157.507 177.837 157.781 177.628 158.145C177.429 158.501 177.329 158.927 177.329 159.422C177.329 159.916 177.429 160.35 177.628 160.724C177.837 161.097 178.106 161.383 178.436 161.583C178.774 161.774 179.13 161.87 179.503 161.87C179.885 161.87 180.241 161.774 180.571 161.583C180.901 161.392 181.166 161.114 181.366 160.75C181.574 160.376 181.678 159.942 181.678 159.448ZM186.857 157.078V161.049C186.857 161.318 186.918 161.514 187.039 161.635C187.17 161.748 187.387 161.804 187.691 161.804H188.602V163.042H187.43C186.762 163.042 186.249 162.885 185.894 162.573C185.538 162.26 185.36 161.752 185.36 161.049V157.078H184.513V155.867H185.36V154.083H186.857V155.867H188.602V157.078H186.857ZM196.546 159.278C196.546 159.547 196.529 159.79 196.494 160.007H191.012C191.055 160.58 191.268 161.041 191.65 161.388C192.032 161.735 192.501 161.909 193.056 161.909C193.855 161.909 194.419 161.574 194.749 160.906H196.351C196.134 161.566 195.739 162.108 195.166 162.534C194.602 162.95 193.898 163.159 193.056 163.159C192.371 163.159 191.754 163.007 191.207 162.703C190.669 162.39 190.244 161.956 189.931 161.401C189.627 160.837 189.475 160.185 189.475 159.448C189.475 158.71 189.623 158.063 189.918 157.507C190.222 156.943 190.643 156.509 191.181 156.205C191.728 155.901 192.353 155.749 193.056 155.749C193.733 155.749 194.337 155.897 194.866 156.192C195.396 156.487 195.808 156.904 196.103 157.442C196.399 157.972 196.546 158.584 196.546 159.278ZM194.997 158.81C194.988 158.263 194.793 157.824 194.411 157.494C194.029 157.164 193.555 157 192.991 157C192.479 157 192.041 157.164 191.676 157.494C191.311 157.816 191.094 158.254 191.025 158.81H194.997ZM202.145 154.916C201.876 154.916 201.65 154.825 201.468 154.643C201.285 154.46 201.194 154.235 201.194 153.966C201.194 153.696 201.285 153.471 201.468 153.288C201.65 153.106 201.876 153.015 202.145 153.015C202.405 153.015 202.627 153.106 202.809 153.288C202.991 153.471 203.082 153.696 203.082 153.966C203.082 154.235 202.991 154.46 202.809 154.643C202.627 154.825 202.405 154.916 202.145 154.916ZM202.874 155.867V163.042H201.389V155.867H202.874ZM208.443 155.749C209.007 155.749 209.511 155.867 209.953 156.101C210.405 156.335 210.756 156.683 211.008 157.143C211.26 157.603 211.386 158.158 211.386 158.81V163.042H209.914V159.031C209.914 158.388 209.754 157.898 209.432 157.559C209.111 157.212 208.673 157.039 208.117 157.039C207.562 157.039 207.119 157.212 206.789 157.559C206.468 157.898 206.307 158.388 206.307 159.031V163.042H204.823V155.867H206.307V156.687C206.55 156.392 206.859 156.162 207.232 155.997C207.614 155.832 208.017 155.749 208.443 155.749ZM36.8752 180.844H39.9352V182.042H35.3907V172.992H36.8752V180.844ZM40.6818 178.422C40.6818 177.701 40.8294 177.063 41.1245 176.507C41.4284 175.952 41.8364 175.522 42.3486 175.218C42.8694 174.906 43.4424 174.749 44.0674 174.749C44.6317 174.749 45.1221 174.862 45.5388 175.088C45.9642 175.305 46.3028 175.578 46.5545 175.908V174.867H48.052V182.042H46.5545V180.974C46.3028 181.312 45.9599 181.594 45.5258 181.82C45.0918 182.046 44.5969 182.159 44.0414 182.159C43.425 182.159 42.8607 182.002 42.3486 181.69C41.8364 181.369 41.4284 180.926 41.1245 180.362C40.8294 179.789 40.6818 179.142 40.6818 178.422ZM46.5545 178.448C46.5545 177.953 46.4503 177.523 46.242 177.158C46.0423 176.794 45.7776 176.516 45.4477 176.325C45.1178 176.134 44.7619 176.039 44.3799 176.039C43.998 176.039 43.642 176.134 43.3122 176.325C42.9823 176.507 42.7132 176.781 42.5048 177.145C42.3052 177.501 42.2053 177.927 42.2053 178.422C42.2053 178.916 42.3052 179.35 42.5048 179.724C42.7132 180.097 42.9823 180.383 43.3122 180.583C43.6507 180.774 44.0066 180.87 44.3799 180.87C44.7619 180.87 45.1178 180.774 45.4477 180.583C45.7776 180.392 46.0423 180.114 46.242 179.75C46.4503 179.376 46.5545 178.942 46.5545 178.448ZM56.4995 174.867V182.042H55.015V181.195C54.7806 181.49 54.4725 181.725 54.0905 181.898C53.7172 182.063 53.3179 182.146 52.8925 182.146C52.3283 182.146 51.8204 182.028 51.369 181.794C50.9263 181.56 50.5747 181.212 50.3143 180.752C50.0625 180.292 49.9366 179.737 49.9366 179.086V174.867H51.4081V178.864C51.4081 179.507 51.5687 180.001 51.8899 180.349C52.2111 180.687 52.6495 180.857 53.205 180.857C53.7606 180.857 54.199 180.687 54.5202 180.349C54.8501 180.001 55.015 179.507 55.015 178.864V174.867H56.4995ZM62.0781 174.749C62.6423 174.749 63.1458 174.867 63.5886 175.101C64.04 175.335 64.3916 175.683 64.6433 176.143C64.8951 176.603 65.0209 177.158 65.0209 177.81V182.042H63.5495V178.031C63.5495 177.388 63.3889 176.898 63.0677 176.559C62.7465 176.212 62.3081 176.039 61.7525 176.039C61.197 176.039 60.7542 176.212 60.4243 176.559C60.1032 176.898 59.9426 177.388 59.9426 178.031V182.042H58.4581V174.867H59.9426V175.687C60.1856 175.392 60.4938 175.162 60.8671 174.997C61.249 174.832 61.6527 174.749 62.0781 174.749ZM66.4196 178.448C66.4196 177.71 66.5672 177.063 66.8624 176.507C67.1662 175.943 67.5829 175.509 68.1124 175.205C68.642 174.901 69.2496 174.749 69.9354 174.749C70.8035 174.749 71.5197 174.958 72.084 175.374C72.6569 175.782 73.0432 176.368 73.2429 177.132H71.6413C71.511 176.776 71.3027 176.499 71.0162 176.299C70.7297 176.099 70.3695 176 69.9354 176C69.3278 176 68.8416 176.217 68.477 176.651C68.1211 177.076 67.9431 177.675 67.9431 178.448C67.9431 179.22 68.1211 179.824 68.477 180.258C68.8416 180.692 69.3278 180.909 69.9354 180.909C70.7949 180.909 71.3635 180.531 71.6413 179.776H73.2429C73.0346 180.505 72.6439 181.087 72.071 181.521C71.498 181.946 70.7862 182.159 69.9354 182.159C69.2496 182.159 68.642 182.007 68.1124 181.703C67.5829 181.39 67.1662 180.956 66.8624 180.401C66.5672 179.837 66.4196 179.185 66.4196 178.448ZM78.4334 174.749C78.9803 174.749 79.4664 174.867 79.8918 175.101C80.3259 175.335 80.6644 175.683 80.9075 176.143C81.1592 176.603 81.2851 177.158 81.2851 177.81V182.042H79.8137V178.031C79.8137 177.388 79.6531 176.898 79.3319 176.559C79.0107 176.212 78.5723 176.039 78.0167 176.039C77.4611 176.039 77.0184 176.212 76.6885 176.559C76.3673 176.898 76.2067 177.388 76.2067 178.031V182.042H74.7223V172.406H76.2067V175.7C76.4585 175.396 76.7753 175.162 77.1573 174.997C77.5479 174.832 77.9733 174.749 78.4334 174.749ZM84.6631 175.921C84.9148 175.592 85.2577 175.314 85.6918 175.088C86.1258 174.862 86.6163 174.749 87.1632 174.749C87.7882 174.749 88.3568 174.906 88.869 175.218C89.3899 175.522 89.7979 175.952 90.093 176.507C90.3882 177.063 90.5358 177.701 90.5358 178.422C90.5358 179.142 90.3882 179.789 90.093 180.362C89.7979 180.926 89.3899 181.369 88.869 181.69C88.3568 182.002 87.7882 182.159 87.1632 182.159C86.6163 182.159 86.1302 182.05 85.7048 181.833C85.2794 181.607 84.9322 181.33 84.6631 181V185.453H83.1786V174.867H84.6631V175.921ZM89.0253 178.422C89.0253 177.927 88.9211 177.501 88.7128 177.145C88.5131 176.781 88.244 176.507 87.9054 176.325C87.5755 176.134 87.2196 176.039 86.8377 176.039C86.4644 176.039 86.1085 176.134 85.7699 176.325C85.44 176.516 85.1709 176.794 84.9626 177.158C84.7629 177.523 84.6631 177.953 84.6631 178.448C84.6631 178.942 84.7629 179.376 84.9626 179.75C85.1709 180.114 85.44 180.392 85.7699 180.583C86.1085 180.774 86.4644 180.87 86.8377 180.87C87.2196 180.87 87.5755 180.774 87.9054 180.583C88.244 180.383 88.5131 180.097 88.7128 179.724C88.9211 179.35 89.0253 178.916 89.0253 178.422ZM91.5089 178.422C91.5089 177.701 91.6565 177.063 91.9516 176.507C92.2555 175.952 92.6635 175.522 93.1757 175.218C93.6965 174.906 94.2695 174.749 94.8945 174.749C95.4588 174.749 95.9493 174.862 96.3659 175.088C96.7913 175.305 97.1299 175.578 97.3816 175.908V174.867H98.8791V182.042H97.3816V180.974C97.1299 181.312 96.787 181.594 96.3529 181.82C95.9189 182.046 95.4241 182.159 94.8685 182.159C94.2521 182.159 93.6879 182.002 93.1757 181.69C92.6635 181.369 92.2555 180.926 91.9516 180.362C91.6565 179.789 91.5089 179.142 91.5089 178.422ZM97.3816 178.448C97.3816 177.953 97.2774 177.523 97.0691 177.158C96.8694 176.794 96.6047 176.516 96.2748 176.325C95.9449 176.134 95.589 176.039 95.207 176.039C94.8251 176.039 94.4691 176.134 94.1393 176.325C93.8094 176.507 93.5403 176.781 93.3319 177.145C93.1323 177.501 93.0324 177.927 93.0324 178.422C93.0324 178.916 93.1323 179.35 93.3319 179.724C93.5403 180.097 93.8094 180.383 94.1393 180.583C94.4778 180.774 94.8337 180.87 95.207 180.87C95.589 180.87 95.9449 180.774 96.2748 180.583C96.6047 180.392 96.8694 180.114 97.0691 179.75C97.2774 179.376 97.3816 178.942 97.3816 178.448ZM100.334 178.422C100.334 177.701 100.482 177.063 100.777 176.507C101.081 175.952 101.489 175.522 102.001 175.218C102.522 174.906 103.099 174.749 103.733 174.749C104.201 174.749 104.662 174.854 105.113 175.062C105.573 175.262 105.938 175.531 106.207 175.869V172.406H107.704V182.042H106.207V180.961C105.964 181.308 105.625 181.594 105.191 181.82C104.766 182.046 104.275 182.159 103.72 182.159C103.095 182.159 102.522 182.002 102.001 181.69C101.489 181.369 101.081 180.926 100.777 180.362C100.482 179.789 100.334 179.142 100.334 178.422ZM106.207 178.448C106.207 177.953 106.103 177.523 105.894 177.158C105.695 176.794 105.43 176.516 105.1 176.325C104.77 176.134 104.414 176.039 104.032 176.039C103.65 176.039 103.294 176.134 102.964 176.325C102.635 176.507 102.365 176.781 102.157 177.145C101.957 177.501 101.858 177.927 101.858 178.422C101.858 178.916 101.957 179.35 102.157 179.724C102.365 180.097 102.635 180.383 102.964 180.583C103.303 180.774 103.659 180.87 104.032 180.87C104.414 180.87 104.77 180.774 105.1 180.583C105.43 180.392 105.695 180.114 105.894 179.75C106.103 179.376 106.207 178.942 106.207 178.448ZM112.542 178.422C112.542 177.701 112.689 177.063 112.984 176.507C113.288 175.952 113.696 175.522 114.208 175.218C114.729 174.906 115.302 174.749 115.927 174.749C116.492 174.749 116.982 174.862 117.399 175.088C117.824 175.305 118.163 175.578 118.414 175.908V174.867H119.912V182.042H118.414V180.974C118.163 181.312 117.82 181.594 117.386 181.82C116.952 182.046 116.457 182.159 115.901 182.159C115.285 182.159 114.721 182.002 114.208 181.69C113.696 181.369 113.288 180.926 112.984 180.362C112.689 179.789 112.542 179.142 112.542 178.422ZM118.414 178.448C118.414 177.953 118.31 177.523 118.102 177.158C117.902 176.794 117.637 176.516 117.308 176.325C116.978 176.134 116.622 176.039 116.24 176.039C115.858 176.039 115.502 176.134 115.172 176.325C114.842 176.507 114.573 176.781 114.365 177.145C114.165 177.501 114.065 177.927 114.065 178.422C114.065 178.916 114.165 179.35 114.365 179.724C114.573 180.097 114.842 180.383 115.172 180.583C115.511 180.774 115.867 180.87 116.24 180.87C116.622 180.87 116.978 180.774 117.308 180.583C117.637 180.392 117.902 180.114 118.102 179.75C118.31 179.376 118.414 178.942 118.414 178.448ZM125.482 174.749C126.046 174.749 126.549 174.867 126.992 175.101C127.444 175.335 127.795 175.683 128.047 176.143C128.299 176.603 128.424 177.158 128.424 177.81V182.042H126.953V178.031C126.953 177.388 126.792 176.898 126.471 176.559C126.15 176.212 125.712 176.039 125.156 176.039C124.6 176.039 124.158 176.212 123.828 176.559C123.507 176.898 123.346 177.388 123.346 178.031V182.042H121.862V174.867H123.346V175.687C123.589 175.392 123.897 175.162 124.271 174.997C124.653 174.832 125.056 174.749 125.482 174.749ZM129.823 178.422C129.823 177.701 129.971 177.063 130.266 176.507C130.57 175.952 130.978 175.522 131.49 175.218C132.011 174.906 132.588 174.749 133.222 174.749C133.691 174.749 134.151 174.854 134.602 175.062C135.062 175.262 135.427 175.531 135.696 175.869V172.406H137.193V182.042H135.696V180.961C135.453 181.308 135.114 181.594 134.68 181.82C134.255 182.046 133.764 182.159 133.209 182.159C132.584 182.159 132.011 182.002 131.49 181.69C130.978 181.369 130.57 180.926 130.266 180.362C129.971 179.789 129.823 179.142 129.823 178.422ZM135.696 178.448C135.696 177.953 135.592 177.523 135.383 177.158C135.184 176.794 134.919 176.516 134.589 176.325C134.259 176.134 133.903 176.039 133.521 176.039C133.139 176.039 132.783 176.134 132.454 176.325C132.124 176.507 131.855 176.781 131.646 177.145C131.447 177.501 131.347 177.927 131.347 178.422C131.347 178.916 131.447 179.35 131.646 179.724C131.855 180.097 132.124 180.383 132.454 180.583C132.792 180.774 133.148 180.87 133.521 180.87C133.903 180.87 134.259 180.774 134.589 180.583C134.919 180.392 135.184 180.114 135.383 179.75C135.592 179.376 135.696 178.942 135.696 178.448ZM145.638 182.159C144.961 182.159 144.349 182.007 143.802 181.703C143.255 181.39 142.825 180.956 142.513 180.401C142.2 179.837 142.044 179.185 142.044 178.448C142.044 177.718 142.204 177.072 142.526 176.507C142.847 175.943 143.285 175.509 143.841 175.205C144.396 174.901 145.017 174.749 145.703 174.749C146.389 174.749 147.009 174.901 147.565 175.205C148.121 175.509 148.559 175.943 148.88 176.507C149.201 177.072 149.362 177.718 149.362 178.448C149.362 179.177 149.197 179.824 148.867 180.388C148.537 180.952 148.086 181.39 147.513 181.703C146.949 182.007 146.324 182.159 145.638 182.159ZM145.638 180.87C146.02 180.87 146.376 180.778 146.706 180.596C147.044 180.414 147.318 180.14 147.526 179.776C147.734 179.411 147.838 178.968 147.838 178.448C147.838 177.927 147.739 177.488 147.539 177.132C147.339 176.768 147.074 176.494 146.745 176.312C146.415 176.13 146.059 176.039 145.677 176.039C145.295 176.039 144.939 176.13 144.609 176.312C144.288 176.494 144.032 176.768 143.841 177.132C143.65 177.488 143.554 177.927 143.554 178.448C143.554 179.22 143.75 179.819 144.14 180.245C144.54 180.661 145.039 180.87 145.638 180.87ZM152.561 176.078V180.049C152.561 180.318 152.622 180.514 152.744 180.635C152.874 180.748 153.091 180.804 153.395 180.804H154.306V182.042H153.134C152.466 182.042 151.954 181.885 151.598 181.573C151.242 181.26 151.064 180.752 151.064 180.049V176.078H150.217V174.867H151.064V173.083H152.561V174.867H154.306V176.078H152.561ZM159.385 174.749C159.932 174.749 160.418 174.867 160.844 175.101C161.278 175.335 161.616 175.683 161.86 176.143C162.111 176.603 162.237 177.158 162.237 177.81V182.042H160.766V178.031C160.766 177.388 160.605 176.898 160.284 176.559C159.963 176.212 159.524 176.039 158.969 176.039C158.413 176.039 157.97 176.212 157.641 176.559C157.319 176.898 157.159 177.388 157.159 178.031V182.042H155.674V172.406H157.159V175.7C157.411 175.396 157.727 175.162 158.109 174.997C158.5 174.832 158.925 174.749 159.385 174.749ZM170.707 178.278C170.707 178.547 170.689 178.79 170.654 179.007H165.172C165.216 179.58 165.428 180.041 165.81 180.388C166.192 180.735 166.661 180.909 167.217 180.909C168.015 180.909 168.58 180.574 168.91 179.906H170.511C170.294 180.566 169.899 181.108 169.326 181.534C168.762 181.95 168.059 182.159 167.217 182.159C166.531 182.159 165.915 182.007 165.368 181.703C164.829 181.39 164.404 180.956 164.092 180.401C163.788 179.837 163.636 179.185 163.636 178.448C163.636 177.71 163.783 177.063 164.079 176.507C164.382 175.943 164.803 175.509 165.342 175.205C165.889 174.901 166.514 174.749 167.217 174.749C167.894 174.749 168.497 174.897 169.027 175.192C169.556 175.487 169.969 175.904 170.264 176.442C170.559 176.972 170.707 177.584 170.707 178.278ZM169.157 177.81C169.148 177.263 168.953 176.824 168.571 176.494C168.189 176.164 167.716 176 167.152 176C166.639 176 166.201 176.164 165.836 176.494C165.472 176.816 165.255 177.254 165.185 177.81H169.157ZM173.652 175.908C173.869 175.544 174.155 175.262 174.511 175.062C174.876 174.854 175.306 174.749 175.8 174.749V176.286H175.423C174.841 176.286 174.398 176.434 174.095 176.729C173.799 177.024 173.652 177.536 173.652 178.265V182.042H172.167V174.867H173.652V175.908ZM180.053 178.422C180.053 177.701 180.2 177.063 180.495 176.507C180.799 175.952 181.207 175.522 181.719 175.218C182.24 174.906 182.813 174.749 183.438 174.749C184.002 174.749 184.493 174.862 184.91 175.088C185.335 175.305 185.674 175.578 185.925 175.908V174.867H187.423V182.042H185.925V180.974C185.674 181.312 185.331 181.594 184.897 181.82C184.463 182.046 183.968 182.159 183.412 182.159C182.796 182.159 182.232 182.002 181.719 181.69C181.207 181.369 180.799 180.926 180.495 180.362C180.2 179.789 180.053 179.142 180.053 178.422ZM185.925 178.448C185.925 177.953 185.821 177.523 185.613 177.158C185.413 176.794 185.148 176.516 184.818 176.325C184.489 176.134 184.133 176.039 183.751 176.039C183.369 176.039 183.013 176.134 182.683 176.325C182.353 176.507 182.084 176.781 181.876 177.145C181.676 177.501 181.576 177.927 181.576 178.422C181.576 178.916 181.676 179.35 181.876 179.724C182.084 180.097 182.353 180.383 182.683 180.583C183.022 180.774 183.377 180.87 183.751 180.87C184.133 180.87 184.489 180.774 184.818 180.583C185.148 180.392 185.413 180.114 185.613 179.75C185.821 179.376 185.925 178.942 185.925 178.448ZM188.878 178.448C188.878 177.71 189.025 177.063 189.32 176.507C189.624 175.943 190.041 175.509 190.571 175.205C191.1 174.901 191.708 174.749 192.394 174.749C193.262 174.749 193.978 174.958 194.542 175.374C195.115 175.782 195.501 176.368 195.701 177.132H194.099C193.969 176.776 193.761 176.499 193.474 176.299C193.188 176.099 192.828 176 192.394 176C191.786 176 191.3 176.217 190.935 176.651C190.579 177.076 190.401 177.675 190.401 178.448C190.401 179.22 190.579 179.824 190.935 180.258C191.3 180.692 191.786 180.909 192.394 180.909C193.253 180.909 193.822 180.531 194.099 179.776H195.701C195.493 180.505 195.102 181.087 194.529 181.521C193.956 181.946 193.244 182.159 192.394 182.159C191.708 182.159 191.1 182.007 190.571 181.703C190.041 181.39 189.624 180.956 189.32 180.401C189.025 179.837 188.878 179.185 188.878 178.448ZM198.912 176.078V180.049C198.912 180.318 198.973 180.514 199.095 180.635C199.225 180.748 199.442 180.804 199.746 180.804H200.657V182.042H199.485C198.817 182.042 198.305 181.885 197.949 181.573C197.593 181.26 197.415 180.752 197.415 180.049V176.078H196.568V174.867H197.415V173.083H198.912V174.867H200.657V176.078H198.912ZM202.781 173.916C202.511 173.916 202.286 173.825 202.103 173.643C201.921 173.46 201.83 173.235 201.83 172.966C201.83 172.696 201.921 172.471 202.103 172.288C202.286 172.106 202.511 172.015 202.781 172.015C203.041 172.015 203.262 172.106 203.445 172.288C203.627 172.471 203.718 172.696 203.718 172.966C203.718 173.235 203.627 173.46 203.445 173.643C203.262 173.825 203.041 173.916 202.781 173.916ZM203.51 174.867V182.042H202.025V174.867H203.51ZM208.232 180.713L210.264 174.867H211.839L209.105 182.042H207.334L204.612 174.867H206.201L208.232 180.713ZM213.717 173.916C213.447 173.916 213.222 173.825 213.039 173.643C212.857 173.46 212.766 173.235 212.766 172.966C212.766 172.696 212.857 172.471 213.039 172.288C213.222 172.106 213.447 172.015 213.717 172.015C213.977 172.015 214.198 172.106 214.381 172.288C214.563 172.471 214.654 172.696 214.654 172.966C214.654 173.235 214.563 173.46 214.381 173.643C214.198 173.825 213.977 173.916 213.717 173.916ZM214.446 174.867V182.042H212.961V174.867H214.446ZM218.127 176.078V180.049C218.127 180.318 218.187 180.514 218.309 180.635C218.439 180.748 218.656 180.804 218.96 180.804H219.871V182.042H218.7C218.031 182.042 217.519 181.885 217.163 181.573C216.807 181.26 216.629 180.752 216.629 180.049V176.078H215.783V174.867H216.629V173.083H218.127V174.867H219.871V176.078H218.127ZM221.995 173.916C221.726 173.916 221.5 173.825 221.318 173.643C221.135 173.46 221.044 173.235 221.044 172.966C221.044 172.696 221.135 172.471 221.318 172.288C221.5 172.106 221.726 172.015 221.995 172.015C222.255 172.015 222.477 172.106 222.659 172.288C222.841 172.471 222.932 172.696 222.932 172.966C222.932 173.235 222.841 173.46 222.659 173.643C222.477 173.825 222.255 173.916 221.995 173.916ZM222.724 174.867V182.042H221.24V174.867H222.724ZM231.249 178.278C231.249 178.547 231.232 178.79 231.197 179.007H225.715C225.758 179.58 225.971 180.041 226.353 180.388C226.735 180.735 227.204 180.909 227.759 180.909C228.558 180.909 229.122 180.574 229.452 179.906H231.054C230.837 180.566 230.442 181.108 229.869 181.534C229.304 181.95 228.601 182.159 227.759 182.159C227.073 182.159 226.457 182.007 225.91 181.703C225.372 181.39 224.946 180.956 224.634 180.401C224.33 179.837 224.178 179.185 224.178 178.448C224.178 177.71 224.326 177.063 224.621 176.507C224.925 175.943 225.346 175.509 225.884 175.205C226.431 174.901 227.056 174.749 227.759 174.749C228.436 174.749 229.04 174.897 229.569 175.192C230.099 175.487 230.511 175.904 230.806 176.442C231.101 176.972 231.249 177.584 231.249 178.278ZM229.699 177.81C229.691 177.263 229.495 176.824 229.113 176.494C228.731 176.164 228.258 176 227.694 176C227.182 176 226.743 176.164 226.379 176.494C226.014 176.816 225.797 177.254 225.728 177.81H229.699ZM235.314 182.159C234.75 182.159 234.242 182.059 233.791 181.859C233.348 181.651 232.996 181.373 232.736 181.026C232.475 180.67 232.336 180.275 232.319 179.841H233.856C233.882 180.145 234.025 180.401 234.285 180.609C234.554 180.809 234.889 180.909 235.288 180.909C235.705 180.909 236.026 180.831 236.252 180.674C236.486 180.509 236.603 180.301 236.603 180.049C236.603 179.78 236.473 179.58 236.213 179.45C235.961 179.32 235.557 179.177 235.002 179.021C234.463 178.873 234.025 178.73 233.686 178.591C233.348 178.452 233.053 178.239 232.801 177.953C232.558 177.666 232.436 177.289 232.436 176.82C232.436 176.438 232.549 176.091 232.775 175.778C233.001 175.457 233.322 175.205 233.738 175.023C234.164 174.841 234.65 174.749 235.197 174.749C236.013 174.749 236.668 174.958 237.163 175.374C237.667 175.782 237.936 176.342 237.97 177.054H236.486C236.46 176.733 236.33 176.477 236.095 176.286C235.861 176.095 235.544 176 235.145 176C234.754 176 234.455 176.073 234.246 176.221C234.038 176.368 233.934 176.564 233.934 176.807C233.934 176.998 234.003 177.158 234.142 177.289C234.281 177.419 234.45 177.523 234.65 177.601C234.85 177.671 235.145 177.762 235.535 177.875C236.056 178.014 236.482 178.157 236.812 178.304C237.15 178.443 237.441 178.652 237.684 178.929C237.927 179.207 238.053 179.576 238.062 180.036C238.062 180.444 237.949 180.809 237.723 181.13C237.497 181.451 237.176 181.703 236.759 181.885C236.351 182.068 235.87 182.159 235.314 182.159Z" fill="white"/>
<rect x="0.465054" y="1.09787" width="272.521" height="207.801" rx="6.97581" stroke="url(#paint1_linear_10741_232942)" stroke-width="0.930108"/>
<defs>
<linearGradient id="paint0_linear_10741_232942" x1="176.505" y1="22.9553" x2="204.668" y2="28.2368" gradientUnits="userSpaceOnUse">
<stop offset="0.244792" stop-color="#00FFFE"/>
<stop offset="1" stop-color="#00A1FA"/>
</linearGradient>
<linearGradient id="paint1_linear_10741_232942" x1="0" y1="0.632812" x2="282.26" y2="13.3138" gradientUnits="userSpaceOnUse">
<stop stop-color="#0FE3E3"/>
<stop offset="1" stop-color="#02A4FF"/>
</linearGradient>
</defs>
</svg>
