<svg width="275" height="210" viewBox="0 0 275 210" fill="none" xmlns="http://www.w3.org/2000/svg">
<rect x="1.23947" y="1.09787" width="272.522" height="208.07" rx="6.97581" fill="#0D1B31"/>
<path d="M93.3397 41.3601C93.1277 40.9695 92.8207 40.6737 92.4189 40.4728C92.0283 40.2607 91.5651 40.1547 91.0294 40.1547C90.103 40.1547 89.3607 40.4616 88.8027 41.0755C88.2446 41.6782 87.9656 42.4874 87.9656 43.5031C87.9656 44.5857 88.2558 45.434 88.8362 46.0479C89.4277 46.6506 90.2369 46.9519 91.2637 46.9519C91.9669 46.9519 92.5585 46.7733 93.0384 46.4162C93.5295 46.059 93.8866 45.5456 94.1099 44.8759H90.4769V42.7664H96.7049V45.4284C96.4928 46.1427 96.1301 46.8068 95.6166 47.4207C95.1144 48.0346 94.4726 48.5312 93.6913 48.9107C92.91 49.2902 92.0283 49.4799 91.0461 49.4799C89.8853 49.4799 88.8473 49.2288 87.9321 48.7266C87.028 48.2131 86.3193 47.5044 85.8059 46.6003C85.3036 45.6963 85.0525 44.6639 85.0525 43.5031C85.0525 42.3423 85.3036 41.3099 85.8059 40.4058C86.3193 39.4906 87.028 38.7819 87.9321 38.2796C88.8362 37.7662 89.8686 37.5095 91.0294 37.5095C92.4357 37.5095 93.6188 37.8499 94.5786 38.5307C95.5497 39.2116 96.1915 40.1547 96.504 41.3601H93.3397ZM102.543 49.5302C101.628 49.5302 100.802 49.3349 100.065 48.9442C99.3398 48.5536 98.765 47.9955 98.3409 47.27C97.9279 46.5445 97.7214 45.6963 97.7214 44.7252C97.7214 43.7654 97.9335 42.9227 98.3576 42.1972C98.7817 41.4606 99.3621 40.8969 100.099 40.5063C100.835 40.1156 101.661 39.9203 102.577 39.9203C103.492 39.9203 104.318 40.1156 105.054 40.5063C105.791 40.8969 106.371 41.4606 106.796 42.1972C107.22 42.9227 107.432 43.7654 107.432 44.7252C107.432 45.6851 107.214 46.5334 106.779 47.27C106.355 47.9955 105.769 48.5536 105.021 48.9442C104.284 49.3349 103.458 49.5302 102.543 49.5302ZM102.543 47.0524C103.09 47.0524 103.553 46.8515 103.933 46.4497C104.323 46.0479 104.519 45.473 104.519 44.7252C104.519 43.9774 104.329 43.4026 103.949 43.0008C103.581 42.599 103.123 42.3981 102.577 42.3981C102.019 42.3981 101.555 42.599 101.187 43.0008C100.819 43.3915 100.635 43.9663 100.635 44.7252C100.635 45.473 100.813 46.0479 101.17 46.4497C101.539 46.8515 101.996 47.0524 102.543 47.0524ZM113.153 46.7175L115.179 40.0542H118.226L114.911 49.3962H111.378L108.063 40.0542H111.127L113.153 46.7175ZM128.237 44.5746C128.237 44.8424 128.22 45.1215 128.187 45.4117H121.708C121.752 45.992 121.936 46.4385 122.26 46.751C122.595 47.0524 123.002 47.203 123.482 47.203C124.196 47.203 124.693 46.9017 124.972 46.299H128.019C127.863 46.9129 127.578 47.4653 127.165 47.9564C126.764 48.4475 126.256 48.8326 125.642 49.1116C125.028 49.3907 124.342 49.5302 123.583 49.5302C122.667 49.5302 121.853 49.3349 121.138 48.9442C120.424 48.5536 119.866 47.9955 119.464 47.27C119.062 46.5445 118.861 45.6963 118.861 44.7252C118.861 43.7542 119.057 42.9059 119.447 42.1805C119.849 41.455 120.407 40.8969 121.122 40.5063C121.836 40.1156 122.656 39.9203 123.583 39.9203C124.487 39.9203 125.29 40.11 125.993 40.4895C126.697 40.869 127.244 41.4103 127.634 42.1135C128.036 42.8167 128.237 43.637 128.237 44.5746ZM125.307 43.8212C125.307 43.3301 125.14 42.9394 124.805 42.6492C124.47 42.359 124.051 42.2139 123.549 42.2139C123.069 42.2139 122.662 42.3535 122.327 42.6325C122.003 42.9115 121.802 43.3078 121.724 43.8212H125.307ZM132.61 41.6112C132.945 41.0978 133.363 40.696 133.866 40.4058C134.368 40.1045 134.926 39.9538 135.54 39.9538V42.9841H134.753C134.039 42.9841 133.503 43.1403 133.146 43.4529C132.789 43.7542 132.61 44.2899 132.61 45.0601V49.3962H129.747V40.0542H132.61V41.6112ZM142.601 39.9538C143.694 39.9538 144.565 40.3109 145.212 41.0253C145.871 41.7284 146.2 42.6995 146.2 43.9384V49.3962H143.354V44.3234C143.354 43.6984 143.192 43.2129 142.868 42.8669C142.545 42.5209 142.109 42.3479 141.563 42.3479C141.016 42.3479 140.58 42.5209 140.257 42.8669C139.933 43.2129 139.771 43.6984 139.771 44.3234V49.3962H136.908V40.0542H139.771V41.2931C140.061 40.8802 140.452 40.5565 140.943 40.3221C141.434 40.0766 141.987 39.9538 142.601 39.9538ZM147.62 44.7085C147.62 43.7486 147.799 42.9059 148.156 42.1805C148.524 41.455 149.021 40.8969 149.646 40.5063C150.271 40.1156 150.969 39.9203 151.739 39.9203C152.397 39.9203 152.972 40.0542 153.463 40.3221C153.965 40.59 154.35 40.9416 154.618 41.3769V40.0542H157.481V49.3962H154.618V48.0736C154.339 48.5089 153.949 48.8605 153.446 49.1284C152.955 49.3962 152.381 49.5302 151.722 49.5302C150.963 49.5302 150.271 49.3349 149.646 48.9442C149.021 48.5424 148.524 47.9788 148.156 47.2533C147.799 46.5166 147.62 45.6684 147.62 44.7085ZM154.618 44.7252C154.618 44.0109 154.417 43.4473 154.016 43.0343C153.625 42.6213 153.145 42.4149 152.576 42.4149C152.007 42.4149 151.521 42.6213 151.119 43.0343C150.729 43.4361 150.533 43.9942 150.533 44.7085C150.533 45.4228 150.729 45.992 151.119 46.4162C151.521 46.8291 152.007 47.0356 152.576 47.0356C153.145 47.0356 153.625 46.8291 154.016 46.4162C154.417 46.0032 154.618 45.4396 154.618 44.7252ZM165.245 39.9538C166.338 39.9538 167.209 40.3109 167.856 41.0253C168.515 41.7284 168.844 42.6995 168.844 43.9384V49.3962H165.998V44.3234C165.998 43.6984 165.836 43.2129 165.513 42.8669C165.189 42.5209 164.754 42.3479 164.207 42.3479C163.66 42.3479 163.224 42.5209 162.901 42.8669C162.577 43.2129 162.415 43.6984 162.415 44.3234V49.3962H159.552V40.0542H162.415V41.2931C162.705 40.8802 163.096 40.5565 163.587 40.3221C164.078 40.0766 164.631 39.9538 165.245 39.9538ZM170.264 44.7252C170.264 43.7542 170.46 42.9059 170.85 42.1805C171.252 41.455 171.805 40.8969 172.508 40.5063C173.222 40.1156 174.037 39.9203 174.952 39.9203C176.124 39.9203 177.101 40.2272 177.882 40.8411C178.674 41.455 179.193 42.32 179.439 43.4361H176.392C176.135 42.7218 175.639 42.3646 174.902 42.3646C174.377 42.3646 173.959 42.5711 173.646 42.9841C173.334 43.3859 173.177 43.9663 173.177 44.7252C173.177 45.4842 173.334 46.0702 173.646 46.4831C173.959 46.8849 174.377 47.0859 174.902 47.0859C175.639 47.0859 176.135 46.7287 176.392 46.0144H179.439C179.193 47.1082 178.674 47.9676 177.882 48.5926C177.089 49.2177 176.113 49.5302 174.952 49.5302C174.037 49.5302 173.222 49.3349 172.508 48.9442C171.805 48.5536 171.252 47.9955 170.85 47.27C170.46 46.5445 170.264 45.6963 170.264 44.7252ZM189.777 44.5746C189.777 44.8424 189.76 45.1215 189.726 45.4117H183.247C183.292 45.992 183.476 46.4385 183.8 46.751C184.135 47.0524 184.542 47.203 185.022 47.203C185.736 47.203 186.233 46.9017 186.512 46.299H189.559C189.403 46.9129 189.118 47.4653 188.705 47.9564C188.303 48.4475 187.795 48.8326 187.182 49.1116C186.568 49.3907 185.881 49.5302 185.122 49.5302C184.207 49.5302 183.392 49.3349 182.678 48.9442C181.964 48.5536 181.406 47.9955 181.004 47.27C180.602 46.5445 180.401 45.6963 180.401 44.7252C180.401 43.7542 180.596 42.9059 180.987 42.1805C181.389 41.455 181.947 40.8969 182.661 40.5063C183.376 40.1156 184.196 39.9203 185.122 39.9203C186.026 39.9203 186.83 40.11 187.533 40.4895C188.236 40.869 188.783 41.4103 189.174 42.1135C189.576 42.8167 189.777 43.637 189.777 44.5746ZM186.847 43.8212C186.847 43.3301 186.679 42.9394 186.344 42.6492C186.01 42.359 185.591 42.2139 185.089 42.2139C184.609 42.2139 184.201 42.3535 183.867 42.6325C183.543 42.9115 183.342 43.3078 183.264 43.8212H186.847Z" fill="white"/>
<path d="M25.4099 91.0754C25.0974 91.0754 24.8109 91.0016 24.5505 90.854C24.2987 90.6978 24.0947 90.4938 23.9385 90.242C23.7909 89.9816 23.7171 89.6951 23.7171 89.3826C23.7171 88.9051 23.8821 88.5015 24.2119 88.1716C24.5418 87.8417 24.9411 87.6768 25.4099 87.6768C25.8961 87.6768 26.3041 87.8417 26.6339 88.1716C26.9638 88.5015 27.1288 88.9051 27.1288 89.3826C27.1288 89.86 26.9638 90.2637 26.6339 90.5936C26.3041 90.9148 25.8961 91.0754 25.4099 91.0754ZM42.4936 87.3643C42.4936 87.8243 42.3851 88.2584 42.168 88.6664C41.951 89.0744 41.6038 89.4086 41.1263 89.6691C40.6489 89.9208 40.0368 90.0467 39.2903 90.0467H37.6496V93.7188H36.1651V84.6688H39.2903C39.9848 84.6688 40.5707 84.7903 41.0482 85.0334C41.5343 85.2678 41.8946 85.589 42.129 85.997C42.372 86.405 42.4936 86.8608 42.4936 87.3643ZM39.2903 88.8357C39.8545 88.8357 40.2756 88.7098 40.5534 88.4581C40.8312 88.1976 40.9701 87.833 40.9701 87.3643C40.9701 86.3746 40.4101 85.8798 39.2903 85.8798H37.6496V88.8357H39.2903ZM43.4145 90.0988C43.4145 89.3782 43.5621 88.7402 43.8573 88.1846C44.1611 87.629 44.5691 87.1993 45.0813 86.8955C45.6022 86.583 46.1751 86.4267 46.8001 86.4267C47.3644 86.4267 47.8549 86.5396 48.2716 86.7653C48.6969 86.9823 49.0355 87.2557 49.2872 87.5856V86.5439H50.7847V93.7188H49.2872V92.651C49.0355 92.9895 48.6926 93.2717 48.2585 93.4974C47.8245 93.7231 47.3297 93.8359 46.7741 93.8359C46.1577 93.8359 45.5935 93.6797 45.0813 93.3672C44.5691 93.046 44.1611 92.6032 43.8573 92.039C43.5621 91.466 43.4145 90.8193 43.4145 90.0988ZM49.2872 90.1248C49.2872 89.63 49.1831 89.2003 48.9747 88.8357C48.7751 88.4711 48.5103 88.1933 48.1804 88.0023C47.8505 87.8113 47.4946 87.7158 47.1126 87.7158C46.7307 87.7158 46.3748 87.8113 46.0449 88.0023C45.715 88.1846 45.4459 88.4581 45.2375 88.8227C45.0379 89.1786 44.9381 89.604 44.9381 90.0988C44.9381 90.5936 45.0379 91.0276 45.2375 91.4009C45.4459 91.7742 45.715 92.0607 46.0449 92.2603C46.3834 92.4513 46.7394 92.5468 47.1126 92.5468C47.4946 92.5468 47.8505 92.4513 48.1804 92.2603C48.5103 92.0694 48.7751 91.7916 48.9747 91.427C49.1831 91.0537 49.2872 90.6196 49.2872 90.1248ZM54.2189 87.5856C54.436 87.221 54.7224 86.9389 55.0784 86.7392C55.443 86.5309 55.8727 86.4267 56.3675 86.4267V87.9632H55.9899C55.4082 87.9632 54.9655 88.1108 54.6617 88.406C54.3665 88.7011 54.2189 89.2133 54.2189 89.9425V93.7188H52.7345V86.5439H54.2189V87.5856ZM59.4638 87.7549V91.7265C59.4638 91.9956 59.5246 92.1909 59.6461 92.3124C59.7764 92.4253 59.9934 92.4817 60.2972 92.4817H61.2087V93.7188H60.0368C59.3684 93.7188 58.8562 93.5625 58.5003 93.25C58.1443 92.9375 57.9664 92.4296 57.9664 91.7265V87.7549H57.12V86.5439H57.9664V84.76H59.4638V86.5439H61.2087V87.7549H59.4638ZM63.3322 85.5933C63.063 85.5933 62.8373 85.5022 62.655 85.3199C62.4727 85.1376 62.3816 84.9119 62.3816 84.6428C62.3816 84.3736 62.4727 84.1479 62.655 83.9656C62.8373 83.7833 63.063 83.6922 63.3322 83.6922C63.5926 83.6922 63.8139 83.7833 63.9962 83.9656C64.1786 84.1479 64.2697 84.3736 64.2697 84.6428C64.2697 84.9119 64.1786 85.1376 63.9962 85.3199C63.8139 85.5022 63.5926 85.5933 63.3322 85.5933ZM64.0614 86.5439V93.7188H62.5769V86.5439H64.0614ZM65.5155 90.1248C65.5155 89.3869 65.6631 88.7402 65.9582 88.1846C66.2621 87.6203 66.6787 87.1863 67.2083 86.8825C67.7378 86.5786 68.3455 86.4267 69.0313 86.4267C69.8994 86.4267 70.6156 86.6351 71.1798 87.0517C71.7528 87.4597 72.1391 88.0457 72.3388 88.8096H70.7371C70.6069 88.4537 70.3986 88.1759 70.1121 87.9763C69.8256 87.7766 69.4653 87.6768 69.0313 87.6768C68.4236 87.6768 67.9375 87.8938 67.5729 88.3278C67.217 88.7532 67.039 89.3522 67.039 90.1248C67.039 90.8974 67.217 91.5008 67.5729 91.9348C67.9375 92.3689 68.4236 92.5859 69.0313 92.5859C69.8907 92.5859 70.4593 92.2083 70.7371 91.453H72.3388C72.1304 92.1822 71.7398 92.7638 71.1668 93.1979C70.5939 93.6233 69.882 93.8359 69.0313 93.8359C68.3455 93.8359 67.7378 93.684 67.2083 93.3802C66.6787 93.0677 66.2621 92.6336 65.9582 92.078C65.6631 91.5138 65.5155 90.8627 65.5155 90.1248ZM74.5734 85.5933C74.3043 85.5933 74.0786 85.5022 73.8963 85.3199C73.714 85.1376 73.6228 84.9119 73.6228 84.6428C73.6228 84.3736 73.714 84.1479 73.8963 83.9656C74.0786 83.7833 74.3043 83.6922 74.5734 83.6922C74.8338 83.6922 75.0552 83.7833 75.2375 83.9656C75.4198 84.1479 75.5109 84.3736 75.5109 84.6428C75.5109 84.9119 75.4198 85.1376 75.2375 85.3199C75.0552 85.5022 74.8338 85.5933 74.5734 85.5933ZM75.3026 86.5439V93.7188H73.8181V86.5439H75.3026ZM78.736 87.5986C78.9877 87.2688 79.3306 86.991 79.7647 86.7653C80.1987 86.5396 80.6892 86.4267 81.2361 86.4267C81.8611 86.4267 82.4297 86.583 82.9419 86.8955C83.4628 87.1993 83.8708 87.629 84.1659 88.1846C84.4611 88.7402 84.6087 89.3782 84.6087 90.0988C84.6087 90.8193 84.4611 91.466 84.1659 92.039C83.8708 92.6032 83.4628 93.046 82.9419 93.3672C82.4297 93.6797 81.8611 93.8359 81.2361 93.8359C80.6892 93.8359 80.2031 93.7274 79.7777 93.5104C79.3523 93.2847 79.0051 93.0069 78.736 92.677V97.1304H77.2515V86.5439H78.736V87.5986ZM83.0982 90.0988C83.0982 89.604 82.994 89.1786 82.7857 88.8227C82.586 88.4581 82.3169 88.1846 81.9783 88.0023C81.6485 87.8113 81.2925 87.7158 80.9106 87.7158C80.5373 87.7158 80.1814 87.8113 79.8428 88.0023C79.5129 88.1933 79.2438 88.4711 79.0355 88.8357C78.8358 89.2003 78.736 89.63 78.736 90.1248C78.736 90.6196 78.8358 91.0537 79.0355 91.427C79.2438 91.7916 79.5129 92.0694 79.8428 92.2603C80.1814 92.4513 80.5373 92.5468 80.9106 92.5468C81.2925 92.5468 81.6485 92.4513 81.9783 92.2603C82.3169 92.0607 82.586 91.7742 82.7857 91.4009C82.994 91.0276 83.0982 90.5936 83.0982 90.0988ZM85.5818 90.0988C85.5818 89.3782 85.7294 88.7402 86.0246 88.1846C86.3284 87.629 86.7364 87.1993 87.2486 86.8955C87.7694 86.583 88.3424 86.4267 88.9674 86.4267C89.5317 86.4267 90.0222 86.5396 90.4389 86.7653C90.8642 86.9823 91.2028 87.2557 91.4545 87.5856V86.5439H92.952V93.7188H91.4545V92.651C91.2028 92.9895 90.8599 93.2717 90.4258 93.4974C89.9918 93.7231 89.497 93.8359 88.9414 93.8359C88.325 93.8359 87.7608 93.6797 87.2486 93.3672C86.7364 93.046 86.3284 92.6032 86.0246 92.039C85.7294 91.466 85.5818 90.8193 85.5818 90.0988ZM91.4545 90.1248C91.4545 89.63 91.3504 89.2003 91.142 88.8357C90.9424 88.4711 90.6776 88.1933 90.3477 88.0023C90.0178 87.8113 89.6619 87.7158 89.2799 87.7158C88.898 87.7158 88.5421 87.8113 88.2122 88.0023C87.8823 88.1846 87.6132 88.4581 87.4048 88.8227C87.2052 89.1786 87.1053 89.604 87.1053 90.0988C87.1053 90.5936 87.2052 91.0276 87.4048 91.4009C87.6132 91.7742 87.8823 92.0607 88.2122 92.2603C88.5507 92.4513 88.9067 92.5468 89.2799 92.5468C89.6619 92.5468 90.0178 92.4513 90.3477 92.2603C90.6776 92.0694 90.9424 91.7916 91.142 91.427C91.3504 91.0537 91.4545 90.6196 91.4545 90.1248ZM96.6336 87.7549V91.7265C96.6336 91.9956 96.6944 92.1909 96.8159 92.3124C96.9462 92.4253 97.1632 92.4817 97.467 92.4817H98.3785V93.7188H97.2066C96.5381 93.7188 96.026 93.5625 95.67 93.25C95.3141 92.9375 95.1362 92.4296 95.1362 91.7265V87.7549H94.2898V86.5439H95.1362V84.76H96.6336V86.5439H98.3785V87.7549H96.6336ZM106.323 89.9555C106.323 90.2246 106.305 90.4677 106.27 90.6847H100.788C100.832 91.2577 101.045 91.7178 101.426 92.065C101.808 92.4123 102.277 92.5859 102.833 92.5859C103.631 92.5859 104.196 92.2517 104.526 91.5832H106.127C105.91 92.243 105.515 92.7855 104.942 93.2109C104.378 93.6276 103.675 93.8359 102.833 93.8359C102.147 93.8359 101.531 93.684 100.984 93.3802C100.446 93.0677 100.02 92.6336 99.7076 92.078C99.4038 91.5138 99.2519 90.8627 99.2519 90.1248C99.2519 89.3869 99.3995 88.7402 99.6946 88.1846C99.9984 87.6203 100.419 87.1863 100.958 86.8825C101.505 86.5786 102.13 86.4267 102.833 86.4267C103.51 86.4267 104.113 86.5743 104.643 86.8694C105.172 87.1646 105.585 87.5813 105.88 88.1195C106.175 88.649 106.323 89.2611 106.323 89.9555ZM104.773 89.4868C104.764 88.9399 104.569 88.5015 104.187 88.1716C103.805 87.8417 103.332 87.6768 102.768 87.6768C102.256 87.6768 101.817 87.8417 101.453 88.1716C101.088 88.4928 100.871 88.9312 100.801 89.4868H104.773ZM111.921 85.5933C111.652 85.5933 111.426 85.5022 111.244 85.3199C111.062 85.1376 110.971 84.9119 110.971 84.6428C110.971 84.3736 111.062 84.1479 111.244 83.9656C111.426 83.7833 111.652 83.6922 111.921 83.6922C112.182 83.6922 112.403 83.7833 112.585 83.9656C112.768 84.1479 112.859 84.3736 112.859 84.6428C112.859 84.9119 112.768 85.1376 112.585 85.3199C112.403 85.5022 112.182 85.5933 111.921 85.5933ZM112.65 86.5439V93.7188H111.166V86.5439H112.65ZM118.219 86.4267C118.784 86.4267 119.287 86.5439 119.73 86.7783C120.181 87.0127 120.533 87.3599 120.785 87.82C121.036 88.2801 121.162 88.8357 121.162 89.4868V93.7188H119.691V89.7081C119.691 89.0657 119.53 88.5753 119.209 88.2367C118.888 87.8895 118.449 87.7158 117.894 87.7158C117.338 87.7158 116.895 87.8895 116.566 88.2367C116.244 88.5753 116.084 89.0657 116.084 89.7081V93.7188H114.599V86.5439H116.084V87.3643C116.327 87.0691 116.635 86.8391 117.008 86.6741C117.39 86.5092 117.794 86.4267 118.219 86.4267ZM134.238 84.6688L130.839 93.7188H129.121L125.709 84.6688H127.298L129.98 92.1952L132.676 84.6688H134.238ZM136.964 84.6688V93.7188H135.48V84.6688H136.964ZM145.241 87.3643C145.241 87.8243 145.133 88.2584 144.916 88.6664C144.699 89.0744 144.352 89.4086 143.874 89.6691C143.397 89.9208 142.785 90.0467 142.038 90.0467H140.397V93.7188H138.913V84.6688H142.038C142.733 84.6688 143.319 84.7903 143.796 85.0334C144.282 85.2678 144.642 85.589 144.877 85.997C145.12 86.405 145.241 86.8608 145.241 87.3643ZM142.038 88.8357C142.602 88.8357 143.023 88.7098 143.301 88.4581C143.579 88.1976 143.718 87.833 143.718 87.3643C143.718 86.3746 143.158 85.8798 142.038 85.8798H140.397V88.8357H142.038ZM153.321 96.1408C152.47 95.3247 151.815 94.2874 151.355 93.0286C150.903 91.7699 150.678 90.42 150.678 88.9789C150.678 87.5032 150.921 86.1098 151.407 84.799C151.902 83.4882 152.627 82.4074 153.582 81.5567H155.118V81.6999C154.12 82.6201 153.369 83.7226 152.865 85.0074C152.362 86.2922 152.11 87.616 152.11 88.9789C152.11 90.2898 152.345 91.5572 152.813 92.7812C153.282 94.0052 153.964 95.0773 154.858 95.9975V96.1408H153.321ZM164.249 84.6688L160.85 93.7188H159.131L155.72 84.6688H157.308L159.991 92.1952L162.686 84.6688H164.249ZM172.066 89.9555C172.066 90.2246 172.049 90.4677 172.014 90.6847H166.532C166.575 91.2577 166.788 91.7178 167.17 92.065C167.552 92.4123 168.021 92.5859 168.576 92.5859C169.375 92.5859 169.939 92.2517 170.269 91.5832H171.871C171.654 92.243 171.259 92.7855 170.686 93.2109C170.121 93.6276 169.418 93.8359 168.576 93.8359C167.89 93.8359 167.274 93.684 166.727 93.3802C166.189 93.0677 165.763 92.6336 165.451 92.078C165.147 91.5138 164.995 90.8627 164.995 90.1248C164.995 89.3869 165.143 88.7402 165.438 88.1846C165.742 87.6203 166.163 87.1863 166.701 86.8825C167.248 86.5786 167.873 86.4267 168.576 86.4267C169.253 86.4267 169.857 86.5743 170.386 86.8694C170.916 87.1646 171.328 87.5813 171.623 88.1195C171.918 88.649 172.066 89.2611 172.066 89.9555ZM170.516 89.4868C170.508 88.9399 170.312 88.5015 169.93 88.1716C169.548 87.8417 169.075 87.6768 168.511 87.6768C167.999 87.6768 167.56 87.8417 167.196 88.1716C166.831 88.4928 166.614 88.9312 166.545 89.4868H170.516ZM178.371 89.0701C178.857 89.1569 179.269 89.413 179.608 89.8383C179.946 90.2637 180.116 90.7455 180.116 91.2837C180.116 91.7438 179.994 92.1605 179.751 92.5338C179.517 92.8984 179.174 93.1892 178.722 93.4062C178.271 93.6146 177.746 93.7188 177.147 93.7188H173.527V84.6688H176.977C177.594 84.6688 178.123 84.773 178.566 84.9813C179.009 85.1897 179.343 85.4718 179.569 85.8277C179.794 86.175 179.907 86.5656 179.907 86.9997C179.907 87.5205 179.768 87.9546 179.491 88.3018C179.213 88.649 178.84 88.9051 178.371 89.0701ZM175.011 88.4711H176.847C177.333 88.4711 177.711 88.3626 177.98 88.1455C178.258 87.9198 178.397 87.5986 178.397 87.182C178.397 86.7739 178.258 86.4571 177.98 86.2314C177.711 85.997 177.333 85.8798 176.847 85.8798H175.011V88.4711ZM177.017 92.5077C177.52 92.5077 177.915 92.3862 178.201 92.1431C178.488 91.9001 178.631 91.5615 178.631 91.1275C178.631 90.6847 178.479 90.3332 178.175 90.0727C177.872 89.8123 177.468 89.6821 176.964 89.6821H175.011V92.5077H177.017ZM181.234 90.0988C181.234 89.3782 181.382 88.7402 181.677 88.1846C181.981 87.629 182.389 87.1993 182.901 86.8955C183.422 86.583 183.995 86.4267 184.62 86.4267C185.184 86.4267 185.674 86.5396 186.091 86.7653C186.516 86.9823 186.855 87.2557 187.107 87.5856V86.5439H188.604V93.7188H187.107V92.651C186.855 92.9895 186.512 93.2717 186.078 93.4974C185.644 93.7231 185.149 93.8359 184.593 93.8359C183.977 93.8359 183.413 93.6797 182.901 93.3672C182.389 93.046 181.981 92.6032 181.677 92.039C181.382 91.466 181.234 90.8193 181.234 90.0988ZM187.107 90.1248C187.107 89.63 187.002 89.2003 186.794 88.8357C186.594 88.4711 186.33 88.1933 186 88.0023C185.67 87.8113 185.314 87.7158 184.932 87.7158C184.55 87.7158 184.194 87.8113 183.864 88.0023C183.534 88.1846 183.265 88.4581 183.057 88.8227C182.857 89.1786 182.757 89.604 182.757 90.0988C182.757 90.5936 182.857 91.0276 183.057 91.4009C183.265 91.7742 183.534 92.0607 183.864 92.2603C184.203 92.4513 184.559 92.5468 184.932 92.5468C185.314 92.5468 185.67 92.4513 186 92.2603C186.33 92.0694 186.594 91.7916 186.794 91.427C187.002 91.0537 187.107 90.6196 187.107 90.1248ZM194.174 86.4267C194.738 86.4267 195.242 86.5439 195.684 86.7783C196.136 87.0127 196.487 87.3599 196.739 87.82C196.991 88.2801 197.117 88.8357 197.117 89.4868V93.7188H195.645V89.7081C195.645 89.0657 195.485 88.5753 195.163 88.2367C194.842 87.8895 194.404 87.7158 193.848 87.7158C193.293 87.7158 192.85 87.8895 192.52 88.2367C192.199 88.5753 192.038 89.0657 192.038 89.7081V93.7188H190.554V86.5439H192.038V87.3643C192.281 87.0691 192.59 86.8391 192.963 86.6741C193.345 86.5092 193.748 86.4267 194.174 86.4267ZM201.849 90.1378L205.156 93.7188H203.151L200.495 90.6327V93.7188H199.01V84.0828H200.495V89.6821L203.099 86.5439H205.156L201.849 90.1378ZM37.6496 102.669V111.719H36.1651V102.669H37.6496ZM48.2839 104.427C48.8481 104.427 49.3516 104.544 49.7944 104.778C50.2458 105.013 50.5974 105.36 50.8491 105.82C51.1095 106.28 51.2398 106.836 51.2398 107.487V111.719H49.7683V107.708C49.7683 107.066 49.6077 106.575 49.2865 106.237C48.9653 105.889 48.5269 105.716 47.9714 105.716C47.4158 105.716 46.973 105.889 46.6432 106.237C46.322 106.575 46.1614 107.066 46.1614 107.708V111.719H44.6899V107.708C44.6899 107.066 44.5293 106.575 44.2081 106.237C43.8869 105.889 43.4486 105.716 42.893 105.716C42.3374 105.716 41.8947 105.889 41.5648 106.237C41.2436 106.575 41.083 107.066 41.083 107.708V111.719H39.5985V104.544H41.083V105.364C41.326 105.069 41.6342 104.839 42.0075 104.674C42.3808 104.509 42.7801 104.427 43.2055 104.427C43.7784 104.427 44.2906 104.548 44.742 104.791C45.1934 105.034 45.5407 105.386 45.7837 105.846C46.0008 105.412 46.3393 105.069 46.7994 104.817C47.2595 104.557 47.7543 104.427 48.2839 104.427ZM54.6131 105.599C54.8649 105.269 55.2078 104.991 55.6418 104.765C56.0759 104.54 56.5664 104.427 57.1133 104.427C57.7383 104.427 58.3069 104.583 58.8191 104.895C59.3399 105.199 59.7479 105.629 60.0431 106.185C60.3383 106.74 60.4858 107.378 60.4858 108.099C60.4858 108.819 60.3383 109.466 60.0431 110.039C59.7479 110.603 59.3399 111.046 58.8191 111.367C58.3069 111.68 57.7383 111.836 57.1133 111.836C56.5664 111.836 56.0802 111.727 55.6549 111.51C55.2295 111.285 54.8822 111.007 54.6131 110.677V115.13H53.1287V104.544H54.6131V105.599ZM58.9753 108.099C58.9753 107.604 58.8712 107.179 58.6628 106.823C58.4632 106.458 58.194 106.185 57.8555 106.002C57.5256 105.811 57.1697 105.716 56.7877 105.716C56.4144 105.716 56.0585 105.811 55.72 106.002C55.3901 106.193 55.121 106.471 54.9126 106.836C54.713 107.2 54.6131 107.63 54.6131 108.125C54.6131 108.62 54.713 109.054 54.9126 109.427C55.121 109.792 55.3901 110.069 55.72 110.26C56.0585 110.451 56.4144 110.547 56.7877 110.547C57.1697 110.547 57.5256 110.451 57.8555 110.26C58.194 110.061 58.4632 109.774 58.6628 109.401C58.8712 109.028 58.9753 108.594 58.9753 108.099ZM63.4383 105.586C63.6553 105.221 63.9418 104.939 64.2977 104.739C64.6623 104.531 65.092 104.427 65.5868 104.427V105.963H65.2092C64.6276 105.963 64.1848 106.111 63.881 106.406C63.5858 106.701 63.4383 107.213 63.4383 107.943V111.719H61.9538V104.544H63.4383V105.586ZM70.0635 111.836C69.3863 111.836 68.7743 111.684 68.2274 111.38C67.6805 111.068 67.2508 110.634 66.9383 110.078C66.6258 109.514 66.4695 108.863 66.4695 108.125C66.4695 107.396 66.6301 106.749 66.9513 106.185C67.2725 105.62 67.7109 105.186 68.2665 104.882C68.8221 104.579 69.4428 104.427 70.1286 104.427C70.8144 104.427 71.4351 104.579 71.9906 104.882C72.5462 105.186 72.9846 105.62 73.3058 106.185C73.627 106.749 73.7876 107.396 73.7876 108.125C73.7876 108.854 73.6227 109.501 73.2928 110.065C72.9629 110.629 72.5115 111.068 71.9386 111.38C71.3743 111.684 70.7493 111.836 70.0635 111.836ZM70.0635 110.547C70.4454 110.547 70.8013 110.456 71.1312 110.273C71.4698 110.091 71.7432 109.818 71.9516 109.453C72.1599 109.088 72.2641 108.646 72.2641 108.125C72.2641 107.604 72.1643 107.166 71.9646 106.81C71.7649 106.445 71.5002 106.172 71.1703 105.989C70.8404 105.807 70.4845 105.716 70.1025 105.716C69.7206 105.716 69.3646 105.807 69.0348 105.989C68.7136 106.172 68.4575 106.445 68.2665 106.81C68.0755 107.166 67.98 107.604 67.98 108.125C67.98 108.897 68.1753 109.496 68.566 109.922C68.9653 110.338 69.4645 110.547 70.0635 110.547ZM78.0287 110.391L80.06 104.544H81.6356L78.9011 111.719H77.1302L74.4087 104.544H75.9973L78.0287 110.391ZM89.3336 107.956C89.3336 108.225 89.3162 108.468 89.2815 108.685H83.7994C83.8428 109.258 84.0555 109.718 84.4375 110.065C84.8194 110.412 85.2882 110.586 85.8438 110.586C86.6424 110.586 87.2067 110.252 87.5366 109.583H89.1382C88.9212 110.243 88.5262 110.786 87.9533 111.211C87.389 111.628 86.6858 111.836 85.8438 111.836C85.158 111.836 84.5416 111.684 83.9947 111.38C83.4565 111.068 83.0311 110.634 82.7186 110.078C82.4148 109.514 82.2629 108.863 82.2629 108.125C82.2629 107.387 82.4105 106.74 82.7056 106.185C83.0094 105.62 83.4305 105.186 83.9687 104.882C84.5156 104.579 85.1406 104.427 85.8438 104.427C86.5209 104.427 87.1242 104.574 87.6538 104.869C88.1833 105.165 88.5957 105.581 88.8908 106.12C89.186 106.649 89.3336 107.261 89.3336 107.956ZM87.784 107.487C87.7753 106.94 87.58 106.501 87.198 106.172C86.8161 105.842 86.3429 105.677 85.7787 105.677C85.2665 105.677 84.8281 105.842 84.4635 106.172C84.0989 106.493 83.8819 106.931 83.8124 107.487H87.784ZM99.4798 104.427C100.044 104.427 100.548 104.544 100.99 104.778C101.442 105.013 101.793 105.36 102.045 105.82C102.305 106.28 102.436 106.836 102.436 107.487V111.719H100.964V107.708C100.964 107.066 100.804 106.575 100.482 106.237C100.161 105.889 99.7228 105.716 99.1672 105.716C98.6117 105.716 98.1689 105.889 97.839 106.237C97.5178 106.575 97.3572 107.066 97.3572 107.708V111.719H95.8858V107.708C95.8858 107.066 95.7252 106.575 95.404 106.237C95.0828 105.889 94.6444 105.716 94.0888 105.716C93.5333 105.716 93.0905 105.889 92.7607 106.237C92.4395 106.575 92.2789 107.066 92.2789 107.708V111.719H90.7944V104.544H92.2789V105.364C92.5219 105.069 92.8301 104.839 93.2034 104.674C93.5767 104.509 93.976 104.427 94.4014 104.427C94.9743 104.427 95.4865 104.548 95.9379 104.791C96.3893 105.034 96.7366 105.386 96.9796 105.846C97.1966 105.412 97.5352 105.069 97.9953 104.817C98.4554 104.557 98.9502 104.427 99.4798 104.427ZM110.9 107.956C110.9 108.225 110.883 108.468 110.848 108.685H105.366C105.41 109.258 105.622 109.718 106.004 110.065C106.386 110.412 106.855 110.586 107.411 110.586C108.209 110.586 108.774 110.252 109.103 109.583H110.705C110.488 110.243 110.093 110.786 109.52 111.211C108.956 111.628 108.253 111.836 107.411 111.836C106.725 111.836 106.109 111.684 105.562 111.38C105.023 111.068 104.598 110.634 104.286 110.078C103.982 109.514 103.83 108.863 103.83 108.125C103.83 107.387 103.977 106.74 104.272 106.185C104.576 105.62 104.997 105.186 105.536 104.882C106.082 104.579 106.708 104.427 107.411 104.427C108.088 104.427 108.691 104.574 109.221 104.869C109.75 105.165 110.163 105.581 110.458 106.12C110.753 106.649 110.9 107.261 110.9 107.956ZM109.351 107.487C109.342 106.94 109.147 106.501 108.765 106.172C108.383 105.842 107.91 105.677 107.346 105.677C106.833 105.677 106.395 105.842 106.03 106.172C105.666 106.493 105.449 106.931 105.379 107.487H109.351ZM115.981 104.427C116.546 104.427 117.049 104.544 117.492 104.778C117.943 105.013 118.295 105.36 118.546 105.82C118.798 106.28 118.924 106.836 118.924 107.487V111.719H117.453V107.708C117.453 107.066 117.292 106.575 116.971 106.237C116.65 105.889 116.211 105.716 115.656 105.716C115.1 105.716 114.657 105.889 114.328 106.237C114.006 106.575 113.846 107.066 113.846 107.708V111.719H112.361V104.544H113.846V105.364C114.089 105.069 114.397 104.839 114.77 104.674C115.152 104.509 115.556 104.427 115.981 104.427ZM122.549 105.755V109.726C122.549 109.996 122.61 110.191 122.732 110.312C122.862 110.425 123.079 110.482 123.383 110.482H124.294V111.719H123.122C122.454 111.719 121.942 111.562 121.586 111.25C121.23 110.937 121.052 110.43 121.052 109.726V105.755H120.206V104.544H121.052V102.76H122.549V104.544H124.294V105.755H122.549ZM135.374 105.364C135.374 105.824 135.265 106.258 135.048 106.666C134.831 107.074 134.484 107.409 134.006 107.669C133.529 107.921 132.917 108.047 132.17 108.047H130.53V111.719H129.045V102.669H132.17C132.865 102.669 133.451 102.79 133.928 103.033C134.414 103.268 134.775 103.589 135.009 103.997C135.252 104.405 135.374 104.861 135.374 105.364ZM132.17 106.836C132.735 106.836 133.156 106.71 133.433 106.458C133.711 106.198 133.85 105.833 133.85 105.364C133.85 104.375 133.29 103.88 132.17 103.88H130.53V106.836H132.17ZM138.274 105.586C138.491 105.221 138.777 104.939 139.133 104.739C139.498 104.531 139.927 104.427 140.422 104.427V105.963H140.045C139.463 105.963 139.02 106.111 138.716 106.406C138.421 106.701 138.274 107.213 138.274 107.943V111.719H136.789V104.544H138.274V105.586ZM144.899 111.836C144.222 111.836 143.61 111.684 143.063 111.38C142.516 111.068 142.086 110.634 141.774 110.078C141.461 109.514 141.305 108.863 141.305 108.125C141.305 107.396 141.466 106.749 141.787 106.185C142.108 105.62 142.546 105.186 143.102 104.882C143.658 104.579 144.278 104.427 144.964 104.427C145.65 104.427 146.271 104.579 146.826 104.882C147.382 105.186 147.82 105.62 148.141 106.185C148.463 106.749 148.623 107.396 148.623 108.125C148.623 108.854 148.458 109.501 148.128 110.065C147.798 110.629 147.347 111.068 146.774 111.38C146.21 111.684 145.585 111.836 144.899 111.836ZM144.899 110.547C145.281 110.547 145.637 110.456 145.967 110.273C146.305 110.091 146.579 109.818 146.787 109.453C146.995 109.088 147.1 108.646 147.1 108.125C147.1 107.604 147 107.166 146.8 106.81C146.6 106.445 146.336 106.172 146.006 105.989C145.676 105.807 145.32 105.716 144.938 105.716C144.556 105.716 144.2 105.807 143.87 105.989C143.549 106.172 143.293 106.445 143.102 106.81C142.911 107.166 142.816 107.604 142.816 108.125C142.816 108.897 143.011 109.496 143.401 109.922C143.801 110.338 144.3 110.547 144.899 110.547ZM151.575 105.599C151.827 105.269 152.17 104.991 152.604 104.765C153.038 104.54 153.528 104.427 154.075 104.427C154.7 104.427 155.269 104.583 155.781 104.895C156.302 105.199 156.71 105.629 157.005 106.185C157.3 106.74 157.448 107.378 157.448 108.099C157.448 108.819 157.3 109.466 157.005 110.039C156.71 110.603 156.302 111.046 155.781 111.367C155.269 111.68 154.7 111.836 154.075 111.836C153.528 111.836 153.042 111.727 152.617 111.51C152.191 111.285 151.844 111.007 151.575 110.677V115.13H150.091V104.544H151.575V105.599ZM155.937 108.099C155.937 107.604 155.833 107.179 155.625 106.823C155.425 106.458 155.156 106.185 154.817 106.002C154.488 105.811 154.132 105.716 153.75 105.716C153.376 105.716 153.02 105.811 152.682 106.002C152.352 106.193 152.083 106.471 151.875 106.836C151.675 107.2 151.575 107.63 151.575 108.125C151.575 108.62 151.675 109.054 151.875 109.427C152.083 109.792 152.352 110.069 152.682 110.26C153.02 110.451 153.376 110.547 153.75 110.547C154.132 110.547 154.488 110.451 154.817 110.26C155.156 110.061 155.425 109.774 155.625 109.401C155.833 109.028 155.937 108.594 155.937 108.099ZM162.028 111.836C161.351 111.836 160.739 111.684 160.192 111.38C159.645 111.068 159.215 110.634 158.903 110.078C158.59 109.514 158.434 108.863 158.434 108.125C158.434 107.396 158.595 106.749 158.916 106.185C159.237 105.62 159.675 105.186 160.231 104.882C160.786 104.579 161.407 104.427 162.093 104.427C162.779 104.427 163.399 104.579 163.955 104.882C164.511 105.186 164.949 105.62 165.27 106.185C165.591 106.749 165.752 107.396 165.752 108.125C165.752 108.854 165.587 109.501 165.257 110.065C164.927 110.629 164.476 111.068 163.903 111.38C163.339 111.684 162.714 111.836 162.028 111.836ZM162.028 110.547C162.41 110.547 162.766 110.456 163.096 110.273C163.434 110.091 163.708 109.818 163.916 109.453C164.124 109.088 164.228 108.646 164.228 108.125C164.228 107.604 164.129 107.166 163.929 106.81C163.729 106.445 163.465 106.172 163.135 105.989C162.805 105.807 162.449 105.716 162.067 105.716C161.685 105.716 161.329 105.807 160.999 105.989C160.678 106.172 160.422 106.445 160.231 106.81C160.04 107.166 159.944 107.604 159.944 108.125C159.944 108.897 160.14 109.496 160.53 109.922C160.93 110.338 161.429 110.547 162.028 110.547ZM169.824 111.836C169.259 111.836 168.752 111.736 168.3 111.536C167.858 111.328 167.506 111.05 167.245 110.703C166.985 110.347 166.846 109.952 166.829 109.518H168.365C168.391 109.822 168.535 110.078 168.795 110.286C169.064 110.486 169.398 110.586 169.798 110.586C170.214 110.586 170.536 110.508 170.761 110.351C170.996 110.187 171.113 109.978 171.113 109.726C171.113 109.457 170.983 109.258 170.722 109.127C170.47 108.997 170.067 108.854 169.511 108.698C168.973 108.55 168.535 108.407 168.196 108.268C167.858 108.129 167.562 107.916 167.311 107.63C167.068 107.344 166.946 106.966 166.946 106.497C166.946 106.115 167.059 105.768 167.285 105.455C167.51 105.134 167.831 104.882 168.248 104.7C168.674 104.518 169.16 104.427 169.707 104.427C170.523 104.427 171.178 104.635 171.673 105.052C172.176 105.46 172.445 106.02 172.48 106.732H170.996C170.97 106.41 170.839 106.154 170.605 105.963C170.371 105.772 170.054 105.677 169.654 105.677C169.264 105.677 168.964 105.751 168.756 105.898C168.548 106.046 168.443 106.241 168.443 106.484C168.443 106.675 168.513 106.836 168.652 106.966C168.791 107.096 168.96 107.2 169.16 107.278C169.359 107.348 169.654 107.439 170.045 107.552C170.566 107.691 170.991 107.834 171.321 107.982C171.66 108.12 171.951 108.329 172.194 108.607C172.437 108.884 172.563 109.253 172.571 109.713C172.571 110.121 172.458 110.486 172.233 110.807C172.007 111.128 171.686 111.38 171.269 111.562C170.861 111.745 170.379 111.836 169.824 111.836ZM173.68 108.099C173.68 107.378 173.828 106.74 174.123 106.185C174.427 105.629 174.835 105.199 175.347 104.895C175.868 104.583 176.441 104.427 177.066 104.427C177.63 104.427 178.121 104.54 178.537 104.765C178.963 104.982 179.301 105.256 179.553 105.586V104.544H181.051V111.719H179.553V110.651C179.301 110.99 178.959 111.272 178.524 111.497C178.09 111.723 177.596 111.836 177.04 111.836C176.424 111.836 175.859 111.68 175.347 111.367C174.835 111.046 174.427 110.603 174.123 110.039C173.828 109.466 173.68 108.819 173.68 108.099ZM179.553 108.125C179.553 107.63 179.449 107.2 179.241 106.836C179.041 106.471 178.776 106.193 178.446 106.002C178.116 105.811 177.761 105.716 177.379 105.716C176.997 105.716 176.641 105.811 176.311 106.002C175.981 106.185 175.712 106.458 175.503 106.823C175.304 107.179 175.204 107.604 175.204 108.099C175.204 108.594 175.304 109.028 175.503 109.401C175.712 109.774 175.981 110.061 176.311 110.26C176.649 110.451 177.005 110.547 177.379 110.547C177.761 110.547 178.116 110.451 178.446 110.26C178.776 110.069 179.041 109.792 179.241 109.427C179.449 109.054 179.553 108.62 179.553 108.125ZM184.485 102.083V111.719H183V102.083H184.485ZM189.038 111.836C188.474 111.836 187.966 111.736 187.515 111.536C187.072 111.328 186.72 111.05 186.46 110.703C186.199 110.347 186.061 109.952 186.043 109.518H187.58C187.606 109.822 187.749 110.078 188.009 110.286C188.279 110.486 188.613 110.586 189.012 110.586C189.429 110.586 189.75 110.508 189.976 110.351C190.21 110.187 190.327 109.978 190.327 109.726C190.327 109.457 190.197 109.258 189.937 109.127C189.685 108.997 189.281 108.854 188.726 108.698C188.187 108.55 187.749 108.407 187.41 108.268C187.072 108.129 186.777 107.916 186.525 107.63C186.282 107.344 186.16 106.966 186.16 106.497C186.16 106.115 186.273 105.768 186.499 105.455C186.725 105.134 187.046 104.882 187.462 104.7C187.888 104.518 188.374 104.427 188.921 104.427C189.737 104.427 190.392 104.635 190.887 105.052C191.391 105.46 191.66 106.02 191.694 106.732H190.21C190.184 106.41 190.054 106.154 189.819 105.963C189.585 105.772 189.268 105.677 188.869 105.677C188.478 105.677 188.179 105.751 187.97 105.898C187.762 106.046 187.658 106.241 187.658 106.484C187.658 106.675 187.727 106.836 187.866 106.966C188.005 107.096 188.174 107.2 188.374 107.278C188.574 107.348 188.869 107.439 189.259 107.552C189.78 107.691 190.206 107.834 190.536 107.982C190.874 108.12 191.165 108.329 191.408 108.607C191.651 108.884 191.777 109.253 191.786 109.713C191.786 110.121 191.673 110.486 191.447 110.807C191.221 111.128 190.9 111.38 190.483 111.562C190.075 111.745 189.594 111.836 189.038 111.836ZM193.025 114.141V113.998C193.919 113.077 194.601 112.005 195.069 110.781C195.538 109.557 195.773 108.29 195.773 106.979C195.773 105.616 195.521 104.292 195.017 103.007C194.514 101.723 193.763 100.62 192.765 99.6999V99.5567H194.301C195.256 100.407 195.977 101.488 196.463 102.799C196.958 104.11 197.205 105.503 197.205 106.979C197.205 108.42 196.975 109.77 196.515 111.029C196.063 112.287 195.412 113.325 194.562 114.141H193.025ZM202.686 108.125C202.686 107.387 202.834 106.74 203.129 106.185C203.433 105.62 203.85 105.186 204.379 104.882C204.909 104.579 205.516 104.427 206.202 104.427C207.07 104.427 207.786 104.635 208.351 105.052C208.924 105.46 209.31 106.046 209.51 106.81H207.908C207.778 106.454 207.569 106.176 207.283 105.976C206.996 105.777 206.636 105.677 206.202 105.677C205.595 105.677 205.108 105.894 204.744 106.328C204.388 106.753 204.21 107.352 204.21 108.125C204.21 108.897 204.388 109.501 204.744 109.935C205.108 110.369 205.595 110.586 206.202 110.586C207.062 110.586 207.63 110.208 207.908 109.453H209.51C209.301 110.182 208.911 110.764 208.338 111.198C207.765 111.623 207.053 111.836 206.202 111.836C205.516 111.836 204.909 111.684 204.379 111.38C203.85 111.068 203.433 110.634 203.129 110.078C202.834 109.514 202.686 108.863 202.686 108.125ZM212.473 105.586C212.69 105.221 212.977 104.939 213.333 104.739C213.697 104.531 214.127 104.427 214.622 104.427V105.963H214.244C213.663 105.963 213.22 106.111 212.916 106.406C212.621 106.701 212.473 107.213 212.473 107.943V111.719H210.989V104.544H212.473V105.586ZM222.562 107.956C222.562 108.225 222.545 108.468 222.51 108.685H217.028C217.072 109.258 217.284 109.718 217.666 110.065C218.048 110.412 218.517 110.586 219.073 110.586C219.871 110.586 220.436 110.252 220.765 109.583H222.367C222.15 110.243 221.755 110.786 221.182 111.211C220.618 111.628 219.915 111.836 219.073 111.836C218.387 111.836 217.77 111.684 217.224 111.38C216.685 111.068 216.26 110.634 215.947 110.078C215.644 109.514 215.492 108.863 215.492 108.125C215.492 107.387 215.639 106.74 215.934 106.185C216.238 105.62 216.659 105.186 217.198 104.882C217.744 104.579 218.369 104.427 219.073 104.427C219.75 104.427 220.353 104.574 220.883 104.869C221.412 105.165 221.824 105.581 222.12 106.12C222.415 106.649 222.562 107.261 222.562 107.956ZM221.013 107.487C221.004 106.94 220.809 106.501 220.427 106.172C220.045 105.842 219.572 105.677 219.008 105.677C218.495 105.677 218.057 105.842 217.692 106.172C217.328 106.493 217.111 106.931 217.041 107.487H221.013ZM223.528 108.099C223.528 107.378 223.676 106.74 223.971 106.185C224.275 105.629 224.683 105.199 225.195 104.895C225.716 104.583 226.289 104.427 226.914 104.427C227.478 104.427 227.969 104.54 228.385 104.765C228.811 104.982 229.149 105.256 229.401 105.586V104.544H230.899V111.719H229.401V110.651C229.149 110.99 228.806 111.272 228.372 111.497C227.938 111.723 227.444 111.836 226.888 111.836C226.272 111.836 225.707 111.68 225.195 111.367C224.683 111.046 224.275 110.603 223.971 110.039C223.676 109.466 223.528 108.819 223.528 108.099ZM229.401 108.125C229.401 107.63 229.297 107.2 229.089 106.836C228.889 106.471 228.624 106.193 228.294 106.002C227.964 105.811 227.608 105.716 227.227 105.716C226.845 105.716 226.489 105.811 226.159 106.002C225.829 106.185 225.56 106.458 225.351 106.823C225.152 107.179 225.052 107.604 225.052 108.099C225.052 108.594 225.152 109.028 225.351 109.401C225.56 109.774 225.829 110.061 226.159 110.26C226.497 110.451 226.853 110.547 227.227 110.547C227.608 110.547 227.964 110.451 228.294 110.26C228.624 110.069 228.889 109.792 229.089 109.427C229.297 109.054 229.401 108.62 229.401 108.125ZM234.58 105.755V109.726C234.58 109.996 234.641 110.191 234.763 110.312C234.893 110.425 235.11 110.482 235.414 110.482H236.325V111.719H235.153C234.485 111.719 233.973 111.562 233.617 111.25C233.261 110.937 233.083 110.43 233.083 109.726V105.755H232.236V104.544H233.083V102.76H234.58V104.544H236.325V105.755H234.58ZM238.449 103.593C238.179 103.593 237.954 103.502 237.771 103.32C237.589 103.138 237.498 102.912 237.498 102.643C237.498 102.374 237.589 102.148 237.771 101.966C237.954 101.783 238.179 101.692 238.449 101.692C238.709 101.692 238.93 101.783 239.113 101.966C239.295 102.148 239.386 102.374 239.386 102.643C239.386 102.912 239.295 103.138 239.113 103.32C238.93 103.502 238.709 103.593 238.449 103.593ZM239.178 104.544V111.719H237.693V104.544H239.178ZM244.239 111.836C243.562 111.836 242.95 111.684 242.403 111.38C241.856 111.068 241.426 110.634 241.114 110.078C240.801 109.514 240.645 108.863 240.645 108.125C240.645 107.396 240.805 106.749 241.127 106.185C241.448 105.62 241.886 105.186 242.442 104.882C242.997 104.579 243.618 104.427 244.304 104.427C244.99 104.427 245.61 104.579 246.166 104.882C246.722 105.186 247.16 105.62 247.481 106.185C247.802 106.749 247.963 107.396 247.963 108.125C247.963 108.854 247.798 109.501 247.468 110.065C247.138 110.629 246.687 111.068 246.114 111.38C245.55 111.684 244.925 111.836 244.239 111.836ZM244.239 110.547C244.621 110.547 244.977 110.456 245.307 110.273C245.645 110.091 245.919 109.818 246.127 109.453C246.335 109.088 246.439 108.646 246.439 108.125C246.439 107.604 246.34 107.166 246.14 106.81C245.94 106.445 245.676 106.172 245.346 105.989C245.016 105.807 244.66 105.716 244.278 105.716C243.896 105.716 243.54 105.807 243.21 105.989C242.889 106.172 242.633 106.445 242.442 106.81C242.251 107.166 242.155 107.604 242.155 108.125C242.155 108.897 242.351 109.496 242.741 109.922C243.141 110.338 243.64 110.547 244.239 110.547ZM253.05 104.427C253.615 104.427 254.118 104.544 254.561 104.778C255.012 105.013 255.364 105.36 255.616 105.82C255.867 106.28 255.993 106.836 255.993 107.487V111.719H254.522V107.708C254.522 107.066 254.361 106.575 254.04 106.237C253.719 105.889 253.28 105.716 252.725 105.716C252.169 105.716 251.727 105.889 251.397 106.237C251.075 106.575 250.915 107.066 250.915 107.708V111.719H249.43V104.544H250.915V105.364C251.158 105.069 251.466 104.839 251.839 104.674C252.221 104.509 252.625 104.427 253.05 104.427ZM35.6703 127.099C35.6703 126.378 35.8179 125.74 36.113 125.185C36.4169 124.629 36.8249 124.199 37.3371 123.895C37.8579 123.583 38.4309 123.427 39.0559 123.427C39.6202 123.427 40.1106 123.54 40.5273 123.765C40.9527 123.982 41.2913 124.256 41.543 124.586V123.544H43.0405V130.719H41.543V129.651C41.2913 129.99 40.9484 130.272 40.5143 130.497C40.0803 130.723 39.5854 130.836 39.0299 130.836C38.4135 130.836 37.8492 130.68 37.3371 130.367C36.8249 130.046 36.4169 129.603 36.113 129.039C35.8179 128.466 35.6703 127.819 35.6703 127.099ZM41.543 127.125C41.543 126.63 41.4388 126.2 41.2305 125.836C41.0308 125.471 40.7661 125.193 40.4362 125.002C40.1063 124.811 39.7504 124.716 39.3684 124.716C38.9864 124.716 38.6305 124.811 38.3006 125.002C37.9708 125.185 37.7017 125.458 37.4933 125.823C37.2937 126.179 37.1938 126.604 37.1938 127.099C37.1938 127.594 37.2937 128.028 37.4933 128.401C37.7017 128.774 37.9708 129.061 38.3006 129.26C38.6392 129.451 38.9951 129.547 39.3684 129.547C39.7504 129.547 40.1063 129.451 40.4362 129.26C40.7661 129.069 41.0308 128.792 41.2305 128.427C41.4388 128.054 41.543 127.62 41.543 127.125ZM48.6102 123.427C49.1745 123.427 49.678 123.544 50.1207 123.778C50.5721 124.013 50.9237 124.36 51.1755 124.82C51.4272 125.28 51.5531 125.836 51.5531 126.487V130.719H50.0817V126.708C50.0817 126.066 49.9211 125.575 49.5999 125.237C49.2787 124.889 48.8403 124.716 48.2847 124.716C47.7291 124.716 47.2864 124.889 46.9565 125.237C46.6353 125.575 46.4747 126.066 46.4747 126.708V130.719H44.9902V123.544H46.4747V124.364C46.7178 124.069 47.0259 123.839 47.3992 123.674C47.7812 123.509 48.1849 123.427 48.6102 123.427ZM52.9518 127.099C52.9518 126.378 53.0994 125.74 53.3945 125.185C53.6983 124.629 54.1063 124.199 54.6185 123.895C55.1394 123.583 55.7167 123.427 56.3504 123.427C56.8192 123.427 57.2793 123.531 57.7307 123.739C58.1908 123.939 58.5554 124.208 58.8245 124.547V121.083H60.3219V130.719H58.8245V129.638C58.5814 129.985 58.2428 130.272 57.8088 130.497C57.3834 130.723 56.893 130.836 56.3374 130.836C55.7123 130.836 55.1394 130.68 54.6185 130.367C54.1063 130.046 53.6983 129.603 53.3945 129.039C53.0994 128.466 52.9518 127.819 52.9518 127.099ZM58.8245 127.125C58.8245 126.63 58.7203 126.2 58.512 125.836C58.3123 125.471 58.0475 125.193 57.7176 125.002C57.3878 124.811 57.0318 124.716 56.6499 124.716C56.2679 124.716 55.912 124.811 55.5821 125.002C55.2522 125.185 54.9831 125.458 54.7748 125.823C54.5751 126.179 54.4753 126.604 54.4753 127.099C54.4753 127.594 54.5751 128.028 54.7748 128.401C54.9831 128.774 55.2522 129.061 55.5821 129.26C55.9207 129.451 56.2766 129.547 56.6499 129.547C57.0318 129.547 57.3878 129.451 57.7176 129.26C58.0475 129.069 58.3123 128.792 58.512 128.427C58.7203 128.054 58.8245 127.62 58.8245 127.125ZM65.1594 127.099C65.1594 126.378 65.307 125.74 65.6022 125.185C65.906 124.629 66.314 124.199 66.8262 123.895C67.347 123.583 67.92 123.427 68.545 123.427C69.1093 123.427 69.5998 123.54 70.0165 123.765C70.4418 123.982 70.7804 124.256 71.0321 124.586V123.544H72.5296V130.719H71.0321V129.651C70.7804 129.99 70.4375 130.272 70.0034 130.497C69.5694 130.723 69.0746 130.836 68.519 130.836C67.9026 130.836 67.3384 130.68 66.8262 130.367C66.314 130.046 65.906 129.603 65.6022 129.039C65.307 128.466 65.1594 127.819 65.1594 127.099ZM71.0321 127.125C71.0321 126.63 70.928 126.2 70.7196 125.836C70.52 125.471 70.2552 125.193 69.9253 125.002C69.5954 124.811 69.2395 124.716 68.8575 124.716C68.4756 124.716 68.1197 124.811 67.7898 125.002C67.4599 125.185 67.1908 125.458 66.9824 125.823C66.7828 126.179 66.683 126.604 66.683 127.099C66.683 127.594 66.7828 128.028 66.9824 128.401C67.1908 128.774 67.4599 129.061 67.7898 129.26C68.1283 129.451 68.4843 129.547 68.8575 129.547C69.2395 129.547 69.5954 129.451 69.9253 129.26C70.2552 129.069 70.52 128.792 70.7196 128.427C70.928 128.054 71.0321 127.62 71.0321 127.125ZM75.9638 124.599C76.2156 124.269 76.5585 123.991 76.9925 123.765C77.4266 123.54 77.9171 123.427 78.464 123.427C79.089 123.427 79.6576 123.583 80.1698 123.895C80.6906 124.199 81.0986 124.629 81.3938 125.185C81.6889 125.74 81.8365 126.378 81.8365 127.099C81.8365 127.819 81.6889 128.466 81.3938 129.039C81.0986 129.603 80.6906 130.046 80.1698 130.367C79.6576 130.68 79.089 130.836 78.464 130.836C77.9171 130.836 77.4309 130.727 77.0055 130.51C76.5802 130.285 76.2329 130.007 75.9638 129.677V134.13H74.4794V123.544H75.9638V124.599ZM80.326 127.099C80.326 126.604 80.2219 126.179 80.0135 125.823C79.8139 125.458 79.5447 125.185 79.2062 125.002C78.8763 124.811 78.5204 124.716 78.1384 124.716C77.7651 124.716 77.4092 124.811 77.0707 125.002C76.7408 125.193 76.4717 125.471 76.2633 125.836C76.0637 126.2 75.9638 126.63 75.9638 127.125C75.9638 127.62 76.0637 128.054 76.2633 128.427C76.4717 128.792 76.7408 129.069 77.0707 129.26C77.4092 129.451 77.7651 129.547 78.1384 129.547C78.5204 129.547 78.8763 129.451 79.2062 129.26C79.5447 129.061 79.8139 128.774 80.0135 128.401C80.2219 128.028 80.326 127.594 80.326 127.099ZM84.7889 124.599C85.0407 124.269 85.3836 123.991 85.8176 123.765C86.2517 123.54 86.7422 123.427 87.2891 123.427C87.9141 123.427 88.4827 123.583 88.9949 123.895C89.5158 124.199 89.9238 124.629 90.2189 125.185C90.5141 125.74 90.6616 126.378 90.6616 127.099C90.6616 127.819 90.5141 128.466 90.2189 129.039C89.9238 129.603 89.5158 130.046 88.9949 130.367C88.4827 130.68 87.9141 130.836 87.2891 130.836C86.7422 130.836 86.256 130.727 85.8307 130.51C85.4053 130.285 85.0581 130.007 84.7889 129.677V134.13H83.3045V123.544H84.7889V124.599ZM89.1512 127.099C89.1512 126.604 89.047 126.179 88.8386 125.823C88.639 125.458 88.3699 125.185 88.0313 125.002C87.7014 124.811 87.3455 124.716 86.9635 124.716C86.5903 124.716 86.2343 124.811 85.8958 125.002C85.5659 125.193 85.2968 125.471 85.0884 125.836C84.8888 126.2 84.7889 126.63 84.7889 127.125C84.7889 127.62 84.8888 128.054 85.0884 128.427C85.2968 128.792 85.5659 129.069 85.8958 129.26C86.2343 129.451 86.5903 129.547 86.9635 129.547C87.3455 129.547 87.7014 129.451 88.0313 129.26C88.3699 129.061 88.639 128.774 88.8386 128.401C89.047 128.028 89.1512 127.594 89.1512 127.099ZM93.6141 124.586C93.8311 124.221 94.1176 123.939 94.4735 123.739C94.8381 123.531 95.2678 123.427 95.7626 123.427V124.963H95.385C94.8034 124.963 94.3606 125.111 94.0568 125.406C93.7616 125.701 93.6141 126.213 93.6141 126.943V130.719H92.1296V123.544H93.6141V124.586ZM100.239 130.836C99.5622 130.836 98.9501 130.684 98.4032 130.38C97.8563 130.068 97.4266 129.634 97.1141 129.078C96.8016 128.514 96.6453 127.863 96.6453 127.125C96.6453 126.396 96.8059 125.749 97.1271 125.185C97.4483 124.62 97.8867 124.186 98.4423 123.882C98.9979 123.579 99.6186 123.427 100.304 123.427C100.99 123.427 101.611 123.579 102.166 123.882C102.722 124.186 103.16 124.62 103.482 125.185C103.803 125.749 103.963 126.396 103.963 127.125C103.963 127.854 103.798 128.501 103.469 129.065C103.139 129.629 102.687 130.068 102.114 130.38C101.55 130.684 100.925 130.836 100.239 130.836ZM100.239 129.547C100.621 129.547 100.977 129.456 101.307 129.273C101.646 129.091 101.919 128.818 102.127 128.453C102.336 128.088 102.44 127.646 102.44 127.125C102.44 126.604 102.34 126.166 102.14 125.81C101.941 125.445 101.676 125.172 101.346 124.989C101.016 124.807 100.66 124.716 100.278 124.716C99.8964 124.716 99.5405 124.807 99.2106 124.989C98.8894 125.172 98.6333 125.445 98.4423 125.81C98.2513 126.166 98.1558 126.604 98.1558 127.125C98.1558 127.897 98.3512 128.496 98.7418 128.922C99.1411 129.338 99.6403 129.547 100.239 129.547ZM108.204 129.391L110.236 123.544H111.811L109.077 130.719H107.306L104.584 123.544H106.173L108.204 129.391ZM112.439 127.099C112.439 126.378 112.586 125.74 112.881 125.185C113.185 124.629 113.593 124.199 114.105 123.895C114.626 123.583 115.199 123.427 115.824 123.427C116.389 123.427 116.879 123.54 117.296 123.765C117.721 123.982 118.06 124.256 118.311 124.586V123.544H119.809V130.719H118.311V129.651C118.06 129.99 117.717 130.272 117.283 130.497C116.849 130.723 116.354 130.836 115.798 130.836C115.182 130.836 114.618 130.68 114.105 130.367C113.593 130.046 113.185 129.603 112.881 129.039C112.586 128.466 112.439 127.819 112.439 127.099ZM118.311 127.125C118.311 126.63 118.207 126.2 117.999 125.836C117.799 125.471 117.534 125.193 117.205 125.002C116.875 124.811 116.519 124.716 116.137 124.716C115.755 124.716 115.399 124.811 115.069 125.002C114.739 125.185 114.47 125.458 114.262 125.823C114.062 126.179 113.962 126.604 113.962 127.099C113.962 127.594 114.062 128.028 114.262 128.401C114.47 128.774 114.739 129.061 115.069 129.26C115.408 129.451 115.764 129.547 116.137 129.547C116.519 129.547 116.875 129.451 117.205 129.26C117.534 129.069 117.799 128.792 117.999 128.427C118.207 128.054 118.311 127.62 118.311 127.125ZM123.243 121.083V130.719H121.759V121.083H123.243ZM25.4099 147.075C25.0974 147.075 24.8109 147.002 24.5505 146.854C24.2987 146.698 24.0947 146.494 23.9385 146.242C23.7909 145.982 23.7171 145.695 23.7171 145.383C23.7171 144.905 23.8821 144.501 24.2119 144.172C24.5418 143.842 24.9411 143.677 25.4099 143.677C25.8961 143.677 26.3041 143.842 26.6339 144.172C26.9638 144.501 27.1288 144.905 27.1288 145.383C27.1288 145.86 26.9638 146.264 26.6339 146.594C26.3041 146.915 25.8961 147.075 25.4099 147.075ZM43.965 140.669L40.5664 149.719H38.8476L35.4359 140.669H37.0245L39.707 148.195L42.4024 140.669H43.965ZM46.6909 140.669V149.719H45.2064V140.669H46.6909ZM54.9683 143.364C54.9683 143.824 54.8598 144.258 54.6427 144.666C54.4257 145.074 54.0785 145.409 53.601 145.669C53.1236 145.921 52.5116 146.047 51.765 146.047H50.1243V149.719H48.6398V140.669H51.765C52.4595 140.669 53.0454 140.79 53.5229 141.033C54.009 141.268 54.3693 141.589 54.6037 141.997C54.8467 142.405 54.9683 142.861 54.9683 143.364ZM51.765 144.836C52.3293 144.836 52.7503 144.71 53.0281 144.458C53.3059 144.198 53.4448 143.833 53.4448 143.364C53.4448 142.375 52.8848 141.88 51.765 141.88H50.1243V144.836H51.765ZM66.0951 143.364C66.0951 143.824 65.9865 144.258 65.7695 144.666C65.5525 145.074 65.2052 145.409 64.7278 145.669C64.2503 145.921 63.6383 146.047 62.8918 146.047H61.2511V149.719H59.7666V140.669H62.8918C63.5862 140.669 64.1722 140.79 64.6497 141.033C65.1358 141.268 65.4961 141.589 65.7304 141.997C65.9735 142.405 66.0951 142.861 66.0951 143.364ZM62.8918 144.836C63.456 144.836 63.8771 144.71 64.1548 144.458C64.4326 144.198 64.5715 143.833 64.5715 143.364C64.5715 142.375 64.0116 141.88 62.8918 141.88H61.2511V144.836H62.8918ZM68.9953 143.586C69.2123 143.221 69.4988 142.939 69.8547 142.739C70.2193 142.531 70.649 142.427 71.1438 142.427V143.963H70.7662C70.1846 143.963 69.7419 144.111 69.438 144.406C69.1429 144.701 68.9953 145.213 68.9953 145.943V149.719H67.5108V142.544H68.9953V143.586ZM75.6205 149.836C74.9434 149.836 74.3314 149.684 73.7845 149.38C73.2375 149.068 72.8078 148.634 72.4953 148.078C72.1828 147.514 72.0265 146.863 72.0265 146.125C72.0265 145.396 72.1871 144.749 72.5083 144.185C72.8295 143.62 73.2679 143.186 73.8235 142.882C74.3791 142.579 74.9998 142.427 75.6856 142.427C76.3714 142.427 76.9921 142.579 77.5477 142.882C78.1033 143.186 78.5416 143.62 78.8628 144.185C79.184 144.749 79.3446 145.396 79.3446 146.125C79.3446 146.854 79.1797 147.501 78.8498 148.065C78.5199 148.629 78.0685 149.068 77.4956 149.38C76.9313 149.684 76.3063 149.836 75.6205 149.836ZM75.6205 148.547C76.0024 148.547 76.3584 148.456 76.6882 148.273C77.0268 148.091 77.3003 147.818 77.5086 147.453C77.7169 147.088 77.8211 146.646 77.8211 146.125C77.8211 145.604 77.7213 145.166 77.5216 144.81C77.322 144.445 77.0572 144.172 76.7273 143.989C76.3974 143.807 76.0415 143.716 75.6595 143.716C75.2776 143.716 74.9217 143.807 74.5918 143.989C74.2706 144.172 74.0145 144.445 73.8235 144.81C73.6325 145.166 73.537 145.604 73.537 146.125C73.537 146.897 73.7324 147.496 74.123 147.922C74.5223 148.338 75.0215 148.547 75.6205 148.547ZM82.2966 143.599C82.5483 143.269 82.8912 142.991 83.3253 142.765C83.7593 142.54 84.2498 142.427 84.7967 142.427C85.4217 142.427 85.9903 142.583 86.5025 142.895C87.0234 143.199 87.4314 143.629 87.7265 144.185C88.0217 144.74 88.1693 145.378 88.1693 146.099C88.1693 146.819 88.0217 147.466 87.7265 148.039C87.4314 148.603 87.0234 149.046 86.5025 149.367C85.9903 149.68 85.4217 149.836 84.7967 149.836C84.2498 149.836 83.7636 149.727 83.3383 149.51C82.9129 149.285 82.5657 149.007 82.2966 148.677V153.13H80.8121V142.544H82.2966V143.599ZM86.6588 146.099C86.6588 145.604 86.5546 145.179 86.3462 144.823C86.1466 144.458 85.8775 144.185 85.5389 144.002C85.209 143.811 84.8531 143.716 84.4711 143.716C84.0979 143.716 83.7419 143.811 83.4034 144.002C83.0735 144.193 82.8044 144.471 82.596 144.836C82.3964 145.2 82.2966 145.63 82.2966 146.125C82.2966 146.62 82.3964 147.054 82.596 147.427C82.8044 147.792 83.0735 148.069 83.4034 148.26C83.7419 148.451 84.0979 148.547 84.4711 148.547C84.8531 148.547 85.209 148.451 85.5389 148.26C85.8775 148.061 86.1466 147.774 86.3462 147.401C86.5546 147.028 86.6588 146.594 86.6588 146.099ZM92.7494 149.836C92.0722 149.836 91.4602 149.684 90.9133 149.38C90.3664 149.068 89.9367 148.634 89.6242 148.078C89.3117 147.514 89.1554 146.863 89.1554 146.125C89.1554 145.396 89.316 144.749 89.6372 144.185C89.9584 143.62 90.3968 143.186 90.9524 142.882C91.508 142.579 92.1287 142.427 92.8145 142.427C93.5003 142.427 94.121 142.579 94.6765 142.882C95.2321 143.186 95.6705 143.62 95.9917 144.185C96.3129 144.749 96.4735 145.396 96.4735 146.125C96.4735 146.854 96.3086 147.501 95.9787 148.065C95.6488 148.629 95.1974 149.068 94.6245 149.38C94.0602 149.684 93.4352 149.836 92.7494 149.836ZM92.7494 148.547C93.1313 148.547 93.4872 148.456 93.8171 148.273C94.1557 148.091 94.4291 147.818 94.6375 147.453C94.8458 147.088 94.95 146.646 94.95 146.125C94.95 145.604 94.8502 145.166 94.6505 144.81C94.4508 144.445 94.1861 144.172 93.8562 143.989C93.5263 143.807 93.1704 143.716 92.7884 143.716C92.4065 143.716 92.0505 143.807 91.7207 143.989C91.3995 144.172 91.1434 144.445 90.9524 144.81C90.7614 145.166 90.6659 145.604 90.6659 146.125C90.6659 146.897 90.8612 147.496 91.2519 147.922C91.6512 148.338 92.1504 148.547 92.7494 148.547ZM100.545 149.836C99.981 149.836 99.4732 149.736 99.0218 149.536C98.579 149.328 98.2274 149.05 97.967 148.703C97.7066 148.347 97.5677 147.952 97.5503 147.518H99.0869C99.1129 147.822 99.2561 148.078 99.5166 148.286C99.7857 148.486 100.12 148.586 100.519 148.586C100.936 148.586 101.257 148.508 101.483 148.351C101.717 148.187 101.834 147.978 101.834 147.726C101.834 147.457 101.704 147.258 101.444 147.127C101.192 146.997 100.788 146.854 100.233 146.698C99.6945 146.55 99.2561 146.407 98.9176 146.268C98.579 146.129 98.2839 145.916 98.0321 145.63C97.7891 145.344 97.6675 144.966 97.6675 144.497C97.6675 144.115 97.7804 143.768 98.0061 143.455C98.2318 143.134 98.553 142.882 98.9697 142.7C99.395 142.518 99.8812 142.427 100.428 142.427C101.244 142.427 101.9 142.635 102.394 143.052C102.898 143.46 103.167 144.02 103.202 144.732H101.717C101.691 144.41 101.561 144.154 101.327 143.963C101.092 143.772 100.775 143.677 100.376 143.677C99.9854 143.677 99.6859 143.751 99.4775 143.898C99.2692 144.046 99.165 144.241 99.165 144.484C99.165 144.675 99.2344 144.836 99.3733 144.966C99.5122 145.096 99.6815 145.2 99.8812 145.278C100.081 145.348 100.376 145.439 100.767 145.552C101.288 145.691 101.713 145.834 102.043 145.982C102.381 146.12 102.672 146.329 102.915 146.607C103.158 146.884 103.284 147.253 103.293 147.713C103.293 148.121 103.18 148.486 102.954 148.807C102.729 149.128 102.407 149.38 101.991 149.562C101.583 149.745 101.101 149.836 100.545 149.836ZM104.402 146.099C104.402 145.378 104.55 144.74 104.845 144.185C105.149 143.629 105.557 143.199 106.069 142.895C106.59 142.583 107.163 142.427 107.788 142.427C108.352 142.427 108.842 142.54 109.259 142.765C109.684 142.982 110.023 143.256 110.275 143.586V142.544H111.772V149.719H110.275V148.651C110.023 148.99 109.68 149.272 109.246 149.497C108.812 149.723 108.317 149.836 107.762 149.836C107.145 149.836 106.581 149.68 106.069 149.367C105.557 149.046 105.149 148.603 104.845 148.039C104.55 147.466 104.402 146.819 104.402 146.099ZM110.275 146.125C110.275 145.63 110.171 145.2 109.962 144.836C109.762 144.471 109.498 144.193 109.168 144.002C108.838 143.811 108.482 143.716 108.1 143.716C107.718 143.716 107.362 143.811 107.032 144.002C106.702 144.185 106.433 144.458 106.225 144.823C106.025 145.179 105.925 145.604 105.925 146.099C105.925 146.594 106.025 147.028 106.225 147.401C106.433 147.774 106.702 148.061 107.032 148.26C107.371 148.451 107.727 148.547 108.1 148.547C108.482 148.547 108.838 148.451 109.168 148.26C109.498 148.069 109.762 147.792 109.962 147.427C110.171 147.054 110.275 146.62 110.275 146.125ZM115.206 140.083V149.719H113.722V140.083H115.206ZM119.76 149.836C119.195 149.836 118.688 149.736 118.236 149.536C117.793 149.328 117.442 149.05 117.181 148.703C116.921 148.347 116.782 147.952 116.765 147.518H118.301C118.327 147.822 118.47 148.078 118.731 148.286C119 148.486 119.334 148.586 119.734 148.586C120.15 148.586 120.471 148.508 120.697 148.351C120.932 148.187 121.049 147.978 121.049 147.726C121.049 147.457 120.919 147.258 120.658 147.127C120.406 146.997 120.003 146.854 119.447 146.698C118.909 146.55 118.47 146.407 118.132 146.268C117.793 146.129 117.498 145.916 117.246 145.63C117.003 145.344 116.882 144.966 116.882 144.497C116.882 144.115 116.995 143.768 117.22 143.455C117.446 143.134 117.767 142.882 118.184 142.7C118.609 142.518 119.096 142.427 119.642 142.427C120.458 142.427 121.114 142.635 121.609 143.052C122.112 143.46 122.381 144.02 122.416 144.732H120.932C120.906 144.41 120.775 144.154 120.541 143.963C120.307 143.772 119.99 143.677 119.59 143.677C119.2 143.677 118.9 143.751 118.692 143.898C118.484 144.046 118.379 144.241 118.379 144.484C118.379 144.675 118.449 144.836 118.588 144.966C118.727 145.096 118.896 145.2 119.096 145.278C119.295 145.348 119.59 145.439 119.981 145.552C120.502 145.691 120.927 145.834 121.257 145.982C121.596 146.12 121.886 146.329 122.13 146.607C122.373 146.884 122.498 147.253 122.507 147.713C122.507 148.121 122.394 148.486 122.169 148.807C121.943 149.128 121.622 149.38 121.205 149.562C120.797 149.745 120.315 149.836 119.76 149.836ZM137.13 142.544L134.903 149.719H133.34L131.895 144.419L130.45 149.719H128.887L126.647 142.544H128.158L129.655 148.312L131.179 142.544H132.728L134.187 148.286L135.671 142.544H137.13ZM138.994 141.593C138.725 141.593 138.499 141.502 138.317 141.32C138.135 141.138 138.044 140.912 138.044 140.643C138.044 140.374 138.135 140.148 138.317 139.966C138.499 139.783 138.725 139.692 138.994 139.692C139.255 139.692 139.476 139.783 139.658 139.966C139.841 140.148 139.932 140.374 139.932 140.643C139.932 140.912 139.841 141.138 139.658 141.32C139.476 141.502 139.255 141.593 138.994 141.593ZM139.723 142.544V149.719H138.239V142.544H139.723ZM143.157 140.083V149.719H141.672V140.083H143.157ZM146.59 140.083V149.719H145.106V140.083H146.59ZM151.427 146.099C151.427 145.378 151.574 144.74 151.87 144.185C152.173 143.629 152.581 143.199 153.094 142.895C153.615 142.583 154.192 142.427 154.826 142.427C155.294 142.427 155.754 142.531 156.206 142.739C156.666 142.939 157.03 143.208 157.3 143.547V140.083H158.797V149.719H157.3V148.638C157.057 148.985 156.718 149.272 156.284 149.497C155.859 149.723 155.368 149.836 154.813 149.836C154.187 149.836 153.615 149.68 153.094 149.367C152.581 149.046 152.173 148.603 151.87 148.039C151.574 147.466 151.427 146.819 151.427 146.099ZM157.3 146.125C157.3 145.63 157.195 145.2 156.987 144.836C156.787 144.471 156.523 144.193 156.193 144.002C155.863 143.811 155.507 143.716 155.125 143.716C154.743 143.716 154.387 143.811 154.057 144.002C153.727 144.185 153.458 144.458 153.25 144.823C153.05 145.179 152.95 145.604 152.95 146.099C152.95 146.594 153.05 147.028 153.25 147.401C153.458 147.774 153.727 148.061 154.057 148.26C154.396 148.451 154.752 148.547 155.125 148.547C155.507 148.547 155.863 148.451 156.193 148.26C156.523 148.069 156.787 147.792 156.987 147.427C157.195 147.054 157.3 146.62 157.3 146.125ZM161.502 141.593C161.233 141.593 161.007 141.502 160.825 141.32C160.643 141.138 160.552 140.912 160.552 140.643C160.552 140.374 160.643 140.148 160.825 139.966C161.007 139.783 161.233 139.692 161.502 139.692C161.763 139.692 161.984 139.783 162.166 139.966C162.348 140.148 162.44 140.374 162.44 140.643C162.44 140.912 162.348 141.138 162.166 141.32C161.984 141.502 161.763 141.593 161.502 141.593ZM162.231 142.544V149.719H160.747V142.544H162.231ZM163.685 146.125C163.685 145.387 163.833 144.74 164.128 144.185C164.432 143.62 164.849 143.186 165.378 142.882C165.908 142.579 166.515 142.427 167.201 142.427C168.069 142.427 168.786 142.635 169.35 143.052C169.923 143.46 170.309 144.046 170.509 144.81H168.907C168.777 144.454 168.569 144.176 168.282 143.976C167.996 143.777 167.635 143.677 167.201 143.677C166.594 143.677 166.107 143.894 165.743 144.328C165.387 144.753 165.209 145.352 165.209 146.125C165.209 146.897 165.387 147.501 165.743 147.935C166.107 148.369 166.594 148.586 167.201 148.586C168.061 148.586 168.629 148.208 168.907 147.453H170.509C170.3 148.182 169.91 148.764 169.337 149.198C168.764 149.623 168.052 149.836 167.201 149.836C166.515 149.836 165.908 149.684 165.378 149.38C164.849 149.068 164.432 148.634 164.128 148.078C163.833 147.514 163.685 146.863 163.685 146.125ZM173.72 143.755V147.726C173.72 147.996 173.781 148.191 173.902 148.312C174.032 148.425 174.249 148.482 174.553 148.482H175.465V149.719H174.293C173.624 149.719 173.112 149.562 172.756 149.25C172.4 148.937 172.222 148.43 172.222 147.726V143.755H171.376V142.544H172.222V140.76H173.72V142.544H175.465V143.755H173.72ZM176.338 146.099C176.338 145.378 176.486 144.74 176.781 144.185C177.085 143.629 177.493 143.199 178.005 142.895C178.526 142.583 179.099 142.427 179.724 142.427C180.288 142.427 180.778 142.54 181.195 142.765C181.621 142.982 181.959 143.256 182.211 143.586V142.544H183.708V149.719H182.211V148.651C181.959 148.99 181.616 149.272 181.182 149.497C180.748 149.723 180.253 149.836 179.698 149.836C179.081 149.836 178.517 149.68 178.005 149.367C177.493 149.046 177.085 148.603 176.781 148.039C176.486 147.466 176.338 146.819 176.338 146.099ZM182.211 146.125C182.211 145.63 182.107 145.2 181.898 144.836C181.699 144.471 181.434 144.193 181.104 144.002C180.774 143.811 180.418 143.716 180.036 143.716C179.654 143.716 179.298 143.811 178.969 144.002C178.639 144.185 178.37 144.458 178.161 144.823C177.962 145.179 177.862 145.604 177.862 146.099C177.862 146.594 177.962 147.028 178.161 147.401C178.37 147.774 178.639 148.061 178.969 148.26C179.307 148.451 179.663 148.547 180.036 148.547C180.418 148.547 180.774 148.451 181.104 148.26C181.434 148.069 181.699 147.792 181.898 147.427C182.107 147.054 182.211 146.62 182.211 146.125ZM187.39 143.755V147.726C187.39 147.996 187.451 148.191 187.572 148.312C187.702 148.425 187.92 148.482 188.223 148.482H189.135V149.719H187.963C187.294 149.719 186.782 149.562 186.426 149.25C186.07 148.937 185.892 148.43 185.892 147.726V143.755H185.046V142.544H185.892V140.76H187.39V142.544H189.135V143.755H187.39ZM197.079 145.956C197.079 146.225 197.062 146.468 197.027 146.685H191.545C191.588 147.258 191.801 147.718 192.183 148.065C192.565 148.412 193.034 148.586 193.589 148.586C194.388 148.586 194.952 148.252 195.282 147.583H196.884C196.667 148.243 196.272 148.786 195.699 149.211C195.134 149.628 194.431 149.836 193.589 149.836C192.903 149.836 192.287 149.684 191.74 149.38C191.202 149.068 190.776 148.634 190.464 148.078C190.16 147.514 190.008 146.863 190.008 146.125C190.008 145.387 190.156 144.74 190.451 144.185C190.755 143.62 191.176 143.186 191.714 142.882C192.261 142.579 192.886 142.427 193.589 142.427C194.266 142.427 194.87 142.574 195.399 142.869C195.929 143.165 196.341 143.581 196.636 144.12C196.931 144.649 197.079 145.261 197.079 145.956ZM195.529 145.487C195.521 144.94 195.325 144.501 194.943 144.172C194.561 143.842 194.088 143.677 193.524 143.677C193.012 143.677 192.573 143.842 192.209 144.172C191.844 144.493 191.627 144.931 191.558 145.487H195.529ZM203.407 143.586C203.624 143.221 203.91 142.939 204.266 142.739C204.631 142.531 205.06 142.427 205.555 142.427V143.963H205.178C204.596 143.963 204.153 144.111 203.849 144.406C203.554 144.701 203.407 145.213 203.407 145.943V149.719H201.922V142.544H203.407V143.586ZM213.496 145.956C213.496 146.225 213.478 146.468 213.444 146.685H207.962C208.005 147.258 208.218 147.718 208.6 148.065C208.982 148.412 209.45 148.586 210.006 148.586C210.805 148.586 211.369 148.252 211.699 147.583H213.3C213.083 148.243 212.688 148.786 212.115 149.211C211.551 149.628 210.848 149.836 210.006 149.836C209.32 149.836 208.704 149.684 208.157 149.38C207.619 149.068 207.193 148.634 206.881 148.078C206.577 147.514 206.425 146.863 206.425 146.125C206.425 145.387 206.573 144.74 206.868 144.185C207.172 143.62 207.593 143.186 208.131 142.882C208.678 142.579 209.303 142.427 210.006 142.427C210.683 142.427 211.286 142.574 211.816 142.869C212.345 143.165 212.758 143.581 213.053 144.12C213.348 144.649 213.496 145.261 213.496 145.956ZM211.946 145.487C211.937 144.94 211.742 144.501 211.36 144.172C210.978 143.842 210.505 143.677 209.941 143.677C209.429 143.677 208.99 143.842 208.626 144.172C208.261 144.493 208.044 144.931 207.975 145.487H211.946ZM224.592 142.544L222.366 149.719H220.803L219.358 144.419L217.912 149.719H216.35L214.11 142.544H215.621L217.118 148.312L218.642 142.544H220.191L221.65 148.286L223.134 142.544H224.592ZM225.207 146.099C225.207 145.378 225.355 144.74 225.65 144.185C225.954 143.629 226.362 143.199 226.874 142.895C227.395 142.583 227.968 142.427 228.593 142.427C229.157 142.427 229.647 142.54 230.064 142.765C230.489 142.982 230.828 143.256 231.08 143.586V142.544H232.577V149.719H231.08V148.651C230.828 148.99 230.485 149.272 230.051 149.497C229.617 149.723 229.122 149.836 228.567 149.836C227.95 149.836 227.386 149.68 226.874 149.367C226.362 149.046 225.954 148.603 225.65 148.039C225.355 147.466 225.207 146.819 225.207 146.099ZM231.08 146.125C231.08 145.63 230.975 145.2 230.767 144.836C230.567 144.471 230.303 144.193 229.973 144.002C229.643 143.811 229.287 143.716 228.905 143.716C228.523 143.716 228.167 143.811 227.837 144.002C227.507 144.185 227.238 144.458 227.03 144.823C226.83 145.179 226.73 145.604 226.73 146.099C226.73 146.594 226.83 147.028 227.03 147.401C227.238 147.774 227.507 148.061 227.837 148.26C228.176 148.451 228.532 148.547 228.905 148.547C229.287 148.547 229.643 148.451 229.973 148.26C230.303 148.069 230.567 147.792 230.767 147.427C230.975 147.054 231.08 146.62 231.08 146.125ZM236.011 143.586C236.228 143.221 236.515 142.939 236.871 142.739C237.235 142.531 237.665 142.427 238.16 142.427V143.963H237.782C237.201 143.963 236.758 144.111 236.454 144.406C236.159 144.701 236.011 145.213 236.011 145.943V149.719H234.527V142.544H236.011V143.586ZM239.03 146.099C239.03 145.378 239.177 144.74 239.472 144.185C239.776 143.629 240.184 143.199 240.696 142.895C241.217 142.583 241.795 142.427 242.428 142.427C242.897 142.427 243.357 142.531 243.808 142.739C244.269 142.939 244.633 143.208 244.902 143.547V140.083H246.4V149.719H244.902V148.638C244.659 148.985 244.321 149.272 243.887 149.497C243.461 149.723 242.971 149.836 242.415 149.836C241.79 149.836 241.217 149.68 240.696 149.367C240.184 149.046 239.776 148.603 239.472 148.039C239.177 147.466 239.03 146.819 239.03 146.099ZM244.902 146.125C244.902 145.63 244.798 145.2 244.59 144.836C244.39 144.471 244.125 144.193 243.795 144.002C243.466 143.811 243.11 143.716 242.728 143.716C242.346 143.716 241.99 143.811 241.66 144.002C241.33 144.185 241.061 144.458 240.853 144.823C240.653 145.179 240.553 145.604 240.553 146.099C240.553 146.594 240.653 147.028 240.853 147.401C241.061 147.774 241.33 148.061 241.66 148.26C241.999 148.451 242.354 148.547 242.728 148.547C243.11 148.547 243.466 148.451 243.795 148.26C244.125 148.069 244.39 147.792 244.59 147.427C244.798 147.054 244.902 146.62 244.902 146.125ZM250.954 149.836C250.39 149.836 249.882 149.736 249.43 149.536C248.988 149.328 248.636 149.05 248.376 148.703C248.115 148.347 247.976 147.952 247.959 147.518H249.495C249.521 147.822 249.665 148.078 249.925 148.286C250.194 148.486 250.528 148.586 250.928 148.586C251.344 148.586 251.666 148.508 251.891 148.351C252.126 148.187 252.243 147.978 252.243 147.726C252.243 147.457 252.113 147.258 251.852 147.127C251.601 146.997 251.197 146.854 250.641 146.698C250.103 146.55 249.665 146.407 249.326 146.268C248.988 146.129 248.692 145.916 248.441 145.63C248.198 145.344 248.076 144.966 248.076 144.497C248.076 144.115 248.189 143.768 248.415 143.455C248.64 143.134 248.962 142.882 249.378 142.7C249.804 142.518 250.29 142.427 250.837 142.427C251.653 142.427 252.308 142.635 252.803 143.052C253.306 143.46 253.576 144.02 253.61 144.732H252.126C252.1 144.41 251.97 144.154 251.735 143.963C251.501 143.772 251.184 143.677 250.785 143.677C250.394 143.677 250.094 143.751 249.886 143.898C249.678 144.046 249.574 144.241 249.574 144.484C249.574 144.675 249.643 144.836 249.782 144.966C249.921 145.096 250.09 145.2 250.29 145.278C250.489 145.348 250.785 145.439 251.175 145.552C251.696 145.691 252.121 145.834 252.451 145.982C252.79 146.12 253.081 146.329 253.324 146.607C253.567 146.884 253.693 147.253 253.701 147.713C253.701 148.121 253.589 148.486 253.363 148.807C253.137 149.128 252.816 149.38 252.399 149.562C251.991 149.745 251.509 149.836 250.954 149.836ZM38.7694 167.836C38.2052 167.836 37.6973 167.736 37.2459 167.536C36.8032 167.328 36.4516 167.05 36.1912 166.703C35.9307 166.347 35.7918 165.952 35.7745 165.518H37.311C37.3371 165.822 37.4803 166.078 37.7407 166.286C38.0098 166.486 38.3441 166.586 38.7434 166.586C39.1601 166.586 39.4813 166.508 39.707 166.351C39.9414 166.187 40.0586 165.978 40.0586 165.726C40.0586 165.457 39.9283 165.258 39.6679 165.127C39.4162 164.997 39.0125 164.854 38.4569 164.698C37.9187 164.55 37.4803 164.407 37.1417 164.268C36.8032 164.129 36.508 163.916 36.2563 163.63C36.0132 163.344 35.8917 162.966 35.8917 162.497C35.8917 162.115 36.0045 161.768 36.2302 161.455C36.4559 161.134 36.7771 160.882 37.1938 160.7C37.6192 160.518 38.1053 160.427 38.6522 160.427C39.4682 160.427 40.1237 160.635 40.6185 161.052C41.122 161.46 41.3911 162.02 41.4258 162.732H39.9414C39.9153 162.41 39.7851 162.154 39.5507 161.963C39.3163 161.772 38.9995 161.677 38.6001 161.677C38.2095 161.677 37.91 161.751 37.7017 161.898C37.4933 162.046 37.3891 162.241 37.3891 162.484C37.3891 162.675 37.4586 162.836 37.5975 162.966C37.7364 163.096 37.9057 163.2 38.1053 163.278C38.305 163.348 38.6001 163.439 38.9908 163.552C39.5116 163.691 39.937 163.834 40.2669 163.982C40.6055 164.12 40.8963 164.329 41.1393 164.607C41.3824 164.884 41.5083 165.253 41.517 165.713C41.517 166.121 41.4041 166.486 41.1784 166.807C40.9527 167.128 40.6315 167.38 40.2148 167.562C39.8068 167.745 39.325 167.836 38.7694 167.836ZM46.8321 160.427C47.379 160.427 47.8651 160.544 48.2905 160.778C48.7245 161.013 49.0631 161.36 49.3062 161.82C49.5579 162.28 49.6838 162.836 49.6838 163.487V167.719H48.2124V163.708C48.2124 163.066 48.0518 162.575 47.7306 162.237C47.4094 161.889 46.971 161.716 46.4154 161.716C45.8598 161.716 45.4171 161.889 45.0872 162.237C44.766 162.575 44.6054 163.066 44.6054 163.708V167.719H43.1209V158.083H44.6054V161.377C44.8571 161.073 45.174 160.839 45.556 160.674C45.9466 160.509 46.372 160.427 46.8321 160.427ZM51.0825 164.099C51.0825 163.378 51.2301 162.74 51.5252 162.185C51.829 161.629 52.2371 161.199 52.7492 160.895C53.2701 160.583 53.843 160.427 54.4681 160.427C55.0323 160.427 55.5228 160.54 55.9395 160.765C56.3649 160.982 56.7034 161.256 56.9552 161.586V160.544H58.4526V167.719H56.9552V166.651C56.7034 166.99 56.3605 167.272 55.9265 167.497C55.4924 167.723 54.9976 167.836 54.442 167.836C53.8257 167.836 53.2614 167.68 52.7492 167.367C52.2371 167.046 51.829 166.603 51.5252 166.039C51.2301 165.466 51.0825 164.819 51.0825 164.099ZM56.9552 164.125C56.9552 163.63 56.851 163.2 56.6427 162.836C56.443 162.471 56.1782 162.193 55.8483 162.002C55.5185 161.811 55.1625 161.716 54.7806 161.716C54.3986 161.716 54.0427 161.811 53.7128 162.002C53.3829 162.185 53.1138 162.458 52.9055 162.823C52.7058 163.179 52.606 163.604 52.606 164.099C52.606 164.594 52.7058 165.028 52.9055 165.401C53.1138 165.774 53.3829 166.061 53.7128 166.26C54.0514 166.451 54.4073 166.547 54.7806 166.547C55.1625 166.547 55.5185 166.451 55.8483 166.26C56.1782 166.069 56.443 165.792 56.6427 165.427C56.851 165.054 56.9552 164.62 56.9552 164.125ZM61.8869 161.586C62.1039 161.221 62.3904 160.939 62.7463 160.739C63.1109 160.531 63.5406 160.427 64.0354 160.427V161.963H63.6578C63.0762 161.963 62.6334 162.111 62.3296 162.406C62.0344 162.701 61.8869 163.213 61.8869 163.943V167.719H60.4024V160.544H61.8869V161.586ZM66.1552 159.593C65.8861 159.593 65.6604 159.502 65.4781 159.32C65.2958 159.138 65.2046 158.912 65.2046 158.643C65.2046 158.374 65.2958 158.148 65.4781 157.966C65.6604 157.783 65.8861 157.692 66.1552 157.692C66.4156 157.692 66.637 157.783 66.8193 157.966C67.0016 158.148 67.0927 158.374 67.0927 158.643C67.0927 158.912 67.0016 159.138 66.8193 159.32C66.637 159.502 66.4156 159.593 66.1552 159.593ZM66.8844 160.544V167.719H65.3999V160.544H66.8844ZM72.4533 160.427C73.0176 160.427 73.5211 160.544 73.9638 160.778C74.4152 161.013 74.7668 161.36 75.0185 161.82C75.2703 162.28 75.3962 162.836 75.3962 163.487V167.719H73.9247V163.708C73.9247 163.066 73.7641 162.575 73.4429 162.237C73.1217 161.889 72.6834 161.716 72.1278 161.716C71.5722 161.716 71.1295 161.889 70.7996 162.237C70.4784 162.575 70.3178 163.066 70.3178 163.708V167.719H68.8333V160.544H70.3178V161.364C70.5609 161.069 70.869 160.839 71.2423 160.674C71.6243 160.509 72.0279 160.427 72.4533 160.427ZM80.1805 160.427C80.736 160.427 81.2265 160.54 81.6519 160.765C82.0859 160.982 82.4245 161.256 82.6676 161.586V160.544H84.165V167.836C84.165 168.496 84.0261 169.082 83.7483 169.594C83.4706 170.115 83.0669 170.523 82.5373 170.818C82.0165 171.113 81.3915 171.261 80.6623 171.261C79.69 171.261 78.8826 171.031 78.2403 170.57C77.5979 170.119 77.2333 169.503 77.1464 168.721H78.6179C78.7307 169.095 78.9695 169.394 79.3341 169.62C79.7073 169.854 80.1501 169.971 80.6623 169.971C81.2612 169.971 81.743 169.789 82.1076 169.425C82.4809 169.06 82.6676 168.53 82.6676 167.836V166.638C82.4158 166.977 82.0729 167.263 81.6389 167.497C81.2135 167.723 80.7274 167.836 80.1805 167.836C79.5554 167.836 78.9825 167.68 78.4616 167.367C77.9494 167.046 77.5414 166.603 77.2376 166.039C76.9424 165.466 76.7949 164.819 76.7949 164.099C76.7949 163.378 76.9424 162.74 77.2376 162.185C77.5414 161.629 77.9494 161.199 78.4616 160.895C78.9825 160.583 79.5554 160.427 80.1805 160.427ZM82.6676 164.125C82.6676 163.63 82.5634 163.2 82.355 162.836C82.1554 162.471 81.8906 162.193 81.5607 162.002C81.2309 161.811 80.8749 161.716 80.493 161.716C80.111 161.716 79.7551 161.811 79.4252 162.002C79.0953 162.185 78.8262 162.458 78.6179 162.823C78.4182 163.179 78.3184 163.604 78.3184 164.099C78.3184 164.594 78.4182 165.028 78.6179 165.401C78.8262 165.774 79.0953 166.061 79.4252 166.26C79.7638 166.451 80.1197 166.547 80.493 166.547C80.8749 166.547 81.2309 166.451 81.5607 166.26C81.8906 166.069 82.1554 165.792 82.355 165.427C82.5634 165.054 82.6676 164.62 82.6676 164.125ZM90.9818 161.586C91.1988 161.221 91.4853 160.939 91.8412 160.739C92.2058 160.531 92.6355 160.427 93.1303 160.427V161.963H92.7527C92.1711 161.963 91.7284 162.111 91.4245 162.406C91.1294 162.701 90.9818 163.213 90.9818 163.943V167.719H89.4973V160.544H90.9818V161.586ZM94 164.099C94 163.378 94.1476 162.74 94.4428 162.185C94.7466 161.629 95.1546 161.199 95.6668 160.895C96.1877 160.583 96.7606 160.427 97.3856 160.427C97.9499 160.427 98.4404 160.54 98.8571 160.765C99.2824 160.982 99.621 161.256 99.8727 161.586V160.544H101.37V167.719H99.8727V166.651C99.621 166.99 99.2781 167.272 98.844 167.497C98.41 167.723 97.9152 167.836 97.3596 167.836C96.7432 167.836 96.179 167.68 95.6668 167.367C95.1546 167.046 94.7466 166.603 94.4428 166.039C94.1476 165.466 94 164.819 94 164.099ZM99.8727 164.125C99.8727 163.63 99.7686 163.2 99.5602 162.836C99.3606 162.471 99.0958 162.193 98.7659 162.002C98.436 161.811 98.0801 161.716 97.6981 161.716C97.3162 161.716 96.9603 161.811 96.6304 162.002C96.3005 162.185 96.0314 162.458 95.823 162.823C95.6234 163.179 95.5236 163.604 95.5236 164.099C95.5236 164.594 95.6234 165.028 95.823 165.401C96.0314 165.774 96.3005 166.061 96.6304 166.26C96.9689 166.451 97.3249 166.547 97.6981 166.547C98.0801 166.547 98.436 166.451 98.7659 166.26C99.0958 166.069 99.3606 165.792 99.5602 165.427C99.7686 165.054 99.8727 164.62 99.8727 164.125ZM105.052 161.755V165.726C105.052 165.996 105.113 166.191 105.234 166.312C105.364 166.425 105.581 166.482 105.885 166.482H106.797V167.719H105.625C104.956 167.719 104.444 167.562 104.088 167.25C103.732 166.937 103.554 166.43 103.554 165.726V161.755H102.708V160.544H103.554V158.76H105.052V160.544H106.797V161.755H105.052ZM108.92 159.593C108.651 159.593 108.425 159.502 108.243 159.32C108.061 159.138 107.97 158.912 107.97 158.643C107.97 158.374 108.061 158.148 108.243 157.966C108.425 157.783 108.651 157.692 108.92 157.692C109.181 157.692 109.402 157.783 109.584 157.966C109.767 158.148 109.858 158.374 109.858 158.643C109.858 158.912 109.767 159.138 109.584 159.32C109.402 159.502 109.181 159.593 108.92 159.593ZM109.649 160.544V167.719H108.165V160.544H109.649ZM114.71 167.836C114.033 167.836 113.421 167.684 112.874 167.38C112.327 167.068 111.898 166.634 111.585 166.078C111.273 165.514 111.116 164.863 111.116 164.125C111.116 163.396 111.277 162.749 111.598 162.185C111.919 161.62 112.358 161.186 112.913 160.882C113.469 160.579 114.09 160.427 114.776 160.427C115.461 160.427 116.082 160.579 116.638 160.882C117.193 161.186 117.632 161.62 117.953 162.185C118.274 162.749 118.435 163.396 118.435 164.125C118.435 164.854 118.27 165.501 117.94 166.065C117.61 166.629 117.158 167.068 116.586 167.38C116.021 167.684 115.396 167.836 114.71 167.836ZM114.71 166.547C115.092 166.547 115.448 166.456 115.778 166.273C116.117 166.091 116.39 165.818 116.599 165.453C116.807 165.088 116.911 164.646 116.911 164.125C116.911 163.604 116.811 163.166 116.612 162.81C116.412 162.445 116.147 162.172 115.817 161.989C115.487 161.807 115.131 161.716 114.749 161.716C114.368 161.716 114.012 161.807 113.682 161.989C113.361 162.172 113.104 162.445 112.913 162.81C112.722 163.166 112.627 163.604 112.627 164.125C112.627 164.897 112.822 165.496 113.213 165.922C113.612 166.338 114.111 166.547 114.71 166.547ZM122.79 164.099C122.79 163.378 122.937 162.74 123.233 162.185C123.536 161.629 123.944 161.199 124.457 160.895C124.977 160.583 125.55 160.427 126.175 160.427C126.74 160.427 127.23 160.54 127.647 160.765C128.072 160.982 128.411 161.256 128.662 161.586V160.544H130.16V167.719H128.662V166.651C128.411 166.99 128.068 167.272 127.634 167.497C127.2 167.723 126.705 167.836 126.149 167.836C125.533 167.836 124.969 167.68 124.457 167.367C123.944 167.046 123.536 166.603 123.233 166.039C122.937 165.466 122.79 164.819 122.79 164.099ZM128.662 164.125C128.662 163.63 128.558 163.2 128.35 162.836C128.15 162.471 127.886 162.193 127.556 162.002C127.226 161.811 126.87 161.716 126.488 161.716C126.106 161.716 125.75 161.811 125.42 162.002C125.09 162.185 124.821 162.458 124.613 162.823C124.413 163.179 124.313 163.604 124.313 164.099C124.313 164.594 124.413 165.028 124.613 165.401C124.821 165.774 125.09 166.061 125.42 166.26C125.759 166.451 126.115 166.547 126.488 166.547C126.87 166.547 127.226 166.451 127.556 166.26C127.886 166.069 128.15 165.792 128.35 165.427C128.558 165.054 128.662 164.62 128.662 164.125ZM135.73 160.427C136.294 160.427 136.797 160.544 137.24 160.778C137.692 161.013 138.043 161.36 138.295 161.82C138.547 162.28 138.673 162.836 138.673 163.487V167.719H137.201V163.708C137.201 163.066 137.041 162.575 136.719 162.237C136.398 161.889 135.96 161.716 135.404 161.716C134.849 161.716 134.406 161.889 134.076 162.237C133.755 162.575 133.594 163.066 133.594 163.708V167.719H132.11V160.544H133.594V161.364C133.837 161.069 134.145 160.839 134.519 160.674C134.901 160.509 135.304 160.427 135.73 160.427ZM140.071 164.099C140.071 163.378 140.219 162.74 140.514 162.185C140.818 161.629 141.226 161.199 141.738 160.895C142.259 160.583 142.836 160.427 143.47 160.427C143.939 160.427 144.399 160.531 144.85 160.739C145.31 160.939 145.675 161.208 145.944 161.547V158.083H147.441V167.719H145.944V166.638C145.701 166.985 145.362 167.272 144.928 167.497C144.503 167.723 144.012 167.836 143.457 167.836C142.832 167.836 142.259 167.68 141.738 167.367C141.226 167.046 140.818 166.603 140.514 166.039C140.219 165.466 140.071 164.819 140.071 164.099ZM145.944 164.125C145.944 163.63 145.84 163.2 145.631 162.836C145.432 162.471 145.167 162.193 144.837 162.002C144.507 161.811 144.151 161.716 143.769 161.716C143.387 161.716 143.031 161.811 142.702 162.002C142.372 162.185 142.103 162.458 141.894 162.823C141.695 163.179 141.595 163.604 141.595 164.099C141.595 164.594 141.695 165.028 141.894 165.401C142.103 165.774 142.372 166.061 142.702 166.26C143.04 166.451 143.396 166.547 143.769 166.547C144.151 166.547 144.507 166.451 144.837 166.26C145.167 166.069 145.432 165.792 145.631 165.427C145.84 165.054 145.944 164.62 145.944 164.125ZM156.394 160.427C156.958 160.427 157.461 160.544 157.904 160.778C158.356 161.013 158.707 161.36 158.959 161.82C159.211 162.28 159.337 162.836 159.337 163.487V167.719H157.865V163.708C157.865 163.066 157.705 162.575 157.383 162.237C157.062 161.889 156.624 161.716 156.068 161.716C155.513 161.716 155.07 161.889 154.74 162.237C154.419 162.575 154.258 163.066 154.258 163.708V167.719H152.774V160.544H154.258V161.364C154.501 161.069 154.809 160.839 155.183 160.674C155.565 160.509 155.968 160.427 156.394 160.427ZM167.806 163.956C167.806 164.225 167.789 164.468 167.754 164.685H162.272C162.315 165.258 162.528 165.718 162.91 166.065C163.292 166.412 163.761 166.586 164.316 166.586C165.115 166.586 165.679 166.252 166.009 165.583H167.611C167.394 166.243 166.999 166.786 166.426 167.211C165.861 167.628 165.158 167.836 164.316 167.836C163.63 167.836 163.014 167.684 162.467 167.38C161.929 167.068 161.504 166.634 161.191 166.078C160.887 165.514 160.735 164.863 160.735 164.125C160.735 163.387 160.883 162.74 161.178 162.185C161.482 161.62 161.903 161.186 162.441 160.882C162.988 160.579 163.613 160.427 164.316 160.427C164.993 160.427 165.597 160.574 166.126 160.869C166.656 161.165 167.068 161.581 167.363 162.12C167.658 162.649 167.806 163.261 167.806 163.956ZM166.256 163.487C166.248 162.94 166.052 162.501 165.67 162.172C165.288 161.842 164.815 161.677 164.251 161.677C163.739 161.677 163.3 161.842 162.936 162.172C162.571 162.493 162.354 162.931 162.285 163.487H166.256ZM178.903 160.544L176.676 167.719H175.113L173.668 162.419L172.223 167.719H170.66L168.42 160.544H169.931L171.428 166.312L172.952 160.544H174.501L175.96 166.286L177.444 160.544H178.903ZM184.15 159.593C183.881 159.593 183.655 159.502 183.473 159.32C183.29 159.138 183.199 158.912 183.199 158.643C183.199 158.374 183.29 158.148 183.473 157.966C183.655 157.783 183.881 157.692 184.15 157.692C184.41 157.692 184.632 157.783 184.814 157.966C184.996 158.148 185.087 158.374 185.087 158.643C185.087 158.912 184.996 159.138 184.814 159.32C184.632 159.502 184.41 159.593 184.15 159.593ZM184.879 160.544V167.719H183.395V160.544H184.879ZM190.448 160.427C191.012 160.427 191.516 160.544 191.958 160.778C192.41 161.013 192.761 161.36 193.013 161.82C193.265 162.28 193.391 162.836 193.391 163.487V167.719H191.919V163.708C191.919 163.066 191.759 162.575 191.438 162.237C191.116 161.889 190.678 161.716 190.122 161.716C189.567 161.716 189.124 161.889 188.794 162.237C188.473 162.575 188.312 163.066 188.312 163.708V167.719H186.828V160.544H188.312V161.364C188.556 161.069 188.864 160.839 189.237 160.674C189.619 160.509 190.023 160.427 190.448 160.427ZM196.04 159.593C195.77 159.593 195.545 159.502 195.362 159.32C195.18 159.138 195.089 158.912 195.089 158.643C195.089 158.374 195.18 158.148 195.362 157.966C195.545 157.783 195.77 157.692 196.04 157.692C196.3 157.692 196.521 157.783 196.704 157.966C196.886 158.148 196.977 158.374 196.977 158.643C196.977 158.912 196.886 159.138 196.704 159.32C196.521 159.502 196.3 159.593 196.04 159.593ZM196.769 160.544V167.719H195.284V160.544H196.769ZM200.45 161.755V165.726C200.45 165.996 200.51 166.191 200.632 166.312C200.762 166.425 200.979 166.482 201.283 166.482H202.195V167.719H201.023C200.354 167.719 199.842 167.562 199.486 167.25C199.13 166.937 198.952 166.43 198.952 165.726V161.755H198.106V160.544H198.952V158.76H200.45V160.544H202.195V161.755H200.45ZM204.318 159.593C204.049 159.593 203.823 159.502 203.641 159.32C203.459 159.138 203.367 158.912 203.367 158.643C203.367 158.374 203.459 158.148 203.641 157.966C203.823 157.783 204.049 157.692 204.318 157.692C204.578 157.692 204.8 157.783 204.982 157.966C205.164 158.148 205.255 158.374 205.255 158.643C205.255 158.912 205.164 159.138 204.982 159.32C204.8 159.502 204.578 159.593 204.318 159.593ZM205.047 160.544V167.719H203.563V160.544H205.047ZM206.501 164.099C206.501 163.378 206.649 162.74 206.944 162.185C207.248 161.629 207.656 161.199 208.168 160.895C208.689 160.583 209.262 160.427 209.887 160.427C210.451 160.427 210.942 160.54 211.358 160.765C211.784 160.982 212.122 161.256 212.374 161.586V160.544H213.871V167.719H212.374V166.651C212.122 166.99 211.779 167.272 211.345 167.497C210.911 167.723 210.416 167.836 209.861 167.836C209.244 167.836 208.68 167.68 208.168 167.367C207.656 167.046 207.248 166.603 206.944 166.039C206.649 165.466 206.501 164.819 206.501 164.099ZM212.374 164.125C212.374 163.63 212.27 163.2 212.061 162.836C211.862 162.471 211.597 162.193 211.267 162.002C210.937 161.811 210.581 161.716 210.199 161.716C209.817 161.716 209.461 161.811 209.132 162.002C208.802 162.185 208.533 162.458 208.324 162.823C208.125 163.179 208.025 163.604 208.025 164.099C208.025 164.594 208.125 165.028 208.324 165.401C208.533 165.774 208.802 166.061 209.132 166.26C209.47 166.451 209.826 166.547 210.199 166.547C210.581 166.547 210.937 166.451 211.267 166.26C211.597 166.069 211.862 165.792 212.061 165.427C212.27 165.054 212.374 164.62 212.374 164.125ZM217.553 161.755V165.726C217.553 165.996 217.614 166.191 217.735 166.312C217.866 166.425 218.083 166.482 218.386 166.482H219.298V167.719H218.126C217.458 167.719 216.945 167.562 216.589 167.25C216.234 166.937 216.056 166.43 216.056 165.726V161.755H215.209V160.544H216.056V158.76H217.553V160.544H219.298V161.755H217.553ZM221.421 159.593C221.152 159.593 220.927 159.502 220.744 159.32C220.562 159.138 220.471 158.912 220.471 158.643C220.471 158.374 220.562 158.148 220.744 157.966C220.927 157.783 221.152 157.692 221.421 157.692C221.682 157.692 221.903 157.783 222.085 157.966C222.268 158.148 222.359 158.374 222.359 158.643C222.359 158.912 222.268 159.138 222.085 159.32C221.903 159.502 221.682 159.593 221.421 159.593ZM222.151 160.544V167.719H220.666V160.544H222.151ZM226.873 166.391L228.904 160.544H230.48L227.746 167.719H225.975L223.253 160.544H224.842L226.873 166.391ZM238.178 163.956C238.178 164.225 238.161 164.468 238.126 164.685H232.644C232.687 165.258 232.9 165.718 233.282 166.065C233.664 166.412 234.133 166.586 234.688 166.586C235.487 166.586 236.051 166.252 236.381 165.583H237.983C237.766 166.243 237.371 166.786 236.798 167.211C236.233 167.628 235.53 167.836 234.688 167.836C234.002 167.836 233.386 167.684 232.839 167.38C232.301 167.068 231.876 166.634 231.563 166.078C231.259 165.514 231.107 164.863 231.107 164.125C231.107 163.387 231.255 162.74 231.55 162.185C231.854 161.62 232.275 161.186 232.813 160.882C233.36 160.579 233.985 160.427 234.688 160.427C235.365 160.427 235.969 160.574 236.498 160.869C237.028 161.165 237.44 161.581 237.735 162.12C238.03 162.649 238.178 163.261 238.178 163.956ZM236.628 163.487C236.62 162.94 236.424 162.501 236.042 162.172C235.661 161.842 235.187 161.677 234.623 161.677C234.111 161.677 233.673 161.842 233.308 162.172C232.943 162.493 232.726 162.931 232.657 163.487H236.628ZM242.243 167.836C241.679 167.836 241.171 167.736 240.72 167.536C240.277 167.328 239.925 167.05 239.665 166.703C239.404 166.347 239.266 165.952 239.248 165.518H240.785C240.811 165.822 240.954 166.078 241.214 166.286C241.484 166.486 241.818 166.586 242.217 166.586C242.634 166.586 242.955 166.508 243.181 166.351C243.415 166.187 243.532 165.978 243.532 165.726C243.532 165.457 243.402 165.258 243.142 165.127C242.89 164.997 242.486 164.854 241.931 164.698C241.392 164.55 240.954 164.407 240.615 164.268C240.277 164.129 239.982 163.916 239.73 163.63C239.487 163.344 239.365 162.966 239.365 162.497C239.365 162.115 239.478 161.768 239.704 161.455C239.93 161.134 240.251 160.882 240.668 160.7C241.093 160.518 241.579 160.427 242.126 160.427C242.942 160.427 243.597 160.635 244.092 161.052C244.596 161.46 244.865 162.02 244.9 162.732H243.415C243.389 162.41 243.259 162.154 243.024 161.963C242.79 161.772 242.473 161.677 242.074 161.677C241.683 161.677 241.384 161.751 241.175 161.898C240.967 162.046 240.863 162.241 240.863 162.484C240.863 162.675 240.932 162.836 241.071 162.966C241.21 163.096 241.379 163.2 241.579 163.278C241.779 163.348 242.074 163.439 242.465 163.552C242.985 163.691 243.411 163.834 243.741 163.982C244.079 164.12 244.37 164.329 244.613 164.607C244.856 164.884 244.982 165.253 244.991 165.713C244.991 166.121 244.878 166.486 244.652 166.807C244.426 167.128 244.105 167.38 243.689 167.562C243.281 167.745 242.799 167.836 242.243 167.836ZM39.2773 186.836C38.6001 186.836 37.9881 186.684 37.4412 186.38C36.8943 186.068 36.4646 185.634 36.1521 185.078C35.8396 184.514 35.6833 183.863 35.6833 183.125C35.6833 182.396 35.8439 181.749 36.1651 181.185C36.4863 180.62 36.9247 180.186 37.4803 179.882C38.0359 179.579 38.6566 179.427 39.3424 179.427C40.0282 179.427 40.6489 179.579 41.2044 179.882C41.76 180.186 42.1984 180.62 42.5196 181.185C42.8408 181.749 43.0014 182.396 43.0014 183.125C43.0014 183.854 42.8365 184.501 42.5066 185.065C42.1767 185.629 41.7253 186.068 41.1524 186.38C40.5881 186.684 39.9631 186.836 39.2773 186.836ZM39.2773 185.547C39.6592 185.547 40.0151 185.456 40.345 185.273C40.6836 185.091 40.957 184.818 41.1654 184.453C41.3737 184.088 41.4779 183.646 41.4779 183.125C41.4779 182.604 41.3781 182.166 41.1784 181.81C40.9787 181.445 40.714 181.172 40.3841 180.989C40.0542 180.807 39.6983 180.716 39.3163 180.716C38.9344 180.716 38.5784 180.807 38.2486 180.989C37.9274 181.172 37.6713 181.445 37.4803 181.81C37.2893 182.166 37.1938 182.604 37.1938 183.125C37.1938 183.897 37.3891 184.496 37.7798 184.922C38.1791 185.338 38.6783 185.547 39.2773 185.547ZM48.0889 179.427C48.6531 179.427 49.1566 179.544 49.5993 179.778C50.0508 180.013 50.4023 180.36 50.6541 180.82C50.9058 181.28 51.0317 181.836 51.0317 182.487V186.719H49.5603V182.708C49.5603 182.066 49.3997 181.575 49.0785 181.237C48.7573 180.889 48.3189 180.716 47.7633 180.716C47.2077 180.716 46.765 180.889 46.4351 181.237C46.1139 181.575 45.9533 182.066 45.9533 182.708V186.719H44.4689V179.544H45.9533V180.364C46.1964 180.069 46.5046 179.839 46.8779 179.674C47.2598 179.509 47.6635 179.427 48.0889 179.427ZM64.1076 177.669L60.709 186.719H58.9902L55.5786 177.669H57.1672L59.8496 185.195L62.5451 177.669H64.1076ZM71.9249 182.956C71.9249 183.225 71.9076 183.468 71.8728 183.685H66.3908C66.4342 184.258 66.6469 184.718 67.0288 185.065C67.4108 185.412 67.8796 185.586 68.4352 185.586C69.2338 185.586 69.7981 185.252 70.128 184.583H71.7296C71.5126 185.243 71.1176 185.786 70.5446 186.211C69.9804 186.628 69.2772 186.836 68.4352 186.836C67.7494 186.836 67.133 186.684 66.5861 186.38C66.0479 186.068 65.6225 185.634 65.31 185.078C65.0062 184.514 64.8542 183.863 64.8542 183.125C64.8542 182.387 65.0018 181.74 65.297 181.185C65.6008 180.62 66.0218 180.186 66.5601 179.882C67.107 179.579 67.732 179.427 68.4352 179.427C69.1123 179.427 69.7156 179.574 70.2451 179.869C70.7747 180.165 71.187 180.581 71.4822 181.12C71.7773 181.649 71.9249 182.261 71.9249 182.956ZM70.3754 182.487C70.3667 181.94 70.1714 181.501 69.7894 181.172C69.4074 180.842 68.9343 180.677 68.3701 180.677C67.8579 180.677 67.4195 180.842 67.0549 181.172C66.6903 181.493 66.4733 181.931 66.4038 182.487H70.3754ZM78.2298 182.07C78.7159 182.157 79.1283 182.413 79.4668 182.838C79.8054 183.264 79.9747 183.746 79.9747 184.284C79.9747 184.744 79.8531 185.161 79.61 185.534C79.3757 185.898 79.0328 186.189 78.5814 186.406C78.1299 186.615 77.6047 186.719 77.0057 186.719H73.3858V177.669H76.8365C77.4528 177.669 77.9824 177.773 78.4251 177.981C78.8678 178.19 79.202 178.472 79.4277 178.828C79.6535 179.175 79.7663 179.566 79.7663 180C79.7663 180.521 79.6274 180.955 79.3496 181.302C79.0718 181.649 78.6985 181.905 78.2298 182.07ZM74.8702 181.471H76.7063C77.1924 181.471 77.57 181.363 77.8391 181.146C78.1169 180.92 78.2558 180.599 78.2558 180.182C78.2558 179.774 78.1169 179.457 77.8391 179.231C77.57 178.997 77.1924 178.88 76.7063 178.88H74.8702V181.471ZM76.8755 185.508C77.379 185.508 77.774 185.386 78.0605 185.143C78.347 184.9 78.4902 184.562 78.4902 184.127C78.4902 183.685 78.3383 183.333 78.0344 183.073C77.7306 182.812 77.3269 182.682 76.8234 182.682H74.8702V185.508H76.8755ZM81.093 183.099C81.093 182.378 81.2406 181.74 81.5357 181.185C81.8395 180.629 82.2476 180.199 82.7597 179.895C83.2806 179.583 83.8535 179.427 84.4786 179.427C85.0428 179.427 85.5333 179.54 85.95 179.765C86.3754 179.982 86.7139 180.256 86.9657 180.586V179.544H88.4632V186.719H86.9657V185.651C86.7139 185.99 86.371 186.272 85.937 186.497C85.5029 186.723 85.0081 186.836 84.4525 186.836C83.8362 186.836 83.2719 186.68 82.7597 186.367C82.2476 186.046 81.8395 185.603 81.5357 185.039C81.2406 184.466 81.093 183.819 81.093 183.099ZM86.9657 183.125C86.9657 182.63 86.8615 182.2 86.6532 181.836C86.4535 181.471 86.1887 181.193 85.8589 181.002C85.529 180.811 85.1731 180.716 84.7911 180.716C84.4091 180.716 84.0532 180.811 83.7233 181.002C83.3934 181.185 83.1243 181.458 82.916 181.823C82.7163 182.179 82.6165 182.604 82.6165 183.099C82.6165 183.594 82.7163 184.028 82.916 184.401C83.1243 184.774 83.3934 185.061 83.7233 185.26C84.0619 185.451 84.4178 185.547 84.7911 185.547C85.1731 185.547 85.529 185.451 85.8589 185.26C86.1887 185.069 86.4535 184.792 86.6532 184.427C86.8615 184.054 86.9657 183.62 86.9657 183.125ZM94.0329 179.427C94.5972 179.427 95.1007 179.544 95.5434 179.778C95.9948 180.013 96.3464 180.36 96.5981 180.82C96.8499 181.28 96.9758 181.836 96.9758 182.487V186.719H95.5043V182.708C95.5043 182.066 95.3437 181.575 95.0225 181.237C94.7013 180.889 94.2629 180.716 93.7074 180.716C93.1518 180.716 92.709 180.889 92.3792 181.237C92.058 181.575 91.8974 182.066 91.8974 182.708V186.719H90.4129V179.544H91.8974V180.364C92.1404 180.069 92.4486 179.839 92.8219 179.674C93.2039 179.509 93.6075 179.427 94.0329 179.427ZM101.708 183.138L105.015 186.719H103.01L100.354 183.633V186.719H98.8693V177.083H100.354V182.682L102.958 179.544H105.015L101.708 183.138Z" fill="white"/>
<rect x="1.23947" y="1.09787" width="272.522" height="208.07" rx="6.97581" stroke="url(#paint0_linear_10741_232947)" stroke-width="0.930108"/>
<defs>
<linearGradient id="paint0_linear_10741_232947" x1="0.774414" y1="0.632812" x2="283.035" y2="13.2976" gradientUnits="userSpaceOnUse">
<stop stop-color="#0FE3E3"/>
<stop offset="1" stop-color="#02A4FF"/>
</linearGradient>
</defs>
</svg>
