<svg width="274" height="210" viewBox="0 0 274 210" fill="none" xmlns="http://www.w3.org/2000/svg">
<rect x="1.01339" y="1.09787" width="272.522" height="208.07" rx="6.97581" fill="#0D1B31"/>
<path d="M48.7019 45.9809C48.7019 46.5948 48.5401 47.164 48.2164 47.6886C47.9039 48.202 47.4351 48.6261 46.8101 48.9609C46.1962 49.2846 45.4651 49.4632 44.6169 49.4967V50.8528H43.5454V49.4799C42.3623 49.3795 41.408 49.0279 40.6825 48.4252C39.957 47.8113 39.572 46.9798 39.5273 45.9307H42.5743C42.6413 46.6003 42.965 47.03 43.5454 47.2198V44.5746C42.6748 44.3513 41.9772 44.1337 41.4526 43.9216C40.9392 43.7096 40.4872 43.3691 40.0965 42.9004C39.7059 42.4316 39.5106 41.7898 39.5106 40.975C39.5106 39.9594 39.8845 39.1446 40.6323 38.5307C41.3912 37.9169 42.3623 37.5709 43.5454 37.4927V36.1366H44.6169V37.4927C45.7888 37.582 46.7152 37.9224 47.396 38.514C48.0769 39.1055 48.4563 39.9259 48.5345 40.975H45.4707C45.4037 40.3723 45.1191 39.9817 44.6169 39.8031V42.3981C45.5432 42.6548 46.2576 42.8836 46.7598 43.0845C47.2621 43.2854 47.7085 43.6203 48.0992 44.089C48.501 44.5467 48.7019 45.1773 48.7019 45.9809ZM42.5409 40.8411C42.5409 41.1201 42.6246 41.3545 42.792 41.5443C42.9706 41.734 43.2217 41.9014 43.5454 42.0465V39.7194C43.2329 39.7752 42.9873 39.898 42.8087 40.0877C42.6302 40.2663 42.5409 40.5174 42.5409 40.8411ZM44.6169 47.27C44.9517 47.2142 45.214 47.0803 45.4037 46.8682C45.6046 46.6561 45.7051 46.3939 45.7051 46.0813C45.7051 45.7911 45.6102 45.5568 45.4205 45.3782C45.2419 45.1884 44.974 45.0266 44.6169 44.8927V47.27ZM61.8645 37.6434L57.6957 49.3962H54.1129L49.9442 37.6434H52.9912L55.9043 46.5166L58.8342 37.6434H61.8645ZM70.1763 43.3691C70.8571 43.5142 71.404 43.8547 71.817 44.3904C72.23 44.915 72.4365 45.5177 72.4365 46.1985C72.4365 47.1807 72.0905 47.962 71.3985 48.5424C70.7176 49.1116 69.7633 49.3962 68.5356 49.3962H63.061V37.6434H68.3514C69.5457 37.6434 70.4777 37.9169 71.1473 38.4638C71.8282 39.0107 72.1686 39.7529 72.1686 40.6904C72.1686 41.3824 71.9844 41.9572 71.6161 42.4149C71.2589 42.8725 70.779 43.1906 70.1763 43.3691ZM65.9239 42.3981H67.7989C68.2677 42.3981 68.6249 42.2977 68.8704 42.0968C69.1271 41.8847 69.2555 41.5778 69.2555 41.1759C69.2555 40.7741 69.1271 40.4672 68.8704 40.2551C68.6249 40.0431 68.2677 39.937 67.7989 39.937H65.9239V42.3981ZM68.0333 47.0859C68.5133 47.0859 68.8816 46.9798 69.1383 46.7678C69.4062 46.5445 69.5401 46.2264 69.5401 45.8135C69.5401 45.4005 69.4006 45.0768 69.1216 44.8424C68.8537 44.608 68.4798 44.4909 67.9999 44.4909H65.9239V47.0859H68.0333ZM80.4574 37.6434V44.675C80.4574 45.3782 80.6304 45.9195 80.9764 46.299C81.3224 46.6785 81.8303 46.8682 82.4999 46.8682C83.1696 46.8682 83.683 46.6785 84.0402 46.299C84.3974 45.9195 84.5759 45.3782 84.5759 44.675V37.6434H87.4388V44.6583C87.4388 45.7074 87.2156 46.5948 86.7691 47.3202C86.3227 48.0457 85.72 48.5926 84.961 48.9609C84.2132 49.3293 83.3761 49.5134 82.4497 49.5134C81.5233 49.5134 80.6918 49.3349 79.9552 48.9777C79.2297 48.6094 78.6549 48.0625 78.2307 47.337C77.8066 46.6003 77.5946 45.7074 77.5946 44.6583V37.6434H80.4574ZM94.6559 46.9687V49.3962H93.1993C92.1613 49.3962 91.3521 49.1451 90.7718 48.6429C90.1914 48.1294 89.9012 47.2979 89.9012 46.1483V42.4316H88.7627V40.0542H89.9012V37.7773H92.7641V40.0542H94.6391V42.4316H92.7641V46.1818C92.7641 46.4608 92.831 46.6617 92.965 46.7845C93.0989 46.9073 93.3221 46.9687 93.6346 46.9687H94.6559ZM97.6904 39.0832C97.1881 39.0832 96.7751 38.9381 96.4515 38.6479C96.1389 38.3466 95.9827 37.9782 95.9827 37.5429C95.9827 37.0965 96.1389 36.7282 96.4515 36.438C96.7751 36.1366 97.1881 35.9859 97.6904 35.9859C98.1815 35.9859 98.5833 36.1366 98.8958 36.438C99.2195 36.7282 99.3813 37.0965 99.3813 37.5429C99.3813 37.9782 99.2195 38.3466 98.8958 38.6479C98.5833 38.9381 98.1815 39.0832 97.6904 39.0832ZM99.1134 40.0542V49.3962H96.2506V40.0542H99.1134ZM104.051 37.0072V49.3962H101.188V37.0072H104.051ZM107.565 39.0832C107.063 39.0832 106.65 38.9381 106.327 38.6479C106.014 38.3466 105.858 37.9782 105.858 37.5429C105.858 37.0965 106.014 36.7282 106.327 36.438C106.65 36.1366 107.063 35.9859 107.565 35.9859C108.057 35.9859 108.458 36.1366 108.771 36.438C109.095 36.7282 109.256 37.0965 109.256 37.5429C109.256 37.9782 109.095 38.3466 108.771 38.6479C108.458 38.9381 108.057 39.0832 107.565 39.0832ZM108.989 40.0542V49.3962H106.126V40.0542H108.989ZM116.27 46.9687V49.3962H114.813C113.775 49.3962 112.966 49.1451 112.386 48.6429C111.805 48.1294 111.515 47.2979 111.515 46.1483V42.4316H110.377V40.0542H111.515V37.7773H114.378V40.0542H116.253V42.4316H114.378V46.1818C114.378 46.4608 114.445 46.6617 114.579 46.7845C114.713 46.9073 114.936 46.9687 115.249 46.9687H116.27ZM127.408 40.0542L121.548 53.8329H118.467L120.61 49.0781L116.81 40.0542H120.008L122.167 45.8972L124.31 40.0542H127.408ZM133.43 39.0832C132.928 39.0832 132.515 38.9381 132.192 38.6479C131.879 38.3466 131.723 37.9782 131.723 37.5429C131.723 37.0965 131.879 36.7282 132.192 36.438C132.515 36.1366 132.928 35.9859 133.43 35.9859C133.922 35.9859 134.323 36.1366 134.636 36.438C134.96 36.7282 135.121 37.0965 135.121 37.5429C135.121 37.9782 134.96 38.3466 134.636 38.6479C134.323 38.9381 133.922 39.0832 133.43 39.0832ZM134.854 40.0542V49.3962H131.991V40.0542H134.854ZM142.62 39.9538C143.714 39.9538 144.585 40.3109 145.232 41.0253C145.891 41.7284 146.22 42.6995 146.22 43.9384V49.3962H143.374V44.3234C143.374 43.6984 143.212 43.2129 142.888 42.8669C142.565 42.5209 142.129 42.3479 141.582 42.3479C141.036 42.3479 140.6 42.5209 140.277 42.8669C139.953 43.2129 139.791 43.6984 139.791 44.3234V49.3962H136.928V40.0542H139.791V41.2931C140.081 40.8802 140.472 40.5565 140.963 40.3221C141.454 40.0766 142.007 39.9538 142.62 39.9538ZM156.964 46.9687V49.3962H155.507C154.469 49.3962 153.66 49.1451 153.08 48.6429C152.499 48.1294 152.209 47.2979 152.209 46.1483V42.4316H151.071V40.0542H152.209V37.7773H155.072V40.0542H156.947V42.4316H155.072V46.1818C155.072 46.4608 155.139 46.6617 155.273 46.7845C155.407 46.9073 155.63 46.9687 155.943 46.9687H156.964ZM164.301 39.9538C165.373 39.9538 166.232 40.3109 166.879 41.0253C167.527 41.7284 167.85 42.6995 167.85 43.9384V49.3962H165.004V44.3234C165.004 43.6984 164.842 43.2129 164.519 42.8669C164.195 42.5209 163.76 42.3479 163.213 42.3479C162.666 42.3479 162.231 42.5209 161.907 42.8669C161.583 43.2129 161.422 43.6984 161.422 44.3234V49.3962H158.559V37.0072H161.422V41.3099C161.712 40.8969 162.108 40.5677 162.61 40.3221C163.112 40.0766 163.676 39.9538 164.301 39.9538ZM178.646 44.5746C178.646 44.8424 178.629 45.1215 178.596 45.4117H172.117C172.161 45.992 172.346 46.4385 172.669 46.751C173.004 47.0524 173.411 47.203 173.891 47.203C174.606 47.203 175.102 46.9017 175.381 46.299H178.428C178.272 46.9129 177.988 47.4653 177.575 47.9564C177.173 48.4475 176.665 48.8326 176.051 49.1116C175.437 49.3907 174.751 49.5302 173.992 49.5302C173.077 49.5302 172.262 49.3349 171.548 48.9442C170.833 48.5536 170.275 47.9955 169.873 47.27C169.472 46.5445 169.271 45.6963 169.271 44.7252C169.271 43.7542 169.466 42.9059 169.857 42.1805C170.258 41.455 170.816 40.8969 171.531 40.5063C172.245 40.1156 173.065 39.9203 173.992 39.9203C174.896 39.9203 175.7 40.11 176.403 40.4895C177.106 40.869 177.653 41.4103 178.043 42.1135C178.445 42.8167 178.646 43.637 178.646 44.5746ZM175.716 43.8212C175.716 43.3301 175.549 42.9394 175.214 42.6492C174.879 42.359 174.461 42.2139 173.958 42.2139C173.478 42.2139 173.071 42.3535 172.736 42.6325C172.413 42.9115 172.212 43.3078 172.134 43.8212H175.716ZM188.392 42.4316H186.852V49.3962H183.989V42.4316H182.951V40.0542H183.989V39.7864C183.989 38.6368 184.318 37.7662 184.977 37.1746C185.635 36.5719 186.601 36.2706 187.873 36.2706C188.085 36.2706 188.241 36.2761 188.342 36.2873V38.7149C187.795 38.6814 187.41 38.7595 187.187 38.9493C186.963 39.139 186.852 39.4794 186.852 39.9705V40.0542H188.392V42.4316ZM198.962 40.0542V49.3962H196.099V48.1239C195.809 48.5368 195.413 48.8717 194.911 49.1284C194.419 49.3739 193.873 49.4967 193.27 49.4967C192.555 49.4967 191.925 49.3404 191.378 49.0279C190.831 48.7042 190.407 48.241 190.106 47.6383C189.804 47.0356 189.654 46.3269 189.654 45.5121V40.0542H192.5V45.127C192.5 45.7521 192.662 46.2376 192.985 46.5836C193.309 46.9296 193.744 47.1026 194.291 47.1026C194.849 47.1026 195.29 46.9296 195.614 46.5836C195.937 46.2376 196.099 45.7521 196.099 45.127V40.0542H198.962ZM206.225 46.9687V49.3962H204.769C203.731 49.3962 202.921 49.1451 202.341 48.6429C201.761 48.1294 201.47 47.2979 201.47 46.1483V42.4316H200.332V40.0542H201.47V37.7773H204.333V40.0542H206.208V42.4316H204.333V46.1818C204.333 46.4608 204.4 46.6617 204.534 46.7845C204.668 46.9073 204.891 46.9687 205.204 46.9687H206.225ZM217.045 40.0542V49.3962H214.182V48.1239C213.892 48.5368 213.495 48.8717 212.993 49.1284C212.502 49.3739 211.955 49.4967 211.352 49.4967C210.638 49.4967 210.007 49.3404 209.461 49.0279C208.914 48.7042 208.49 48.241 208.188 47.6383C207.887 47.0356 207.736 46.3269 207.736 45.5121V40.0542H210.582V45.127C210.582 45.7521 210.744 46.2376 211.068 46.5836C211.391 46.9296 211.827 47.1026 212.374 47.1026C212.932 47.1026 213.373 46.9296 213.696 46.5836C214.02 46.2376 214.182 45.7521 214.182 45.127V40.0542H217.045ZM221.964 41.6112C222.299 41.0978 222.717 40.696 223.22 40.4058C223.722 40.1045 224.28 39.9538 224.894 39.9538V42.9841H224.107C223.393 42.9841 222.857 43.1403 222.5 43.4529C222.143 43.7542 221.964 44.2899 221.964 45.0601V49.3962H219.101V40.0542H221.964V41.6112ZM235.068 44.5746C235.068 44.8424 235.052 45.1215 235.018 45.4117H228.539C228.584 45.992 228.768 46.4385 229.092 46.751C229.426 47.0524 229.834 47.203 230.314 47.203C231.028 47.203 231.525 46.9017 231.804 46.299H234.851C234.695 46.9129 234.41 47.4653 233.997 47.9564C233.595 48.4475 233.087 48.8326 232.473 49.1116C231.86 49.3907 231.173 49.5302 230.414 49.5302C229.499 49.5302 228.684 49.3349 227.97 48.9442C227.256 48.5536 226.697 47.9955 226.296 47.27C225.894 46.5445 225.693 45.6963 225.693 44.7252C225.693 43.7542 225.888 42.9059 226.279 42.1805C226.681 41.455 227.239 40.8969 227.953 40.5063C228.667 40.1156 229.488 39.9203 230.414 39.9203C231.318 39.9203 232.122 40.11 232.825 40.4895C233.528 40.869 234.075 41.4103 234.466 42.1135C234.868 42.8167 235.068 43.637 235.068 44.5746ZM232.139 43.8212C232.139 43.3301 231.971 42.9394 231.636 42.6492C231.301 42.359 230.883 42.2139 230.381 42.2139C229.901 42.2139 229.493 42.3535 229.159 42.6325C228.835 42.9115 228.634 43.3078 228.556 43.8212H232.139Z" fill="white"/>
<path d="M25.1838 91.0754C24.8713 91.0754 24.5849 91.0016 24.3244 90.854C24.0727 90.6978 23.8687 90.4938 23.7124 90.242C23.5648 89.9816 23.491 89.6951 23.491 89.3826C23.491 88.9051 23.656 88.5015 23.9859 88.1716C24.3157 87.8417 24.7151 87.6768 25.1838 87.6768C25.67 87.6768 26.078 87.8417 26.4079 88.1716C26.7377 88.5015 26.9027 88.9051 26.9027 89.3826C26.9027 89.86 26.7377 90.2637 26.4079 90.5936C26.078 90.9148 25.67 91.0754 25.1838 91.0754ZM42.4889 87.2731C42.2545 86.8217 41.9289 86.4831 41.5123 86.2574C41.0956 86.023 40.6138 85.9058 40.0669 85.9058C39.4679 85.9058 38.934 86.0404 38.4652 86.3095C37.9964 86.5786 37.6275 86.9606 37.3584 87.4554C37.098 87.9502 36.9677 88.5232 36.9677 89.1742C36.9677 89.8253 37.098 90.4026 37.3584 90.9061C37.6275 91.4009 37.9964 91.7829 38.4652 92.052C38.934 92.3211 39.4679 92.4557 40.0669 92.4557C40.8742 92.4557 41.5296 92.23 42.0331 91.7785C42.5366 91.3271 42.8448 90.7151 42.9576 89.9425H39.559V88.7576H44.5463V89.9165C44.4508 90.6196 44.199 91.2664 43.791 91.8567C43.3917 92.447 42.8665 92.9201 42.2154 93.276C41.573 93.6233 40.8568 93.7969 40.0669 93.7969C39.2161 93.7969 38.4392 93.6016 37.736 93.2109C37.0329 92.8116 36.4729 92.2603 36.0562 91.5572C35.6482 90.854 35.4442 90.0597 35.4442 89.1742C35.4442 88.2888 35.6482 87.4945 36.0562 86.7913C36.4729 86.0881 37.0329 85.5412 37.736 85.1506C38.4479 84.7513 39.2248 84.5516 40.0669 84.5516C41.0305 84.5516 41.8855 84.7903 42.6321 85.2678C43.3873 85.7366 43.9343 86.405 44.2728 87.2731H42.4889ZM45.5156 90.0988C45.5156 89.3782 45.6631 88.7402 45.9583 88.1846C46.2621 87.629 46.6701 87.1993 47.1823 86.8955C47.7032 86.583 48.2761 86.4267 48.9011 86.4267C49.4654 86.4267 49.9559 86.5396 50.3726 86.7653C50.7979 86.9823 51.1365 87.2557 51.3882 87.5856V86.5439H52.8857V93.7188H51.3882V92.651C51.1365 92.9895 50.7936 93.2717 50.3596 93.4974C49.9255 93.7231 49.4307 93.8359 48.8751 93.8359C48.2587 93.8359 47.6945 93.6797 47.1823 93.3672C46.6701 93.046 46.2621 92.6032 45.9583 92.039C45.6631 91.466 45.5156 90.8193 45.5156 90.0988ZM51.3882 90.1248C51.3882 89.63 51.2841 89.2003 51.0757 88.8357C50.8761 88.4711 50.6113 88.1933 50.2814 88.0023C49.9515 87.8113 49.5956 87.7158 49.2137 87.7158C48.8317 87.7158 48.4758 87.8113 48.1459 88.0023C47.816 88.1846 47.5469 88.4581 47.3386 88.8227C47.1389 89.1786 47.0391 89.604 47.0391 90.0988C47.0391 90.5936 47.1389 91.0276 47.3386 91.4009C47.5469 91.7742 47.816 92.0607 48.1459 92.2603C48.4845 92.4513 48.8404 92.5468 49.2137 92.5468C49.5956 92.5468 49.9515 92.4513 50.2814 92.2603C50.6113 92.0694 50.8761 91.7916 51.0757 91.427C51.2841 91.0537 51.3882 90.6196 51.3882 90.1248ZM61.3332 86.5439V93.7188H59.8488V92.8724C59.6144 93.1675 59.3062 93.4019 58.9242 93.5755C58.551 93.7405 58.1516 93.8229 57.7263 93.8229C57.162 93.8229 56.6542 93.7057 56.2027 93.4713C55.76 93.237 55.4084 92.8897 55.148 92.4296C54.8963 91.9695 54.7704 91.4139 54.7704 90.7629V86.5439H56.2418V90.5415C56.2418 91.1839 56.4024 91.6787 56.7236 92.026C57.0448 92.3645 57.4832 92.5338 58.0388 92.5338C58.5944 92.5338 59.0328 92.3645 59.354 92.026C59.6838 91.6787 59.8488 91.1839 59.8488 90.5415V86.5439H61.3332ZM66.1826 86.4267C66.7382 86.4267 67.2287 86.5396 67.654 86.7653C68.0881 86.9823 68.4267 87.2557 68.6697 87.5856V86.5439H70.1672V93.8359C70.1672 94.4957 70.0283 95.0817 69.7505 95.5938C69.4727 96.1147 69.069 96.5227 68.5395 96.8179C68.0186 97.113 67.3936 97.2606 66.6644 97.2606C65.6921 97.2606 64.8848 97.0306 64.2424 96.5705C63.6 96.119 63.2354 95.5027 63.1486 94.7214H64.62C64.7329 95.0947 64.9716 95.3942 65.3362 95.6199C65.7095 95.8543 66.1522 95.9715 66.6644 95.9715C67.2634 95.9715 67.7452 95.7892 68.1098 95.4246C68.4831 95.06 68.6697 94.5304 68.6697 93.8359V92.638C68.418 92.9765 68.0751 93.263 67.641 93.4974C67.2157 93.7231 66.7295 93.8359 66.1826 93.8359C65.5576 93.8359 64.9846 93.6797 64.4638 93.3672C63.9516 93.046 63.5436 92.6032 63.2398 92.039C62.9446 91.466 62.797 90.8193 62.797 90.0988C62.797 89.3782 62.9446 88.7402 63.2398 88.1846C63.5436 87.629 63.9516 87.1993 64.4638 86.8955C64.9846 86.583 65.5576 86.4267 66.1826 86.4267ZM68.6697 90.1248C68.6697 89.63 68.5655 89.2003 68.3572 88.8357C68.1575 88.4711 67.8928 88.1933 67.5629 88.0023C67.233 87.8113 66.8771 87.7158 66.4951 87.7158C66.1132 87.7158 65.7572 87.8113 65.4274 88.0023C65.0975 88.1846 64.8284 88.4581 64.62 88.8227C64.4204 89.1786 64.3205 89.604 64.3205 90.0988C64.3205 90.5936 64.4204 91.0276 64.62 91.4009C64.8284 91.7742 65.0975 92.0607 65.4274 92.2603C65.7659 92.4513 66.1218 92.5468 66.4951 92.5468C66.8771 92.5468 67.233 92.4513 67.5629 92.2603C67.8928 92.0694 68.1575 91.7916 68.3572 91.427C68.5655 91.0537 68.6697 90.6196 68.6697 90.1248ZM78.6928 89.9555C78.6928 90.2246 78.6755 90.4677 78.6407 90.6847H73.1587C73.2021 91.2577 73.4148 91.7178 73.7967 92.065C74.1787 92.4123 74.6475 92.5859 75.2031 92.5859C76.0017 92.5859 76.566 92.2517 76.8959 91.5832H78.4975C78.2805 92.243 77.8855 92.7855 77.3125 93.2109C76.7483 93.6276 76.0451 93.8359 75.2031 93.8359C74.5173 93.8359 73.9009 93.684 73.354 93.3802C72.8158 93.0677 72.3904 92.6336 72.0779 92.078C71.7741 91.5138 71.6221 90.8627 71.6221 90.1248C71.6221 89.3869 71.7697 88.7402 72.0649 88.1846C72.3687 87.6203 72.7897 87.1863 73.328 86.8825C73.8749 86.5786 74.4999 86.4267 75.2031 86.4267C75.8802 86.4267 76.4835 86.5743 77.013 86.8694C77.5426 87.1646 77.9549 87.5813 78.2501 88.1195C78.5452 88.649 78.6928 89.2611 78.6928 89.9555ZM77.1433 89.4868C77.1346 88.9399 76.9393 88.5015 76.5573 88.1716C76.1753 87.8417 75.7022 87.6768 75.1379 87.6768C74.6258 87.6768 74.1874 87.8417 73.8228 88.1716C73.4582 88.4928 73.2411 88.9312 73.1717 89.4868H77.1433ZM82.758 93.8359C82.1937 93.8359 81.6859 93.7361 81.2345 93.5364C80.7917 93.3281 80.4401 93.0503 80.1797 92.7031C79.9193 92.3472 79.7804 91.9522 79.763 91.5181H81.2996C81.3256 91.822 81.4688 92.078 81.7293 92.2864C81.9984 92.486 82.3326 92.5859 82.7319 92.5859C83.1486 92.5859 83.4698 92.5077 83.6955 92.3515C83.9299 92.1866 84.0471 91.9782 84.0471 91.7265C84.0471 91.4573 83.9169 91.2577 83.6565 91.1275C83.4047 90.9973 83.001 90.854 82.4455 90.6978C81.9072 90.5502 81.4688 90.4069 81.1303 90.2681C80.7917 90.1292 80.4966 89.9165 80.2448 89.63C80.0018 89.3435 79.8802 88.9659 79.8802 88.4971C79.8802 88.1152 79.9931 87.7679 80.2188 87.4554C80.4445 87.1342 80.7657 86.8825 81.1824 86.7002C81.6077 86.5179 82.0939 86.4267 82.6408 86.4267C83.4568 86.4267 84.1122 86.6351 84.607 87.0517C85.1105 87.4597 85.3796 88.0197 85.4144 88.7315H83.9299C83.9039 88.4103 83.7736 88.1542 83.5393 87.9632C83.3049 87.7723 82.988 87.6768 82.5887 87.6768C82.198 87.6768 81.8986 87.7506 81.6902 87.8981C81.4819 88.0457 81.3777 88.241 81.3777 88.4841C81.3777 88.6751 81.4471 88.8357 81.586 88.9659C81.7249 89.0961 81.8942 89.2003 82.0939 89.2784C82.2935 89.3479 82.5887 89.439 82.9793 89.5519C83.5002 89.6908 83.9256 89.834 84.2554 89.9816C84.594 90.1205 84.8848 90.3288 85.1279 90.6066C85.371 90.8844 85.4968 91.2533 85.5055 91.7134C85.5055 92.1214 85.3927 92.486 85.1669 92.8072C84.9412 93.1284 84.62 93.3802 84.2034 93.5625C83.7953 93.7448 83.3136 93.8359 82.758 93.8359ZM93.5 87.7549H92.1718V93.7188H90.6743V87.7549H89.8279V86.5439H90.6743V86.0361C90.6743 85.2114 90.8914 84.6124 91.3254 84.2391C91.7681 83.8571 92.4583 83.6661 93.3958 83.6661V84.9032C92.9444 84.9032 92.6276 84.99 92.4453 85.1636C92.263 85.3286 92.1718 85.6194 92.1718 86.0361V86.5439H93.5V87.7549ZM97.9277 93.8359C97.2506 93.8359 96.6386 93.684 96.0917 93.3802C95.5448 93.0677 95.1151 92.6336 94.8026 92.078C94.49 91.5138 94.3338 90.8627 94.3338 90.1248C94.3338 89.3956 94.4944 88.7489 94.8156 88.1846C95.1368 87.6203 95.5752 87.1863 96.1308 86.8825C96.6863 86.5786 97.307 86.4267 97.9928 86.4267C98.6786 86.4267 99.2993 86.5786 99.8549 86.8825C100.41 87.1863 100.849 87.6203 101.17 88.1846C101.491 88.7489 101.652 89.3956 101.652 90.1248C101.652 90.854 101.487 91.5008 101.157 92.065C100.827 92.6293 100.376 93.0677 99.8028 93.3802C99.2386 93.684 98.6135 93.8359 97.9277 93.8359ZM97.9277 92.5468C98.3097 92.5468 98.6656 92.4557 98.9955 92.2734C99.334 92.0911 99.6075 91.8176 99.8158 91.453C100.024 91.0884 100.128 90.6457 100.128 90.1248C100.128 89.604 100.029 89.1656 99.8289 88.8096C99.6292 88.445 99.3644 88.1716 99.0345 87.9893C98.7047 87.807 98.3487 87.7158 97.9668 87.7158C97.5848 87.7158 97.2289 87.807 96.899 87.9893C96.5778 88.1716 96.3217 88.445 96.1308 88.8096C95.9398 89.1656 95.8443 89.604 95.8443 90.1248C95.8443 90.8974 96.0396 91.4964 96.4302 91.9218C96.8296 92.3385 97.3287 92.5468 97.9277 92.5468ZM104.604 87.5856C104.821 87.221 105.107 86.9389 105.463 86.7392C105.828 86.5309 106.258 86.4267 106.752 86.4267V87.9632H106.375C105.793 87.9632 105.35 88.1108 105.047 88.406C104.751 88.7011 104.604 89.2133 104.604 89.9425V93.7188H103.119V86.5439H104.604V87.5856ZM114.481 93.8099C113.874 93.8099 113.327 93.7057 112.841 93.4974C112.354 93.2804 111.973 92.9765 111.695 92.5859C111.417 92.1952 111.278 91.7395 111.278 91.2186H112.867C112.901 91.6093 113.053 91.9305 113.322 92.1822C113.6 92.434 113.986 92.5598 114.481 92.5598C114.993 92.5598 115.393 92.4383 115.679 92.1952C115.966 91.9435 116.109 91.6223 116.109 91.2316C116.109 90.9278 116.018 90.6804 115.836 90.4894C115.662 90.2984 115.441 90.1509 115.171 90.0467C114.911 89.9425 114.546 89.8297 114.078 89.7081C113.487 89.5519 113.006 89.3956 112.632 89.2394C112.268 89.0744 111.955 88.8227 111.695 88.4841C111.434 88.1455 111.304 87.6941 111.304 87.1299C111.304 86.609 111.434 86.1533 111.695 85.7626C111.955 85.372 112.32 85.0725 112.789 84.8641C113.257 84.6558 113.8 84.5516 114.416 84.5516C115.293 84.5516 116.009 84.773 116.565 85.2157C117.129 85.6498 117.442 86.2487 117.502 87.0127H115.862C115.836 86.6828 115.679 86.4007 115.393 86.1663C115.106 85.9319 114.729 85.8147 114.26 85.8147C113.835 85.8147 113.487 85.9232 113.218 86.1402C112.949 86.3573 112.815 86.6698 112.815 87.0778C112.815 87.3556 112.897 87.5856 113.062 87.7679C113.236 87.9415 113.453 88.0804 113.713 88.1846C113.973 88.2888 114.329 88.4016 114.781 88.5232C115.38 88.6881 115.866 88.853 116.239 89.018C116.621 89.1829 116.942 89.439 117.203 89.7863C117.472 90.1248 117.606 90.5806 117.606 91.1535C117.606 91.6136 117.481 92.0477 117.229 92.4557C116.986 92.8637 116.626 93.1935 116.148 93.4453C115.679 93.6884 115.124 93.8099 114.481 93.8099ZM121.09 87.7549V91.7265C121.09 91.9956 121.151 92.1909 121.272 92.3124C121.402 92.4253 121.619 92.4817 121.923 92.4817H122.835V93.7188H121.663C120.994 93.7188 120.482 93.5625 120.126 93.25C119.77 92.9375 119.592 92.4296 119.592 91.7265V87.7549H118.746V86.5439H119.592V84.76H121.09V86.5439H122.835V87.7549H121.09ZM123.708 90.0988C123.708 89.3782 123.856 88.7402 124.151 88.1846C124.455 87.629 124.863 87.1993 125.375 86.8955C125.896 86.583 126.469 86.4267 127.094 86.4267C127.658 86.4267 128.149 86.5396 128.565 86.7653C128.991 86.9823 129.329 87.2557 129.581 87.5856V86.5439H131.078V93.7188H129.581V92.651C129.329 92.9895 128.986 93.2717 128.552 93.4974C128.118 93.7231 127.623 93.8359 127.068 93.8359C126.451 93.8359 125.887 93.6797 125.375 93.3672C124.863 93.046 124.455 92.6032 124.151 92.039C123.856 91.466 123.708 90.8193 123.708 90.0988ZM129.581 90.1248C129.581 89.63 129.477 89.2003 129.268 88.8357C129.069 88.4711 128.804 88.1933 128.474 88.0023C128.144 87.8113 127.788 87.7158 127.406 87.7158C127.024 87.7158 126.668 87.8113 126.339 88.0023C126.009 88.1846 125.74 88.4581 125.531 88.8227C125.332 89.1786 125.232 89.604 125.232 90.0988C125.232 90.5936 125.332 91.0276 125.531 91.4009C125.74 91.7742 126.009 92.0607 126.339 92.2603C126.677 92.4513 127.033 92.5468 127.406 92.5468C127.788 92.5468 128.144 92.4513 128.474 92.2603C128.804 92.0694 129.069 91.7916 129.268 91.427C129.477 91.0537 129.581 90.6196 129.581 90.1248ZM134.513 87.6117C134.764 87.2644 135.107 86.9823 135.541 86.7653C135.984 86.5396 136.474 86.4267 137.013 86.4267C137.646 86.4267 138.219 86.5786 138.732 86.8825C139.244 87.1863 139.647 87.6203 139.943 88.1846C140.238 88.7402 140.385 89.3782 140.385 90.0988C140.385 90.8193 140.238 91.466 139.943 92.039C139.647 92.6032 139.239 93.046 138.719 93.3672C138.206 93.6797 137.638 93.8359 137.013 93.8359C136.457 93.8359 135.962 93.7274 135.528 93.5104C135.103 93.2934 134.764 93.0156 134.513 92.677V93.7188H133.028V84.0828H134.513V87.6117ZM138.875 90.0988C138.875 89.604 138.771 89.1786 138.562 88.8227C138.363 88.4581 138.093 88.1846 137.755 88.0023C137.425 87.8113 137.069 87.7158 136.687 87.7158C136.314 87.7158 135.958 87.8113 135.619 88.0023C135.29 88.1933 135.02 88.4711 134.812 88.8357C134.612 89.2003 134.513 89.63 134.513 90.1248C134.513 90.6196 134.612 91.0537 134.812 91.427C135.02 91.7916 135.29 92.0694 135.619 92.2603C135.958 92.4513 136.314 92.5468 136.687 92.5468C137.069 92.5468 137.425 92.4513 137.755 92.2603C138.093 92.0607 138.363 91.7742 138.562 91.4009C138.771 91.0276 138.875 90.5936 138.875 90.0988ZM143.338 84.0828V93.7188H141.853V84.0828H143.338ZM151.862 89.9555C151.862 90.2246 151.845 90.4677 151.81 90.6847H146.328C146.372 91.2577 146.584 91.7178 146.966 92.065C147.348 92.4123 147.817 92.5859 148.373 92.5859C149.171 92.5859 149.736 92.2517 150.066 91.5832H151.667C151.45 92.243 151.055 92.7855 150.482 93.2109C149.918 93.6276 149.215 93.8359 148.373 93.8359C147.687 93.8359 147.071 93.684 146.524 93.3802C145.985 93.0677 145.56 92.6336 145.248 92.078C144.944 91.5138 144.792 90.8627 144.792 90.1248C144.792 89.3869 144.939 88.7402 145.235 88.1846C145.538 87.6203 145.959 87.1863 146.498 86.8825C147.045 86.5786 147.67 86.4267 148.373 86.4267C149.05 86.4267 149.653 86.5743 150.183 86.8694C150.712 87.1646 151.125 87.5813 151.42 88.1195C151.715 88.649 151.862 89.2611 151.862 89.9555ZM150.313 89.4868C150.304 88.9399 150.109 88.5015 149.727 88.1716C149.345 87.8417 148.872 87.6768 148.308 87.6768C147.795 87.6768 147.357 87.8417 146.992 88.1716C146.628 88.4928 146.411 88.9312 146.341 89.4868H150.313ZM155.928 93.8359C155.363 93.8359 154.856 93.7361 154.404 93.5364C153.961 93.3281 153.61 93.0503 153.349 92.7031C153.089 92.3472 152.95 91.9522 152.933 91.5181H154.469C154.495 91.822 154.639 92.078 154.899 92.2864C155.168 92.486 155.502 92.5859 155.902 92.5859C156.318 92.5859 156.639 92.5077 156.865 92.3515C157.1 92.1866 157.217 91.9782 157.217 91.7265C157.217 91.4573 157.087 91.2577 156.826 91.1275C156.574 90.9973 156.171 90.854 155.615 90.6978C155.077 90.5502 154.639 90.4069 154.3 90.2681C153.961 90.1292 153.666 89.9165 153.414 89.63C153.171 89.3435 153.05 88.9659 153.05 88.4971C153.05 88.1152 153.163 87.7679 153.388 87.4554C153.614 87.1342 153.935 86.8825 154.352 86.7002C154.777 86.5179 155.264 86.4267 155.81 86.4267C156.626 86.4267 157.282 86.6351 157.777 87.0517C158.28 87.4597 158.549 88.0197 158.584 88.7315H157.1C157.074 88.4103 156.943 88.1542 156.709 87.9632C156.475 87.7723 156.158 87.6768 155.758 87.6768C155.368 87.6768 155.068 87.7506 154.86 87.8981C154.652 88.0457 154.547 88.241 154.547 88.4841C154.547 88.6751 154.617 88.8357 154.756 88.9659C154.895 89.0961 155.064 89.2003 155.264 89.2784C155.463 89.3479 155.758 89.439 156.149 89.5519C156.67 89.6908 157.095 89.834 157.425 89.9816C157.764 90.1205 158.054 90.3288 158.298 90.6066C158.541 90.8844 158.666 91.2533 158.675 91.7134C158.675 92.1214 158.562 92.486 158.337 92.8072C158.111 93.1284 157.79 93.3802 157.373 93.5625C156.965 93.7448 156.483 93.8359 155.928 93.8359ZM169.915 86.5439L167.688 93.7188H166.126L164.68 88.419L163.235 93.7188H161.672L159.433 86.5439H160.943L162.441 92.3124L163.964 86.5439H165.514L166.972 92.2864L168.457 86.5439H169.915ZM170.53 90.0988C170.53 89.3782 170.677 88.7402 170.972 88.1846C171.276 87.629 171.684 87.1993 172.196 86.8955C172.717 86.583 173.29 86.4267 173.915 86.4267C174.479 86.4267 174.97 86.5396 175.387 86.7653C175.812 86.9823 176.151 87.2557 176.402 87.5856V86.5439H177.9V93.7188H176.402V92.651C176.151 92.9895 175.808 93.2717 175.374 93.4974C174.94 93.7231 174.445 93.8359 173.889 93.8359C173.273 93.8359 172.709 93.6797 172.196 93.3672C171.684 93.046 171.276 92.6032 170.972 92.039C170.677 91.466 170.53 90.8193 170.53 90.0988ZM176.402 90.1248C176.402 89.63 176.298 89.2003 176.09 88.8357C175.89 88.4711 175.625 88.1933 175.296 88.0023C174.966 87.8113 174.61 87.7158 174.228 87.7158C173.846 87.7158 173.49 87.8113 173.16 88.0023C172.83 88.1846 172.561 88.4581 172.353 88.8227C172.153 89.1786 172.053 89.604 172.053 90.0988C172.053 90.5936 172.153 91.0276 172.353 91.4009C172.561 91.7742 172.83 92.0607 173.16 92.2603C173.499 92.4513 173.854 92.5468 174.228 92.5468C174.61 92.5468 174.966 92.4513 175.296 92.2603C175.625 92.0694 175.89 91.7916 176.09 91.427C176.298 91.0537 176.402 90.6196 176.402 90.1248ZM181.334 87.5986C181.586 87.2688 181.929 86.991 182.363 86.7653C182.797 86.5396 183.287 86.4267 183.834 86.4267C184.459 86.4267 185.028 86.583 185.54 86.8955C186.061 87.1993 186.469 87.629 186.764 88.1846C187.059 88.7402 187.207 89.3782 187.207 90.0988C187.207 90.8193 187.059 91.466 186.764 92.039C186.469 92.6032 186.061 93.046 185.54 93.3672C185.028 93.6797 184.459 93.8359 183.834 93.8359C183.287 93.8359 182.801 93.7274 182.376 93.5104C181.95 93.2847 181.603 93.0069 181.334 92.677V97.1304H179.85V86.5439H181.334V87.5986ZM185.696 90.0988C185.696 89.604 185.592 89.1786 185.384 88.8227C185.184 88.4581 184.915 88.1846 184.576 88.0023C184.246 87.8113 183.891 87.7158 183.509 87.7158C183.135 87.7158 182.779 87.8113 182.441 88.0023C182.111 88.1933 181.842 88.4711 181.634 88.8357C181.434 89.2003 181.334 89.63 181.334 90.1248C181.334 90.6196 181.434 91.0537 181.634 91.427C181.842 91.7916 182.111 92.0694 182.441 92.2603C182.779 92.4513 183.135 92.5468 183.509 92.5468C183.891 92.5468 184.246 92.4513 184.576 92.2603C184.915 92.0607 185.184 91.7742 185.384 91.4009C185.592 91.0276 185.696 90.5936 185.696 90.0988ZM25.1838 109.075C24.8713 109.075 24.5849 109.002 24.3244 108.854C24.0727 108.698 23.8687 108.494 23.7124 108.242C23.5648 107.982 23.491 107.695 23.491 107.383C23.491 106.905 23.656 106.501 23.9859 106.172C24.3157 105.842 24.7151 105.677 25.1838 105.677C25.67 105.677 26.078 105.842 26.4079 106.172C26.7377 106.501 26.9027 106.905 26.9027 107.383C26.9027 107.86 26.7377 108.264 26.4079 108.594C26.078 108.915 25.67 109.075 25.1838 109.075ZM42.2675 105.364C42.2675 105.824 42.159 106.258 41.942 106.666C41.7249 107.074 41.3777 107.409 40.9002 107.669C40.4228 107.921 39.8108 108.047 39.0642 108.047H37.4235V111.719H35.939V102.669H39.0642C39.7587 102.669 40.3447 102.79 40.8221 103.033C41.3082 103.268 41.6685 103.589 41.9029 103.997C42.146 104.405 42.2675 104.861 42.2675 105.364ZM39.0642 106.836C39.6285 106.836 40.0495 106.71 40.3273 106.458C40.6051 106.198 40.744 105.833 40.744 105.364C40.744 104.375 40.1841 103.88 39.0642 103.88H37.4235V106.836H39.0642ZM45.1677 105.586C45.3848 105.221 45.6712 104.939 46.0272 104.739C46.3918 104.531 46.8215 104.427 47.3163 104.427V105.963H46.9387C46.357 105.963 45.9143 106.111 45.6105 106.406C45.3153 106.701 45.1677 107.213 45.1677 107.943V111.719H43.6833V104.544H45.1677V105.586ZM51.7929 111.836C51.1158 111.836 50.5038 111.684 49.9569 111.38C49.41 111.068 48.9803 110.634 48.6678 110.078C48.3553 109.514 48.199 108.863 48.199 108.125C48.199 107.396 48.3596 106.749 48.6808 106.185C49.002 105.62 49.4404 105.186 49.996 104.882C50.5516 104.579 51.1722 104.427 51.858 104.427C52.5438 104.427 53.1645 104.579 53.7201 104.882C54.2757 105.186 54.7141 105.62 55.0353 106.185C55.3565 106.749 55.5171 107.396 55.5171 108.125C55.5171 108.854 55.3521 109.501 55.0223 110.065C54.6924 110.629 54.241 111.068 53.668 111.38C53.1038 111.684 52.4787 111.836 51.7929 111.836ZM51.7929 110.547C52.1749 110.547 52.5308 110.456 52.8607 110.273C53.1993 110.091 53.4727 109.818 53.6811 109.453C53.8894 109.088 53.9936 108.646 53.9936 108.125C53.9936 107.604 53.8937 107.166 53.6941 106.81C53.4944 106.445 53.2296 106.172 52.8998 105.989C52.5699 105.807 52.214 105.716 51.832 105.716C51.45 105.716 51.0941 105.807 50.7642 105.989C50.443 106.172 50.1869 106.445 49.996 106.81C49.805 107.166 49.7095 107.604 49.7095 108.125C49.7095 108.897 49.9048 109.496 50.2955 109.922C50.6948 110.338 51.1939 110.547 51.7929 110.547ZM58.7164 105.755V109.726C58.7164 109.996 58.7772 110.191 58.8987 110.312C59.0289 110.425 59.2459 110.482 59.5498 110.482H60.4613V111.719H59.2894C58.6209 111.719 58.1087 111.562 57.7528 111.25C57.3969 110.937 57.2189 110.43 57.2189 109.726V105.755H56.3725V104.544H57.2189V102.76H58.7164V104.544H60.4613V105.755H58.7164ZM64.9416 111.836C64.2645 111.836 63.6525 111.684 63.1056 111.38C62.5587 111.068 62.129 110.634 61.8164 110.078C61.5039 109.514 61.3477 108.863 61.3477 108.125C61.3477 107.396 61.5083 106.749 61.8295 106.185C62.1507 105.62 62.589 105.186 63.1446 104.882C63.7002 104.579 64.3209 104.427 65.0067 104.427C65.6925 104.427 66.3132 104.579 66.8688 104.882C67.4244 105.186 67.8628 105.62 68.184 106.185C68.5052 106.749 68.6658 107.396 68.6658 108.125C68.6658 108.854 68.5008 109.501 68.1709 110.065C67.8411 110.629 67.3896 111.068 66.8167 111.38C66.2524 111.684 65.6274 111.836 64.9416 111.836ZM64.9416 110.547C65.3236 110.547 65.6795 110.456 66.0094 110.273C66.3479 110.091 66.6214 109.818 66.8297 109.453C67.0381 109.088 67.1422 108.646 67.1422 108.125C67.1422 107.604 67.0424 107.166 66.8427 106.81C66.6431 106.445 66.3783 106.172 66.0484 105.989C65.7186 105.807 65.3626 105.716 64.9807 105.716C64.5987 105.716 64.2428 105.807 63.9129 105.989C63.5917 106.172 63.3356 106.445 63.1446 106.81C62.9537 107.166 62.8582 107.604 62.8582 108.125C62.8582 108.897 63.0535 109.496 63.4441 109.922C63.8435 110.338 64.3426 110.547 64.9416 110.547ZM69.6384 108.125C69.6384 107.387 69.786 106.74 70.0811 106.185C70.385 105.62 70.8017 105.186 71.3312 104.882C71.8607 104.579 72.4684 104.427 73.1542 104.427C74.0223 104.427 74.7385 104.635 75.3028 105.052C75.8757 105.46 76.262 106.046 76.4617 106.81H74.86C74.7298 106.454 74.5215 106.176 74.235 105.976C73.9485 105.777 73.5883 105.677 73.1542 105.677C72.5465 105.677 72.0604 105.894 71.6958 106.328C71.3399 106.753 71.1619 107.352 71.1619 108.125C71.1619 108.897 71.3399 109.501 71.6958 109.935C72.0604 110.369 72.5465 110.586 73.1542 110.586C74.0136 110.586 74.5822 110.208 74.86 109.453H76.4617C76.2533 110.182 75.8627 110.764 75.2897 111.198C74.7168 111.623 74.0049 111.836 73.1542 111.836C72.4684 111.836 71.8607 111.684 71.3312 111.38C70.8017 111.068 70.385 110.634 70.0811 110.078C69.786 109.514 69.6384 108.863 69.6384 108.125ZM81.0532 111.836C80.3761 111.836 79.764 111.684 79.2171 111.38C78.6702 111.068 78.2405 110.634 77.928 110.078C77.6155 109.514 77.4592 108.863 77.4592 108.125C77.4592 107.396 77.6198 106.749 77.941 106.185C78.2622 105.62 78.7006 105.186 79.2562 104.882C79.8118 104.579 80.4325 104.427 81.1183 104.427C81.8041 104.427 82.4248 104.579 82.9804 104.882C83.5359 105.186 83.9743 105.62 84.2955 106.185C84.6167 106.749 84.7773 107.396 84.7773 108.125C84.7773 108.854 84.6124 109.501 84.2825 110.065C83.9526 110.629 83.5012 111.068 82.9283 111.38C82.364 111.684 81.739 111.836 81.0532 111.836ZM81.0532 110.547C81.4351 110.547 81.7911 110.456 82.1209 110.273C82.4595 110.091 82.7329 109.818 82.9413 109.453C83.1496 109.088 83.2538 108.646 83.2538 108.125C83.2538 107.604 83.154 107.166 82.9543 106.81C82.7546 106.445 82.4899 106.172 82.16 105.989C81.8301 105.807 81.4742 105.716 81.0922 105.716C80.7103 105.716 80.3543 105.807 80.0245 105.989C79.7033 106.172 79.4472 106.445 79.2562 106.81C79.0652 107.166 78.9697 107.604 78.9697 108.125C78.9697 108.897 79.1651 109.496 79.5557 109.922C79.955 110.338 80.4542 110.547 81.0532 110.547ZM87.7292 102.083V111.719H86.2448V102.083H87.7292ZM95.1863 106.38V107.63H89.8344V106.38H95.1863ZM100.407 111.836C99.7303 111.836 99.1183 111.684 98.5714 111.38C98.0245 111.068 97.5948 110.634 97.2822 110.078C96.9697 109.514 96.8135 108.863 96.8135 108.125C96.8135 107.396 96.9741 106.749 97.2953 106.185C97.6165 105.62 98.0549 105.186 98.6104 104.882C99.166 104.579 99.7867 104.427 100.473 104.427C101.158 104.427 101.779 104.579 102.335 104.882C102.89 105.186 103.329 105.62 103.65 106.185C103.971 106.749 104.132 107.396 104.132 108.125C104.132 108.854 103.967 109.501 103.637 110.065C103.307 110.629 102.855 111.068 102.282 111.38C101.718 111.684 101.093 111.836 100.407 111.836ZM100.407 110.547C100.789 110.547 101.145 110.456 101.475 110.273C101.814 110.091 102.087 109.818 102.296 109.453C102.504 109.088 102.608 108.646 102.608 108.125C102.608 107.604 102.508 107.166 102.309 106.81C102.109 106.445 101.844 106.172 101.514 105.989C101.184 105.807 100.828 105.716 100.446 105.716C100.065 105.716 99.7086 105.807 99.3787 105.989C99.0575 106.172 98.8014 106.445 98.6104 106.81C98.4195 107.166 98.324 107.604 98.324 108.125C98.324 108.897 98.5193 109.496 98.9099 109.922C99.3093 110.338 99.8084 110.547 100.407 110.547ZM115.235 104.544L113.008 111.719H111.446L110 106.419L108.555 111.719H106.992L104.753 104.544H106.263L107.761 110.312L109.284 104.544H110.834L112.292 110.286L113.777 104.544H115.235ZM119.964 104.427C120.529 104.427 121.032 104.544 121.475 104.778C121.926 105.013 122.278 105.36 122.53 105.82C122.781 106.28 122.907 106.836 122.907 107.487V111.719H121.436V107.708C121.436 107.066 121.275 106.575 120.954 106.237C120.633 105.889 120.194 105.716 119.639 105.716C119.083 105.716 118.64 105.889 118.311 106.237C117.989 106.575 117.829 107.066 117.829 107.708V111.719H116.344V104.544H117.829V105.364C118.072 105.069 118.38 104.839 118.753 104.674C119.135 104.509 119.539 104.427 119.964 104.427ZM131.377 107.956C131.377 108.225 131.359 108.468 131.324 108.685H125.842C125.886 109.258 126.098 109.718 126.48 110.065C126.862 110.412 127.331 110.586 127.887 110.586C128.685 110.586 129.25 110.252 129.58 109.583H131.181C130.964 110.243 130.569 110.786 129.996 111.211C129.432 111.628 128.729 111.836 127.887 111.836C127.201 111.836 126.585 111.684 126.038 111.38C125.499 111.068 125.074 110.634 124.762 110.078C124.458 109.514 124.306 108.863 124.306 108.125C124.306 107.387 124.453 106.74 124.749 106.185C125.052 105.62 125.473 105.186 126.012 104.882C126.559 104.579 127.184 104.427 127.887 104.427C128.564 104.427 129.167 104.574 129.697 104.869C130.226 105.165 130.639 105.581 130.934 106.12C131.229 106.649 131.377 107.261 131.377 107.956ZM129.827 107.487C129.818 106.94 129.623 106.501 129.241 106.172C128.859 105.842 128.386 105.677 127.822 105.677C127.309 105.677 126.871 105.842 126.506 106.172C126.142 106.493 125.925 106.931 125.855 107.487H129.827ZM132.343 108.099C132.343 107.378 132.49 106.74 132.785 106.185C133.089 105.629 133.497 105.199 134.009 104.895C134.53 104.583 135.107 104.427 135.741 104.427C136.21 104.427 136.67 104.531 137.121 104.739C137.582 104.939 137.946 105.208 138.215 105.547V102.083H139.713V111.719H138.215V110.638C137.972 110.985 137.634 111.272 137.2 111.497C136.774 111.723 136.284 111.836 135.728 111.836C135.103 111.836 134.53 111.68 134.009 111.367C133.497 111.046 133.089 110.603 132.785 110.039C132.49 109.466 132.343 108.819 132.343 108.099ZM138.215 108.125C138.215 107.63 138.111 107.2 137.903 106.836C137.703 106.471 137.438 106.193 137.108 106.002C136.779 105.811 136.423 105.716 136.041 105.716C135.659 105.716 135.303 105.811 134.973 106.002C134.643 106.185 134.374 106.458 134.166 106.823C133.966 107.179 133.866 107.604 133.866 108.099C133.866 108.594 133.966 109.028 134.166 109.401C134.374 109.774 134.643 110.061 134.973 110.26C135.311 110.451 135.667 110.547 136.041 110.547C136.423 110.547 136.779 110.451 137.108 110.26C137.438 110.069 137.703 109.792 137.903 109.427C138.111 109.054 138.215 108.62 138.215 108.125ZM146.529 102.083V111.719H145.045V102.083H146.529ZM149.234 103.593C148.965 103.593 148.739 103.502 148.557 103.32C148.374 103.138 148.283 102.912 148.283 102.643C148.283 102.374 148.374 102.148 148.557 101.966C148.739 101.783 148.965 101.692 149.234 101.692C149.494 101.692 149.715 101.783 149.898 101.966C150.08 102.148 150.171 102.374 150.171 102.643C150.171 102.912 150.08 103.138 149.898 103.32C149.715 103.502 149.494 103.593 149.234 103.593ZM149.963 104.544V111.719H148.478V104.544H149.963ZM151.417 108.099C151.417 107.378 151.565 106.74 151.86 106.185C152.164 105.629 152.572 105.199 153.084 104.895C153.605 104.583 154.182 104.427 154.816 104.427C155.371 104.427 155.862 104.54 156.287 104.765C156.721 104.991 157.055 105.264 157.29 105.586V104.544H158.787V115.13H157.29V110.677C157.055 110.998 156.717 111.272 156.274 111.497C155.831 111.723 155.328 111.836 154.764 111.836C154.147 111.836 153.583 111.68 153.071 111.367C152.567 111.046 152.164 110.603 151.86 110.039C151.565 109.466 151.417 108.819 151.417 108.099ZM157.29 108.125C157.29 107.63 157.186 107.2 156.977 106.836C156.778 106.471 156.513 106.193 156.183 106.002C155.853 105.811 155.497 105.716 155.115 105.716C154.733 105.716 154.377 105.811 154.047 106.002C153.717 106.185 153.448 106.458 153.24 106.823C153.04 107.179 152.941 107.604 152.941 108.099C152.941 108.594 153.04 109.028 153.24 109.401C153.448 109.774 153.717 110.061 154.047 110.26C154.386 110.451 154.742 110.547 155.115 110.547C155.497 110.547 155.853 110.451 156.183 110.26C156.513 110.069 156.778 109.792 156.977 109.427C157.186 109.054 157.29 108.62 157.29 108.125ZM167.235 104.544V111.719H165.75V110.872C165.516 111.168 165.208 111.402 164.826 111.576C164.452 111.74 164.053 111.823 163.628 111.823C163.063 111.823 162.556 111.706 162.104 111.471C161.661 111.237 161.31 110.89 161.049 110.43C160.798 109.97 160.672 109.414 160.672 108.763V104.544H162.143V108.542C162.143 109.184 162.304 109.679 162.625 110.026C162.946 110.365 163.385 110.534 163.94 110.534C164.496 110.534 164.934 110.365 165.255 110.026C165.585 109.679 165.75 109.184 165.75 108.542V104.544H167.235ZM169.949 103.593C169.679 103.593 169.454 103.502 169.271 103.32C169.089 103.138 168.998 102.912 168.998 102.643C168.998 102.374 169.089 102.148 169.271 101.966C169.454 101.783 169.679 101.692 169.949 101.692C170.209 101.692 170.43 101.783 170.613 101.966C170.795 102.148 170.886 102.374 170.886 102.643C170.886 102.912 170.795 103.138 170.613 103.32C170.43 103.502 170.209 103.593 169.949 103.593ZM170.678 104.544V111.719H169.193V104.544H170.678ZM172.132 108.099C172.132 107.378 172.279 106.74 172.575 106.185C172.878 105.629 173.286 105.199 173.799 104.895C174.319 104.583 174.897 104.427 175.53 104.427C175.999 104.427 176.459 104.531 176.911 104.739C177.371 104.939 177.735 105.208 178.005 105.547V102.083H179.502V111.719H178.005V110.638C177.762 110.985 177.423 111.272 176.989 111.497C176.564 111.723 176.073 111.836 175.517 111.836C174.892 111.836 174.319 111.68 173.799 111.367C173.286 111.046 172.878 110.603 172.575 110.039C172.279 109.466 172.132 108.819 172.132 108.099ZM178.005 108.125C178.005 107.63 177.9 107.2 177.692 106.836C177.492 106.471 177.228 106.193 176.898 106.002C176.568 105.811 176.212 105.716 175.83 105.716C175.448 105.716 175.092 105.811 174.762 106.002C174.432 106.185 174.163 106.458 173.955 106.823C173.755 107.179 173.655 107.604 173.655 108.099C173.655 108.594 173.755 109.028 173.955 109.401C174.163 109.774 174.432 110.061 174.762 110.26C175.101 110.451 175.457 110.547 175.83 110.547C176.212 110.547 176.568 110.451 176.898 110.26C177.228 110.069 177.492 109.792 177.692 109.427C177.9 109.054 178.005 108.62 178.005 108.125ZM182.207 103.593C181.938 103.593 181.712 103.502 181.53 103.32C181.348 103.138 181.257 102.912 181.257 102.643C181.257 102.374 181.348 102.148 181.53 101.966C181.712 101.783 181.938 101.692 182.207 101.692C182.468 101.692 182.689 101.783 182.871 101.966C183.053 102.148 183.145 102.374 183.145 102.643C183.145 102.912 183.053 103.138 182.871 103.32C182.689 103.502 182.468 103.593 182.207 103.593ZM182.936 104.544V111.719H181.452V104.544H182.936ZM186.617 105.755V109.726C186.617 109.996 186.678 110.191 186.799 110.312C186.93 110.425 187.147 110.482 187.45 110.482H188.362V111.719H187.19C186.522 111.719 186.009 111.562 185.653 111.25C185.298 110.937 185.12 110.43 185.12 109.726V105.755H184.273V104.544H185.12V102.76H186.617V104.544H188.362V105.755H186.617ZM196.189 104.544L191.788 115.091H190.251L191.709 111.602L188.884 104.544H190.537L192.556 110.013L194.652 104.544H196.189ZM25.1838 128.075C24.8713 128.075 24.5849 128.002 24.3244 127.854C24.0727 127.698 23.8687 127.494 23.7124 127.242C23.5648 126.982 23.491 126.695 23.491 126.383C23.491 125.905 23.656 125.501 23.9859 125.172C24.3157 124.842 24.7151 124.677 25.1838 124.677C25.67 124.677 26.078 124.842 26.4079 125.172C26.7377 125.501 26.9027 125.905 26.9027 126.383C26.9027 126.86 26.7377 127.264 26.4079 127.594C26.078 127.915 25.67 128.075 25.1838 128.075ZM40.6398 130.719L38.5564 127.099H37.4235V130.719H35.939V121.669H39.0642C39.7587 121.669 40.3447 121.79 40.8221 122.033C41.3082 122.276 41.6685 122.602 41.9029 123.01C42.146 123.418 42.2675 123.874 42.2675 124.377C42.2675 124.968 42.0939 125.506 41.7466 125.992C41.4081 126.469 40.8829 126.795 40.171 126.969L42.4107 130.719H40.6398ZM37.4235 125.914H39.0642C39.6198 125.914 40.0365 125.775 40.3143 125.497C40.6007 125.219 40.744 124.846 40.744 124.377C40.744 123.909 40.6051 123.544 40.3273 123.283C40.0495 123.014 39.6285 122.88 39.0642 122.88H37.4235V125.914ZM50.7424 126.956C50.7424 127.225 50.725 127.468 50.6903 127.685H45.2082C45.2516 128.258 45.4643 128.718 45.8463 129.065C46.2282 129.412 46.697 129.586 47.2526 129.586C48.0513 129.586 48.6155 129.252 48.9454 128.583H50.547C50.33 129.243 49.935 129.786 49.3621 130.211C48.7978 130.628 48.0947 130.836 47.2526 130.836C46.5668 130.836 45.9504 130.684 45.4035 130.38C44.8653 130.068 44.44 129.634 44.1274 129.078C43.8236 128.514 43.6717 127.863 43.6717 127.125C43.6717 126.387 43.8193 125.74 44.1144 125.185C44.4183 124.62 44.8393 124.186 45.3775 123.882C45.9244 123.579 46.5494 123.427 47.2526 123.427C47.9297 123.427 48.533 123.574 49.0626 123.869C49.5921 124.165 50.0045 124.581 50.2996 125.12C50.5948 125.649 50.7424 126.261 50.7424 126.956ZM49.1928 126.487C49.1841 125.94 48.9888 125.501 48.6068 125.172C48.2249 124.842 47.7518 124.677 47.1875 124.677C46.6753 124.677 46.2369 124.842 45.8723 125.172C45.5077 125.493 45.2907 125.931 45.2212 126.487H49.1928ZM61.8391 123.544L59.6125 130.719H58.0499L56.6045 125.419L55.1591 130.719H53.5965L51.3568 123.544H52.8673L54.3648 129.312L55.8883 123.544H57.4379L58.8963 129.286L60.3807 123.544H61.8391ZM62.4537 127.099C62.4537 126.378 62.6013 125.74 62.8964 125.185C63.2002 124.629 63.6083 124.199 64.1204 123.895C64.6413 123.583 65.2142 123.427 65.8393 123.427C66.4035 123.427 66.894 123.54 67.3107 123.765C67.7361 123.982 68.0746 124.256 68.3264 124.586V123.544H69.8239V130.719H68.3264V129.651C68.0746 129.99 67.7317 130.272 67.2977 130.497C66.8636 130.723 66.3688 130.836 65.8132 130.836C65.1969 130.836 64.6326 130.68 64.1204 130.367C63.6083 130.046 63.2002 129.603 62.8964 129.039C62.6013 128.466 62.4537 127.819 62.4537 127.099ZM68.3264 127.125C68.3264 126.63 68.2222 126.2 68.0139 125.836C67.8142 125.471 67.5494 125.193 67.2196 125.002C66.8897 124.811 66.5338 124.716 66.1518 124.716C65.7698 124.716 65.4139 124.811 65.084 125.002C64.7541 125.185 64.485 125.458 64.2767 125.823C64.077 126.179 63.9772 126.604 63.9772 127.099C63.9772 127.594 64.077 128.028 64.2767 128.401C64.485 128.774 64.7541 129.061 65.084 129.26C65.4226 129.451 65.7785 129.547 66.1518 129.547C66.5338 129.547 66.8897 129.451 67.2196 129.26C67.5494 129.069 67.8142 128.792 68.0139 128.427C68.2222 128.054 68.3264 127.62 68.3264 127.125ZM73.2581 124.586C73.4751 124.221 73.7616 123.939 74.1175 123.739C74.4821 123.531 74.9118 123.427 75.4066 123.427V124.963H75.029C74.4474 124.963 74.0046 125.111 73.7008 125.406C73.4056 125.701 73.2581 126.213 73.2581 126.943V130.719H71.7736V123.544H73.2581V124.586ZM76.2763 127.099C76.2763 126.378 76.4239 125.74 76.719 125.185C77.0229 124.629 77.4309 124.199 77.9431 123.895C78.4639 123.583 79.0412 123.427 79.6749 123.427C80.1437 123.427 80.6038 123.531 81.0552 123.739C81.5153 123.939 81.8799 124.208 82.149 124.547V121.083H83.6465V130.719H82.149V129.638C81.9059 129.985 81.5674 130.272 81.1333 130.497C80.708 130.723 80.2175 130.836 79.6619 130.836C79.0369 130.836 78.4639 130.68 77.9431 130.367C77.4309 130.046 77.0229 129.603 76.719 129.039C76.4239 128.466 76.2763 127.819 76.2763 127.099ZM82.149 127.125C82.149 126.63 82.0448 126.2 81.8365 125.836C81.6368 125.471 81.3721 125.193 81.0422 125.002C80.7123 124.811 80.3564 124.716 79.9744 124.716C79.5925 124.716 79.2365 124.811 78.9067 125.002C78.5768 125.185 78.3077 125.458 78.0993 125.823C77.8997 126.179 77.7998 126.604 77.7998 127.099C77.7998 127.594 77.8997 128.028 78.0993 128.401C78.3077 128.774 78.5768 129.061 78.9067 129.26C79.2452 129.451 79.6011 129.547 79.9744 129.547C80.3564 129.547 80.7123 129.451 81.0422 129.26C81.3721 129.069 81.6368 128.792 81.8365 128.427C82.0448 128.054 82.149 127.62 82.149 127.125ZM88.2006 130.836C87.6363 130.836 87.1284 130.736 86.677 130.536C86.2343 130.328 85.8827 130.05 85.6223 129.703C85.3619 129.347 85.223 128.952 85.2056 128.518H86.7421C86.7682 128.822 86.9114 129.078 87.1719 129.286C87.441 129.486 87.7752 129.586 88.1745 129.586C88.5912 129.586 88.9124 129.508 89.1381 129.351C89.3725 129.187 89.4897 128.978 89.4897 128.726C89.4897 128.457 89.3595 128.258 89.099 128.127C88.8473 127.997 88.4436 127.854 87.888 127.698C87.3498 127.55 86.9114 127.407 86.5729 127.268C86.2343 127.129 85.9391 126.916 85.6874 126.63C85.4443 126.344 85.3228 125.966 85.3228 125.497C85.3228 125.115 85.4357 124.768 85.6614 124.455C85.8871 124.134 86.2083 123.882 86.6249 123.7C87.0503 123.518 87.5365 123.427 88.0834 123.427C88.8994 123.427 89.5548 123.635 90.0496 124.052C90.5531 124.46 90.8222 125.02 90.8569 125.732H89.3725C89.3464 125.41 89.2162 125.154 88.9818 124.963C88.7475 124.772 88.4306 124.677 88.0313 124.677C87.6406 124.677 87.3411 124.751 87.1328 124.898C86.9244 125.046 86.8203 125.241 86.8203 125.484C86.8203 125.675 86.8897 125.836 87.0286 125.966C87.1675 126.096 87.3368 126.2 87.5365 126.278C87.7361 126.348 88.0313 126.439 88.4219 126.552C88.9428 126.691 89.3681 126.834 89.698 126.982C90.0366 127.12 90.3274 127.329 90.5705 127.607C90.8135 127.884 90.9394 128.253 90.9481 128.713C90.9481 129.121 90.8352 129.486 90.6095 129.807C90.3838 130.128 90.0626 130.38 89.6459 130.562C89.2379 130.745 88.7561 130.836 88.2006 130.836ZM97.4191 124.612C97.6708 124.264 98.0137 123.982 98.4478 123.765C98.8905 123.54 99.381 123.427 99.9192 123.427C100.553 123.427 101.126 123.579 101.638 123.882C102.15 124.186 102.554 124.62 102.849 125.185C103.144 125.74 103.292 126.378 103.292 127.099C103.292 127.819 103.144 128.466 102.849 129.039C102.554 129.603 102.146 130.046 101.625 130.367C101.113 130.68 100.544 130.836 99.9192 130.836C99.3636 130.836 98.8688 130.727 98.4347 130.51C98.0094 130.293 97.6708 130.016 97.4191 129.677V130.719H95.9346V121.083H97.4191V124.612ZM101.781 127.099C101.781 126.604 101.677 126.179 101.469 125.823C101.269 125.458 101 125.185 100.661 125.002C100.332 124.811 99.9756 124.716 99.5937 124.716C99.2204 124.716 98.8645 124.811 98.5259 125.002C98.196 125.193 97.9269 125.471 97.7186 125.836C97.5189 126.2 97.4191 126.63 97.4191 127.125C97.4191 127.62 97.5189 128.054 97.7186 128.427C97.9269 128.792 98.196 129.069 98.5259 129.26C98.8645 129.451 99.2204 129.547 99.5937 129.547C99.9756 129.547 100.332 129.451 100.661 129.26C101 129.061 101.269 128.774 101.469 128.401C101.677 128.028 101.781 127.594 101.781 127.099ZM107.872 130.836C107.195 130.836 106.583 130.684 106.036 130.38C105.489 130.068 105.059 129.634 104.747 129.078C104.434 128.514 104.278 127.863 104.278 127.125C104.278 126.396 104.439 125.749 104.76 125.185C105.081 124.62 105.519 124.186 106.075 123.882C106.63 123.579 107.251 123.427 107.937 123.427C108.623 123.427 109.243 123.579 109.799 123.882C110.355 124.186 110.793 124.62 111.114 125.185C111.435 125.749 111.596 126.396 111.596 127.125C111.596 127.854 111.431 128.501 111.101 129.065C110.771 129.629 110.32 130.068 109.747 130.38C109.183 130.684 108.558 130.836 107.872 130.836ZM107.872 129.547C108.254 129.547 108.61 129.456 108.94 129.273C109.278 129.091 109.552 128.818 109.76 128.453C109.968 128.088 110.073 127.646 110.073 127.125C110.073 126.604 109.973 126.166 109.773 125.81C109.573 125.445 109.309 125.172 108.979 124.989C108.649 124.807 108.293 124.716 107.911 124.716C107.529 124.716 107.173 124.807 106.843 124.989C106.522 125.172 106.266 125.445 106.075 125.81C105.884 126.166 105.788 126.604 105.788 127.125C105.788 127.897 105.984 128.496 106.374 128.922C106.774 129.338 107.273 129.547 107.872 129.547ZM116.176 130.836C115.499 130.836 114.886 130.684 114.34 130.38C113.793 130.068 113.363 129.634 113.05 129.078C112.738 128.514 112.582 127.863 112.582 127.125C112.582 126.396 112.742 125.749 113.063 125.185C113.385 124.62 113.823 124.186 114.379 123.882C114.934 123.579 115.555 123.427 116.241 123.427C116.927 123.427 117.547 123.579 118.103 123.882C118.658 124.186 119.097 124.62 119.418 125.185C119.739 125.749 119.9 126.396 119.9 127.125C119.9 127.854 119.735 128.501 119.405 129.065C119.075 129.629 118.624 130.068 118.051 130.38C117.486 130.684 116.861 130.836 116.176 130.836ZM116.176 129.547C116.558 129.547 116.914 129.456 117.243 129.273C117.582 129.091 117.855 128.818 118.064 128.453C118.272 128.088 118.376 127.646 118.376 127.125C118.376 126.604 118.276 126.166 118.077 125.81C117.877 125.445 117.612 125.172 117.282 124.989C116.953 124.807 116.597 124.716 116.215 124.716C115.833 124.716 115.477 124.807 115.147 124.989C114.826 125.172 114.57 125.445 114.379 125.81C114.188 126.166 114.092 126.604 114.092 127.125C114.092 127.897 114.288 128.496 114.678 128.922C115.077 129.338 115.577 129.547 116.176 129.547ZM123.972 130.836C123.407 130.836 122.899 130.736 122.448 130.536C122.005 130.328 121.654 130.05 121.393 129.703C121.133 129.347 120.994 128.952 120.977 128.518H122.513C122.539 128.822 122.682 129.078 122.943 129.286C123.212 129.486 123.546 129.586 123.946 129.586C124.362 129.586 124.683 129.508 124.909 129.351C125.143 129.187 125.261 128.978 125.261 128.726C125.261 128.457 125.13 128.258 124.87 128.127C124.618 127.997 124.215 127.854 123.659 127.698C123.121 127.55 122.682 127.407 122.344 127.268C122.005 127.129 121.71 126.916 121.458 126.63C121.215 126.344 121.094 125.966 121.094 125.497C121.094 125.115 121.207 124.768 121.432 124.455C121.658 124.134 121.979 123.882 122.396 123.7C122.821 123.518 123.307 123.427 123.854 123.427C124.67 123.427 125.326 123.635 125.821 124.052C126.324 124.46 126.593 125.02 126.628 125.732H125.143C125.117 125.41 124.987 125.154 124.753 124.963C124.518 124.772 124.202 124.677 123.802 124.677C123.412 124.677 123.112 124.751 122.904 124.898C122.695 125.046 122.591 125.241 122.591 125.484C122.591 125.675 122.661 125.836 122.8 125.966C122.939 126.096 123.108 126.2 123.307 126.278C123.507 126.348 123.802 126.439 124.193 126.552C124.714 126.691 125.139 126.834 125.469 126.982C125.808 127.12 126.098 127.329 126.341 127.607C126.585 127.884 126.71 128.253 126.719 128.713C126.719 129.121 126.606 129.486 126.381 129.807C126.155 130.128 125.834 130.38 125.417 130.562C125.009 130.745 124.527 130.836 123.972 130.836ZM130.055 124.755V128.726C130.055 128.996 130.116 129.191 130.237 129.312C130.367 129.425 130.584 129.482 130.888 129.482H131.8V130.719H130.628C129.959 130.719 129.447 130.562 129.091 130.25C128.735 129.937 128.557 129.43 128.557 128.726V124.755H127.711V123.544H128.557V121.76H130.055V123.544H131.8V124.755H130.055ZM133.923 122.593C133.654 122.593 133.428 122.502 133.246 122.32C133.064 122.138 132.973 121.912 132.973 121.643C132.973 121.374 133.064 121.148 133.246 120.966C133.428 120.783 133.654 120.692 133.923 120.692C134.184 120.692 134.405 120.783 134.587 120.966C134.77 121.148 134.861 121.374 134.861 121.643C134.861 121.912 134.77 122.138 134.587 122.32C134.405 122.502 134.184 122.593 133.923 122.593ZM134.652 123.544V130.719H133.168V123.544H134.652ZM140.221 123.427C140.786 123.427 141.289 123.544 141.732 123.778C142.183 124.013 142.535 124.36 142.787 124.82C143.038 125.28 143.164 125.836 143.164 126.487V130.719H141.693V126.708C141.693 126.066 141.532 125.575 141.211 125.237C140.89 124.889 140.451 124.716 139.896 124.716C139.34 124.716 138.898 124.889 138.568 125.237C138.246 125.575 138.086 126.066 138.086 126.708V130.719H136.601V123.544H138.086V124.364C138.329 124.069 138.637 123.839 139.01 123.674C139.392 123.509 139.796 123.427 140.221 123.427ZM147.949 123.427C148.504 123.427 148.995 123.54 149.42 123.765C149.854 123.982 150.193 124.256 150.436 124.586V123.544H151.933V130.836C151.933 131.496 151.794 132.082 151.516 132.594C151.239 133.115 150.835 133.523 150.305 133.818C149.785 134.113 149.16 134.261 148.43 134.261C147.458 134.261 146.651 134.031 146.008 133.57C145.366 133.119 145.001 132.503 144.914 131.721H146.386C146.499 132.095 146.738 132.394 147.102 132.62C147.475 132.854 147.918 132.971 148.43 132.971C149.029 132.971 149.511 132.789 149.876 132.425C150.249 132.06 150.436 131.53 150.436 130.836V129.638C150.184 129.977 149.841 130.263 149.407 130.497C148.982 130.723 148.495 130.836 147.949 130.836C147.323 130.836 146.751 130.68 146.23 130.367C145.717 130.046 145.309 129.603 145.006 129.039C144.71 128.466 144.563 127.819 144.563 127.099C144.563 126.378 144.71 125.74 145.006 125.185C145.309 124.629 145.717 124.199 146.23 123.895C146.751 123.583 147.323 123.427 147.949 123.427ZM150.436 127.125C150.436 126.63 150.331 126.2 150.123 125.836C149.923 125.471 149.659 125.193 149.329 125.002C148.999 124.811 148.643 124.716 148.261 124.716C147.879 124.716 147.523 124.811 147.193 125.002C146.863 125.185 146.594 125.458 146.386 125.823C146.186 126.179 146.086 126.604 146.086 127.099C146.086 127.594 146.186 128.028 146.386 128.401C146.594 128.774 146.863 129.061 147.193 129.26C147.532 129.451 147.888 129.547 148.261 129.547C148.643 129.547 148.999 129.451 149.329 129.26C149.659 129.069 149.923 128.792 150.123 128.427C150.331 128.054 150.436 127.62 150.436 127.125ZM25.1838 147.075C24.8713 147.075 24.5849 147.002 24.3244 146.854C24.0727 146.698 23.8687 146.494 23.7124 146.242C23.5648 145.982 23.491 145.695 23.491 145.383C23.491 144.905 23.656 144.501 23.9859 144.172C24.3157 143.842 24.7151 143.677 25.1838 143.677C25.67 143.677 26.078 143.842 26.4079 144.172C26.7377 144.501 26.9027 144.905 26.9027 145.383C26.9027 145.86 26.7377 146.264 26.4079 146.594C26.078 146.915 25.67 147.075 25.1838 147.075ZM40.783 145.07C41.2692 145.157 41.6815 145.413 42.0201 145.838C42.3586 146.264 42.5279 146.746 42.5279 147.284C42.5279 147.744 42.4064 148.161 42.1633 148.534C41.9289 148.898 41.586 149.189 41.1346 149.406C40.6832 149.615 40.158 149.719 39.559 149.719H35.939V140.669H39.3897C40.0061 140.669 40.5356 140.773 40.9784 140.981C41.4211 141.19 41.7553 141.472 41.981 141.828C42.2067 142.175 42.3196 142.566 42.3196 143C42.3196 143.521 42.1807 143.955 41.9029 144.302C41.6251 144.649 41.2518 144.905 40.783 145.07ZM37.4235 144.471H39.2595C39.7457 144.471 40.1233 144.363 40.3924 144.146C40.6702 143.92 40.8091 143.599 40.8091 143.182C40.8091 142.774 40.6702 142.457 40.3924 142.231C40.1233 141.997 39.7457 141.88 39.2595 141.88H37.4235V144.471ZM39.4288 148.508C39.9323 148.508 40.3273 148.386 40.6138 148.143C40.9002 147.9 41.0435 147.562 41.0435 147.127C41.0435 146.685 40.8916 146.333 40.5877 146.073C40.2839 145.812 39.8802 145.682 39.3767 145.682H37.4235V148.508H39.4288ZM47.2532 149.836C46.5761 149.836 45.9641 149.684 45.4172 149.38C44.8703 149.068 44.4406 148.634 44.128 148.078C43.8155 147.514 43.6593 146.863 43.6593 146.125C43.6593 145.396 43.8199 144.749 44.1411 144.185C44.4623 143.62 44.9007 143.186 45.4562 142.882C46.0118 142.579 46.6325 142.427 47.3183 142.427C48.0041 142.427 48.6248 142.579 49.1804 142.882C49.736 143.186 50.1744 143.62 50.4956 144.185C50.8168 144.749 50.9774 145.396 50.9774 146.125C50.9774 146.854 50.8124 147.501 50.4825 148.065C50.1527 148.629 49.7013 149.068 49.1283 149.38C48.564 149.684 47.939 149.836 47.2532 149.836ZM47.2532 148.547C47.6352 148.547 47.9911 148.456 48.321 148.273C48.6595 148.091 48.933 147.818 49.1413 147.453C49.3497 147.088 49.4538 146.646 49.4538 146.125C49.4538 145.604 49.354 145.166 49.1543 144.81C48.9547 144.445 48.6899 144.172 48.36 143.989C48.0302 143.807 47.6742 143.716 47.2923 143.716C46.9103 143.716 46.5544 143.807 46.2245 143.989C45.9033 144.172 45.6472 144.445 45.4562 144.81C45.2653 145.166 45.1698 145.604 45.1698 146.125C45.1698 146.897 45.3651 147.496 45.7557 147.922C46.1551 148.338 46.6542 148.547 47.2532 148.547ZM53.9293 143.586C54.1463 143.221 54.4328 142.939 54.7887 142.739C55.1533 142.531 55.583 142.427 56.0778 142.427V143.963H55.7002C55.1186 143.963 54.6758 144.111 54.372 144.406C54.0768 144.701 53.9293 145.213 53.9293 145.943V149.719H52.4448V142.544H53.9293V143.586ZM58.9268 143.586C59.1438 143.221 59.4303 142.939 59.7862 142.739C60.1508 142.531 60.5805 142.427 61.0753 142.427V143.963H60.6977C60.1161 143.963 59.6734 144.111 59.3695 144.406C59.0744 144.701 58.9268 145.213 58.9268 145.943V149.719H57.4423V142.544H58.9268V143.586ZM65.552 149.836C64.8749 149.836 64.2629 149.684 63.716 149.38C63.1691 149.068 62.7393 148.634 62.4268 148.078C62.1143 147.514 61.9581 146.863 61.9581 146.125C61.9581 145.396 62.1186 144.749 62.4398 144.185C62.761 143.62 63.1994 143.186 63.755 142.882C64.3106 142.579 64.9313 142.427 65.6171 142.427C66.3029 142.427 66.9236 142.579 67.4792 142.882C68.0348 143.186 68.4731 143.62 68.7943 144.185C69.1155 144.749 69.2761 145.396 69.2761 146.125C69.2761 146.854 69.1112 147.501 68.7813 148.065C68.4514 148.629 68 149.068 67.4271 149.38C66.8628 149.684 66.2378 149.836 65.552 149.836ZM65.552 148.547C65.934 148.547 66.2899 148.456 66.6198 148.273C66.9583 148.091 67.2318 147.818 67.4401 147.453C67.6484 147.088 67.7526 146.646 67.7526 146.125C67.7526 145.604 67.6528 145.166 67.4531 144.81C67.2535 144.445 66.9887 144.172 66.6588 143.989C66.3289 143.807 65.973 143.716 65.5911 143.716C65.2091 143.716 64.8532 143.807 64.5233 143.989C64.2021 144.172 63.946 144.445 63.755 144.81C63.564 145.166 63.4685 145.604 63.4685 146.125C63.4685 146.897 63.6639 147.496 64.0545 147.922C64.4538 148.338 64.953 148.547 65.552 148.547ZM80.3795 142.544L78.1528 149.719H76.5903L75.1449 144.419L73.6995 149.719H72.1369L69.8972 142.544H71.4077L72.9052 148.312L74.4287 142.544H75.9782L77.4367 148.286L78.9211 142.544H80.3795ZM82.2441 141.593C81.975 141.593 81.7493 141.502 81.567 141.32C81.3847 141.138 81.2936 140.912 81.2936 140.643C81.2936 140.374 81.3847 140.148 81.567 139.966C81.7493 139.783 81.975 139.692 82.2441 139.692C82.5046 139.692 82.7259 139.783 82.9082 139.966C83.0905 140.148 83.1817 140.374 83.1817 140.643C83.1817 140.912 83.0905 141.138 82.9082 141.32C82.7259 141.502 82.5046 141.593 82.2441 141.593ZM82.9733 142.544V149.719H81.4889V142.544H82.9733ZM88.5423 142.427C89.1065 142.427 89.61 142.544 90.0528 142.778C90.5042 143.013 90.8558 143.36 91.1075 143.82C91.3592 144.28 91.4851 144.836 91.4851 145.487V149.719H90.0137V145.708C90.0137 145.066 89.8531 144.575 89.5319 144.237C89.2107 143.889 88.7723 143.716 88.2167 143.716C87.6611 143.716 87.2184 143.889 86.8885 144.237C86.5673 144.575 86.4067 145.066 86.4067 145.708V149.719H84.9223V142.544H86.4067V143.364C86.6498 143.069 86.958 142.839 87.3313 142.674C87.7132 142.509 88.1169 142.427 88.5423 142.427ZM96.2694 142.427C96.825 142.427 97.3155 142.54 97.7408 142.765C98.1749 142.982 98.5135 143.256 98.7565 143.586V142.544H100.254V149.836C100.254 150.496 100.115 151.082 99.8373 151.594C99.5595 152.115 99.1558 152.523 98.6263 152.818C98.1054 153.113 97.4804 153.261 96.7512 153.261C95.7789 153.261 94.9716 153.031 94.3292 152.57C93.6868 152.119 93.3222 151.503 93.2354 150.721H94.7068C94.8197 151.095 95.0584 151.394 95.423 151.62C95.7963 151.854 96.239 151.971 96.7512 151.971C97.3502 151.971 97.832 151.789 98.1966 151.425C98.5699 151.06 98.7565 150.53 98.7565 149.836V148.638C98.5048 148.977 98.1619 149.263 97.7278 149.497C97.3024 149.723 96.8163 149.836 96.2694 149.836C95.6444 149.836 95.0714 149.68 94.5506 149.367C94.0384 149.046 93.6304 148.603 93.3266 148.039C93.0314 147.466 92.8838 146.819 92.8838 146.099C92.8838 145.378 93.0314 144.74 93.3266 144.185C93.6304 143.629 94.0384 143.199 94.5506 142.895C95.0714 142.583 95.6444 142.427 96.2694 142.427ZM98.7565 146.125C98.7565 145.63 98.6523 145.2 98.444 144.836C98.2443 144.471 97.9796 144.193 97.6497 144.002C97.3198 143.811 96.9639 143.716 96.5819 143.716C96.2 143.716 95.844 143.811 95.5142 144.002C95.1843 144.185 94.9152 144.458 94.7068 144.823C94.5072 145.179 94.4073 145.604 94.4073 146.099C94.4073 146.594 94.5072 147.028 94.7068 147.401C94.9152 147.774 95.1843 148.061 95.5142 148.26C95.8527 148.451 96.2086 148.547 96.5819 148.547C96.9639 148.547 97.3198 148.451 97.6497 148.26C97.9796 148.069 98.2443 147.792 98.444 147.427C98.6523 147.054 98.7565 146.62 98.7565 146.125ZM108.594 143.755H107.266V149.719H105.769V143.755H104.922V142.544H105.769V142.036C105.769 141.211 105.986 140.612 106.42 140.239C106.862 139.857 107.553 139.666 108.49 139.666V140.903C108.039 140.903 107.722 140.99 107.54 141.164C107.357 141.329 107.266 141.619 107.266 142.036V142.544H108.594V143.755ZM116.486 145.956C116.486 146.225 116.468 146.468 116.434 146.685H110.952C110.995 147.258 111.208 147.718 111.59 148.065C111.972 148.412 112.44 148.586 112.996 148.586C113.795 148.586 114.359 148.252 114.689 147.583H116.29C116.073 148.243 115.678 148.786 115.105 149.211C114.541 149.628 113.838 149.836 112.996 149.836C112.31 149.836 111.694 149.684 111.147 149.38C110.609 149.068 110.183 148.634 109.871 148.078C109.567 147.514 109.415 146.863 109.415 146.125C109.415 145.387 109.563 144.74 109.858 144.185C110.162 143.62 110.583 143.186 111.121 142.882C111.668 142.579 112.293 142.427 112.996 142.427C113.673 142.427 114.276 142.574 114.806 142.869C115.335 143.165 115.748 143.581 116.043 144.12C116.338 144.649 116.486 145.261 116.486 145.956ZM114.936 145.487C114.927 144.94 114.732 144.501 114.35 144.172C113.968 143.842 113.495 143.677 112.931 143.677C112.419 143.677 111.98 143.842 111.616 144.172C111.251 144.493 111.034 144.931 110.965 145.487H114.936ZM124.522 145.956C124.522 146.225 124.505 146.468 124.47 146.685H118.988C119.032 147.258 119.244 147.718 119.626 148.065C120.008 148.412 120.477 148.586 121.033 148.586C121.831 148.586 122.396 148.252 122.725 147.583H124.327C124.11 148.243 123.715 148.786 123.142 149.211C122.578 149.628 121.875 149.836 121.033 149.836C120.347 149.836 119.73 149.684 119.184 149.38C118.645 149.068 118.22 148.634 117.907 148.078C117.604 147.514 117.452 146.863 117.452 146.125C117.452 145.387 117.599 144.74 117.894 144.185C118.198 143.62 118.619 143.186 119.158 142.882C119.704 142.579 120.329 142.427 121.033 142.427C121.71 142.427 122.313 142.574 122.843 142.869C123.372 143.165 123.785 143.581 124.08 144.12C124.375 144.649 124.522 145.261 124.522 145.956ZM122.973 145.487C122.964 144.94 122.769 144.501 122.387 144.172C122.005 143.842 121.532 143.677 120.968 143.677C120.455 143.677 120.017 143.842 119.652 144.172C119.288 144.493 119.071 144.931 119.001 145.487H122.973ZM130.85 143.586C131.067 143.221 131.354 142.939 131.71 142.739C132.074 142.531 132.504 142.427 132.999 142.427V143.963H132.621C132.04 143.963 131.597 144.111 131.293 144.406C130.998 144.701 130.85 145.213 130.85 145.943V149.719H129.366V142.544H130.85V143.586ZM140.939 145.956C140.939 146.225 140.922 146.468 140.887 146.685H135.405C135.448 147.258 135.661 147.718 136.043 148.065C136.425 148.412 136.894 148.586 137.449 148.586C138.248 148.586 138.812 148.252 139.142 147.583H140.744C140.527 148.243 140.132 148.786 139.559 149.211C138.995 149.628 138.291 149.836 137.449 149.836C136.764 149.836 136.147 149.684 135.6 149.38C135.062 149.068 134.637 148.634 134.324 148.078C134.02 147.514 133.868 146.863 133.868 146.125C133.868 145.387 134.016 144.74 134.311 144.185C134.615 143.62 135.036 143.186 135.574 142.882C136.121 142.579 136.746 142.427 137.449 142.427C138.127 142.427 138.73 142.574 139.259 142.869C139.789 143.165 140.201 143.581 140.496 144.12C140.792 144.649 140.939 145.261 140.939 145.956ZM139.39 145.487C139.381 144.94 139.186 144.501 138.804 144.172C138.422 143.842 137.949 143.677 137.384 143.677C136.872 143.677 136.434 143.842 136.069 144.172C135.705 144.493 135.488 144.931 135.418 145.487H139.39ZM143.884 143.612C144.136 143.264 144.479 142.982 144.913 142.765C145.356 142.54 145.846 142.427 146.385 142.427C147.018 142.427 147.591 142.579 148.103 142.882C148.616 143.186 149.019 143.62 149.314 144.185C149.61 144.74 149.757 145.378 149.757 146.099C149.757 146.819 149.61 147.466 149.314 148.039C149.019 148.603 148.611 149.046 148.09 149.367C147.578 149.68 147.01 149.836 146.385 149.836C145.829 149.836 145.334 149.727 144.9 149.51C144.475 149.293 144.136 149.016 143.884 148.677V149.719H142.4V140.083H143.884V143.612ZM148.247 146.099C148.247 145.604 148.143 145.179 147.934 144.823C147.735 144.458 147.465 144.185 147.127 144.002C146.797 143.811 146.441 143.716 146.059 143.716C145.686 143.716 145.33 143.811 144.991 144.002C144.661 144.193 144.392 144.471 144.184 144.836C143.984 145.2 143.884 145.63 143.884 146.125C143.884 146.62 143.984 147.054 144.184 147.427C144.392 147.792 144.661 148.069 144.991 148.26C145.33 148.451 145.686 148.547 146.059 148.547C146.441 148.547 146.797 148.451 147.127 148.26C147.465 148.061 147.735 147.774 147.934 147.401C148.143 147.028 148.247 146.594 148.247 146.099ZM150.73 146.099C150.73 145.378 150.878 144.74 151.173 144.185C151.477 143.629 151.885 143.199 152.397 142.895C152.918 142.583 153.491 142.427 154.116 142.427C154.68 142.427 155.171 142.54 155.587 142.765C156.013 142.982 156.351 143.256 156.603 143.586V142.544H158.101V149.719H156.603V148.651C156.351 148.99 156.008 149.272 155.574 149.497C155.14 149.723 154.645 149.836 154.09 149.836C153.474 149.836 152.909 149.68 152.397 149.367C151.885 149.046 151.477 148.603 151.173 148.039C150.878 147.466 150.73 146.819 150.73 146.099ZM156.603 146.125C156.603 145.63 156.499 145.2 156.291 144.836C156.091 144.471 155.826 144.193 155.496 144.002C155.166 143.811 154.81 143.716 154.428 143.716C154.046 143.716 153.691 143.811 153.361 144.002C153.031 144.185 152.762 144.458 152.553 144.823C152.354 145.179 152.254 145.604 152.254 146.099C152.254 146.594 152.354 147.028 152.553 147.401C152.762 147.774 153.031 148.061 153.361 148.26C153.699 148.451 154.055 148.547 154.428 148.547C154.81 148.547 155.166 148.451 155.496 148.26C155.826 148.069 156.091 147.792 156.291 147.427C156.499 147.054 156.603 146.62 156.603 146.125ZM161.782 143.755V147.726C161.782 147.996 161.843 148.191 161.964 148.312C162.095 148.425 162.312 148.482 162.616 148.482H163.527V149.719H162.355C161.687 149.719 161.174 149.562 160.819 149.25C160.463 148.937 160.285 148.43 160.285 147.726V143.755H159.438V142.544H160.285V140.76H161.782V142.544H163.527V143.755H161.782ZM171.471 145.956C171.471 146.225 171.454 146.468 171.419 146.685H165.937C165.98 147.258 166.193 147.718 166.575 148.065C166.957 148.412 167.426 148.586 167.981 148.586C168.78 148.586 169.344 148.252 169.674 147.583H171.276C171.059 148.243 170.664 148.786 170.091 149.211C169.527 149.628 168.823 149.836 167.981 149.836C167.295 149.836 166.679 149.684 166.132 149.38C165.594 149.068 165.169 148.634 164.856 148.078C164.552 147.514 164.4 146.863 164.4 146.125C164.4 145.387 164.548 144.74 164.843 144.185C165.147 143.62 165.568 143.186 166.106 142.882C166.653 142.579 167.278 142.427 167.981 142.427C168.658 142.427 169.262 142.574 169.791 142.869C170.321 143.165 170.733 143.581 171.028 144.12C171.323 144.649 171.471 145.261 171.471 145.956ZM169.921 145.487C169.913 144.94 169.717 144.501 169.336 144.172C168.954 143.842 168.48 143.677 167.916 143.677C167.404 143.677 166.966 143.842 166.601 144.172C166.236 144.493 166.019 144.931 165.95 145.487H169.921ZM175.536 149.836C174.972 149.836 174.464 149.736 174.013 149.536C173.57 149.328 173.218 149.05 172.958 148.703C172.698 148.347 172.559 147.952 172.541 147.518H174.078C174.104 147.822 174.247 148.078 174.508 148.286C174.777 148.486 175.111 148.586 175.51 148.586C175.927 148.586 176.248 148.508 176.474 148.351C176.708 148.187 176.825 147.978 176.825 147.726C176.825 147.457 176.695 147.258 176.435 147.127C176.183 146.997 175.779 146.854 175.224 146.698C174.685 146.55 174.247 146.407 173.909 146.268C173.57 146.129 173.275 145.916 173.023 145.63C172.78 145.344 172.658 144.966 172.658 144.497C172.658 144.115 172.771 143.768 172.997 143.455C173.223 143.134 173.544 142.882 173.961 142.7C174.386 142.518 174.872 142.427 175.419 142.427C176.235 142.427 176.89 142.635 177.385 143.052C177.889 143.46 178.158 144.02 178.193 144.732H176.708C176.682 144.41 176.552 144.154 176.317 143.963C176.083 143.772 175.766 143.677 175.367 143.677C174.976 143.677 174.677 143.751 174.468 143.898C174.26 144.046 174.156 144.241 174.156 144.484C174.156 144.675 174.225 144.836 174.364 144.966C174.503 145.096 174.672 145.2 174.872 145.278C175.072 145.348 175.367 145.439 175.758 145.552C176.278 145.691 176.704 145.834 177.034 145.982C177.372 146.12 177.663 146.329 177.906 146.607C178.149 146.884 178.275 147.253 178.284 147.713C178.284 148.121 178.171 148.486 177.945 148.807C177.719 149.128 177.398 149.38 176.982 149.562C176.574 149.745 176.092 149.836 175.536 149.836ZM25.1838 165.075C24.8713 165.075 24.5849 165.002 24.3244 164.854C24.0727 164.698 23.8687 164.494 23.7124 164.242C23.5648 163.982 23.491 163.695 23.491 163.383C23.491 162.905 23.656 162.501 23.9859 162.172C24.3157 161.842 24.7151 161.677 25.1838 161.677C25.67 161.677 26.078 161.842 26.4079 162.172C26.7377 162.501 26.9027 162.905 26.9027 163.383C26.9027 163.86 26.7377 164.264 26.4079 164.594C26.078 164.915 25.67 165.075 25.1838 165.075ZM40.783 163.07C41.2692 163.157 41.6815 163.413 42.0201 163.838C42.3586 164.264 42.5279 164.746 42.5279 165.284C42.5279 165.744 42.4064 166.161 42.1633 166.534C41.9289 166.898 41.586 167.189 41.1346 167.406C40.6832 167.615 40.158 167.719 39.559 167.719H35.939V158.669H39.3897C40.0061 158.669 40.5356 158.773 40.9784 158.981C41.4211 159.19 41.7553 159.472 41.981 159.828C42.2067 160.175 42.3196 160.566 42.3196 161C42.3196 161.521 42.1807 161.955 41.9029 162.302C41.6251 162.649 41.2518 162.905 40.783 163.07ZM37.4235 162.471H39.2595C39.7457 162.471 40.1233 162.363 40.3924 162.146C40.6702 161.92 40.8091 161.599 40.8091 161.182C40.8091 160.774 40.6702 160.457 40.3924 160.231C40.1233 159.997 39.7457 159.88 39.2595 159.88H37.4235V162.471ZM39.4288 166.508C39.9323 166.508 40.3273 166.386 40.6138 166.143C40.9002 165.9 41.0435 165.562 41.0435 165.127C41.0435 164.685 40.8916 164.333 40.5877 164.073C40.2839 163.812 39.8802 163.682 39.3767 163.682H37.4235V166.508H39.4288ZM47.2532 167.836C46.5761 167.836 45.9641 167.684 45.4172 167.38C44.8703 167.068 44.4406 166.634 44.128 166.078C43.8155 165.514 43.6593 164.863 43.6593 164.125C43.6593 163.396 43.8199 162.749 44.1411 162.185C44.4623 161.62 44.9007 161.186 45.4562 160.882C46.0118 160.579 46.6325 160.427 47.3183 160.427C48.0041 160.427 48.6248 160.579 49.1804 160.882C49.736 161.186 50.1744 161.62 50.4956 162.185C50.8168 162.749 50.9774 163.396 50.9774 164.125C50.9774 164.854 50.8124 165.501 50.4825 166.065C50.1527 166.629 49.7013 167.068 49.1283 167.38C48.564 167.684 47.939 167.836 47.2532 167.836ZM47.2532 166.547C47.6352 166.547 47.9911 166.456 48.321 166.273C48.6595 166.091 48.933 165.818 49.1413 165.453C49.3497 165.088 49.4538 164.646 49.4538 164.125C49.4538 163.604 49.354 163.166 49.1543 162.81C48.9547 162.445 48.6899 162.172 48.36 161.989C48.0302 161.807 47.6742 161.716 47.2923 161.716C46.9103 161.716 46.5544 161.807 46.2245 161.989C45.9033 162.172 45.6472 162.445 45.4562 162.81C45.2653 163.166 45.1698 163.604 45.1698 164.125C45.1698 164.897 45.3651 165.496 45.7557 165.922C46.1551 166.338 46.6542 166.547 47.2532 166.547ZM53.9293 161.586C54.1463 161.221 54.4328 160.939 54.7887 160.739C55.1533 160.531 55.583 160.427 56.0778 160.427V161.963H55.7002C55.1186 161.963 54.6758 162.111 54.372 162.406C54.0768 162.701 53.9293 163.213 53.9293 163.943V167.719H52.4448V160.544H53.9293V161.586ZM58.9268 161.586C59.1438 161.221 59.4303 160.939 59.7862 160.739C60.1508 160.531 60.5805 160.427 61.0753 160.427V161.963H60.6977C60.1161 161.963 59.6734 162.111 59.3695 162.406C59.0744 162.701 58.9268 163.213 58.9268 163.943V167.719H57.4423V160.544H58.9268V161.586ZM65.552 167.836C64.8749 167.836 64.2629 167.684 63.716 167.38C63.1691 167.068 62.7393 166.634 62.4268 166.078C62.1143 165.514 61.9581 164.863 61.9581 164.125C61.9581 163.396 62.1186 162.749 62.4398 162.185C62.761 161.62 63.1994 161.186 63.755 160.882C64.3106 160.579 64.9313 160.427 65.6171 160.427C66.3029 160.427 66.9236 160.579 67.4792 160.882C68.0348 161.186 68.4731 161.62 68.7943 162.185C69.1155 162.749 69.2761 163.396 69.2761 164.125C69.2761 164.854 69.1112 165.501 68.7813 166.065C68.4514 166.629 68 167.068 67.4271 167.38C66.8628 167.684 66.2378 167.836 65.552 167.836ZM65.552 166.547C65.934 166.547 66.2899 166.456 66.6198 166.273C66.9583 166.091 67.2318 165.818 67.4401 165.453C67.6484 165.088 67.7526 164.646 67.7526 164.125C67.7526 163.604 67.6528 163.166 67.4531 162.81C67.2535 162.445 66.9887 162.172 66.6588 161.989C66.3289 161.807 65.973 161.716 65.5911 161.716C65.2091 161.716 64.8532 161.807 64.5233 161.989C64.2021 162.172 63.946 162.445 63.755 162.81C63.564 163.166 63.4685 163.604 63.4685 164.125C63.4685 164.897 63.6639 165.496 64.0545 165.922C64.4538 166.338 64.953 166.547 65.552 166.547ZM80.3795 160.544L78.1528 167.719H76.5903L75.1449 162.419L73.6995 167.719H72.1369L69.8972 160.544H71.4077L72.9052 166.312L74.4287 160.544H75.9782L77.4367 166.286L78.9211 160.544H80.3795ZM93.5568 160.427C94.121 160.427 94.6245 160.544 95.0673 160.778C95.5187 161.013 95.8703 161.36 96.122 161.82C96.3824 162.28 96.5126 162.836 96.5126 163.487V167.719H95.0412V163.708C95.0412 163.066 94.8806 162.575 94.5594 162.237C94.2382 161.889 93.7998 161.716 93.2442 161.716C92.6887 161.716 92.2459 161.889 91.9161 162.237C91.5949 162.575 91.4343 163.066 91.4343 163.708V167.719H89.9628V163.708C89.9628 163.066 89.8022 162.575 89.481 162.237C89.1598 161.889 88.7214 161.716 88.1659 161.716C87.6103 161.716 87.1675 161.889 86.8377 162.237C86.5165 162.575 86.3559 163.066 86.3559 163.708V167.719H84.8714V160.544H86.3559V161.364C86.5989 161.069 86.9071 160.839 87.2804 160.674C87.6537 160.509 88.053 160.427 88.4784 160.427C89.0513 160.427 89.5635 160.548 90.0149 160.791C90.4663 161.034 90.8136 161.386 91.0566 161.846C91.2737 161.412 91.6122 161.069 92.0723 160.817C92.5324 160.557 93.0272 160.427 93.5568 160.427ZM97.9068 164.099C97.9068 163.378 98.0543 162.74 98.3495 162.185C98.6533 161.629 99.0613 161.199 99.5735 160.895C100.094 160.583 100.667 160.427 101.292 160.427C101.857 160.427 102.347 160.54 102.764 160.765C103.189 160.982 103.528 161.256 103.779 161.586V160.544H105.277V167.719H103.779V166.651C103.528 166.99 103.185 167.272 102.751 167.497C102.317 167.723 101.822 167.836 101.266 167.836C100.65 167.836 100.086 167.68 99.5735 167.367C99.0613 167.046 98.6533 166.603 98.3495 166.039C98.0543 165.466 97.9068 164.819 97.9068 164.099ZM103.779 164.125C103.779 163.63 103.675 163.2 103.467 162.836C103.267 162.471 103.003 162.193 102.673 162.002C102.343 161.811 101.987 161.716 101.605 161.716C101.223 161.716 100.867 161.811 100.537 162.002C100.207 162.185 99.9381 162.458 99.7298 162.823C99.5301 163.179 99.4303 163.604 99.4303 164.099C99.4303 164.594 99.5301 165.028 99.7298 165.401C99.9381 165.774 100.207 166.061 100.537 166.26C100.876 166.451 101.232 166.547 101.605 166.547C101.987 166.547 102.343 166.451 102.673 166.26C103.003 166.069 103.267 165.792 103.467 165.427C103.675 165.054 103.779 164.62 103.779 164.125ZM108.711 161.586C108.928 161.221 109.215 160.939 109.571 160.739C109.935 160.531 110.365 160.427 110.86 160.427V161.963H110.482C109.9 161.963 109.458 162.111 109.154 162.406C108.859 162.701 108.711 163.213 108.711 163.943V167.719H107.227V160.544H108.711V161.586ZM115.063 164.138L118.37 167.719H116.365L113.709 164.633V167.719H112.224V158.083H113.709V163.682L116.313 160.544H118.37L115.063 164.138ZM126.01 163.956C126.01 164.225 125.993 164.468 125.958 164.685H120.476C120.519 165.258 120.732 165.718 121.114 166.065C121.496 166.412 121.965 166.586 122.52 166.586C123.319 166.586 123.883 166.252 124.213 165.583H125.815C125.598 166.243 125.203 166.786 124.63 167.211C124.066 167.628 123.363 167.836 122.52 167.836C121.835 167.836 121.218 167.684 120.671 167.38C120.133 167.068 119.708 166.634 119.395 166.078C119.091 165.514 118.94 164.863 118.94 164.125C118.94 163.387 119.087 162.74 119.382 162.185C119.686 161.62 120.107 161.186 120.645 160.882C121.192 160.579 121.817 160.427 122.52 160.427C123.198 160.427 123.801 160.574 124.33 160.869C124.86 161.165 125.272 161.581 125.567 162.12C125.863 162.649 126.01 163.261 126.01 163.956ZM124.461 163.487C124.452 162.94 124.257 162.501 123.875 162.172C123.493 161.842 123.02 161.677 122.455 161.677C121.943 161.677 121.505 161.842 121.14 162.172C120.776 162.493 120.559 162.931 120.489 163.487H124.461ZM129.203 161.755V165.726C129.203 165.996 129.264 166.191 129.385 166.312C129.515 166.425 129.732 166.482 130.036 166.482H130.948V167.719H129.776C129.107 167.719 128.595 167.562 128.239 167.25C127.883 166.937 127.705 166.43 127.705 165.726V161.755H126.859V160.544H127.705V158.76H129.203V160.544H130.948V161.755H129.203ZM138.706 161.755H137.378V167.719H135.881V161.755H135.034V160.544H135.881V160.036C135.881 159.211 136.098 158.612 136.532 158.239C136.975 157.857 137.665 157.666 138.602 157.666V158.903C138.151 158.903 137.834 158.99 137.652 159.164C137.469 159.329 137.378 159.619 137.378 160.036V160.544H138.706V161.755ZM143.134 167.836C142.457 167.836 141.845 167.684 141.298 167.38C140.751 167.068 140.322 166.634 140.009 166.078C139.697 165.514 139.54 164.863 139.54 164.125C139.54 163.396 139.701 162.749 140.022 162.185C140.343 161.62 140.782 161.186 141.337 160.882C141.893 160.579 142.514 160.427 143.199 160.427C143.885 160.427 144.506 160.579 145.061 160.882C145.617 161.186 146.055 161.62 146.377 162.185C146.698 162.749 146.858 163.396 146.858 164.125C146.858 164.854 146.693 165.501 146.364 166.065C146.034 166.629 145.582 167.068 145.009 167.38C144.445 167.684 143.82 167.836 143.134 167.836ZM143.134 166.547C143.516 166.547 143.872 166.456 144.202 166.273C144.541 166.091 144.814 165.818 145.022 165.453C145.231 165.088 145.335 164.646 145.335 164.125C145.335 163.604 145.235 163.166 145.035 162.81C144.836 162.445 144.571 162.172 144.241 161.989C143.911 161.807 143.555 161.716 143.173 161.716C142.791 161.716 142.435 161.807 142.106 161.989C141.784 162.172 141.528 162.445 141.337 162.81C141.146 163.166 141.051 163.604 141.051 164.125C141.051 164.897 141.246 165.496 141.637 165.922C142.036 166.338 142.535 166.547 143.134 166.547ZM149.81 161.586C150.027 161.221 150.314 160.939 150.67 160.739C151.034 160.531 151.464 160.427 151.959 160.427V161.963H151.581C151 161.963 150.557 162.111 150.253 162.406C149.958 162.701 149.81 163.213 149.81 163.943V167.719H148.326V160.544H149.81V161.586ZM162.813 165.14C162.813 165.575 162.704 165.983 162.487 166.365C162.279 166.746 161.967 167.068 161.55 167.328C161.142 167.589 160.656 167.745 160.091 167.797V168.852H159.245V167.797C158.429 167.719 157.769 167.463 157.266 167.029C156.762 166.595 156.511 166.022 156.511 165.31H158.099C158.125 165.648 158.234 165.93 158.425 166.156C158.616 166.373 158.889 166.512 159.245 166.573V163.708C158.663 163.561 158.19 163.413 157.826 163.265C157.461 163.109 157.149 162.866 156.888 162.536C156.636 162.206 156.511 161.755 156.511 161.182C156.511 160.461 156.762 159.867 157.266 159.398C157.769 158.921 158.429 158.643 159.245 158.565V157.51H160.091V158.565C160.855 158.634 161.467 158.877 161.927 159.294C162.396 159.702 162.661 160.266 162.722 160.987H161.133C161.107 160.718 161.003 160.479 160.821 160.27C160.638 160.053 160.395 159.906 160.091 159.828V162.64C160.673 162.779 161.146 162.927 161.511 163.083C161.875 163.231 162.184 163.469 162.435 163.799C162.687 164.12 162.813 164.568 162.813 165.14ZM158.021 161.104C158.021 161.46 158.125 161.738 158.334 161.937C158.551 162.137 158.854 162.297 159.245 162.419V159.789C158.872 159.832 158.572 159.967 158.347 160.192C158.13 160.418 158.021 160.722 158.021 161.104ZM160.091 166.573C160.473 166.512 160.773 166.36 160.99 166.117C161.207 165.865 161.315 165.566 161.315 165.219C161.315 164.871 161.207 164.602 160.99 164.411C160.782 164.212 160.482 164.051 160.091 163.929V166.573ZM172.975 158.669L169.576 167.719H167.857L164.446 158.669H166.034L168.717 166.195L171.412 158.669H172.975ZM179.06 163.07C179.546 163.157 179.959 163.413 180.297 163.838C180.636 164.264 180.805 164.746 180.805 165.284C180.805 165.744 180.684 166.161 180.441 166.534C180.206 166.898 179.863 167.189 179.412 167.406C178.96 167.615 178.435 167.719 177.836 167.719H174.216V158.669H177.667C178.283 158.669 178.813 158.773 179.256 158.981C179.698 159.19 180.033 159.472 180.258 159.828C180.484 160.175 180.597 160.566 180.597 161C180.597 161.521 180.458 161.955 180.18 162.302C179.902 162.649 179.529 162.905 179.06 163.07ZM175.701 162.471H177.537C178.023 162.471 178.4 162.363 178.67 162.146C178.947 161.92 179.086 161.599 179.086 161.182C179.086 160.774 178.947 160.457 178.67 160.231C178.4 159.997 178.023 159.88 177.537 159.88H175.701V162.471ZM177.706 166.508C178.209 166.508 178.604 166.386 178.891 166.143C179.177 165.9 179.321 165.562 179.321 165.127C179.321 164.685 179.169 164.333 178.865 164.073C178.561 163.812 178.157 163.682 177.654 163.682H175.701V166.508H177.706ZM25.1838 184.075C24.8713 184.075 24.5849 184.002 24.3244 183.854C24.0727 183.698 23.8687 183.494 23.7124 183.242C23.5648 182.982 23.491 182.695 23.491 182.383C23.491 181.905 23.656 181.501 23.9859 181.172C24.3157 180.842 24.7151 180.677 25.1838 180.677C25.67 180.677 26.078 180.842 26.4079 181.172C26.7377 181.501 26.9027 181.905 26.9027 182.383C26.9027 182.86 26.7377 183.264 26.4079 183.594C26.078 183.915 25.67 184.075 25.1838 184.075ZM45.4708 177.669V186.719H43.9863V180.521L41.2258 186.719H40.1971L37.4235 180.521V186.719H35.939V177.669H37.5407L40.7179 184.766L43.8822 177.669H45.4708ZM46.9271 183.099C46.9271 182.378 47.0746 181.74 47.3698 181.185C47.6736 180.629 48.0816 180.199 48.5938 179.895C49.1147 179.583 49.6876 179.427 50.3127 179.427C50.8769 179.427 51.3674 179.54 51.7841 179.765C52.2095 179.982 52.548 180.256 52.7998 180.586V179.544H54.2972V186.719H52.7998V185.651C52.548 185.99 52.2051 186.272 51.7711 186.497C51.337 186.723 50.8422 186.836 50.2866 186.836C49.6703 186.836 49.106 186.68 48.5938 186.367C48.0816 186.046 47.6736 185.603 47.3698 185.039C47.0746 184.466 46.9271 183.819 46.9271 183.099ZM52.7998 183.125C52.7998 182.63 52.6956 182.2 52.4872 181.836C52.2876 181.471 52.0228 181.193 51.6929 181.002C51.3631 180.811 51.0071 180.716 50.6252 180.716C50.2432 180.716 49.8873 180.811 49.5574 181.002C49.2275 181.185 48.9584 181.458 48.7501 181.823C48.5504 182.179 48.4506 182.604 48.4506 183.099C48.4506 183.594 48.5504 184.028 48.7501 184.401C48.9584 184.774 49.2275 185.061 49.5574 185.26C49.896 185.451 50.2519 185.547 50.6252 185.547C51.0071 185.547 51.3631 185.451 51.6929 185.26C52.0228 185.069 52.2876 184.792 52.4872 184.427C52.6956 184.054 52.7998 183.62 52.7998 183.125ZM59.867 179.427C60.4312 179.427 60.9347 179.544 61.3775 179.778C61.8289 180.013 62.1805 180.36 62.4322 180.82C62.684 181.28 62.8098 181.836 62.8098 182.487V186.719H61.3384V182.708C61.3384 182.066 61.1778 181.575 60.8566 181.237C60.5354 180.889 60.097 180.716 59.5414 180.716C58.9859 180.716 58.5431 180.889 58.2132 181.237C57.892 181.575 57.7315 182.066 57.7315 182.708V186.719H56.247V179.544H57.7315V180.364C57.9745 180.069 58.2827 179.839 58.656 179.674C59.0379 179.509 59.4416 179.427 59.867 179.427ZM71.162 179.544L66.7607 190.091H65.2242L66.6826 186.602L63.8569 179.544H65.5107L67.529 185.013L69.6255 179.544H71.162ZM78.777 186.836C78.0998 186.836 77.4878 186.684 76.9409 186.38C76.394 186.068 75.9643 185.634 75.6518 185.078C75.3393 184.514 75.183 183.863 75.183 183.125C75.183 182.396 75.3436 181.749 75.6648 181.185C75.986 180.62 76.4244 180.186 76.98 179.882C77.5356 179.579 78.1563 179.427 78.8421 179.427C79.5279 179.427 80.1485 179.579 80.7041 179.882C81.2597 180.186 81.6981 180.62 82.0193 181.185C82.3405 181.749 82.5011 182.396 82.5011 183.125C82.5011 183.854 82.3362 184.501 82.0063 185.065C81.6764 185.629 81.225 186.068 80.652 186.38C80.0878 186.684 79.4628 186.836 78.777 186.836ZM78.777 185.547C79.1589 185.547 79.5148 185.456 79.8447 185.273C80.1833 185.091 80.4567 184.818 80.6651 184.453C80.8734 184.088 80.9776 183.646 80.9776 183.125C80.9776 182.604 80.8778 182.166 80.6781 181.81C80.4784 181.445 80.2137 181.172 79.8838 180.989C79.5539 180.807 79.198 180.716 78.816 180.716C78.4341 180.716 78.0781 180.807 77.7483 180.989C77.4271 181.172 77.171 181.445 76.98 181.81C76.789 182.166 76.6935 182.604 76.6935 183.125C76.6935 183.897 76.8888 184.496 77.2795 184.922C77.6788 185.338 78.178 185.547 78.777 185.547ZM85.7004 180.755V184.726C85.7004 184.996 85.7612 185.191 85.8827 185.312C86.0129 185.425 86.23 185.482 86.5338 185.482H87.4453V186.719H86.2734C85.6049 186.719 85.0928 186.562 84.7368 186.25C84.3809 185.937 84.203 185.43 84.203 184.726V180.755H83.3566V179.544H84.203V177.76H85.7004V179.544H87.4453V180.755H85.7004ZM92.5246 179.427C93.0715 179.427 93.5576 179.544 93.983 179.778C94.4171 180.013 94.7556 180.36 94.9987 180.82C95.2504 181.28 95.3763 181.836 95.3763 182.487V186.719H93.9049V182.708C93.9049 182.066 93.7443 181.575 93.4231 181.237C93.1019 180.889 92.6635 180.716 92.1079 180.716C91.5523 180.716 91.1096 180.889 90.7797 181.237C90.4585 181.575 90.2979 182.066 90.2979 182.708V186.719H88.8135V177.083H90.2979V180.377C90.5497 180.073 90.8665 179.839 91.2485 179.674C91.6391 179.509 92.0645 179.427 92.5246 179.427ZM103.846 182.956C103.846 183.225 103.828 183.468 103.794 183.685H98.3115C98.355 184.258 98.5676 184.718 98.9496 185.065C99.3316 185.412 99.8003 185.586 100.356 185.586C101.155 185.586 101.719 185.252 102.049 184.583H103.65C103.433 185.243 103.038 185.786 102.465 186.211C101.901 186.628 101.198 186.836 100.356 186.836C99.6701 186.836 99.0538 186.684 98.5069 186.38C97.9686 186.068 97.5433 185.634 97.2308 185.078C96.9269 184.514 96.775 183.863 96.775 183.125C96.775 182.387 96.9226 181.74 97.2177 181.185C97.5216 180.62 97.9426 180.186 98.4808 179.882C99.0277 179.579 99.6528 179.427 100.356 179.427C101.033 179.427 101.636 179.574 102.166 179.869C102.695 180.165 103.108 180.581 103.403 181.12C103.698 181.649 103.846 182.261 103.846 182.956ZM102.296 182.487C102.287 181.94 102.092 181.501 101.71 181.172C101.328 180.842 100.855 180.677 100.291 180.677C99.7786 180.677 99.3402 180.842 98.9756 181.172C98.611 181.493 98.394 181.931 98.3246 182.487H102.296ZM106.791 180.586C107.008 180.221 107.294 179.939 107.65 179.739C108.015 179.531 108.445 179.427 108.94 179.427V180.963H108.562C107.98 180.963 107.538 181.111 107.234 181.406C106.939 181.701 106.791 182.213 106.791 182.943V186.719H105.307V179.544H106.791V180.586ZM112.908 186.836C112.344 186.836 111.836 186.736 111.385 186.536C110.942 186.328 110.591 186.05 110.33 185.703C110.07 185.347 109.931 184.952 109.913 184.518H111.45C111.476 184.822 111.619 185.078 111.88 185.286C112.149 185.486 112.483 185.586 112.882 185.586C113.299 185.586 113.62 185.508 113.846 185.351C114.08 185.187 114.197 184.978 114.197 184.726C114.197 184.457 114.067 184.258 113.807 184.127C113.555 183.997 113.151 183.854 112.596 183.698C112.058 183.55 111.619 183.407 111.281 183.268C110.942 183.129 110.647 182.916 110.395 182.63C110.152 182.344 110.031 181.966 110.031 181.497C110.031 181.115 110.143 180.768 110.369 180.455C110.595 180.134 110.916 179.882 111.333 179.7C111.758 179.518 112.244 179.427 112.791 179.427C113.607 179.427 114.263 179.635 114.757 180.052C115.261 180.46 115.53 181.02 115.565 181.732H114.08C114.054 181.41 113.924 181.154 113.69 180.963C113.455 180.772 113.138 180.677 112.739 180.677C112.348 180.677 112.049 180.751 111.841 180.898C111.632 181.046 111.528 181.241 111.528 181.484C111.528 181.675 111.598 181.836 111.736 181.966C111.875 182.096 112.045 182.2 112.244 182.278C112.444 182.348 112.739 182.439 113.13 182.552C113.651 182.691 114.076 182.834 114.406 182.982C114.744 183.12 115.035 183.329 115.278 183.607C115.521 183.884 115.647 184.253 115.656 184.713C115.656 185.121 115.543 185.486 115.317 185.807C115.092 186.128 114.77 186.38 114.354 186.562C113.946 186.745 113.464 186.836 112.908 186.836ZM120.476 186.81C120.207 186.81 119.981 186.719 119.799 186.536C119.617 186.354 119.526 186.128 119.526 185.859C119.526 185.59 119.617 185.365 119.799 185.182C119.981 185 120.207 184.909 120.476 184.909C120.737 184.909 120.958 185 121.14 185.182C121.323 185.365 121.414 185.59 121.414 185.859C121.414 186.128 121.323 186.354 121.14 186.536C120.958 186.719 120.737 186.81 120.476 186.81ZM123.107 186.81C122.837 186.81 122.612 186.719 122.429 186.536C122.247 186.354 122.156 186.128 122.156 185.859C122.156 185.59 122.247 185.365 122.429 185.182C122.612 185 122.837 184.909 123.107 184.909C123.367 184.909 123.588 185 123.771 185.182C123.953 185.365 124.044 185.59 124.044 185.859C124.044 186.128 123.953 186.354 123.771 186.536C123.588 186.719 123.367 186.81 123.107 186.81ZM117.859 186.81C117.59 186.81 117.364 186.719 117.182 186.536C116.999 186.354 116.908 186.128 116.908 185.859C116.908 185.59 116.999 185.365 117.182 185.182C117.364 185 117.59 184.909 117.859 184.909C118.119 184.909 118.341 185 118.523 185.182C118.705 185.365 118.796 185.59 118.796 185.859C118.796 186.128 118.705 186.354 118.523 186.536C118.341 186.719 118.119 186.81 117.859 186.81Z" fill="white"/>
<rect x="1.01339" y="1.09787" width="272.522" height="208.07" rx="6.97581" stroke="url(#paint0_linear_10741_232950)" stroke-width="0.930108"/>
<defs>
<linearGradient id="paint0_linear_10741_232950" x1="0.54834" y1="0.632812" x2="282.809" y2="13.2976" gradientUnits="userSpaceOnUse">
<stop stop-color="#0FE3E3"/>
<stop offset="1" stop-color="#02A4FF"/>
</linearGradient>
</defs>
</svg>
