<svg width="48" height="48" viewBox="0 0 48 48" fill="none" xmlns="http://www.w3.org/2000/svg">
<g clip-path="url(#clip0_2998_108177)">
<path d="M24 47.9562C37.2548 47.9562 48 45.6889 48 42.8921C48 40.0954 37.2548 37.8281 24 37.8281C10.7452 37.8281 1.52588e-05 40.0954 1.52588e-05 42.8921C1.52588e-05 45.6889 10.7452 47.9562 24 47.9562Z" fill="#2A5F1E"/>
<path d="M36.0849 40.1222C35.2706 41.0744 34.1135 41.9833 32.6135 42.6758C28.2849 44.7101 4.71348 44.9698 1.28491 39.7327C0.813477 39.0401 0.513477 38.3476 0.342048 37.6984C0.256334 37.3521 0.17062 37.0059 0.17062 36.6596C-0.172237 32.7209 3.3849 29.518 3.3849 29.518C3.3849 29.518 3.64205 28.739 4.07062 27.6136C4.49919 26.4883 5.05633 24.9734 5.74205 23.4585C6.59919 21.4675 7.62776 19.4333 8.61347 18.3079C10.542 16.014 13.0706 14.5424 15.8992 14.023C15.6849 13.72 15.4278 13.3738 15.2135 12.9842C14.0135 11.2097 12.5563 9.04554 11.3563 7.22769C11.5278 6.49189 11.8706 5.97251 12.2135 5.62625C12.5563 5.27999 12.8992 5.10686 13.1992 4.97701C13.242 4.97701 13.2849 4.93373 13.2849 4.93373C13.1563 4.50091 13.0278 4.15465 12.9849 3.85168C13.3706 2.20695 15.2563 2.20695 15.4278 2.20695C15.942 0.951765 16.8849 0.605507 17.8706 0.259249C18.0849 0.172685 18.2563 0.129403 18.4706 0.0428382C19.6278 -0.389984 22.4135 1.25474 22.8849 2.89947C24.7278 3.37557 25.4992 4.0248 25.4135 4.71732C25.1992 5.23671 24.942 5.75609 24.6849 6.31876C25.4992 6.53517 26.6992 6.968 26.5706 7.87692C26.2706 8.52616 24.5135 11.0365 23.0992 12.9842C23.0563 13.0275 23.0563 13.0708 23.0135 13.0708C22.7135 13.5036 22.4135 13.8932 22.1992 14.1961C22.1563 14.2827 22.1135 14.326 22.0706 14.3693C23.0135 14.6722 24.042 15.1483 25.242 15.8841C29.4849 18.4811 31.7563 24.4973 33.2135 29.6479C35.0135 31.206 35.9135 32.2015 37.1135 34.6253C37.842 36.2701 37.542 38.3476 36.0849 40.1222Z" fill="#FFDDAD"/>
<path d="M36.0844 40.1241C35.2701 41.0764 34.113 41.9853 32.613 42.6778C28.2844 44.7121 4.71296 44.9718 1.28439 39.7346C0.812962 39.0421 0.512962 38.3496 0.341534 37.7003C14.9987 44.7121 26.5701 37.2242 26.8701 36.1855C27.1701 35.1467 25.413 33.7617 23.0558 31.9871C24.213 28.0051 23.8273 23.7202 22.6273 19.8248C22.1987 18.3965 21.5987 16.9681 20.9558 15.6264C20.7844 15.3234 20.313 14.7175 20.2701 14.3279C20.2273 13.2892 24.813 15.713 25.1558 15.9294C29.3987 18.5263 31.6701 24.5425 33.1273 29.6931C34.9273 31.2513 35.8273 32.2468 37.0273 34.6706C37.8415 36.272 37.5415 38.3496 36.0844 40.1241Z" fill="#FFD097"/>
<path d="M16.9272 12.8536C16.5415 12.9835 13.2844 7.61647 12.1272 5.62548C12.4701 5.27922 12.813 5.1061 13.113 5.01953L13.2415 5.14938C13.2415 5.1061 17.3987 12.6805 16.9272 12.8536Z" fill="#FFD097"/>
<path d="M18.5125 13.7619C18.2554 14.2813 15.3839 2.20551 15.3839 2.20551C15.8982 0.950328 16.8411 0.60407 17.8268 0.257812C17.9982 2.63834 18.8125 13.2858 18.5125 13.7619Z" fill="#FFD097"/>
<path d="M20.7415 14.7138C20.3129 14.0213 19.4557 13.978 18.77 14.2377C18.6843 14.2377 18.6415 14.2377 18.5557 14.2377C18.5557 14.2377 18.5557 14.2377 18.5129 14.2377C18.2129 14.0213 17.87 13.8482 17.5272 13.8049C17.0986 13.7616 16.67 13.8915 16.4129 14.2377C16.1557 14.584 16.1557 15.0601 16.37 15.4064C16.5843 15.7526 17.0129 15.8392 17.3986 15.7959C17.5272 15.7959 17.6557 15.7526 17.7843 15.7093C17.5272 16.1854 17.3129 16.7048 17.1415 17.2242C16.8415 18.1331 16.67 19.0853 16.6272 20.0376C16.5843 20.6002 16.6272 21.1196 16.7129 21.639C16.7557 21.8121 16.9272 21.8987 17.0986 21.8987C17.27 21.8554 17.3986 21.7256 17.3986 21.5524C17.3986 20.6868 17.3557 19.8211 17.4843 18.9555C17.6129 18.0898 17.8272 17.2242 18.1272 16.4018C18.2557 16.0989 18.3843 15.7959 18.47 15.5362C18.5129 15.9257 18.5129 16.3153 18.5129 16.7048C18.5129 17.3108 18.5129 17.9167 18.5557 18.5227C18.5557 18.8256 18.5557 19.1286 18.5557 19.4316C18.5557 19.6047 18.5557 19.7346 18.5557 19.9077C18.5557 19.9943 18.5557 20.0808 18.5557 20.1241C18.5557 20.2107 18.5557 20.254 18.5986 20.3405C18.5986 20.6435 18.5557 20.9032 18.5557 21.2062C18.5557 21.5091 18.5129 21.8121 18.5129 22.1151C18.5129 22.2882 18.6843 22.4614 18.8129 22.4614C18.9843 22.4614 19.1986 22.3748 19.1986 22.2017C19.2415 21.8987 19.2843 21.5524 19.2843 21.2495C19.2843 20.9465 19.2843 20.6435 19.3272 20.3838C19.3272 20.2107 19.37 20.0376 19.37 19.8644C19.37 19.6913 19.37 19.5614 19.37 19.3883C19.37 19.0853 19.37 18.7824 19.3272 18.5227C19.2843 17.9167 19.2415 17.3108 19.1557 16.7048C19.1129 16.4884 19.1129 16.2287 19.07 16.0123C19.2415 16.2287 19.4557 16.4451 19.7557 16.4451C20.1415 16.4884 20.5272 16.272 20.7415 15.9257C20.9986 15.4496 20.9557 15.0168 20.7415 14.7138ZM17.57 14.8004C17.5272 14.8437 17.4415 14.8437 17.3986 14.887C17.3557 14.887 17.3557 14.887 17.3129 14.887H17.27C17.2272 14.887 17.2272 14.887 17.1843 14.887H17.1415C17.1843 14.887 17.1415 14.887 17.1415 14.887C17.1415 14.8437 17.1415 14.8437 17.1415 14.8437V14.8004C17.1415 14.7571 17.1843 14.7571 17.1843 14.7138C17.1415 14.7571 17.27 14.6706 17.2272 14.6706L17.27 14.6273C17.2272 14.6273 17.2272 14.6273 17.27 14.6273C17.3129 14.6273 17.3129 14.6273 17.3557 14.584C17.4843 14.5407 17.6129 14.5407 17.7843 14.584C17.87 14.584 17.9129 14.6273 17.9986 14.6273C17.7843 14.7138 17.6986 14.7571 17.57 14.8004ZM20.0129 15.3198C20.0129 15.3631 20.0129 15.3631 20.0129 15.3198C19.97 15.3631 19.97 15.4064 19.9272 15.4064H19.8843C19.9272 15.4064 19.9272 15.4064 19.8843 15.4064L19.8415 15.3631C19.8415 15.3198 19.7986 15.3198 19.7986 15.2765C19.8415 15.3631 19.7557 15.1899 19.7557 15.1899C19.7129 15.1034 19.7129 15.0168 19.67 14.9735H19.7129C19.7129 14.9735 19.7557 15.0168 19.7986 15.0168C19.8415 15.0168 19.8415 15.0601 19.8843 15.0601L19.9272 15.1034C19.9272 15.1034 19.97 15.1467 19.97 15.1899C20.0557 15.3198 19.9272 15.1034 19.97 15.2332C19.97 15.2332 19.97 15.2332 19.97 15.2765C20.0129 15.2765 20.0129 15.2765 20.0129 15.3198Z" fill="#42210B"/>
<path d="M26.5286 7.91949C26.2286 8.56872 24.4714 11.0791 23.0572 13.0268C23.0143 13.0701 23.0143 13.1134 22.9714 13.1134C22.6714 13.5462 22.3714 13.9357 22.1572 14.2387C22.1143 14.3253 22.0714 14.3685 22.0286 14.4118L19.7143 14.0223L22.8429 2.85547C24.6857 3.33157 25.4572 3.98081 25.3714 4.67332C25.1572 5.19271 24.9 5.7121 24.6429 6.27477C25.5 6.57774 26.6572 7.01056 26.5286 7.91949Z" fill="#FFC17E"/>
<path d="M36.0844 40.1214C35.2701 41.0736 34.113 41.9825 32.613 42.675C28.2844 44.7093 4.71296 44.969 1.28439 39.7318C0.812962 39.0393 0.512962 38.3468 0.341534 37.6976C1.49868 38.3901 2.99868 39.6453 6.68439 40.5109C15.2558 42.5019 26.5701 41.8959 30.8987 37.2647C33.1701 34.8409 28.4558 32.3738 28.4558 32.3738C28.4558 32.3738 28.8844 19.4325 21.1701 14.1953C21.513 14.2386 21.8558 14.2819 22.1558 14.2819C22.113 14.3684 22.0701 14.4117 22.0272 14.455C22.9701 14.758 23.9987 15.2341 25.1987 15.9699C29.4415 18.5668 31.713 24.583 33.1701 29.7336C34.9701 31.2918 35.8701 32.2873 37.0701 34.7111C37.8415 36.2692 37.5415 38.3468 36.0844 40.1214Z" fill="#FFC17E"/>
<path d="M21.5139 30.4725C20.9567 29.8666 20.871 29.6934 19.671 29.2606V27.0532C20.0567 27.486 20.0139 27.9621 20.0139 27.9621L21.8567 27.6592C21.8567 27.6592 21.6424 25.8413 19.671 25.1488V23.9802C19.671 23.9802 18.8139 23.9369 18.771 23.9802C18.771 23.9802 18.771 24.3697 18.771 24.9757C18.471 24.9324 18.171 24.9324 17.9139 24.9324V23.9802C17.9139 23.9802 17.0567 23.9369 17.0139 23.9802C17.0139 23.9802 17.0139 24.413 17.0139 25.1055C15.9424 25.4518 15.2567 26.1876 14.9139 26.7935C14.3996 27.7457 14.6996 28.9143 15.8139 29.6934C16.2853 29.9964 16.671 30.2128 17.0567 30.3427C17.0567 31.3382 17.0996 32.3336 17.0996 33.2426C16.5853 32.853 16.1996 32.2471 15.9853 31.5546C15.5996 31.6411 14.3996 32.3769 14.3996 32.3769C14.3996 32.3769 14.9996 34.844 17.0996 35.3634C17.1424 35.3634 17.1424 35.3634 17.1853 35.3634C17.1853 36.1425 17.2281 36.6186 17.2281 36.6186H17.9139V35.4932C18.2567 35.5365 18.5996 35.5798 18.9853 35.5365C18.9853 36.1858 19.0281 36.5753 19.0281 36.5753H19.7139V35.4067C20.1424 35.2768 20.5281 35.1037 20.9139 34.8007C22.071 33.8918 22.7996 31.8575 21.5139 30.4725ZM18.5996 26.4473C18.6853 26.4473 18.771 26.4905 18.8567 26.4905C18.8567 27.2263 18.8996 28.0487 18.8996 28.9576C18.5996 28.8711 18.2567 28.7845 17.9567 28.6979V26.404C18.1281 26.404 18.3853 26.404 18.5996 26.4473ZM16.5424 27.5293C16.6281 27.1831 16.7996 26.9234 17.0567 26.707C17.0567 27.2263 17.0567 27.789 17.0996 28.395C16.671 28.1785 16.4567 27.9189 16.5424 27.5293ZM17.9567 33.6321V30.5591C18.2996 30.6456 18.5996 30.6889 18.8996 30.8188C18.8996 31.8575 18.9424 32.853 18.9424 33.762C18.5996 33.762 18.2567 33.7187 17.9567 33.6321ZM19.7139 33.459V31.2949C20.3996 32.0307 20.3567 32.9829 19.7139 33.459Z" fill="#798A25"/>
<path d="M14.1842 15.9696C13.8842 15.5368 10.1985 17.5278 9.08421 19.9948C7.96992 22.4619 5.14135 28.3483 5.65564 28.7379C6.68421 29.4304 11.2699 20.0814 11.2699 20.0814C11.2699 20.0814 15.0842 17.2248 14.1842 15.9696Z" fill="#FFE8C2"/>
<path d="M4.41358 31.2508C4.28501 31.0777 4.02786 31.121 3.89929 31.2941C3.34215 32.0732 1.84215 34.3239 2.01358 35.6656C2.22786 37.3103 8.69929 38.8685 9.77072 38.176C10.8421 37.4835 4.37072 34.2806 4.37072 34.2806C4.37072 34.2806 5.18501 32.1165 4.41358 31.2508Z" fill="#FFE8C2"/>
<path d="M32.0988 29.3467C31.3273 25.3215 29.3559 21.3395 26.9988 18.0501C26.7416 17.7038 26.2273 18.0068 26.4416 18.3963C28.7131 21.9022 30.1702 25.5812 31.2845 29.6064C31.4131 30.1258 32.1845 29.9094 32.0988 29.3467Z" fill="#FFF7CB"/>
<path d="M31.499 30.1686C31.199 30.0821 31.0705 30.4716 31.3276 30.6447C33.9848 32.5059 34.9276 35.4058 33.8991 38.4788C33.6419 39.2146 34.8419 39.734 35.1848 38.9982C36.7276 35.5356 35.1419 31.3805 31.499 30.1686Z" fill="#FFF7CB"/>
<path d="M25.3292 7.66229C24.0864 9.22045 22.8435 10.8652 21.7292 12.5099C21.4721 12.8994 22.115 13.3755 22.3721 12.986C23.5721 11.3846 24.7292 9.69655 25.7578 8.00854C25.9721 7.74885 25.5435 7.40259 25.3292 7.66229Z" fill="#FFF7CB"/>
<path d="M20.5278 1.60063C20.142 1.34093 19.7992 1.08124 19.4563 0.821545C19.0278 0.475288 18.5135 1.1678 19.0278 1.4275C19.4563 1.64391 19.842 1.86032 20.2706 2.12001C20.5706 2.33642 20.8278 1.81704 20.5278 1.60063Z" fill="#FFF7CB"/>
<path d="M38.8281 40.21L38.571 40.2533L38.7424 40.4265L38.5281 40.6862L38.6996 40.8593L38.4424 41.2055L38.3567 41.9846C38.3567 41.9846 28.3281 43.7592 28.3281 43.8458C28.0281 43.7592 24.0853 41.8115 24.0853 41.8115L23.9567 41.2055L24.171 40.9026L23.9996 40.8593L23.7424 39.9071L23.9996 39.6907L23.6996 39.5608L24.0424 39.2578L23.6139 38.9981L23.9139 38.6952L23.6139 38.1758L27.5139 38.3489L38.9996 38.9981L38.6996 40.0369L38.8281 40.21Z" fill="#8C8C3F"/>
<path d="M27.9853 42.4607L27.8567 42.807V43.8025C27.4281 43.7159 23.871 41.7682 23.871 41.7682L23.8281 41.1623L24.0853 40.8593H23.9996L23.7424 39.9071L23.9996 39.6907L23.6996 39.5608L24.0424 39.2578L23.6139 38.9981L23.9139 38.6952L23.6139 38.1758L27.5139 38.3489L28.0281 38.9549L28.3281 40.5996L28.2853 41.5951L27.9424 41.9846L28.2853 42.1578L27.9853 42.4607Z" fill="#B2B059"/>
<path d="M23.6144 38.2628C23.4858 38.3494 27.9001 40.6001 28.3715 40.6433C29.0144 40.6433 38.8715 39.3016 39.0858 38.9986C38.6144 38.3061 35.6144 36.6181 35.2715 36.445C34.8429 36.3151 24.1287 37.9166 23.6144 38.2628Z" fill="#979936"/>
<path d="M25.4134 38.1311C25.4134 38.1311 25.5848 38.5207 24.942 38.5639C26.0563 39.1266 27.6848 40.0355 27.6848 40.0355C27.6848 40.0355 28.1991 39.6893 28.6706 39.7759C29.1848 39.8624 29.3991 40.2087 29.3991 40.2087L37.4134 38.9968C37.4134 38.9968 36.9848 38.6505 37.4991 38.3043C36.5991 37.6983 35.442 37.0058 35.442 37.0058C35.442 37.0058 35.442 37.1789 34.9277 37.1356C34.4134 37.0924 34.1134 36.7461 34.1134 36.7461C34.1134 36.7461 26.5705 37.6983 25.4134 38.1311Z" fill="#DDDA7A"/>
<path d="M32.1001 39.0855C33.0232 39.0855 33.7715 38.7367 33.7715 38.3064C33.7715 37.8762 33.0232 37.5273 32.1001 37.5273C31.177 37.5273 30.4287 37.8762 30.4287 38.3064C30.4287 38.7367 31.177 39.0855 32.1001 39.0855Z" fill="#FCEE21"/>
<path d="M27.4283 40.6019C26.9997 40.2989 26.4854 40.1258 26.014 39.9526C25.5426 39.7362 25.0283 39.5631 24.5568 39.3467C24.4283 39.3034 24.2997 39.4765 24.4283 39.5631C24.9426 39.7795 25.414 40.0392 25.8854 40.2989C26.3568 40.5153 26.8283 40.8183 27.2997 40.9481C27.4711 40.9481 27.5568 40.6884 27.4283 40.6019Z" fill="#777530"/>
<path d="M26.2282 40.6427C25.7568 40.4263 25.1996 40.3397 24.771 40.08C24.6425 39.9935 24.5139 40.2532 24.6853 40.2965C25.1996 40.4263 25.6282 40.7293 26.1425 40.9024C26.271 40.9457 26.3568 40.7293 26.2282 40.6427Z" fill="#777530"/>
<path d="M25.7158 41.2917C25.5872 41.2484 25.4586 41.1619 25.3301 41.0753C25.1586 40.9455 25.0301 41.2484 25.2015 41.2484C25.3301 41.2917 25.4586 41.335 25.5872 41.3783C25.7158 41.4649 25.8015 41.335 25.7158 41.2917Z" fill="#777530"/>
<path d="M36.729 40.5981C36.2147 40.5116 35.6576 40.6847 35.1433 40.728C34.629 40.8145 34.1147 40.9011 33.5576 40.9877C33.429 41.0309 33.4718 41.2041 33.6004 41.2041C34.1576 41.1608 34.7147 41.1175 35.2718 41.0309C35.7433 40.9444 36.3004 40.9444 36.729 40.728C36.8147 40.7713 36.8147 40.6414 36.729 40.5981Z" fill="#777530"/>
<path d="M35.2283 41.3359C34.9711 41.3359 34.714 41.3792 34.4568 41.3792C34.2854 41.3792 34.3283 41.6389 34.4568 41.5956C34.714 41.5523 34.9711 41.5524 35.2283 41.5091C35.3568 41.5091 35.3568 41.3359 35.2283 41.3359Z" fill="#777530"/>
<path d="M27.8147 37.2655L31.8862 40.252L36.1719 39.646L31.8005 36.7461L27.8147 37.2655Z" fill="#FFE506"/>
<path d="M31.8866 40.2544L31.8438 43.2842L35.7009 42.6349L36.1723 39.6484L31.8866 40.2544Z" fill="#FFBC00"/>
<path d="M28.8438 37.4403C28.8866 37.4403 31.6723 37.0508 31.6723 37.0508L35.1438 39.4313L32.058 39.8208L28.8438 37.4403Z" fill="#FFD300"/>
<path d="M45.942 41.7208L45.6848 41.8074L45.8563 41.9805L45.642 42.2402L45.8563 42.4133L45.5991 42.7596L45.5134 43.4954C45.5134 43.4954 35.4848 45.27 35.4848 45.3565C35.1848 45.27 31.242 43.3223 31.242 43.3223L31.1134 42.7163L31.3277 42.4133H31.1563L30.8991 41.4611L31.1563 41.2447L30.8134 41.1149L31.1563 40.8119L30.7277 40.5522L31.0277 40.2492L30.7277 39.8164L34.6277 39.9895L46.1134 40.5089L45.8563 41.5477L45.942 41.7208Z" fill="#8C8C3F"/>
<path d="M35.1848 44.0148L35.142 44.361V45.3565C34.7134 45.27 31.0706 43.3223 31.0706 43.3223L31.0277 42.7163L31.2848 42.4133H31.1134L30.8563 41.4611L31.1134 41.2447L30.8134 41.1149L31.1563 40.8119L30.7277 40.5522L31.0277 40.2492L30.7277 39.8164L34.6277 39.9895L35.142 40.5955L35.442 42.2402L35.3991 43.1491L35.0563 43.4954L35.442 43.6685L35.1848 44.0148Z" fill="#B2B059"/>
<path d="M30.7282 39.8177C30.5996 39.9043 35.0139 42.1549 35.4854 42.1982C36.1282 42.1982 45.9854 40.8565 46.1996 40.5535C45.7282 39.861 42.7282 38.173 42.3854 37.9998C41.9996 37.87 31.2854 39.4282 30.7282 39.8177Z" fill="#979936"/>
<path d="M32.5295 39.6858C32.5295 39.6858 32.7009 40.0754 32.0581 40.1186C33.1723 40.6813 34.8009 41.5902 34.8009 41.5902C34.8009 41.5902 35.3152 41.244 35.7866 41.3305C36.3009 41.4171 36.5152 41.7634 36.5152 41.7634L44.5295 40.5515C44.5295 40.5515 44.1009 40.2052 44.6152 39.8589C43.7152 39.253 42.558 38.5605 42.558 38.5605C42.558 38.5605 42.558 38.7336 42.0438 38.6903C41.5295 38.647 41.2295 38.3008 41.2295 38.3008C41.2295 38.3008 33.6866 39.253 32.5295 39.6858Z" fill="#DDDA7A"/>
<path d="M40.8853 39.8181C40.8853 40.251 40.1567 40.5972 39.2139 40.5972C38.3139 40.5972 37.5424 40.251 37.5424 39.8181C37.5424 39.3853 38.271 39.0391 39.2139 39.0391C40.1567 39.0823 40.8853 39.4286 40.8853 39.8181Z" fill="#FCEE21"/>
<path d="M34.5421 42.1566C34.1135 41.8536 33.5993 41.6804 33.1278 41.5073C32.6564 41.2909 32.1421 41.1178 31.6707 40.9014C31.5421 40.8581 31.4135 41.0312 31.5421 41.1178C32.0564 41.3342 32.5278 41.5939 32.9993 41.8536C33.4707 42.07 33.9421 42.373 34.4135 42.5028C34.6278 42.4595 34.6707 42.2431 34.5421 42.1566Z" fill="#777530"/>
<path d="M33.342 42.1974C32.8706 41.981 32.3134 41.8944 31.8849 41.6347C31.7563 41.5482 31.6277 41.8079 31.7992 41.8511C32.3134 41.981 32.742 42.284 33.2563 42.4571C33.3849 42.4571 33.4706 42.2407 33.342 42.1974Z" fill="#777530"/>
<path d="M32.8274 42.8464C32.6988 42.8031 32.5702 42.7166 32.4417 42.63C32.2702 42.5002 32.1417 42.8031 32.3131 42.8031C32.4417 42.8464 32.5703 42.8897 32.6988 42.933C32.8703 43.0195 32.956 42.8897 32.8274 42.8464Z" fill="#777530"/>
<path d="M43.8428 42.1528C43.3285 42.0662 42.7714 42.2394 42.2571 42.2827C41.7428 42.3692 41.2285 42.4558 40.6714 42.5423C40.5428 42.5856 40.5857 42.7588 40.7143 42.7588C41.2714 42.7155 41.8285 42.6722 42.3857 42.5856C42.8571 42.4991 43.4143 42.4991 43.8428 42.2827C43.9714 42.3259 43.9285 42.1528 43.8428 42.1528Z" fill="#777530"/>
<path d="M42.3845 42.8477C42.1274 42.8477 41.8702 42.8909 41.6131 42.8909C41.4417 42.8909 41.4845 43.1506 41.6131 43.1073C41.8702 43.0641 42.1274 43.0641 42.3845 43.0208C42.5131 43.0641 42.5131 42.8477 42.3845 42.8477Z" fill="#777530"/>
<path d="M34.9286 38.8244L39.0429 41.7676L43.2857 41.2049L38.9572 38.2617L34.9286 38.8244Z" fill="#FFE506"/>
<path d="M39.0411 41.7658L38.9554 44.8388L42.8125 44.1896L43.2839 41.2031L39.0411 41.7658Z" fill="#FFBC00"/>
<path d="M36 38.952C36.0429 38.952 38.8286 38.5625 38.8286 38.5625L42.3 40.943L39.2143 41.3326L36 38.952Z" fill="#FFD300"/>
<path d="M41.3549 37.0919L41.0978 37.1785L41.2692 37.3516L41.0549 37.6113L41.2264 37.7844L40.9692 38.1307L40.8835 38.8665C40.8835 38.8665 30.8549 40.6411 30.8549 40.7276C30.5549 40.6411 26.6121 38.6934 26.6121 38.6934L26.4835 38.0874L26.6978 37.7844H26.5692L26.3121 36.8322L26.5692 36.6158L26.2692 36.486L26.6121 36.183L26.1835 35.9233L26.4835 35.6203L26.1406 35.1875L30.0406 35.3606L41.5692 35.88L41.2692 36.9188L41.3549 37.0919Z" fill="#8C8C3F"/>
<path d="M30.5554 39.3859L30.4268 39.7321V40.7276C29.9982 40.6411 26.4411 38.6934 26.4411 38.6934L26.3982 38.0874L26.6554 37.7844L26.4839 37.7411L26.2268 36.7889L26.4839 36.5725L26.1839 36.4427L26.5268 36.1397L26.0982 35.88L26.3982 35.577L26.1411 35.1875L30.0411 35.3606L30.5554 35.9666L30.8554 37.6113V38.5202L30.5125 38.8665L30.8554 39.0396L30.5554 39.3859Z" fill="#B2B059"/>
<path d="M26.1411 35.1888C26.0125 35.2754 30.4268 37.526 30.8982 37.5693C31.5411 37.5693 41.3982 36.2276 41.6125 35.9246C41.1411 35.2321 38.1411 33.5441 37.7982 33.3709C37.4125 33.2411 26.6982 34.7993 26.1411 35.1888Z" fill="#979936"/>
<path d="M27.9402 35.0569C27.9402 35.0569 28.1116 35.4464 27.4688 35.4897C28.5831 36.0524 30.2116 36.9613 30.2116 36.9613C30.2116 36.9613 30.7259 36.6151 31.1973 36.7016C31.7116 36.7882 31.9259 37.1345 31.9259 37.1345L39.9831 35.9225C39.9831 35.9225 39.5545 35.5763 40.0688 35.23C39.1688 34.6241 38.0116 33.9316 38.0116 33.9316C38.0116 33.9316 38.0116 34.1047 37.4973 34.0614C36.9831 34.0181 36.6831 33.6719 36.6831 33.6719C36.6831 33.6719 29.0973 34.6241 27.9402 35.0569Z" fill="#DDDA7A"/>
<path d="M36.2982 35.1892C36.2982 35.6221 35.5697 35.9683 34.6268 35.9683C33.7268 35.9683 32.9554 35.6221 32.9554 35.1892C32.9554 34.7564 33.6839 34.4102 34.6268 34.4102C35.5697 34.4534 36.2982 34.7997 36.2982 35.1892Z" fill="#FCEE21"/>
<path d="M28.2426 38.2175C28.114 38.1742 27.9854 38.0877 27.8569 38.0011C27.6854 37.8713 27.5569 38.1742 27.7283 38.1742C27.8569 38.2175 27.9854 38.2608 28.114 38.3041C28.2854 38.3906 28.3711 38.2608 28.2426 38.2175Z" fill="#777530"/>
<path d="M39.2558 37.5239C38.7415 37.4373 38.1843 37.6105 37.6701 37.6538C37.1558 37.7403 36.6415 37.8269 36.0843 37.9134C35.9558 37.9567 35.9986 38.1299 36.1272 38.1299C36.6843 38.0866 37.2415 38.0433 37.7986 37.9567C38.2701 37.8702 38.8272 37.8702 39.2558 37.6538C39.3843 37.697 39.3415 37.5239 39.2558 37.5239Z" fill="#777530"/>
<path d="M37.7997 38.2596C37.5425 38.2596 37.2854 38.3029 37.0283 38.3029C36.8568 38.3029 36.8997 38.5626 37.0283 38.5193C37.2854 38.4761 37.5425 38.4761 37.7997 38.4328C37.9283 38.4328 37.9283 38.2163 37.7997 38.2596Z" fill="#777530"/>
<path d="M30.3415 34.1955L34.4558 37.1387L38.6987 36.576L34.3701 33.6328L30.3415 34.1955Z" fill="#FFE506"/>
<path d="M34.4563 37.1369L34.3706 40.2099L38.2277 39.5607L38.6991 36.5742L34.4563 37.1369Z" fill="#FFBC00"/>
<path d="M31.413 34.3231C31.4558 34.3231 34.2415 33.9336 34.2415 33.9336L37.713 36.3141L34.6272 36.7037L31.413 34.3231Z" fill="#FFD300"/>
<path d="M42.1272 32.9793L41.8701 33.0658L42.0415 33.239L41.8272 33.4987L41.9987 33.6718L41.7415 34.018L41.6558 34.7538C41.6558 34.7538 31.6272 36.5284 31.6272 36.615C31.3272 36.5284 27.4272 34.624 27.4272 34.624L27.2987 34.018L27.513 33.7151L27.3415 33.6718L27.0844 32.7196L27.3415 32.5032L26.9987 32.3733L27.3415 32.0703L26.913 31.8106L27.213 31.5077L26.913 30.9883L30.813 31.1614L42.2987 31.6808L41.9987 32.8061L42.1272 32.9793Z" fill="#8C8C3F"/>
<path d="M31.3701 35.2732L31.2844 35.6195V36.615C31.2844 36.5284 27.213 34.5807 27.213 34.5807L27.1701 33.9748L27.4272 33.6718L27.2558 33.6285L26.9987 32.6763L27.2558 32.4599L26.9987 32.3733L27.3415 32.0703L26.913 31.8106L27.213 31.5077L26.913 30.9883L30.813 31.1614L31.3272 31.7674L31.6272 33.4121L31.5844 34.321L31.2415 34.6673L31.5844 34.8404L31.3701 35.2732Z" fill="#B2B059"/>
<path d="M26.9135 31.0755C26.7849 31.1621 31.1992 33.4128 31.6706 33.456C32.3135 33.456 42.1706 32.1143 42.3849 31.8113C41.9135 31.1188 38.9135 29.4308 38.5706 29.2577C38.1849 29.1278 27.4278 30.686 26.9135 31.0755Z" fill="#979936"/>
<path d="M28.7125 30.9436C28.7125 30.9436 28.8839 31.3332 28.2411 31.3764C29.3554 31.9391 30.9839 32.848 30.9839 32.848C30.9839 32.848 31.4982 32.5018 31.9697 32.5884C32.4839 32.6749 32.6982 33.0212 32.6982 33.0212L40.7125 31.8093C40.7125 31.8093 40.2839 31.463 40.7982 31.1168C39.8982 30.5108 38.7411 29.8183 38.7411 29.8183C38.7411 29.8183 38.7411 29.9914 38.2268 29.9481C37.7125 29.9048 37.4125 29.5586 37.4125 29.5586C37.4125 29.5586 29.8697 30.5108 28.7125 30.9436Z" fill="#DDDA7A"/>
<path d="M37.0706 31.076C37.0706 31.5088 36.342 31.8551 35.3991 31.8551C34.4991 31.8551 33.7277 31.5088 33.7277 31.076C33.7277 30.6431 34.4563 30.2969 35.3991 30.2969C36.2991 30.3402 37.0706 30.6864 37.0706 31.076Z" fill="#FCEE21"/>
<path d="M29.0149 34.1042C28.8863 34.0609 28.7578 33.9744 28.6292 33.8878C28.4578 33.758 28.3292 34.0609 28.5006 34.0609C28.6292 34.1042 28.7578 34.1475 28.8863 34.1908C29.0578 34.2774 29.1435 34.1475 29.0149 34.1042Z" fill="#777530"/>
<path d="M40.0281 33.4106C39.5138 33.3241 38.9567 33.4972 38.4424 33.5405C37.9281 33.627 37.4138 33.7136 36.8567 33.8002C36.7281 33.8435 36.7709 34.0166 36.8995 34.0166C37.4567 33.9733 38.0138 33.93 38.5709 33.8435C39.0424 33.7569 39.5995 33.7569 40.0281 33.5405C40.1567 33.5405 40.1138 33.4106 40.0281 33.4106Z" fill="#777530"/>
<path d="M38.5274 34.1055C38.2702 34.1055 38.0131 34.1488 37.7559 34.1488C37.5845 34.1488 37.6274 34.4085 37.7559 34.3652C38.0131 34.3219 38.2702 34.3219 38.5274 34.2786C38.656 34.2786 38.6988 34.1055 38.5274 34.1055Z" fill="#777530"/>
<path d="M31.1139 30.0822L35.2281 33.0254L39.471 32.4627L35.1424 29.5195L31.1139 30.0822Z" fill="#FFE506"/>
<path d="M35.2286 33.0236L35.1429 36.0966L39 35.4474L39.4714 32.4609L35.2286 33.0236Z" fill="#FFBC00"/>
<path d="M32.1429 30.2099C32.1857 30.2099 34.9714 29.8203 34.9714 29.8203L38.4429 32.2008L35.3572 32.5904L32.1429 30.2099Z" fill="#FFD300"/>
</g>
<defs>
<clipPath id="clip0_2998_108177">
<rect width="48" height="48" fill="white"/>
</clipPath>
</defs>
</svg>
