<svg width="53" height="47" viewBox="0 0 53 47" fill="none" xmlns="http://www.w3.org/2000/svg">
<path d="M14.5591 25.1321V28.8443C14.5591 29.5557 13.9776 30.1366 13.2656 30.1366H10.604C9.89199 30.1366 9.31055 29.5557 9.31055 28.8443V25.1321C9.31055 24.4207 9.89199 23.8398 10.604 23.8398H13.2656C13.9745 23.8398 14.5591 24.4207 14.5591 25.1321Z" fill="#E799AC"/>
<path d="M14.5591 25.1321V27.201C14.5591 27.9124 13.9776 28.4933 13.2656 28.4933H10.604C9.89199 28.4933 9.31055 27.9124 9.31055 27.201V25.1321C9.31055 24.4207 9.89199 23.8398 10.604 23.8398H13.2656C13.9745 23.8398 14.5591 24.4207 14.5591 25.1321Z" fill="url(#paint0_linear_2998_110529)"/>
<path d="M44.0543 26.9862C44.0543 28.8842 43.6657 30.6984 42.9629 32.351C40.8579 37.3058 35.9297 40.8005 30.2272 40.8005H26.2783C21.2319 40.8005 16.7949 38.0637 14.379 34.0005C13.1539 31.941 12.4512 29.5428 12.4512 26.9862C12.4512 25.0882 12.8398 23.274 13.5425 21.6214C15.6476 16.6666 20.5758 13.1719 26.2783 13.1719H30.2303C35.4166 13.1719 39.9593 16.064 42.3255 20.3136C43.4262 22.2955 44.0543 24.5725 44.0543 26.9862Z" fill="#E799AC"/>
<path d="M42.3224 20.3136C42.652 21.9072 42.3939 24.1842 41.9742 25.3895C39.1851 33.4072 32.6245 34.8548 25.9208 35.4637C21.1542 35.8986 14.379 34.0005 14.379 34.0005C13.1539 31.941 12.4512 29.5428 12.4512 26.9862C12.4512 25.0882 12.8398 23.274 13.5425 21.6214C15.6476 16.6666 20.5758 13.1719 26.2783 13.1719H30.2303C35.4166 13.175 39.9594 16.0671 42.3224 20.3136Z" fill="url(#paint1_linear_2998_110529)"/>
<path d="M24.6447 16.6351H19.2064C18.6592 16.6351 18.2146 16.3027 18.2146 15.8927V8.47449C18.2146 8.34713 18.255 8.23219 18.3234 8.13278C18.5908 7.74759 19.2873 7.58916 19.8097 7.88116C21.8742 9.04918 25.2572 11.5902 25.6365 15.8399C25.6738 16.2717 25.2199 16.6351 24.6447 16.6351Z" fill="url(#paint2_linear_2998_110529)"/>
<path d="M19.4272 16.6351H19.2064C18.6592 16.6351 18.2146 16.3027 18.2146 15.8927V8.47452C18.2146 8.34716 18.255 8.23222 18.3234 8.13281C18.3452 8.15145 18.37 8.1732 18.3918 8.19805C19.5733 9.51207 21.2741 12.0935 20.7953 15.7094C20.7238 16.2344 20.1361 16.6351 19.4272 16.6351Z" fill="#D79EAD"/>
<path d="M16.5628 21.592C16.5628 21.1447 16.9266 20.7812 17.3743 20.7812C17.8221 20.7812 18.1858 21.1447 18.1858 21.592C18.1858 22.0394 17.8221 22.4028 17.3743 22.4028C16.9235 22.4028 16.5628 22.0394 16.5628 21.592Z" fill="#D79EAD"/>
<path d="M32.5661 34.9371L31.2757 43.3027C31.1047 43.952 31.5929 44.5857 32.2645 44.5857H35.6537C36.3812 44.5857 37.0466 44.1787 37.3793 43.5357L42.6465 33.0391L32.5661 34.9371Z" fill="#E799AC"/>
<path d="M24.9057 35.5222L25.8851 43.3007C26.0561 43.9499 25.568 44.5836 24.8963 44.5836H21.5072C20.7796 44.5836 20.1142 44.1767 19.7815 43.5337L14.3775 34L24.9057 35.5222Z" fill="#E799AC"/>
<path d="M47.3493 30.7428C47.2716 30.7428 47.1938 30.7335 47.1161 30.7117C46.516 30.5533 46.1708 29.8357 46.2175 28.8417C46.2641 27.8662 46.6715 26.8349 47.34 26.0148C47.6353 25.6513 47.9743 25.3345 48.3567 25.0642C48.1764 24.7691 47.9338 24.4864 47.6105 24.241C47.057 23.8248 46.4849 23.7067 45.8599 23.8745C44.184 24.328 42.763 26.7231 42.648 26.9902C42.5951 27.1331 42.4366 27.2108 42.2935 27.1611C42.1443 27.1114 42.0634 26.9498 42.1132 26.8038C42.1629 26.6547 42.5796 25.9402 43.1579 25.232C44.1653 23.9987 45.0453 23.5328 45.605 23.3588C46.4351 23.101 47.2249 23.2439 47.9494 23.7875C48.3101 24.0577 48.6054 24.3839 48.8386 24.7629C49.4139 24.4429 50.0606 24.2193 50.7664 24.1043C50.9219 24.0795 51.068 24.1851 51.0929 24.3373C51.1178 24.4926 51.0121 24.6386 50.8597 24.6635C50.213 24.7691 49.6222 24.9741 49.0967 25.2693C49.2584 25.6576 49.3579 26.0831 49.3983 26.5429C49.4792 27.4904 49.2895 28.5248 48.876 29.3822C48.45 30.252 47.8965 30.7428 47.3493 30.7428ZM48.6086 25.5799C48.3007 25.8067 48.024 26.0707 47.7815 26.3689C47.1907 27.0989 46.8269 28.0091 46.7865 28.8665C46.7554 29.5468 46.9482 30.0811 47.2622 30.1619C47.5794 30.2458 48.0333 29.8202 48.366 29.1306C48.7329 28.3757 48.9071 27.4251 48.8355 26.5864C48.8044 26.2882 48.7423 25.9371 48.6086 25.5799ZM42.6511 26.984C42.6511 26.9871 42.6511 26.9871 42.648 26.9902C42.6511 26.9871 42.6511 26.984 42.6511 26.984Z" fill="#E799AC"/>
<path d="M24.4149 43.8597V44.3971C24.4149 44.4406 24.3994 44.481 24.3714 44.512C24.3434 44.5462 24.303 44.5742 24.2564 44.5897C24.2408 44.5959 24.2253 44.599 24.2097 44.599C24.1942 44.6021 24.1817 44.6021 24.1662 44.6021H13.9365C13.8121 44.6021 13.7095 44.5245 13.6909 44.425C13.6909 44.4188 13.6878 44.4126 13.6878 44.4033C13.6878 44.4002 13.6878 44.3971 13.6878 44.394V43.8566C13.6878 43.8535 13.6878 43.8504 13.6878 43.8473C13.6878 43.841 13.6878 43.8348 13.6909 43.8255C13.7095 43.7261 13.8121 43.6484 13.9365 43.6484H24.1662C24.1817 43.6484 24.1942 43.6484 24.2097 43.6515C24.2253 43.6546 24.2408 43.6578 24.2564 43.6609C24.303 43.6764 24.3434 43.7044 24.3714 43.7385C24.3994 43.7758 24.4149 43.8162 24.4149 43.8597Z" fill="#EEAB46"/>
<path d="M19.3947 44.6076H13.913C13.8104 44.6076 13.7264 44.5424 13.7016 44.4554C13.6985 44.4492 13.6985 44.4399 13.6953 44.4337C13.6953 44.4275 13.6922 44.4212 13.6922 44.4119C13.6922 44.4088 13.6922 44.4057 13.6922 44.4026V43.8652C13.6922 43.8621 13.6922 43.859 13.6922 43.8559C13.6922 43.8496 13.6922 43.8434 13.6953 43.8341C13.6953 43.8248 13.6985 43.8186 13.7016 43.8124C13.7264 43.7254 13.8135 43.6602 13.913 43.6602H18.72C18.7977 43.9366 18.975 44.3249 19.3947 44.6076Z" fill="#F2C144"/>
<path d="M23.1689 43.6523H23.0539V44.606H23.1689V43.6523Z" fill="#F2C144"/>
<path d="M22.776 43.6523H22.661V44.606H22.776V43.6523Z" fill="#F2C144"/>
<path d="M22.305 43.6523H22.19V44.606H22.305V43.6523Z" fill="#F2C144"/>
<path d="M21.5796 43.6523H21.4646V44.606H21.5796V43.6523Z" fill="#F2C144"/>
<path d="M20.8162 43.6523H20.7012V44.606H20.8162V43.6523Z" fill="#F2C144"/>
<path d="M19.6443 43.6523H19.5293V44.606H19.6443V43.6523Z" fill="#F2C144"/>
<path d="M18.5461 43.6523H18.4311V44.606H18.5461V43.6523Z" fill="#F2C144"/>
<path d="M17.5662 43.6523H17.4512V44.606H17.5662V43.6523Z" fill="#F2C144"/>
<path d="M23.5439 43.6523H23.4289V44.606H23.5439V43.6523Z" fill="#F2C144"/>
<path d="M23.7939 43.6523H23.6789V44.606H23.7939V43.6523Z" fill="#F2C144"/>
<path d="M24.0305 43.6523H23.9155V44.606H24.0305V43.6523Z" fill="#F2C144"/>
<path d="M24.2135 43.6555V44.6029C24.198 44.606 24.1855 44.606 24.17 44.606H24.0985V43.6523H24.17C24.1824 43.6523 24.198 43.6555 24.2135 43.6555Z" fill="#F2C144"/>
<path d="M24.3743 43.7456V44.516C24.3463 44.5502 24.3059 44.5782 24.2592 44.5937V43.668C24.3027 43.6835 24.3463 43.7084 24.3743 43.7456Z" fill="#F2C144"/>
<path d="M23.3198 42.9042V43.4417C23.3198 43.4852 23.3043 43.5255 23.2763 43.5566C23.2701 43.5659 23.2608 43.5721 23.2514 43.5815C23.2266 43.6032 23.1955 43.6218 23.1582 43.6343C23.1426 43.6405 23.1271 43.6436 23.1115 43.6436C23.096 43.6467 23.0835 43.6467 23.068 43.6467H12.8383C12.7139 43.6467 12.6113 43.569 12.5927 43.4696C12.5927 43.4634 12.5896 43.4572 12.5896 43.451C12.5896 43.4479 12.5896 43.4448 12.5896 43.4417V42.9042C12.5896 42.9011 12.5896 42.898 12.5896 42.8949C12.5896 42.8887 12.5896 42.8825 12.5927 42.8763C12.6113 42.7769 12.7139 42.6992 12.8383 42.6992H23.068C23.0742 42.6992 23.0804 42.6992 23.0866 42.6992C23.0898 42.6992 23.0929 42.6992 23.0929 42.6992C23.096 42.6992 23.0991 42.6992 23.1022 42.6992C23.1053 42.6992 23.1053 42.6992 23.1084 42.6992C23.124 42.7023 23.1395 42.7054 23.155 42.7085C23.1644 42.7116 23.1706 42.7148 23.1799 42.7179C23.1861 42.721 23.1892 42.7241 23.1955 42.7241C23.1986 42.7272 23.2017 42.7272 23.2048 42.7303C23.2079 42.7334 23.211 42.7334 23.2141 42.7365C23.2235 42.7427 23.2359 42.7489 23.2452 42.7582C23.2483 42.7613 23.2514 42.7645 23.2545 42.7676C23.2577 42.7707 23.2577 42.7707 23.2608 42.7738L23.2639 42.7769L23.267 42.78C23.2701 42.7831 23.2732 42.7862 23.2763 42.7893C23.3043 42.8204 23.3198 42.8608 23.3198 42.9042Z" fill="#EEAB46"/>
<path d="M18.2988 43.6506H12.817C12.7144 43.6506 12.6305 43.5854 12.6056 43.4953C12.6025 43.4891 12.6025 43.4797 12.5994 43.4735C12.5994 43.4673 12.5963 43.4611 12.5963 43.4549C12.5963 43.4518 12.5963 43.4487 12.5963 43.4456V42.9082C12.5963 42.905 12.5963 42.9019 12.5963 42.8988C12.5963 42.8926 12.5963 42.8864 12.5994 42.8802C12.5994 42.874 12.6025 42.8647 12.6056 42.8584C12.6305 42.7715 12.7175 42.7031 12.817 42.7031H17.624C17.6271 42.7124 17.6271 42.7187 17.6302 42.728C17.7111 42.9982 17.8914 43.3741 18.2988 43.6506Z" fill="#F2C144"/>
<path d="M22.0774 42.6953H21.9623V43.649H22.0774V42.6953Z" fill="#F2C144"/>
<path d="M21.6823 42.6953H21.5673V43.649H21.6823V42.6953Z" fill="#F2C144"/>
<path d="M21.2091 42.6953H21.094V43.649H21.2091V42.6953Z" fill="#F2C144"/>
<path d="M20.4859 42.6953H20.3708V43.649H20.4859V42.6953Z" fill="#F2C144"/>
<path d="M19.7225 42.6953H19.6074V43.649H19.7225V42.6953Z" fill="#F2C144"/>
<path d="M18.5506 42.6953H18.4355V43.649H18.5506V42.6953Z" fill="#F2C144"/>
<path d="M17.4502 42.6953H17.3351V43.649H17.4502V42.6953Z" fill="#F2C144"/>
<path d="M16.4702 42.6953H16.3552V43.649H16.4702V42.6953Z" fill="#F2C144"/>
<path d="M22.4502 42.6953H22.3351V43.649H22.4502V42.6953Z" fill="#F2C144"/>
<path d="M22.6979 42.6953H22.5829V43.649H22.6979V42.6953Z" fill="#F2C144"/>
<path d="M22.9368 42.6953H22.8217V43.649H22.9368V42.6953Z" fill="#F2C144"/>
<path d="M23.1184 42.6984V43.6459C23.1029 43.649 23.0904 43.649 23.0749 43.649H23.0003V42.6953H23.0718C23.0904 42.6953 23.1029 42.6953 23.1184 42.6984Z" fill="#F2C144"/>
<path d="M23.2805 42.7886V43.559C23.2525 43.5932 23.2121 43.6211 23.1655 43.6367V42.7109C23.2121 42.7234 23.2525 42.7513 23.2805 42.7886Z" fill="#F2C144"/>
<path d="M23.848 41.9738V42.5112C23.848 42.5547 23.8324 42.595 23.8045 42.6261C23.7765 42.6603 23.7361 42.6882 23.6894 42.7038C23.6739 42.71 23.6583 42.7131 23.6428 42.7131C23.6272 42.7162 23.6148 42.7162 23.5992 42.7162H13.3696C13.3291 42.7162 13.2887 42.7069 13.2545 42.6913C13.1861 42.6603 13.1364 42.6075 13.1239 42.5391C13.1239 42.536 13.1239 42.5298 13.1208 42.5267C13.1208 42.5236 13.1208 42.5205 13.1208 42.5174C13.1208 42.5143 13.1208 42.5112 13.1208 42.5081V41.9706C13.1208 41.9675 13.1208 41.9644 13.1208 41.9613C13.1208 41.9551 13.1208 41.9489 13.1239 41.9427C13.1426 41.8433 13.2452 41.7656 13.3696 41.7656H23.5992C23.6148 41.7656 23.6272 41.7656 23.6428 41.7687C23.6583 41.7718 23.6739 41.7749 23.6894 41.7781C23.7361 41.7936 23.7765 41.8215 23.8045 41.8557C23.8324 41.893 23.848 41.9334 23.848 41.9738Z" fill="#EEAB46"/>
<path d="M18.8278 42.724H13.346C13.3087 42.724 13.2745 42.7147 13.2434 42.6992C13.1812 42.6681 13.1377 42.6153 13.1284 42.5469C13.1284 42.5438 13.1284 42.5376 13.1253 42.5345C13.1253 42.5314 13.1253 42.5283 13.1253 42.5252C13.1253 42.5221 13.1253 42.519 13.1253 42.5159V41.9785C13.1253 41.9754 13.1253 41.9723 13.1253 41.9691C13.1253 41.9629 13.1253 41.9567 13.1284 41.9505C13.1284 41.9443 13.1315 41.935 13.1346 41.9288C13.1595 41.8387 13.2465 41.7734 13.346 41.7734H18.153C18.2277 42.0468 18.3987 42.4227 18.7936 42.7023C18.806 42.7085 18.8153 42.7147 18.8278 42.724Z" fill="#F2C144"/>
<path d="M22.6064 41.7656H22.4914V42.7193H22.6064V41.7656Z" fill="#F2C144"/>
<path d="M22.2091 41.7656H22.094V42.7193H22.2091V41.7656Z" fill="#F2C144"/>
<path d="M21.7381 41.7656H21.623V42.7193H21.7381V41.7656Z" fill="#F2C144"/>
<path d="M21.0171 41.7656H20.9021V42.7193H21.0171V41.7656Z" fill="#F2C144"/>
<path d="M20.2515 41.7656H20.1364V42.7193H20.2515V41.7656Z" fill="#F2C144"/>
<path d="M19.0796 41.7656H18.9646V42.7193H19.0796V41.7656Z" fill="#F2C144"/>
<path d="M17.9792 41.7656H17.8641V42.7193H17.9792V41.7656Z" fill="#F2C144"/>
<path d="M16.9993 41.7656H16.8842V42.7193H16.9993V41.7656Z" fill="#F2C144"/>
<path d="M22.9769 41.7656H22.8619V42.7193H22.9769V41.7656Z" fill="#F2C144"/>
<path d="M23.227 41.7656H23.1119V42.7193H23.227V41.7656Z" fill="#F2C144"/>
<path d="M23.468 41.7656H23.353V42.7193H23.468V41.7656Z" fill="#F2C144"/>
<path d="M23.6474 41.7739V42.7214C23.6319 42.7245 23.6195 42.7245 23.6039 42.7245H23.5293V41.7708H23.6008C23.6195 41.7677 23.6319 41.7708 23.6474 41.7739Z" fill="#F2C144"/>
<path d="M23.8073 41.8589V42.6293C23.7793 42.6635 23.7389 42.6914 23.6923 42.707V41.7812C23.7389 41.7968 23.7793 41.8247 23.8073 41.8589Z" fill="#F2C144"/>
<path d="M24.0944 41.0198V41.5572C24.0944 41.6007 24.0789 41.6411 24.0509 41.6722C24.0478 41.6753 24.0447 41.6815 24.0384 41.6846C24.0198 41.7064 23.9949 41.7219 23.9669 41.7374C23.9576 41.7436 23.9452 41.7467 23.9327 41.7498C23.9172 41.7561 23.9016 41.7592 23.8861 41.7592C23.8799 41.7592 23.8705 41.7623 23.8643 41.7623C23.8581 41.7623 23.8488 41.7623 23.8426 41.7623H13.6129C13.4885 41.7623 13.3859 41.6846 13.3672 41.5852C13.3672 41.579 13.3641 41.5728 13.3641 41.5666V41.0074C13.3704 40.9049 13.4636 40.8241 13.5818 40.8117C13.5911 40.8117 13.6004 40.8086 13.6098 40.8086H23.8394C23.8457 40.8086 23.855 40.8086 23.8612 40.8086C23.8674 40.8086 23.8768 40.8086 23.883 40.8117C23.8985 40.8148 23.9141 40.8179 23.9296 40.821C23.9763 40.8366 24.0167 40.8645 24.0447 40.8987C24.0789 40.936 24.0944 40.9763 24.0944 41.0198Z" fill="#EEAB46"/>
<path d="M19.0733 41.7662H13.5916C13.489 41.7662 13.405 41.7009 13.3801 41.6108C13.377 41.6046 13.377 41.5953 13.3739 41.5891C13.3739 41.5829 13.3708 41.5767 13.3708 41.5705V41.0113C13.377 40.9119 13.461 40.828 13.5667 40.8156C13.576 40.8156 13.5854 40.8125 13.5916 40.8125H18.3986C18.3986 40.8125 18.3986 40.8125 18.3986 40.8156C18.4763 41.0952 18.6567 41.4835 19.0733 41.7662Z" fill="#F2C144"/>
<path d="M22.852 40.8125H22.7369V41.7662H22.852V40.8125Z" fill="#F2C144"/>
<path d="M22.4546 40.8125H22.3396V41.7662H22.4546V40.8125Z" fill="#F2C144"/>
<path d="M21.9836 40.8125H21.8686V41.7662H21.9836V40.8125Z" fill="#F2C144"/>
<path d="M21.2582 40.8125H21.1432V41.7662H21.2582V40.8125Z" fill="#F2C144"/>
<path d="M20.4948 40.8125H20.3798V41.7662H20.4948V40.8125Z" fill="#F2C144"/>
<path d="M19.3229 40.8125H19.2079V41.7662H19.3229V40.8125Z" fill="#F2C144"/>
<path d="M18.2247 40.8125H18.1097V41.7662H18.2247V40.8125Z" fill="#F2C144"/>
<path d="M17.2448 40.8125H17.1298V41.7662H17.2448V40.8125Z" fill="#F2C144"/>
<path d="M23.2225 40.8125H23.1075V41.7662H23.2225V40.8125Z" fill="#F2C144"/>
<path d="M23.4725 40.8125H23.3575V41.7662H23.4725V40.8125Z" fill="#F2C144"/>
<path d="M23.7091 40.8125H23.5941V41.7662H23.7091V40.8125Z" fill="#F2C144"/>
<path d="M23.8921 40.8156V41.7631C23.8766 41.7662 23.8641 41.7662 23.8486 41.7662H23.7771V40.8125H23.8486C23.861 40.8125 23.8766 40.8156 23.8921 40.8156Z" fill="#F2C144"/>
<path d="M24.0529 40.9058V41.6762C24.0249 41.7104 23.9844 41.7383 23.9378 41.7538V40.8281C23.9844 40.8437 24.0249 40.8716 24.0529 40.9058Z" fill="#F2C144"/>
<path d="M23.3418 40.0675V40.6049C23.3418 40.6484 23.3262 40.6888 23.2982 40.7199C23.2703 40.754 23.2298 40.782 23.1832 40.7975C23.1676 40.8037 23.1521 40.8068 23.1397 40.8068C23.1334 40.8068 23.1303 40.8099 23.1241 40.8099C23.121 40.8099 23.1179 40.8099 23.1179 40.8099C23.1148 40.8099 23.1148 40.8099 23.1117 40.8099C23.1086 40.8099 23.1023 40.8099 23.0992 40.8099H12.8696C12.739 40.8099 12.6301 40.723 12.6208 40.6142C12.6208 40.6111 12.6208 40.608 12.6208 40.6049V40.0675C12.6208 40.0644 12.6208 40.0613 12.6208 40.0582C12.6208 40.0551 12.6208 40.052 12.6208 40.0489C12.6301 39.9619 12.7079 39.8873 12.8074 39.8687C12.8105 39.8687 12.8136 39.8687 12.8136 39.8656C12.8323 39.8625 12.8478 39.8594 12.8665 39.8594H23.0961C23.1023 39.8594 23.1117 39.8594 23.1179 39.8594C23.121 39.8594 23.1241 39.8594 23.1272 39.8594C23.1303 39.8594 23.1334 39.8594 23.1397 39.8594C23.1552 39.8625 23.1708 39.8656 23.1832 39.8687C23.2298 39.8842 23.2703 39.9122 23.2982 39.9464C23.3262 39.9836 23.3418 40.024 23.3418 40.0675Z" fill="#EEAB46"/>
<path d="M18.3189 40.8139H12.8371C12.719 40.8139 12.6226 40.7269 12.6164 40.6181C12.6164 40.615 12.6164 40.6119 12.6164 40.6088V40.0714C12.6164 40.0683 12.6164 40.0652 12.6164 40.0621C12.6164 40.059 12.6164 40.0559 12.6164 40.0528C12.6257 39.9627 12.6972 39.8881 12.7874 39.8695C12.7905 39.8695 12.7936 39.8664 12.7967 39.8664C12.8091 39.8633 12.8216 39.8633 12.8371 39.8633H17.6441C17.6441 39.8664 17.6441 39.8664 17.6472 39.8695C17.725 40.146 17.9022 40.5281 18.3189 40.8139C18.3158 40.8107 18.3189 40.8139 18.3189 40.8139Z" fill="#F2C144"/>
<path d="M22.0975 39.8594H21.9825V40.8131H22.0975V39.8594Z" fill="#F2C144"/>
<path d="M21.7002 39.8594H21.5851V40.8131H21.7002V39.8594Z" fill="#F2C144"/>
<path d="M21.2292 39.8594H21.1141V40.8131H21.2292V39.8594Z" fill="#F2C144"/>
<path d="M20.5082 39.8594H20.3932V40.8131H20.5082V39.8594Z" fill="#F2C144"/>
<path d="M19.7426 39.8594H19.6275V40.8131H19.7426V39.8594Z" fill="#F2C144"/>
<path d="M18.5685 39.8594H18.4534V40.8131H18.5685V39.8594Z" fill="#F2C144"/>
<path d="M17.4703 39.8594H17.3552V40.8131H17.4703V39.8594Z" fill="#F2C144"/>
<path d="M16.4903 39.8594H16.3753V40.8131H16.4903V39.8594Z" fill="#F2C144"/>
<path d="M22.468 39.8594H22.353V40.8131H22.468V39.8594Z" fill="#F2C144"/>
<path d="M22.718 39.8594H22.603V40.8131H22.718V39.8594Z" fill="#F2C144"/>
<path d="M22.9591 39.8594H22.8441V40.8131H22.9591V39.8594Z" fill="#F2C144"/>
<path d="M23.1377 39.8625V40.8099C23.1221 40.8131 23.1097 40.8131 23.0941 40.8131H23.0226V39.8594H23.0941C23.1097 39.8594 23.1221 39.8594 23.1377 39.8625Z" fill="#F2C144"/>
<path d="M23.2984 39.9488V40.7191C23.2704 40.7533 23.23 40.7813 23.1833 40.7968V39.8711C23.23 39.8866 23.2704 39.9146 23.2984 39.9488Z" fill="#F2C144"/>
<path d="M23.3212 39.1206V39.658C23.3212 39.7015 23.3056 39.7419 23.2777 39.7729C23.2714 39.7823 23.2621 39.7885 23.2528 39.7978C23.2279 39.8195 23.1968 39.8382 23.1595 39.8506C23.1471 39.8537 23.1346 39.8568 23.1253 39.8599C23.1222 39.8599 23.1191 39.8599 23.116 39.8599C23.1004 39.863 23.088 39.863 23.0724 39.863H12.8428C12.8334 39.863 12.821 39.863 12.8117 39.8599C12.8086 39.8599 12.8024 39.8599 12.7992 39.8568C12.6935 39.8413 12.6127 39.7698 12.5971 39.6798C12.5971 39.6735 12.594 39.6673 12.594 39.6611C12.594 39.658 12.594 39.6549 12.594 39.6487V39.1113C12.594 39.1082 12.594 39.1051 12.594 39.102C12.594 39.0957 12.594 39.0895 12.5971 39.0833C12.6158 38.9839 12.7184 38.9062 12.8428 38.9062H23.0724C23.0787 38.9062 23.0849 38.9062 23.0911 38.9062H23.0942C23.0973 38.9062 23.0973 38.9062 23.1004 38.9062C23.1035 38.9062 23.1066 38.9062 23.1098 38.9062C23.1129 38.9062 23.1129 38.9062 23.116 38.9062C23.1315 38.9094 23.1471 38.9125 23.1626 38.9156C23.1719 38.9187 23.1782 38.9218 23.1875 38.9249C23.2186 38.9404 23.2466 38.9591 23.2683 38.9808C23.2714 38.9839 23.2745 38.987 23.2777 38.9901C23.3056 39.0367 23.3212 39.0771 23.3212 39.1206Z" fill="#EEAB46"/>
<path d="M18.2996 39.8685H12.8179C12.8148 39.8685 12.8086 39.8685 12.8055 39.8685C12.7992 39.8685 12.7961 39.8685 12.7899 39.8685C12.6904 39.8561 12.6127 39.7847 12.5971 39.6915C12.5971 39.6853 12.594 39.679 12.594 39.6728C12.594 39.6697 12.594 39.6666 12.594 39.6604V39.123C12.594 39.1199 12.594 39.1168 12.594 39.1137C12.594 39.1075 12.594 39.1012 12.5971 39.095C12.5971 39.0888 12.6002 39.0795 12.6034 39.0733C12.6282 38.9863 12.7153 38.918 12.8148 38.918H17.6218C17.6249 38.9273 17.6249 38.9335 17.628 38.9428C17.7089 39.2193 17.8861 39.589 18.2841 39.8654C18.2934 39.8623 18.2965 39.8654 18.2996 39.8685Z" fill="#F2C144"/>
<path d="M22.0796 38.9141H21.9646V39.8677H22.0796V38.9141Z" fill="#F2C144"/>
<path d="M21.6823 38.9141H21.5672V39.8677H21.6823V38.9141Z" fill="#F2C144"/>
<path d="M21.2113 38.9141H21.0963V39.8677H21.2113V38.9141Z" fill="#F2C144"/>
<path d="M20.4903 38.9141H20.3753V39.8677H20.4903V38.9141Z" fill="#F2C144"/>
<path d="M19.7247 38.9141H19.6096V39.8677H19.7247V38.9141Z" fill="#F2C144"/>
<path d="M18.5528 38.9141H18.4378V39.8677H18.5528V38.9141Z" fill="#F2C144"/>
<path d="M17.4524 38.9141H17.3373V39.8677H17.4524V38.9141Z" fill="#F2C144"/>
<path d="M16.4725 38.9141H16.3574V39.8677H16.4725V38.9141Z" fill="#F2C144"/>
<path d="M22.4502 38.9141H22.3351V39.8677H22.4502V38.9141Z" fill="#F2C144"/>
<path d="M22.7002 38.9141H22.5851V39.8677H22.7002V38.9141Z" fill="#F2C144"/>
<path d="M22.9412 38.9141H22.8262V39.8677H22.9412V38.9141Z" fill="#F2C144"/>
<path d="M23.1207 38.9172V39.8646C23.1051 39.8677 23.0927 39.8677 23.0771 39.8677H23.0025V38.9141H23.074C23.0927 38.9141 23.1051 38.9141 23.1207 38.9172Z" fill="#F2C144"/>
<path d="M23.2805 39.0034V39.7738C23.2525 39.808 23.2121 39.836 23.1655 39.8515V38.9258C23.2121 38.9413 23.2525 38.9693 23.2805 39.0034Z" fill="#F2C144"/>
<path d="M23.848 38.1886V38.726C23.848 38.7695 23.8324 38.8099 23.8045 38.841C23.7765 38.8751 23.7361 38.9031 23.6894 38.9186C23.6739 38.9248 23.6583 38.9279 23.6428 38.9279C23.6272 38.931 23.6148 38.931 23.5992 38.931H13.3696C13.3291 38.931 13.2887 38.9217 13.2545 38.9062C13.1861 38.8751 13.1364 38.8223 13.1239 38.754C13.1239 38.7509 13.1239 38.7447 13.1208 38.7415C13.1208 38.7384 13.1208 38.7353 13.1208 38.7322C13.1208 38.7291 13.1208 38.726 13.1208 38.7229V38.1855C13.1208 38.1824 13.1208 38.1793 13.1208 38.1762C13.1208 38.17 13.1208 38.1638 13.1239 38.1575C13.1426 38.0581 13.2452 37.9805 13.3696 37.9805H23.5992C23.6148 37.9805 23.6272 37.9805 23.6428 37.9836C23.6583 37.9867 23.6739 37.9898 23.6894 37.9929C23.7361 38.0084 23.7765 38.0364 23.8045 38.0706C23.8324 38.1047 23.848 38.1451 23.848 38.1886Z" fill="#EEAB46"/>
<path d="M18.8278 38.9349H13.346C13.3087 38.9349 13.2745 38.9256 13.2434 38.9101C13.1812 38.879 13.1377 38.8262 13.1284 38.7579C13.1284 38.7548 13.1284 38.7486 13.1253 38.7455C13.1253 38.7423 13.1253 38.7392 13.1253 38.7361C13.1253 38.733 13.1253 38.7299 13.1253 38.7268V38.1894C13.1253 38.1863 13.1253 38.1832 13.1253 38.1801C13.1253 38.1739 13.1253 38.1677 13.1284 38.1614C13.1284 38.1552 13.1315 38.1459 13.1346 38.1397C13.1595 38.0527 13.2465 37.9844 13.346 37.9844H18.153C18.2277 38.2577 18.3987 38.6336 18.7936 38.9163C18.806 38.9194 18.8153 38.9287 18.8278 38.9349Z" fill="#F2C144"/>
<path d="M22.6064 37.9805H22.4914V38.9341H22.6064V37.9805Z" fill="#F2C144"/>
<path d="M22.2091 37.9805H22.094V38.9341H22.2091V37.9805Z" fill="#F2C144"/>
<path d="M21.7381 37.9805H21.623V38.9341H21.7381V37.9805Z" fill="#F2C144"/>
<path d="M21.0171 37.9805H20.9021V38.9341H21.0171V37.9805Z" fill="#F2C144"/>
<path d="M20.2515 37.9805H20.1364V38.9341H20.2515V37.9805Z" fill="#F2C144"/>
<path d="M19.0796 37.9805H18.9646V38.9341H19.0796V37.9805Z" fill="#F2C144"/>
<path d="M17.9792 37.9805H17.8641V38.9341H17.9792V37.9805Z" fill="#F2C144"/>
<path d="M16.9993 37.9805H16.8842V38.9341H16.9993V37.9805Z" fill="#F2C144"/>
<path d="M22.9769 37.9805H22.8619V38.9341H22.9769V37.9805Z" fill="#F2C144"/>
<path d="M23.227 37.9805H23.1119V38.9341H23.227V37.9805Z" fill="#F2C144"/>
<path d="M23.468 37.9805H23.353V38.9341H23.468V37.9805Z" fill="#F2C144"/>
<path d="M23.6474 37.9836V38.931C23.6319 38.9341 23.6195 38.9341 23.6039 38.9341H23.5293V37.9805H23.6008C23.6195 37.9805 23.6319 37.9805 23.6474 37.9836Z" fill="#F2C144"/>
<path d="M23.8073 38.0738V38.8441C23.7793 38.8783 23.7389 38.9063 23.6923 38.9218V37.9961C23.7389 38.0116 23.7793 38.0365 23.8073 38.0738Z" fill="#F2C144"/>
<path d="M24.6859 37.2347V37.7721C24.6859 37.8156 24.6704 37.856 24.6424 37.887C24.6393 37.8901 24.6362 37.8963 24.6299 37.8995C24.6144 37.915 24.5957 37.9305 24.574 37.9429C24.5646 37.9492 24.5522 37.9554 24.5429 37.9585C24.5367 37.9616 24.5304 37.9616 24.5242 37.9647C24.5087 37.9709 24.4931 37.974 24.4776 37.974C24.462 37.9771 24.4496 37.9771 24.4341 37.9771H14.2044C14.08 37.9771 13.9774 37.8995 13.9587 37.8C13.9587 37.7938 13.9556 37.7876 13.9556 37.7783C13.9556 37.7752 13.9556 37.7721 13.9556 37.769V37.2316C13.9556 37.2285 13.9556 37.2254 13.9556 37.2223C13.9618 37.1228 14.0551 37.039 14.1733 37.0265C14.1826 37.0265 14.1919 37.0234 14.2013 37.0234H24.4309C24.4465 37.0234 24.4589 37.0234 24.4745 37.0265C24.49 37.0296 24.5056 37.0328 24.5211 37.0359C24.5615 37.0483 24.5988 37.0731 24.6268 37.1011C24.6299 37.1042 24.633 37.1104 24.6393 37.1135C24.6704 37.1508 24.6859 37.1912 24.6859 37.2347Z" fill="#EEAB46"/>
<path d="M19.6648 37.981H14.1831C14.0805 37.981 13.9965 37.9158 13.9716 37.8257C13.9685 37.8195 13.9685 37.8102 13.9654 37.8039C13.9654 37.7977 13.9623 37.7915 13.9623 37.7822C13.9623 37.7791 13.9623 37.776 13.9623 37.7729V37.2355C13.9623 37.2324 13.9623 37.2293 13.9623 37.2262C13.9685 37.1267 14.0525 37.0429 14.1551 37.0304C14.1644 37.0304 14.1737 37.0273 14.18 37.0273H18.9901C18.9901 37.0273 18.9901 37.0273 18.9901 37.0304C19.0678 37.31 19.2482 37.6983 19.6648 37.981Z" fill="#F2C144"/>
<path d="M23.4435 37.0273H23.3284V37.981H23.4435V37.0273Z" fill="#F2C144"/>
<path d="M23.0484 37.0273H22.9333V37.981H23.0484V37.0273Z" fill="#F2C144"/>
<path d="M22.5751 37.0273H22.4601V37.981H22.5751V37.0273Z" fill="#F2C144"/>
<path d="M21.8519 37.0273H21.7369V37.981H21.8519V37.0273Z" fill="#F2C144"/>
<path d="M21.0885 37.0273H20.9735V37.981H21.0885V37.0273Z" fill="#F2C144"/>
<path d="M19.9144 37.0273H19.7994V37.981H19.9144V37.0273Z" fill="#F2C144"/>
<path d="M18.8162 37.0273H18.7012V37.981H18.8162V37.0273Z" fill="#F2C144"/>
<path d="M17.8363 37.0273H17.7213V37.981H17.8363V37.0273Z" fill="#F2C144"/>
<path d="M23.8162 37.0273H23.7012V37.981H23.8162V37.0273Z" fill="#F2C144"/>
<path d="M24.064 37.0273H23.9489V37.981H24.064V37.0273Z" fill="#F2C144"/>
<path d="M24.3028 37.0273H24.1878V37.981H24.3028V37.0273Z" fill="#F2C144"/>
<path d="M24.4836 37.0304V37.9779C24.4681 37.981 24.4556 37.981 24.4401 37.981H24.3686V37.0273H24.4401C24.4556 37.0273 24.4681 37.0273 24.4836 37.0304Z" fill="#F2C144"/>
<path d="M24.6466 37.1167V37.8871C24.6186 37.9213 24.5782 37.9492 24.5315 37.9648V37.0391C24.5782 37.0546 24.6186 37.0826 24.6466 37.1167Z" fill="#F2C144"/>
<path d="M23.3404 36.2832V36.8206C23.3404 36.8641 23.3249 36.9044 23.2969 36.9355C23.2689 36.9697 23.2285 36.9976 23.1818 37.0132C23.1663 37.0194 23.1508 37.0225 23.1383 37.0225C23.1321 37.0225 23.129 37.0225 23.1228 37.0256C23.1197 37.0256 23.1166 37.0256 23.1134 37.0256C23.1103 37.0256 23.1103 37.0256 23.1072 37.0256C23.1041 37.0256 23.0979 37.0256 23.0948 37.0256H12.8651C12.7749 37.0256 12.6972 36.9852 12.6537 36.9262C12.6319 36.8982 12.6195 36.8641 12.6164 36.8268C12.6164 36.8237 12.6164 36.8206 12.6164 36.8175V36.2832C12.6164 36.28 12.6164 36.2769 12.6164 36.2738C12.6226 36.1868 12.6941 36.1123 12.7905 36.0874C12.8123 36.0812 12.8371 36.0781 12.862 36.0781H23.0917C23.0948 36.0781 23.101 36.0781 23.1041 36.0781C23.1072 36.0781 23.1072 36.0781 23.1103 36.0781C23.1197 36.0781 23.1259 36.0781 23.1352 36.0812C23.1508 36.0843 23.1663 36.0874 23.1787 36.0906C23.185 36.0937 23.1943 36.0968 23.2005 36.0999C23.2285 36.1123 23.2534 36.1278 23.272 36.1434L23.2751 36.1465C23.2813 36.1527 23.2876 36.1589 23.2938 36.1682C23.3249 36.1993 23.3404 36.2397 23.3404 36.2832Z" fill="#EEAB46"/>
<path d="M18.3189 37.0287H12.8371C12.7594 37.0287 12.691 36.9914 12.6537 36.9355C12.6319 36.9044 12.6195 36.8703 12.6164 36.833C12.6164 36.8299 12.6164 36.8268 12.6164 36.8237V36.2832C12.6164 36.28 12.6164 36.2769 12.6164 36.2738C12.6226 36.1775 12.6941 36.0999 12.7936 36.0812C12.8091 36.0781 12.8216 36.0781 12.8371 36.0781H17.6441C17.6472 36.0843 17.6472 36.0937 17.6504 36.0999C17.7312 36.3763 17.9115 36.7522 18.3189 37.0287C18.3158 37.0287 18.3189 37.0287 18.3189 37.0287Z" fill="#F2C144"/>
<path d="M22.0975 36.0742H21.9825V37.0279H22.0975V36.0742Z" fill="#F2C144"/>
<path d="M21.7002 36.0742H21.5851V37.0279H21.7002V36.0742Z" fill="#F2C144"/>
<path d="M21.2292 36.0742H21.1141V37.0279H21.2292V36.0742Z" fill="#F2C144"/>
<path d="M20.5082 36.0742H20.3932V37.0279H20.5082V36.0742Z" fill="#F2C144"/>
<path d="M19.7426 36.0742H19.6275V37.0279H19.7426V36.0742Z" fill="#F2C144"/>
<path d="M18.5685 36.0742H18.4534V37.0279H18.5685V36.0742Z" fill="#F2C144"/>
<path d="M17.4703 36.0742H17.3552V37.0279H17.4703V36.0742Z" fill="#F2C144"/>
<path d="M16.4903 36.0742H16.3753V37.0279H16.4903V36.0742Z" fill="#F2C144"/>
<path d="M22.468 36.0742H22.353V37.0279H22.468V36.0742Z" fill="#F2C144"/>
<path d="M22.718 36.0742H22.603V37.0279H22.718V36.0742Z" fill="#F2C144"/>
<path d="M22.9591 36.0742H22.8441V37.0279H22.9591V36.0742Z" fill="#F2C144"/>
<path d="M23.1377 36.0773V37.0248C23.1221 37.0279 23.1097 37.0279 23.0941 37.0279H23.0226V36.0742H23.0941C23.1097 36.0742 23.1221 36.0773 23.1377 36.0773Z" fill="#F2C144"/>
<path d="M23.2984 36.1675V36.9379C23.2704 36.9721 23.23 37 23.1833 37.0156V36.0898C23.23 36.1054 23.2704 36.1333 23.2984 36.1675Z" fill="#F2C144"/>
<path d="M24.0935 35.3496V35.887C24.0935 35.9305 24.078 35.9708 24.05 36.0019C24.022 36.0361 23.9816 36.064 23.9349 36.0796C23.9194 36.0858 23.9039 36.0889 23.8883 36.0889C23.8728 36.092 23.8603 36.092 23.8448 36.092H13.6151C13.5747 36.092 13.5374 36.0827 13.5032 36.0702C13.4285 36.0392 13.3757 35.9771 13.3664 35.9025C13.3664 35.8994 13.3664 35.8963 13.3664 35.8932C13.3664 35.8901 13.3664 35.887 13.3664 35.8839V35.3496C13.3664 35.3464 13.3664 35.3433 13.3664 35.3402C13.3726 35.2377 13.4659 35.157 13.584 35.1445C13.5933 35.1445 13.6027 35.1445 13.612 35.1445H23.8417C23.8572 35.1445 23.8697 35.1445 23.8852 35.1476C23.9007 35.1507 23.9163 35.1539 23.9318 35.157C23.9785 35.1725 24.0189 35.2004 24.0469 35.2346C24.078 35.2657 24.0935 35.3061 24.0935 35.3496Z" fill="#EEAB46"/>
<path d="M19.0733 36.0951H13.5916C13.5574 36.0951 13.5232 36.0858 13.4921 36.0734C13.4268 36.0423 13.377 35.9802 13.3708 35.9056C13.3708 35.9025 13.3708 35.8994 13.3708 35.8963C13.3708 35.8932 13.3708 35.8901 13.3708 35.887V35.3496C13.3708 35.3464 13.3708 35.3433 13.3708 35.3402C13.377 35.2377 13.461 35.157 13.5667 35.1445C13.576 35.1445 13.5854 35.1445 13.5916 35.1445H18.3986C18.4732 35.4179 18.6442 35.7938 19.0391 36.0765C19.0515 36.0827 19.0609 36.0889 19.0733 36.0951Z" fill="#F2C144"/>
<path d="M22.852 35.1406H22.7369V36.0943H22.852V35.1406Z" fill="#F2C144"/>
<path d="M22.4546 35.1406H22.3396V36.0943H22.4546V35.1406Z" fill="#F2C144"/>
<path d="M21.9836 35.1406H21.8686V36.0943H21.9836V35.1406Z" fill="#F2C144"/>
<path d="M21.2582 35.1406H21.1432V36.0943H21.2582V35.1406Z" fill="#F2C144"/>
<path d="M20.4948 35.1406H20.3798V36.0943H20.4948V35.1406Z" fill="#F2C144"/>
<path d="M19.3229 35.1406H19.2079V36.0943H19.3229V35.1406Z" fill="#F2C144"/>
<path d="M18.2247 35.1406H18.1097V36.0943H18.2247V35.1406Z" fill="#F2C144"/>
<path d="M17.2448 35.1406H17.1298V36.0943H17.2448V35.1406Z" fill="#F2C144"/>
<path d="M23.2225 35.1406H23.1075V36.0943H23.2225V35.1406Z" fill="#F2C144"/>
<path d="M23.4725 35.1406H23.3575V36.0943H23.4725V35.1406Z" fill="#F2C144"/>
<path d="M23.7091 35.1406H23.5941V36.0943H23.7091V35.1406Z" fill="#F2C144"/>
<path d="M23.8921 35.1437V36.0912C23.8766 36.0943 23.8641 36.0943 23.8486 36.0943H23.7771V35.1406H23.8486C23.861 35.1406 23.8766 35.1437 23.8921 35.1437Z" fill="#F2C144"/>
<path d="M24.0529 35.2339V36.0043C24.0249 36.0385 23.9844 36.0664 23.9378 36.082V35.1562C23.9844 35.1718 24.0249 35.1997 24.0529 35.2339Z" fill="#F2C144"/>
<path d="M24.4136 34.3964V34.9338C24.4136 34.9773 24.398 35.0177 24.3701 35.0488C24.3421 35.083 24.3017 35.1109 24.255 35.1264C24.2395 35.1327 24.2239 35.1358 24.2084 35.1358C24.2022 35.1358 24.199 35.1358 24.1928 35.1389C24.1897 35.1389 24.1866 35.1389 24.1835 35.1389C24.1804 35.1389 24.1773 35.1389 24.1742 35.1389C24.1711 35.1389 24.1648 35.1389 24.1617 35.1389H13.9321C13.8015 35.1389 13.6926 35.0519 13.6833 34.9432C13.6833 34.9401 13.6833 34.937 13.6833 34.9338V34.3964C13.6833 34.3933 13.6833 34.3902 13.6833 34.3871C13.6895 34.2784 13.7984 34.1914 13.9321 34.1914H24.1617C24.1773 34.1914 24.1897 34.1914 24.2053 34.1945C24.2208 34.1976 24.2364 34.2007 24.2519 34.2038C24.2985 34.2194 24.339 34.2473 24.367 34.2815C24.398 34.3157 24.4136 34.3561 24.4136 34.3964Z" fill="#EEAB46"/>
<path d="M19.3925 35.1467H13.9108C13.7926 35.1467 13.6962 35.0597 13.69 34.951C13.69 34.9479 13.69 34.9448 13.69 34.9417V34.4042C13.69 34.4011 13.69 34.398 13.69 34.3949C13.6962 34.2862 13.7926 34.1992 13.9108 34.1992H18.7178C18.7955 34.4726 18.9727 34.8609 19.3925 35.1467C19.3894 35.1436 19.3894 35.1467 19.3925 35.1467Z" fill="#F2C144"/>
<path d="M23.1667 34.1914H23.0516V35.1451H23.1667V34.1914Z" fill="#F2C144"/>
<path d="M22.7761 34.1914H22.661V35.1451H22.7761V34.1914Z" fill="#F2C144"/>
<path d="M22.3028 34.1914H22.1878V35.1451H22.3028V34.1914Z" fill="#F2C144"/>
<path d="M21.5796 34.1914H21.4646V35.1451H21.5796V34.1914Z" fill="#F2C144"/>
<path d="M20.8118 34.1914H20.6967V35.1451H20.8118V34.1914Z" fill="#F2C144"/>
<path d="M19.6421 34.1914H19.5271V35.1451H19.6421V34.1914Z" fill="#F2C144"/>
<path d="M18.5439 34.1914H18.4289V35.1451H18.5439V34.1914Z" fill="#F2C144"/>
<path d="M17.564 34.1914H17.4489V35.1451H17.564V34.1914Z" fill="#F2C144"/>
<path d="M23.5439 34.1914H23.4289V35.1451H23.5439V34.1914Z" fill="#F2C144"/>
<path d="M23.7917 34.1914H23.6766V35.1451H23.7917V34.1914Z" fill="#F2C144"/>
<path d="M24.0283 34.1914H23.9132V35.1451H24.0283V34.1914Z" fill="#F2C144"/>
<path d="M24.2113 34.1945V35.142C24.1958 35.1451 24.1833 35.1451 24.1678 35.1451H24.0963V34.1914H24.1678C24.1802 34.1914 24.1958 34.1914 24.2113 34.1945Z" fill="#F2C144"/>
<path d="M24.3743 34.2808V35.0512C24.3463 35.0854 24.3059 35.1133 24.2592 35.1289V34.2031C24.3027 34.2187 24.3463 34.2466 24.3743 34.2808Z" fill="#F2C144"/>
<path d="M21.1737 28.7411C21.1737 28.7411 20.6358 29.496 20.1446 29.5084C19.6533 29.5177 18.9039 29.1574 18.9039 29.1574C18.9039 29.1574 18.4531 28.1509 18.7578 27.7564C18.7578 27.7564 19.0656 27.6228 19.3859 27.8589C19.4418 27.8993 19.4978 27.9521 19.5538 28.0173C19.6315 28.1105 19.7186 28.1633 19.8119 28.1913C20.1632 28.2969 20.5799 28.0484 20.7353 28.2907C20.8255 28.4305 20.925 28.5361 21.0058 28.6107C21.1053 28.6976 21.1737 28.7411 21.1737 28.7411Z" fill="#BDA24D"/>
<path d="M14.1699 34.1923C14.1699 34.1923 16.0697 29.5948 19.4869 29.5078C19.4869 29.5078 22.6428 29.8588 22.8169 34.1923H14.1699Z" fill="#BDA24D"/>
<path d="M18.5521 29.6461C18.5521 29.6461 19.9233 29.9505 20.3461 29.7704C20.3461 29.7704 20.4114 29.1988 19.8331 29.2795C19.4382 29.3355 19.1801 29.146 19.0309 29.0683C18.8133 28.9565 18.493 29.4069 18.5521 29.6461Z" fill="#45391D"/>
<path d="M19.7418 28.7851C19.6547 28.8503 19.3842 27.8594 19.3842 27.8594C19.4402 27.8998 19.4962 27.9526 19.5521 28.0178C19.6299 28.111 19.7169 28.1638 19.8102 28.1918C19.8102 28.2228 19.8257 28.7199 19.7418 28.7851Z" fill="#847D3D"/>
<path d="M21.0063 28.6129C20.9876 28.6254 20.3533 29.0043 20.2663 29.0043C20.1792 29.0043 20.7327 28.293 20.7327 28.293C20.826 28.4328 20.9255 28.5384 21.0063 28.6129Z" fill="#847D3D"/>
<path d="M16.0232 32.9077C15.989 32.8766 17.3665 30.8792 17.7458 30.8637C18.1251 30.8481 18.9802 31.3017 19.5959 31.3607C20.2146 31.4197 20.8116 31.2427 20.9298 31.6092C21.0479 31.9727 21.3682 33.268 21.1723 33.4762C20.9764 33.6812 16.7819 33.557 16.0232 32.9077Z" fill="#F2D84E"/>
<path d="M29.3791 15.8515C29.292 15.9199 29.1987 15.982 29.1024 16.041C29.065 16.0628 29.0277 16.0845 28.9873 16.1062C28.8909 16.1591 28.7883 16.2088 28.6888 16.2491C28.6608 16.2429 28.6297 16.2398 28.6017 16.2336C28.4183 16.2025 28.238 16.1746 28.0576 16.1497C27.9706 16.1373 27.8804 16.1249 27.7933 16.1125C27.4295 16.0628 27.0751 16.0255 26.7424 15.9944C26.6522 15.9851 26.5651 15.9789 26.4781 15.9727C26.4097 15.9665 26.3413 15.9633 26.2729 15.9571C26.1081 15.9447 25.9495 15.9354 25.794 15.9261C25.5795 15.7739 25.3805 15.5906 25.2095 15.3793C25.0944 15.2395 24.9918 15.0873 24.9017 14.9227C24.0994 13.4689 24.628 11.6423 26.0832 10.8408C26.1205 10.8191 26.1609 10.8004 26.1982 10.7818C27.6316 10.0704 29.3884 10.6078 30.1688 12.0244C30.8995 13.3415 30.5326 14.9631 29.3791 15.8515Z" fill="#EEAB46"/>
<path d="M29.9168 12.2088C29.1985 10.9072 27.5568 10.435 26.2571 11.1495C25.3678 11.6403 24.8641 12.563 24.8641 13.5104C24.8641 13.9484 24.973 14.3957 25.1999 14.8058C25.3212 15.0295 25.4736 15.2252 25.6415 15.3991C25.8871 15.6476 26.1732 15.8402 26.4841 15.9738C26.5712 15.98 26.6613 15.9894 26.7484 15.9956C26.3784 15.8744 26.0363 15.6756 25.7503 15.4022C25.5606 15.2221 25.3958 15.0108 25.2621 14.7685C24.5625 13.5042 25.0258 11.9075 26.2913 11.2085C27.5568 10.5096 29.155 10.9725 29.8546 12.2368C30.5386 13.4793 30.1065 15.0388 28.8938 15.7564C28.8689 15.7688 28.8472 15.7843 28.8223 15.7968C28.4958 15.9769 28.1476 16.0794 27.7993 16.1105C27.8864 16.1229 27.9735 16.1354 28.0636 16.1478C28.3372 16.095 28.6046 16.0018 28.8596 15.862C28.9094 15.834 28.956 15.8061 29.0026 15.7781C30.1904 15.0264 30.6071 13.4607 29.9168 12.2088Z" fill="#F2C144"/>
<path d="M28.8822 13.771C28.8293 13.6436 28.764 13.5411 28.6801 13.4666C28.5961 13.392 28.5028 13.3361 28.394 13.2988C28.2852 13.2615 28.1639 13.2398 28.0302 13.2305C27.8965 13.2212 27.7504 13.2212 27.5918 13.2243C27.4954 13.2274 27.4115 13.2243 27.3431 13.218C27.2747 13.2118 27.2156 13.1994 27.1658 13.1808C27.1161 13.1621 27.0788 13.1342 27.0477 13.1C27.0166 13.0658 26.9917 13.0254 26.973 12.9757C26.9544 12.926 26.942 12.8794 26.9388 12.8297C26.9357 12.7831 26.942 12.7365 26.9606 12.6931C26.9762 12.6496 27.0041 12.6092 27.0446 12.575C27.0819 12.5377 27.1347 12.5067 27.1969 12.4818C27.3151 12.4352 27.4239 12.4352 27.5265 12.4849C27.6291 12.5346 27.71 12.6371 27.7753 12.7956L28.3878 12.5471C28.3349 12.4166 28.2665 12.3048 28.1857 12.2147C28.1048 12.1246 28.0147 12.0531 27.9152 12.0065C27.8157 11.9568 27.7037 11.9289 27.5856 11.9196C27.4674 11.9102 27.3431 11.9227 27.2156 11.9568L27.0415 11.5312L26.7025 11.6679L26.8735 12.0873C26.7523 12.1494 26.6466 12.224 26.5626 12.3079C26.4787 12.3917 26.4134 12.4818 26.3667 12.5812C26.3201 12.6806 26.2952 12.7831 26.2952 12.8888C26.2921 12.9975 26.3139 13.1062 26.3605 13.218C26.4134 13.3454 26.4818 13.4479 26.5626 13.5225C26.6466 13.597 26.7398 13.6529 26.8487 13.6902C26.9575 13.7275 27.0788 13.7492 27.2125 13.7555C27.3462 13.7617 27.4923 13.7617 27.6509 13.7555C27.7411 13.7492 27.8219 13.7524 27.8903 13.7586C27.9587 13.7648 28.0147 13.7772 28.0644 13.7989C28.1142 13.8176 28.1546 13.8455 28.1857 13.8828C28.2168 13.9201 28.2448 13.9636 28.2696 14.0195C28.2883 14.0692 28.2976 14.1158 28.2976 14.1655C28.2976 14.2152 28.2852 14.2587 28.2634 14.3022C28.2417 14.3457 28.2106 14.3861 28.167 14.4233C28.1235 14.4606 28.0675 14.4917 28.0022 14.5196C27.9432 14.5445 27.8841 14.56 27.8219 14.5662C27.7597 14.5724 27.7006 14.5693 27.6416 14.5476C27.5825 14.529 27.5265 14.4917 27.4768 14.442C27.4239 14.3892 27.3804 14.3177 27.3431 14.2245L26.7305 14.473C26.7958 14.6315 26.8735 14.7557 26.973 14.8489C27.0694 14.9421 27.1752 15.0074 27.2902 15.0477C27.4052 15.0881 27.5265 15.1037 27.6509 15.1005C27.7753 15.0943 27.8996 15.0757 28.0209 15.0384L28.1795 15.4267L28.5153 15.29L28.3567 14.8986C28.478 14.8365 28.5837 14.7619 28.6707 14.6781C28.7578 14.5942 28.8262 14.5041 28.8697 14.4078C28.9164 14.3115 28.9413 14.209 28.9444 14.1003C28.9506 13.9978 28.9288 13.8859 28.8822 13.771Z" fill="#F2C144"/>
<path d="M17.0799 40.8089C16.5358 42.387 15.1739 43.5674 13.6907 43.9868V43.5674C13.6907 43.5643 13.6907 43.5612 13.6907 43.5581C13.6907 43.5519 13.6907 43.5457 13.6938 43.5364C13.6938 43.5271 13.697 43.5208 13.7001 43.5146C13.7249 43.4277 13.812 43.3624 13.9115 43.3624H12.817C12.7144 43.3624 12.6305 43.2972 12.6056 43.2071C12.6025 43.2009 12.6025 43.1916 12.5994 43.1854C12.5994 43.1791 12.5963 43.1729 12.5963 43.1667C12.5963 43.1636 12.5963 43.1605 12.5963 43.1574V42.62C12.5963 42.6169 12.5963 42.6138 12.5963 42.6107C12.5963 42.6044 12.5963 42.5982 12.5994 42.592C12.5994 42.5858 12.6025 42.5765 12.6056 42.5703C12.6305 42.4833 12.7175 42.415 12.817 42.415H13.243C13.1808 42.3839 13.1373 42.3311 13.1279 42.2627C13.1279 42.2596 13.1279 42.2534 13.1248 42.2503C13.1248 42.2472 13.1248 42.2441 13.1248 42.241C13.1248 42.2379 13.1248 42.2348 13.1248 42.2317V41.6943C13.1248 41.6912 13.1248 41.6881 13.1248 41.6849C13.1248 41.6787 13.1248 41.6725 13.1279 41.6663C13.1279 41.6601 13.1311 41.6508 13.1342 41.6446C13.159 41.5545 13.2461 41.4892 13.3456 41.4892H13.5912C13.4886 41.4892 13.4047 41.424 13.3798 41.3339C13.3767 41.3277 13.3767 41.3184 13.3736 41.3122C13.3736 41.306 13.3705 41.2997 13.3705 41.2935V40.7344C13.3767 40.635 13.4606 40.5511 13.5664 40.5387H12.8419C12.7237 40.5387 12.6273 40.4517 12.6211 40.343C12.6211 40.3399 12.6211 40.3368 12.6211 40.3336V39.7962C12.6211 39.7931 12.6211 39.79 12.6211 39.7869C12.6211 39.7838 12.6211 39.7807 12.6211 39.7776C12.6305 39.6875 12.702 39.6129 12.7921 39.5943C12.6926 39.5819 12.6149 39.5104 12.5994 39.4172C12.5994 39.411 12.5963 39.4048 12.5963 39.3986C12.5963 39.3955 12.5963 39.3924 12.5963 39.3862V38.8301C12.5963 38.827 12.5963 38.8239 12.5963 38.8208C12.5963 38.8146 12.5963 38.8084 12.5994 38.8022C12.5994 38.796 12.6025 38.7866 12.6056 38.7804C12.6305 38.6934 12.7175 38.6251 12.817 38.6251H13.243C13.1808 38.594 13.1373 38.5412 13.1279 38.4729C13.1279 38.4698 13.1279 38.4636 13.1248 38.4605C13.1248 38.4574 13.1248 38.4543 13.1248 38.4511C13.1248 38.448 13.1248 38.4449 13.1248 38.4418V37.9044C13.1248 37.9013 13.1248 37.8982 13.1248 37.8951C13.1248 37.8889 13.1248 37.8827 13.1279 37.8765C13.1279 37.8702 13.1311 37.8609 13.1342 37.8547C13.159 37.7677 13.2461 37.6994 13.3456 37.6994H14.182C14.0794 37.6994 13.9954 37.6342 13.9706 37.5441C13.9675 37.5379 13.9675 37.5285 13.9644 37.5223C13.9644 37.5161 13.9612 37.5099 13.9612 37.5006C13.9612 37.4975 13.9612 37.4944 13.9612 37.4913V36.9538C13.9612 36.9507 13.9612 36.9476 13.9612 36.9445C13.9675 36.8451 14.0514 36.7612 14.154 36.7488H12.8388C12.761 36.7488 12.6926 36.7115 12.6553 36.6556V36.6494L12.7952 35.8045V35.7982L12.9942 34.5898C15.2983 34.8974 17.0239 36.6432 17.2944 38.7525C17.3815 39.4328 17.31 40.1379 17.0799 40.8089Z" fill="#F2C144"/>
<path d="M16.1488 39.7268C16.5073 36.9742 14.5643 34.4525 11.8092 34.0944C9.05407 33.7363 6.53002 35.6775 6.1716 38.4301C5.81317 41.1826 7.7561 43.7044 10.5112 44.0624C13.2664 44.4205 15.7904 42.4794 16.1488 39.7268Z" fill="#F2C144"/>
<path d="M13.3952 43.8728C13.333 43.9101 13.2708 43.9474 13.2055 43.9816C13.1837 43.994 13.162 44.0064 13.1402 44.0157C13.0904 44.0437 13.0407 44.0685 12.9909 44.0934C10.5937 45.2676 7.67089 44.3668 6.36808 42.0059C5.12436 39.7537 5.79286 36.9641 7.83257 35.501C7.99426 35.3829 8.16527 35.2742 8.34561 35.1779C8.41091 35.1438 8.4762 35.1096 8.5415 35.0754C8.60369 35.0443 8.66898 35.0133 8.73428 34.9853C8.93017 34.8983 9.13227 34.8238 9.33438 34.7617C9.63598 34.6716 9.94069 34.6094 10.2454 34.5784C11.1938 34.479 12.1483 34.6498 12.9909 35.063C13.8895 35.501 14.6638 36.2093 15.183 37.1505C16.4889 39.5207 15.6836 42.4812 13.3952 43.8728Z" fill="#EEAB46"/>
<path d="M10.8127 43.8473C10.3929 43.8473 9.97002 43.7882 9.55338 43.6671C8.39671 43.3316 7.43904 42.5674 6.85759 41.5143C6.27615 40.4612 6.13934 39.2435 6.47515 38.0879C6.81095 36.9323 7.57585 35.9755 8.62991 35.3946C10.8064 34.1956 13.5551 34.9908 14.7553 37.1653C15.9555 39.3398 15.1595 42.0859 12.983 43.285C12.3082 43.6578 11.5651 43.8473 10.8127 43.8473ZM10.8002 34.9597C10.0851 34.9597 9.3606 35.1337 8.68898 35.5034C7.66291 36.0687 6.91978 37.0007 6.5933 38.1252C6.26682 39.2497 6.40052 40.4333 6.96642 41.4584C7.53232 42.4835 8.46511 43.226 9.59069 43.5521C10.7163 43.8783 11.9009 43.7447 12.927 43.1794C15.0444 42.0114 15.8187 39.3429 14.6496 37.2243C13.8505 35.7798 12.3487 34.9597 10.8002 34.9597Z" fill="#F2C144"/>
<path d="M13.0206 39.7815C13.0113 39.7567 12.9988 39.7318 12.9895 39.7101C12.9087 39.5299 12.8061 39.387 12.6848 39.2752C12.548 39.1509 12.3863 39.0546 12.2028 38.9925C12.0194 38.9304 11.8173 38.89 11.5934 38.8775C11.3696 38.8651 11.1239 38.862 10.8596 38.8682C10.6948 38.8744 10.558 38.8713 10.4399 38.8589C10.3248 38.8496 10.2253 38.8278 10.1445 38.7937C10.0636 38.7626 9.99834 38.716 9.94859 38.6601C9.89884 38.6042 9.85531 38.5358 9.82422 38.4551C9.79001 38.3743 9.77136 38.2935 9.76825 38.2128C9.76203 38.132 9.77447 38.0574 9.80245 37.986C9.83044 37.9146 9.87708 37.8493 9.94237 37.7872C10.0077 37.7251 10.0916 37.6754 10.2004 37.6319C10.3963 37.5511 10.5798 37.5542 10.7508 37.6381C10.9218 37.722 11.0586 37.8959 11.1674 38.1569L12.1935 37.7406C12.1034 37.52 11.9914 37.3368 11.8577 37.1845C11.724 37.0323 11.5717 36.9174 11.4038 36.8335C11.2359 36.7496 11.0524 36.703 10.8534 36.6875C10.6544 36.672 10.4492 36.6937 10.2346 36.7496L9.94548 36.0352L9.37958 36.265L9.66564 36.9702C9.46043 37.0758 9.2863 37.2001 9.14328 37.3399C9.00025 37.4796 8.89142 37.6319 8.81369 37.7965C8.73595 37.9611 8.69553 38.132 8.69242 38.3122C8.68931 38.4923 8.72352 38.6756 8.80125 38.862C8.88831 39.0764 9.00025 39.2472 9.14017 39.3715C9.27698 39.4957 9.43866 39.592 9.619 39.651C9.80245 39.7132 10.0046 39.7505 10.2284 39.7629C10.4523 39.7753 10.6979 39.7753 10.9622 39.7629C11.1146 39.7536 11.2483 39.7536 11.3633 39.766C11.4753 39.7753 11.5748 39.797 11.6556 39.8312C11.7365 39.8654 11.8049 39.912 11.8608 39.971C11.9168 40.03 11.9603 40.1077 11.9976 40.1978C12.0318 40.2785 12.0474 40.3593 12.0474 40.4401C12.0474 40.5209 12.0287 40.5985 11.9914 40.67C11.9541 40.7445 11.9012 40.8129 11.8297 40.875C11.7582 40.9371 11.6649 40.9899 11.553 41.0365C11.4566 41.0769 11.3571 41.1018 11.2514 41.1142C11.1488 41.1266 11.0462 41.1173 10.9467 41.0831C10.8472 41.0489 10.757 40.9899 10.67 40.9029C10.5829 40.816 10.5083 40.6948 10.4461 40.5395L9.42001 40.9558C9.52572 41.2198 9.66253 41.4279 9.82422 41.5832C9.9859 41.7386 10.1631 41.8473 10.3559 41.9156C10.5487 41.9809 10.7508 42.0119 10.9591 42.0026C11.1706 41.9933 11.3758 41.9591 11.581 41.9001L11.8453 42.5525L12.4081 42.3226L12.1407 41.6671C12.3459 41.5615 12.52 41.4372 12.6661 41.3006C12.8029 41.1732 12.9087 41.0334 12.9833 40.8874C12.9895 40.875 12.9957 40.8626 13.0019 40.8501C13.0797 40.6886 13.1201 40.5177 13.1263 40.3376C13.1356 40.1605 13.1014 39.9741 13.0206 39.7815Z" fill="#F2C144"/>
<path d="M32.6826 16.8704C32.6422 17.0008 32.5022 17.0847 32.3592 17.0412C31.0533 16.6343 29.6697 16.364 28.3047 16.2087C26.806 16.0378 25.2793 16.0037 24.5579 16.0534C24.4149 16.0627 24.2936 15.954 24.2843 15.8111C24.275 15.6682 24.3838 15.547 24.5268 15.5377C25.6462 15.4725 27.2195 15.5594 28.4073 15.6992C29.7692 15.8608 31.1808 16.1341 32.5116 16.5473C32.6484 16.5908 32.723 16.7337 32.6826 16.8704Z" fill="#D79EAD"/>
<path d="M46.7134 40.326C46.6917 40.2763 46.6637 40.2329 46.6295 40.1925C46.6046 40.1614 46.5766 40.1334 46.5487 40.1086L46.4243 39.9843L46.3932 40.0092C45.7589 39.6985 44.4499 40.0278 43.1284 40.8914C41.5271 41.9352 40.501 43.3703 40.7964 44.1345L40.7498 44.1687L40.927 44.3458C40.9363 44.3551 40.9457 44.3644 40.9519 44.3706L40.9581 44.3768C41.0016 44.4172 41.0545 44.4545 41.1104 44.4825C41.7354 44.8086 43.06 44.4825 44.397 43.6095C46.0294 42.5471 47.0648 41.0778 46.7134 40.326Z" fill="#F2C144"/>
<path d="M42.9312 40.6985C44.5605 39.6361 46.168 39.3845 46.5193 40.1363C46.8707 40.888 45.8353 42.3605 44.206 43.4229C42.5767 44.4853 40.9692 44.7369 40.6178 43.9851C40.2665 43.2334 41.3019 41.7609 42.9312 40.6985Z" fill="#EEAB46"/>
<path d="M41.7611 44.0973C41.6274 44.0973 41.5092 44.0818 41.4035 44.0507C41.2014 43.9917 41.0584 43.8798 40.9837 43.7152C40.8376 43.3952 40.9744 42.92 41.3662 42.3763C41.7517 41.8451 42.3394 41.3077 43.0203 40.8604C44.0682 40.1739 45.1347 39.8446 45.7348 40.0185C45.9369 40.0776 46.0799 40.1894 46.1545 40.354C46.3007 40.674 46.1639 41.1493 45.7721 41.6929C45.3865 42.2241 44.7989 42.7615 44.1179 43.2089C43.2535 43.7711 42.3798 44.0973 41.7611 44.0973ZM45.3803 40.0962C44.7895 40.0962 43.922 40.4193 43.0856 40.966C42.414 41.404 41.8388 41.9321 41.4626 42.4509C41.0988 42.951 40.9651 43.3952 41.0926 43.6686C41.1516 43.7991 41.2667 43.8892 41.4346 43.9389C41.5279 43.9668 41.6367 43.9793 41.7548 43.9793C42.3456 43.9793 43.2131 43.6562 44.0495 43.1094C44.7211 42.6714 45.2964 42.1433 45.6726 41.6246C46.0364 41.1244 46.1701 40.6802 46.0426 40.4068C45.9835 40.2764 45.8685 40.1863 45.7006 40.1366C45.6104 40.1086 45.5016 40.0962 45.3803 40.0962Z" fill="#F2C144"/>
<path d="M42.9159 42.4482C42.9657 42.4264 43.0123 42.4016 43.0496 42.3767C43.0901 42.3519 43.1243 42.3208 43.1585 42.2835C43.1927 42.2493 43.2238 42.209 43.2517 42.1624C43.2828 42.1158 43.3108 42.063 43.3419 42.0039C43.3948 41.9014 43.4476 41.802 43.5036 41.7119C43.5596 41.6218 43.6218 41.538 43.6902 41.4603C43.7586 41.3827 43.8363 41.3112 43.9234 41.2491C44.0104 41.1838 44.113 41.1279 44.2312 41.0751C44.3338 41.0316 44.424 41.0006 44.5048 40.9881C44.5856 40.9757 44.6572 40.9788 44.7131 40.9943C44.7722 41.013 44.8157 41.0441 44.8499 41.0875C44.8841 41.1341 44.8997 41.1932 44.9028 41.2646L45.2884 41.0969L45.2697 41.305L44.881 41.4758C44.8593 41.5566 44.8251 41.6374 44.7722 41.715C44.7225 41.7958 44.6603 41.8704 44.5856 41.9449C44.511 42.0195 44.424 42.0878 44.3245 42.153C44.225 42.2183 44.1161 42.2773 43.998 42.3301L44.0353 41.9573C44.1783 41.8952 44.2871 41.8269 44.3649 41.7523C44.4395 41.6778 44.4799 41.6063 44.4893 41.5349C44.4924 41.4976 44.4893 41.4665 44.4737 41.4448C44.4613 41.423 44.4395 41.4106 44.4146 41.4044C44.3866 41.3982 44.3556 41.4013 44.3182 41.4075C44.2809 41.4168 44.2405 41.4292 44.197 41.4479C44.1534 41.4665 44.113 41.4883 44.0757 41.5131C44.0384 41.538 44.0042 41.5659 43.9731 41.6001C43.942 41.6343 43.9078 41.6747 43.8798 41.7213C43.8487 41.7679 43.8176 41.8238 43.7834 41.889C43.7275 41.9946 43.6746 42.0909 43.6186 42.181C43.5627 42.2711 43.5005 42.355 43.4321 42.4326C43.3637 42.5103 43.2859 42.5817 43.1958 42.6439C43.1087 42.7091 43.0061 42.765 42.8911 42.8178C42.7853 42.8644 42.6921 42.8924 42.6112 42.9048C42.5304 42.9172 42.462 42.9141 42.4029 42.8955C42.3469 42.8769 42.3034 42.8458 42.2723 42.7992C42.2412 42.7526 42.2257 42.6936 42.2194 42.619L41.8619 42.7774L41.8805 42.5724L42.235 42.4171C42.2537 42.3394 42.2816 42.2618 42.3252 42.1779C42.3687 42.094 42.4247 42.0133 42.4993 41.9325C42.5708 41.8517 42.661 41.771 42.7667 41.6964C42.8724 41.6187 42.9968 41.5504 43.1398 41.4883L43.1025 41.861C43.0185 41.8983 42.947 41.9387 42.888 41.9791C42.8289 42.0195 42.7822 42.0599 42.7449 42.1033C42.7076 42.1437 42.6827 42.1872 42.6641 42.2245C42.6485 42.2649 42.6361 42.3022 42.633 42.3363C42.6299 42.3767 42.633 42.4078 42.6454 42.4326C42.6579 42.4575 42.6765 42.473 42.7014 42.4823C42.7263 42.4917 42.7574 42.4916 42.7947 42.4854C42.8289 42.4792 42.8693 42.4668 42.9159 42.4482Z" fill="#F2C144"/>
<path d="M26.3209 2.87947C26.3364 2.84841 26.352 2.82045 26.3737 2.7956C26.3893 2.77696 26.4079 2.75832 26.4266 2.74279L26.5043 2.66202L26.5261 2.67756C26.9272 2.48185 27.7574 2.68998 28.5969 3.23672C29.6105 3.89839 30.2635 4.81168 30.0769 5.29628L30.1049 5.31803L29.993 5.42986C29.9868 5.43607 29.9805 5.44229 29.9774 5.44539L29.9743 5.4485C29.9463 5.47335 29.9121 5.4982 29.8779 5.51684C29.4799 5.72497 28.6404 5.51684 27.7916 4.96389C26.7531 4.2898 26.097 3.35787 26.3209 2.87947Z" fill="#F2C144"/>
<path d="M28.7174 3.11689C27.682 2.4428 26.6653 2.28126 26.4414 2.75965C26.2176 3.23804 26.8736 4.16997 27.909 4.84407C28.9444 5.51817 29.9612 5.6797 30.185 5.20131C30.4089 4.72603 29.7497 3.79099 28.7174 3.11689Z" fill="#EEAB46"/>
<path d="M27.9642 4.7117C27.532 4.42901 27.1589 4.08731 26.9133 3.75181C26.6645 3.407 26.5775 3.10567 26.6707 2.90375C26.7174 2.80124 26.8075 2.72979 26.9381 2.69252C27.3206 2.58379 27.9953 2.79192 28.6607 3.22682C29.0929 3.50951 29.466 3.85122 29.7117 4.18671C29.9604 4.53153 30.0475 4.83285 29.9542 5.03477C29.9075 5.13728 29.8174 5.20873 29.6868 5.24601C29.6184 5.26465 29.5438 5.27396 29.4598 5.27396C29.068 5.27707 28.5115 5.06894 27.9642 4.7117ZM26.9568 2.76086C26.8511 2.79192 26.7764 2.84784 26.7391 2.93171C26.6583 3.10567 26.7454 3.38836 26.9754 3.70521C27.2149 4.0345 27.5818 4.36999 28.0046 4.64646C28.5332 4.99439 29.0867 5.1963 29.4598 5.1963C29.5344 5.1963 29.6028 5.18698 29.665 5.17145C29.7707 5.14039 29.8454 5.08447 29.8827 5.0006C29.9635 4.82664 29.8765 4.54395 29.6464 4.2271C29.4069 3.89781 29.04 3.56232 28.6172 3.28585C28.0886 2.93792 27.5351 2.73601 27.162 2.73601C27.0843 2.73601 27.0159 2.74533 26.9568 2.76086Z" fill="#F2C144"/>
<path d="M28.8052 4.24947C28.8301 4.25258 28.8488 4.25258 28.8643 4.24637C28.8799 4.24015 28.8923 4.23084 28.9016 4.2153C28.911 4.19977 28.911 4.18113 28.911 4.15317C28.9078 4.13143 28.9016 4.10658 28.8923 4.08173C28.883 4.05688 28.8643 4.02892 28.8426 4.00407C28.8208 3.97611 28.7897 3.95126 28.7524 3.9264C28.7151 3.90155 28.6684 3.8767 28.6156 3.85185L28.5938 3.61576C28.684 3.65614 28.7648 3.69963 28.8301 3.74934C28.8985 3.79904 28.9545 3.84874 29.0011 3.89845C29.0478 3.95126 29.0851 4.00096 29.11 4.05377C29.1379 4.10658 29.1566 4.15628 29.1659 4.20598L29.3929 4.30539L29.4053 4.43586L29.1784 4.33645C29.1752 4.38305 29.1659 4.42033 29.1473 4.45139C29.1286 4.48246 29.1006 4.5011 29.0633 4.51352C29.026 4.52595 28.9825 4.52595 28.9327 4.51973C28.8799 4.51352 28.8208 4.49488 28.7555 4.46382C28.6809 4.43275 28.6156 4.39548 28.5627 4.35509C28.5067 4.31471 28.457 4.26811 28.4135 4.22152C28.3699 4.17181 28.3295 4.119 28.2953 4.06309C28.2611 4.00717 28.2238 3.94504 28.1896 3.87981C28.1678 3.83942 28.1492 3.80525 28.1274 3.77419C28.1088 3.74313 28.087 3.71827 28.0683 3.69653C28.0466 3.67478 28.0248 3.65614 28.003 3.64061C27.9782 3.62508 27.9533 3.61265 27.9253 3.60023C27.8973 3.5878 27.8724 3.57848 27.8476 3.57538C27.8227 3.56916 27.804 3.56916 27.7854 3.57227C27.7698 3.57538 27.7574 3.5847 27.7481 3.59712C27.7387 3.60955 27.7356 3.62819 27.7387 3.65304C27.7419 3.69963 27.7698 3.74312 27.8165 3.79283C27.8631 3.83942 27.9346 3.88291 28.0248 3.9233L28.0466 4.15939C27.9719 4.12522 27.9004 4.08794 27.8382 4.04756C27.7761 4.00717 27.7201 3.96368 27.6734 3.91709C27.6268 3.87049 27.5864 3.82079 27.5553 3.77108C27.5242 3.72138 27.4993 3.66857 27.4869 3.61887L27.2381 3.51014L27.2257 3.37967L27.4682 3.48529C27.4713 3.43869 27.4807 3.40142 27.5024 3.37346C27.5242 3.3455 27.5522 3.32376 27.5895 3.31444C27.6268 3.30201 27.6703 3.30201 27.7232 3.31133C27.7761 3.32065 27.832 3.33618 27.8973 3.36725C27.9719 3.40142 28.0372 3.43559 28.0932 3.47908C28.1492 3.51946 28.1989 3.56606 28.2425 3.61265C28.286 3.66236 28.3264 3.71517 28.3606 3.77108C28.3948 3.827 28.429 3.88913 28.4632 3.95436C28.4819 3.99164 28.5005 4.02581 28.5192 4.05377C28.5378 4.08173 28.5565 4.10968 28.5783 4.13143C28.6 4.15317 28.6218 4.17181 28.6467 4.19045C28.6715 4.20598 28.6995 4.22152 28.7306 4.23705C28.7586 4.24015 28.7835 4.24637 28.8052 4.24947Z" fill="#F2C144"/>
<defs>
<linearGradient id="paint0_linear_2998_110529" x1="11.9348" y1="23.8398" x2="11.9348" y2="28.4933" gradientUnits="userSpaceOnUse">
<stop stop-color="#F5B4C0"/>
<stop offset="1" stop-color="#E8A6B6"/>
</linearGradient>
<linearGradient id="paint1_linear_2998_110529" x1="27.4617" y1="13.1719" x2="27.4617" y2="35.5284" gradientUnits="userSpaceOnUse">
<stop stop-color="#FFDCE5"/>
<stop offset="1" stop-color="#FEABC0" stop-opacity="0.56"/>
</linearGradient>
<linearGradient id="paint2_linear_2998_110529" x1="21.9266" y1="7.73047" x2="21.9266" y2="16.6351" gradientUnits="userSpaceOnUse">
<stop stop-color="#F5B4C0"/>
<stop offset="1" stop-color="#E8A6B6"/>
</linearGradient>
</defs>
</svg>
