<svg width="49" height="49" viewBox="0 0 49 49" fill="none" xmlns="http://www.w3.org/2000/svg">
<path d="M9.10715 28.4648H13.6071V35.9648H9.10715V28.4648Z" fill="#E44B4D"/>
<path d="M13.6071 23.9648H18.1071V35.9648H13.6071V23.9648Z" fill="#EEBE33"/>
<path d="M18.1071 26.2148H22.6071V35.9648H18.1071V26.2148Z" fill="#E88604"/>
<path d="M22.6071 28.4648H27.1071V35.9648H22.6071V28.4648Z" fill="#E44B4D"/>
<path d="M27.1071 24.7148H31.6071V35.9648H27.1071V24.7148Z" fill="#EEBE33"/>
<path d="M31.6071 20.2148H36.1071V38.2148H31.6071V20.2148Z" fill="#A2C32A"/>
<path d="M36.1071 15.7148H40.6071V38.2148H36.1071V15.7148Z" fill="#4BA477"/>
<path d="M9.85715 30.7149C11.1514 30.7132 12.4307 30.9917 13.6071 31.5314V35.9648H9.10715V30.7467C9.35465 30.7252 9.60402 30.7149 9.85715 30.7149Z" fill="#D14547"/>
<path d="M22.6071 30.0938V35.9653H18.1071V31.0003C19.2499 30.706 20.4392 30.6388 21.6078 30.8025C21.8692 30.4786 22.215 30.2333 22.6071 30.0938Z" fill="#DF6537"/>
<path d="M27.1071 29.9648H31.6071V35.9648H27.1071V29.9648Z" fill="#E88604"/>
<path d="M40.6071 35.9644V38.2144H36.1071V30.0938C36.5455 30.2491 36.9251 30.5363 37.1937 30.916C37.4623 31.2957 37.6067 31.7493 37.6071 32.2144V33.7144C37.6075 33.9699 37.5641 34.2236 37.4787 34.4644C37.5641 34.7052 37.6075 34.9589 37.6071 35.2144V35.9644H40.6071Z" fill="#349966"/>
<path d="M15.4671 32.1616C16.2786 31.6343 17.1702 31.242 18.1071 31V35.965H13.6071V31.5316C14.1342 31.7748 14.6365 32.0684 15.1071 32.4081C15.2253 32.3228 15.3453 32.2412 15.4671 32.1616Z" fill="#E88604"/>
<path d="M23.3571 29.9648H27.1071V35.9648H22.6071V30.0933C22.848 30.0079 23.1016 29.9645 23.3571 29.9648Z" fill="#D14547"/>
<path d="M36.1071 30.0942V38.2148H31.6071V29.9648H35.3571C35.6127 29.9643 35.8665 30.0081 36.1071 30.0942Z" fill="#68B840"/>
<path d="M36.1071 2.96484V5.96484H37.6071L26.3571 17.2148L18.1071 8.21484L6.10715 20.2148L8.35715 22.4648L18.1071 12.7148L26.3571 21.7148L39.8571 8.21484V9.71484H42.8571V2.96484H36.1071Z" fill="#4BA477"/>
<path d="M45.8571 37.4648H33.8571C33.4429 37.4648 33.1071 37.8006 33.1071 38.2148V39.7148C33.1071 40.1291 33.4429 40.4648 33.8571 40.4648H45.8571C46.2714 40.4648 46.6071 40.1291 46.6071 39.7148V38.2148C46.6071 37.8006 46.2714 37.4648 45.8571 37.4648Z" fill="#EEBE33"/>
<path d="M46.6071 38.9648V39.7148C46.6072 39.8133 46.5878 39.9109 46.5501 40.0019C46.5124 40.0929 46.4572 40.1756 46.3875 40.2452C46.3179 40.3149 46.2352 40.3701 46.1442 40.4078C46.0532 40.4455 45.9556 40.4649 45.8571 40.4648H33.8571C33.7586 40.4649 33.6611 40.4455 33.5701 40.4078C33.4791 40.3701 33.3964 40.3149 33.3268 40.2452C33.2571 40.1756 33.2019 40.0929 33.1642 40.0019C33.1265 39.9109 33.1071 39.8133 33.1071 39.7148V38.9648C33.1071 39.0633 33.1265 39.1609 33.1642 39.2519C33.2019 39.3429 33.2571 39.4256 33.3268 39.4952C33.3964 39.5649 33.4791 39.6201 33.5701 39.6578C33.6611 39.6955 33.7586 39.7149 33.8571 39.7148H45.8571C45.9556 39.7149 46.0532 39.6955 46.1442 39.6578C46.2352 39.6201 46.3179 39.5649 46.3875 39.4952C46.4572 39.4256 46.5124 39.3429 46.5501 39.2519C46.5878 39.1609 46.6072 39.0633 46.6071 38.9648Z" fill="#E88604"/>
<path d="M45.8571 40.4648H33.8571C33.4429 40.4648 33.1071 40.8006 33.1071 41.2148V42.7148C33.1071 43.1291 33.4429 43.4648 33.8571 43.4648H45.8571C46.2714 43.4648 46.6071 43.1291 46.6071 42.7148V41.2148C46.6071 40.8006 46.2714 40.4648 45.8571 40.4648Z" fill="#EEBE33"/>
<path d="M46.6071 41.9648V42.7148C46.6072 42.8133 46.5878 42.9109 46.5501 43.0019C46.5124 43.0929 46.4572 43.1756 46.3875 43.2452C46.3179 43.3149 46.2352 43.3701 46.1442 43.4078C46.0532 43.4455 45.9556 43.4649 45.8571 43.4648H33.8571C33.7586 43.4649 33.6611 43.4455 33.5701 43.4078C33.4791 43.3701 33.3964 43.3149 33.3268 43.2452C33.2571 43.1756 33.2019 43.0929 33.1642 43.0019C33.1265 42.9109 33.1071 42.8133 33.1071 42.7148V41.9648C33.1071 42.0633 33.1265 42.1609 33.1642 42.2519C33.2019 42.3429 33.2571 42.4256 33.3268 42.4952C33.3964 42.5649 33.4791 42.6201 33.5701 42.6578C33.6611 42.6955 33.7586 42.7149 33.8571 42.7148H45.8571C45.9556 42.7149 46.0532 42.6955 46.1442 42.6578C46.2352 42.6201 46.3179 42.5649 46.3875 42.4952C46.4572 42.4256 46.5124 42.3429 46.5501 42.2519C46.5878 42.1609 46.6072 42.0633 46.6071 41.9648Z" fill="#E88604"/>
<path d="M45.8571 43.4648H33.8571C33.4429 43.4648 33.1071 43.8006 33.1071 44.2148V45.7148C33.1071 46.1291 33.4429 46.4648 33.8571 46.4648H45.8571C46.2714 46.4648 46.6071 46.1291 46.6071 45.7148V44.2148C46.6071 43.8006 46.2714 43.4648 45.8571 43.4648Z" fill="#EEBE33"/>
<path d="M46.6071 44.9648V45.7148C46.6072 45.8133 46.5878 45.9109 46.5501 46.0019C46.5124 46.0929 46.4572 46.1756 46.3875 46.2452C46.3179 46.3149 46.2352 46.3701 46.1442 46.4078C46.0532 46.4455 45.9556 46.4649 45.8571 46.4648H33.8571C33.7586 46.4649 33.6611 46.4455 33.5701 46.4078C33.4791 46.3701 33.3964 46.3149 33.3268 46.2452C33.2571 46.1756 33.2019 46.0929 33.1642 46.0019C33.1265 45.9109 33.1071 45.8133 33.1071 45.7148V44.9648C33.1071 45.0633 33.1265 45.1609 33.1642 45.2519C33.2019 45.3429 33.2571 45.4256 33.3268 45.4952C33.3964 45.5649 33.4791 45.6201 33.5701 45.6578C33.6611 45.6955 33.7586 45.7149 33.8571 45.7148H45.8571C45.9556 45.7149 46.0532 45.6955 46.1442 45.6578C46.2352 45.6201 46.3179 45.5649 46.3875 45.4952C46.4572 45.4256 46.5124 45.3429 46.5501 45.2519C46.5878 45.1609 46.6072 45.0633 46.6071 44.9648Z" fill="#E88604"/>
<path d="M37.6072 39.7148C37.6077 39.9704 37.5639 40.2242 37.4778 40.4648C37.5639 40.7055 37.6077 40.9592 37.6072 41.2148V42.7148C37.6077 42.9704 37.5639 43.2242 37.4778 43.4648C37.5639 43.7055 37.6077 43.9592 37.6072 44.2148V45.7148C37.6077 45.9704 37.5639 46.2242 37.4778 46.4648H33.8572C33.7587 46.4649 33.6611 46.4455 33.5701 46.4078C33.4791 46.3701 33.3964 46.3149 33.3268 46.2452C33.2571 46.1756 33.2019 46.0929 33.1642 46.0019C33.1265 45.9109 33.1071 45.8133 33.1071 45.7148V44.2148C33.1071 44.1163 33.1265 44.0188 33.1642 43.9278C33.2019 43.8368 33.2571 43.7541 33.3268 43.6845C33.3964 43.6148 33.4791 43.5596 33.5701 43.5219C33.6611 43.4842 33.7587 43.4648 33.8572 43.4648C33.7587 43.4649 33.6611 43.4455 33.5701 43.4078C33.4791 43.3701 33.3964 43.3149 33.3268 43.2452C33.2571 43.1756 33.2019 43.0929 33.1642 43.0019C33.1265 42.9109 33.1071 42.8133 33.1071 42.7148V41.2148C33.1071 41.1163 33.1265 41.0188 33.1642 40.9278C33.2019 40.8368 33.2571 40.7541 33.3268 40.6845C33.3964 40.6148 33.4791 40.5596 33.5701 40.5219C33.6611 40.4842 33.7587 40.4648 33.8572 40.4648C33.7587 40.4649 33.6611 40.4455 33.5701 40.4078C33.4791 40.3701 33.3964 40.3149 33.3268 40.2452C33.2571 40.1756 33.2019 40.0929 33.1642 40.0019C33.1265 39.9109 33.1071 39.8133 33.1071 39.7148V38.2148C33.1071 38.1163 33.1265 38.0188 33.1642 37.9278C33.2019 37.8368 33.2571 37.7541 33.3268 37.6845C33.3964 37.6148 33.4791 37.5596 33.5701 37.5219C33.6611 37.4842 33.7587 37.4648 33.8572 37.4648H37.4778C37.5639 37.7055 37.6077 37.9592 37.6072 38.2148V39.7148Z" fill="#E88604"/>
<path d="M33.8572 45.7148H37.6072C37.6077 45.9704 37.5639 46.2242 37.4778 46.4648H33.8572C33.7587 46.4649 33.6611 46.4455 33.5701 46.4078C33.4791 46.3701 33.3964 46.3149 33.3268 46.2452C33.2571 46.1756 33.2019 46.0929 33.1642 46.0019C33.1265 45.9109 33.1071 45.8133 33.1071 45.7148V44.9648C33.1071 45.0633 33.1265 45.1609 33.1642 45.2519C33.2019 45.3429 33.2571 45.4256 33.3268 45.4952C33.3964 45.5649 33.4791 45.6201 33.5701 45.6578C33.6611 45.6955 33.7587 45.7149 33.8572 45.7148Z" fill="#DF6537"/>
<path d="M33.8572 42.7148H37.6072C37.6077 42.9704 37.5639 43.2242 37.4778 43.4648H33.8572C33.7587 43.4649 33.6611 43.4455 33.5701 43.4078C33.4791 43.3701 33.3964 43.3149 33.3268 43.2452C33.2571 43.1756 33.2019 43.0929 33.1642 43.0019C33.1265 42.9109 33.1071 42.8133 33.1071 42.7148V41.9648C33.1071 42.0633 33.1265 42.1609 33.1642 42.2519C33.2019 42.3429 33.2571 42.4256 33.3268 42.4952C33.3964 42.5649 33.4791 42.6201 33.5701 42.6578C33.6611 42.6955 33.7587 42.7149 33.8572 42.7148Z" fill="#DF6537"/>
<path d="M33.1071 39.7148V38.9648C33.1071 39.0633 33.1265 39.1609 33.1642 39.2519C33.2019 39.3429 33.2571 39.4256 33.3268 39.4952C33.3964 39.5649 33.4791 39.6201 33.5701 39.6578C33.6611 39.6955 33.7587 39.7149 33.8572 39.7148H37.6072C37.6077 39.9704 37.5639 40.2242 37.4778 40.4648H33.8572C33.7587 40.4649 33.6611 40.4455 33.5701 40.4078C33.4791 40.3701 33.3964 40.3149 33.3268 40.2452C33.2571 40.1756 33.2019 40.0929 33.1642 40.0019C33.1265 39.9109 33.1071 39.8133 33.1071 39.7148Z" fill="#DF6537"/>
<path d="M35.3571 31.4648H23.3571C22.9429 31.4648 22.6071 31.8006 22.6071 32.2148V33.7148C22.6071 34.1291 22.9429 34.4648 23.3571 34.4648H35.3571C35.7714 34.4648 36.1071 34.1291 36.1071 33.7148V32.2148C36.1071 31.8006 35.7714 31.4648 35.3571 31.4648Z" fill="#EEBE33"/>
<path d="M36.1071 32.9648V33.7148C36.1072 33.8133 36.0878 33.9109 36.0501 34.0019C36.0124 34.0929 35.9572 34.1756 35.8875 34.2452C35.8179 34.3149 35.7352 34.3701 35.6442 34.4078C35.5532 34.4455 35.4556 34.4649 35.3571 34.4648H23.3571C23.2586 34.4649 23.1611 34.4455 23.0701 34.4078C22.9791 34.3701 22.8964 34.3149 22.8268 34.2452C22.7571 34.1756 22.7019 34.0929 22.6642 34.0019C22.6265 33.9109 22.6071 33.8133 22.6071 33.7148V32.9648C22.6071 33.0633 22.6265 33.1609 22.6642 33.2519C22.7019 33.3429 22.7571 33.4256 22.8268 33.4952C22.8964 33.5649 22.9791 33.6201 23.0701 33.6578C23.1611 33.6955 23.2586 33.7149 23.3571 33.7148H35.3571C35.4556 33.7149 35.5532 33.6955 35.6442 33.6578C35.7352 33.6201 35.8179 33.5649 35.8875 33.4952C35.9572 33.4256 36.0124 33.3429 36.0501 33.2519C36.0878 33.1609 36.1072 33.0633 36.1071 32.9648Z" fill="#E88604"/>
<path d="M35.3571 34.4648H23.3571C22.9429 34.4648 22.6071 34.8006 22.6071 35.2148V36.7148C22.6071 37.1291 22.9429 37.4648 23.3571 37.4648H35.3571C35.7714 37.4648 36.1071 37.1291 36.1071 36.7148V35.2148C36.1071 34.8006 35.7714 34.4648 35.3571 34.4648Z" fill="#EEBE33"/>
<path d="M36.1071 35.9648V36.7148C36.1072 36.8133 36.0878 36.9109 36.0501 37.0019C36.0124 37.0929 35.9572 37.1756 35.8875 37.2452C35.8179 37.3149 35.7352 37.3701 35.6442 37.4078C35.5532 37.4455 35.4556 37.4649 35.3571 37.4648H23.3571C23.2586 37.4649 23.1611 37.4455 23.0701 37.4078C22.9791 37.3701 22.8964 37.3149 22.8268 37.2452C22.7571 37.1756 22.7019 37.0929 22.6642 37.0019C22.6265 36.9109 22.6071 36.8133 22.6071 36.7148V35.9648C22.6071 36.0633 22.6265 36.1609 22.6642 36.2519C22.7019 36.3429 22.7571 36.4256 22.8268 36.4952C22.8964 36.5649 22.9791 36.6201 23.0701 36.6578C23.1611 36.6955 23.2586 36.7149 23.3571 36.7148H35.3571C35.4556 36.7149 35.5532 36.6955 35.6442 36.6578C35.7352 36.6201 35.8179 36.5649 35.8875 36.4952C35.9572 36.4256 36.0124 36.3429 36.0501 36.2519C36.0878 36.1609 36.1072 36.0633 36.1071 35.9648Z" fill="#E88604"/>
<path d="M35.3571 37.4648H23.3571C22.9429 37.4648 22.6071 37.8006 22.6071 38.2148V39.7148C22.6071 40.1291 22.9429 40.4648 23.3571 40.4648H35.3571C35.7714 40.4648 36.1071 40.1291 36.1071 39.7148V38.2148C36.1071 37.8006 35.7714 37.4648 35.3571 37.4648Z" fill="#EEBE33"/>
<path d="M36.1071 38.9648V39.7148C36.1072 39.8133 36.0878 39.9109 36.0501 40.0019C36.0124 40.0929 35.9572 40.1756 35.8875 40.2452C35.8179 40.3149 35.7352 40.3701 35.6442 40.4078C35.5532 40.4455 35.4556 40.4649 35.3571 40.4648H23.3571C23.2586 40.4649 23.1611 40.4455 23.0701 40.4078C22.9791 40.3701 22.8964 40.3149 22.8268 40.2452C22.7571 40.1756 22.7019 40.0929 22.6642 40.0019C22.6265 39.9109 22.6071 39.8133 22.6071 39.7148V38.9648C22.6071 39.0633 22.6265 39.1609 22.6642 39.2519C22.7019 39.3429 22.7571 39.4256 22.8268 39.4952C22.8964 39.5649 22.9791 39.6201 23.0701 39.6578C23.1611 39.6955 23.2586 39.7149 23.3571 39.7148H35.3571C35.4556 39.7149 35.5532 39.6955 35.6442 39.6578C35.7352 39.6201 35.8179 39.5649 35.8875 39.4952C35.9572 39.4256 36.0124 39.3429 36.0501 39.2519C36.0878 39.1609 36.1072 39.0633 36.1071 38.9648Z" fill="#E88604"/>
<path d="M35.3571 40.4648H23.3571C22.9429 40.4648 22.6071 40.8006 22.6071 41.2148V42.7148C22.6071 43.1291 22.9429 43.4648 23.3571 43.4648H35.3571C35.7714 43.4648 36.1071 43.1291 36.1071 42.7148V41.2148C36.1071 40.8006 35.7714 40.4648 35.3571 40.4648Z" fill="#EEBE33"/>
<path d="M36.1071 41.9648V42.7148C36.1072 42.8133 36.0878 42.9109 36.0501 43.0019C36.0124 43.0929 35.9572 43.1756 35.8875 43.2452C35.8179 43.3149 35.7352 43.3701 35.6442 43.4078C35.5532 43.4455 35.4556 43.4649 35.3571 43.4648H23.3571C23.2586 43.4649 23.1611 43.4455 23.0701 43.4078C22.9791 43.3701 22.8964 43.3149 22.8268 43.2452C22.7571 43.1756 22.7019 43.0929 22.6642 43.0019C22.6265 42.9109 22.6071 42.8133 22.6071 42.7148V41.9648C22.6071 42.0633 22.6265 42.1609 22.6642 42.2519C22.7019 42.3429 22.7571 42.4256 22.8268 42.4952C22.8964 42.5649 22.9791 42.6201 23.0701 42.6578C23.1611 42.6955 23.2586 42.7149 23.3571 42.7148H35.3571C35.4556 42.7149 35.5532 42.6955 35.6442 42.6578C35.7352 42.6201 35.8179 42.5649 35.8875 42.4952C35.9572 42.4256 36.0124 42.3429 36.0501 42.2519C36.0878 42.1609 36.1072 42.0633 36.1071 41.9648Z" fill="#E88604"/>
<path d="M35.3571 43.4648H23.3571C22.9429 43.4648 22.6071 43.8006 22.6071 44.2148V45.7148C22.6071 46.1291 22.9429 46.4648 23.3571 46.4648H35.3571C35.7714 46.4648 36.1071 46.1291 36.1071 45.7148V44.2148C36.1071 43.8006 35.7714 43.4648 35.3571 43.4648Z" fill="#EEBE33"/>
<path d="M36.1071 44.9648V45.7148C36.1072 45.8133 36.0878 45.9109 36.0501 46.0019C36.0124 46.0929 35.9572 46.1756 35.8875 46.2452C35.8179 46.3149 35.7352 46.3701 35.6442 46.4078C35.5532 46.4455 35.4556 46.4649 35.3571 46.4648H23.3571C23.2586 46.4649 23.1611 46.4455 23.0701 46.4078C22.9791 46.3701 22.8964 46.3149 22.8268 46.2452C22.7571 46.1756 22.7019 46.0929 22.6642 46.0019C22.6265 45.9109 22.6071 45.8133 22.6071 45.7148V44.9648C22.6071 45.0633 22.6265 45.1609 22.6642 45.2519C22.7019 45.3429 22.7571 45.4256 22.8268 45.4952C22.8964 45.5649 22.9791 45.6201 23.0701 45.6578C23.1611 45.6955 23.2586 45.7149 23.3571 45.7148H35.3571C35.4556 45.7149 35.5532 45.6955 35.6442 45.6578C35.7352 45.6201 35.8179 45.5649 35.8875 45.4952C35.9572 45.4256 36.0124 45.3429 36.0501 45.2519C36.0878 45.1609 36.1072 45.0633 36.1071 44.9648Z" fill="#E88604"/>
<path d="M27.1071 39.7148C27.1074 41.0502 26.7116 42.3556 25.9698 43.466C25.2281 44.5764 24.1737 45.4418 22.9401 45.953C21.7064 46.4641 20.3489 46.5979 19.0392 46.3374C17.7295 46.0769 16.5265 45.4339 15.5823 44.4897C14.6381 43.5455 13.995 42.3424 13.7346 41.0328C13.4741 39.7231 13.6079 38.3656 14.119 37.1319C14.6301 35.8983 15.4956 34.8439 16.606 34.1021C17.7164 33.3604 19.0218 32.9646 20.3571 32.9648C22.1473 32.965 23.8641 33.6762 25.13 34.942C26.3958 36.2079 27.107 37.9247 27.1071 39.7148Z" fill="#8ACCE7"/>
<path d="M16.7909 33.9844C15.817 34.5906 15.0136 35.435 14.4565 36.4379C13.8995 37.4408 13.6071 38.5691 13.6071 39.7163C13.6071 40.8635 13.8995 41.9918 14.4565 42.9946C15.0136 43.9975 15.817 44.8419 16.7909 45.4482C18.1263 43.8366 18.8571 41.8093 18.8571 39.7163C18.8571 37.6233 18.1263 35.596 16.7909 33.9844Z" fill="#379EC3"/>
<path d="M20.3571 32.215C18.8738 32.215 17.4237 32.6548 16.1904 33.4789C14.957 34.303 13.9957 35.4744 13.4281 36.8448C12.8604 38.2153 12.7119 39.7233 13.0013 41.1781C13.2906 42.633 14.005 43.9694 15.0538 45.0183C16.1027 46.0672 17.4391 46.7815 18.894 47.0709C20.3488 47.3602 21.8568 47.2117 23.2273 46.6441C24.5977 46.0764 25.7691 45.1151 26.5932 43.8817C27.4173 42.6484 27.8571 41.1983 27.8571 39.715C27.8626 38.7285 27.6724 37.7508 27.2974 36.8383C26.9225 35.9259 26.3702 35.0969 25.6727 34.3994C24.9752 33.7019 24.1462 33.1496 23.2338 32.7747C22.3213 32.3997 21.3436 32.2095 20.3571 32.215ZM20.3571 45.715C19.1705 45.715 18.0104 45.3631 17.0237 44.7038C16.037 44.0445 15.268 43.1074 14.8139 42.0111C14.3597 40.9147 14.2409 39.7083 14.4724 38.5444C14.7039 37.3805 15.2754 36.3114 16.1145 35.4723C16.9536 34.6332 18.0227 34.0618 19.1866 33.8302C20.3505 33.5987 21.5569 33.7176 22.6532 34.1717C23.7496 34.6258 24.6867 35.3948 25.346 36.3815C26.0052 37.3682 26.3571 38.5283 26.3571 39.715C26.3618 40.5042 26.2097 41.2865 25.9099 42.0165C25.61 42.7466 25.1682 43.4099 24.6101 43.9679C24.052 44.526 23.3888 44.9678 22.6587 45.2677C21.9287 45.5676 21.1464 45.7196 20.3571 45.715Z" fill="#379EC3"/>
<path d="M14.3571 39.7163C14.3576 38.685 14.6238 37.6713 15.1301 36.7729C15.6363 35.8745 16.3656 35.1217 17.2475 34.5872C16.9595 34.1721 16.6368 33.7822 16.2828 33.4219C15.2316 34.1016 14.3674 35.0337 13.769 36.1332C13.1706 37.2327 12.8571 38.4645 12.8571 39.7163C12.8571 40.968 13.1706 42.1999 13.769 43.2994C14.3674 44.3988 15.2316 45.331 16.2828 46.0107C16.6368 45.6503 16.9595 45.2604 17.2475 44.8453C16.3656 44.3108 15.6363 43.558 15.1301 42.6596C14.6238 41.7612 14.3576 40.7475 14.3571 39.7163Z" fill="#2D80B3"/>
<path d="M19.6071 37.4648H21.1071V38.9648H19.6071V40.4648H21.1071V41.9648H19.6071C19.6074 42.1637 19.6865 42.3543 19.8271 42.4949C19.9677 42.6355 20.1583 42.7146 20.3571 42.7148H22.6071V44.2148H20.3571C20.0617 44.2149 19.7691 44.1567 19.4961 44.0436C19.2231 43.9305 18.9751 43.7648 18.7661 43.5559C18.5572 43.3469 18.3915 43.0989 18.2784 42.8259C18.1653 42.5529 18.1071 42.2603 18.1071 41.9648H17.3571V40.4648H18.1071V38.9648H17.3571V37.4648H18.1071C18.1071 37.1694 18.1653 36.8768 18.2784 36.6038C18.3915 36.3308 18.5572 36.0828 18.7661 35.8738C18.9751 35.6649 19.2231 35.4992 19.4961 35.3861C19.7691 35.273 20.0617 35.2148 20.3571 35.2148H22.6071V36.7148H20.3571C20.1583 36.7151 19.9677 36.7942 19.8271 36.9348C19.6865 37.0754 19.6074 37.266 19.6071 37.4648Z" fill="#379EC3"/>
<path d="M18.2909 36.5742C18.1695 36.8554 18.1069 37.1585 18.1071 37.4648H17.3571V38.9648H18.1071V40.4648H17.3571V41.9648H18.1071C18.1069 42.2712 18.1695 42.5743 18.2909 42.8555C19.0459 40.8298 19.0459 38.5999 18.2909 36.5742Z" fill="#2D80B3"/>
<path d="M9.85715 46.4648C13.5851 46.4648 16.6071 43.4428 16.6071 39.7148C16.6071 35.9869 13.5851 32.9648 9.85715 32.9648C6.12923 32.9648 3.10715 35.9869 3.10715 39.7148C3.10715 43.4428 6.12923 46.4648 9.85715 46.4648Z" fill="#EEDC9A"/>
<path d="M9.85715 47.2149C8.37379 47.2149 6.92374 46.775 5.69037 45.9509C4.457 45.1268 3.49571 43.9554 2.92805 42.585C2.3604 41.2145 2.21187 39.7065 2.50126 38.2517C2.79065 36.7968 3.50496 35.4604 4.55385 34.4115C5.60274 33.3627 6.93912 32.6483 8.39397 32.359C9.84883 32.0696 11.3568 32.2181 12.7273 32.7858C14.0977 33.3534 15.2691 34.3147 16.0932 35.5481C16.9173 36.7814 17.3571 38.2315 17.3571 39.7149C17.3549 41.7033 16.564 43.6096 15.158 45.0157C13.7519 46.4217 11.8456 47.2126 9.85715 47.2149ZM9.85715 33.7148C8.67046 33.7148 7.51042 34.0667 6.52373 34.726C5.53703 35.3853 4.768 36.3224 4.31387 37.4188C3.85975 38.5151 3.74093 39.7215 3.97244 40.8854C4.20395 42.0493 4.77539 43.1184 5.61451 43.9575C6.45362 44.7966 7.52272 45.3681 8.68661 45.5996C9.85049 45.8311 11.0569 45.7123 12.1532 45.2581C13.2496 44.804 14.1867 44.035 14.846 43.0483C15.5053 42.0616 15.8571 40.9015 15.8571 39.7149C15.8554 38.1241 15.2226 36.599 14.0978 35.4742C12.973 34.3494 11.4479 33.7166 9.85715 33.7148Z" fill="#EEBE33"/>
<path d="M12.1072 38.9648V38.3919C12.1066 37.9779 11.9532 37.5788 11.6764 37.271C11.3995 36.9633 11.0187 36.7686 10.6072 36.7244V35.9648H9.10715V36.7244C8.74658 36.7627 8.40813 36.9168 8.14252 37.1636C7.87691 37.4104 7.69846 37.7367 7.63393 38.0935C7.56939 38.4503 7.62224 38.8184 7.78455 39.1426C7.94686 39.4669 8.20989 39.7298 8.53421 39.8919L10.5091 40.8794C10.5448 40.8972 10.5735 40.9266 10.5904 40.9627C10.6073 40.9988 10.6116 41.0396 10.6024 41.0784C10.5933 41.1173 10.5713 41.1519 10.54 41.1766C10.5087 41.2014 10.47 41.2149 10.4301 41.2148H9.28421C9.23727 41.2148 9.19227 41.1961 9.15907 41.1629C9.12588 41.1297 9.10721 41.0847 9.10715 41.0378V40.4648H7.60715V41.0378C7.60768 41.4517 7.76109 41.8509 8.03794 42.1587C8.31479 42.4664 8.69556 42.6611 9.10715 42.7053V43.4648H10.6072V42.7053C10.9677 42.667 11.3062 42.5129 11.5718 42.2661C11.8374 42.0193 12.0158 41.693 12.0804 41.3362C12.1449 40.9794 12.0921 40.6113 11.9298 40.287C11.7674 39.9628 11.5044 39.6999 11.1801 39.5378L9.20516 38.5503C9.16946 38.5325 9.14082 38.5031 9.12388 38.467C9.10695 38.4309 9.10272 38.3901 9.11187 38.3513C9.12102 38.3124 9.14302 38.2778 9.1743 38.2531C9.20559 38.2283 9.24432 38.2148 9.28421 38.2148H10.4301C10.477 38.2149 10.522 38.2336 10.5552 38.2668C10.5884 38.3 10.6071 38.345 10.6072 38.3919V38.9648H12.1072Z" fill="#EEBE33"/>
</svg>
