<svg width="32" height="32" viewBox="0 0 32 32" fill="none" xmlns="http://www.w3.org/2000/svg">
<mask id="mask0_12376_6679" style="mask-type:alpha" maskUnits="userSpaceOnUse" x="0" y="0" width="32" height="32">
<rect width="32" height="32" fill="#D9D9D9"/>
</mask>
<g mask="url(#mask0_12376_6679)">
<path d="M23.5352 16.001C23.5352 13.7459 22.673 11.6245 21.1062 10.0277C20.7204 9.63446 20.0941 9.63391 19.7072 10.0266C19.3214 10.4198 19.3203 11.0567 19.7061 11.4505C20.8994 12.6672 21.5574 14.2836 21.5574 16.001C21.5574 17.7162 20.8999 19.3326 19.7056 20.5525C19.5132 20.7494 19.4173 21.0057 19.4173 21.2632C19.4173 21.5217 19.5137 21.7796 19.7082 21.9765C20.0951 22.3691 20.7215 22.368 21.1067 21.9738C22.673 20.3732 23.5352 18.2523 23.5352 16.001Z" fill="#71A8C7"/>
<path d="M30 16.0003C30 11.9565 28.4531 8.15422 25.6442 5.29492C25.2584 4.90169 24.6321 4.90169 24.2452 5.29492C23.8588 5.68814 23.8588 6.32563 24.2452 6.71885C26.6805 9.19802 28.0222 12.4947 28.0222 16.0009C28.0222 19.5053 26.6805 22.8015 24.2452 25.2818C24.0523 25.4792 23.9558 25.7361 23.9558 25.994C23.9558 26.252 24.0523 26.5094 24.2457 26.7052C24.6315 27.0984 25.2579 27.0984 25.6442 26.7046C28.4531 23.8441 30 20.043 30 16.0003Z" fill="#71A8C7"/>
<path d="M8.46484 16.001C8.46484 13.7459 9.32697 11.6245 10.8938 10.0277C11.2796 9.63446 11.9059 9.63391 12.2928 10.0266C12.6786 10.4198 12.6797 11.0567 12.2939 11.4505C11.1006 12.6672 10.4426 14.2836 10.4426 16.001C10.4426 17.7162 11.1001 19.3326 12.2944 20.5525C12.4868 20.7494 12.5827 21.0057 12.5827 21.2632C12.5827 21.5217 12.4863 21.7796 12.2918 21.9765C11.9049 22.3691 11.2785 22.368 10.8933 21.9738C9.32697 20.3732 8.46484 18.2523 8.46484 16.001Z" fill="#71A8C7"/>
<path d="M2 16.0003C2 11.9565 3.54692 8.15422 6.35578 5.29492C6.74159 4.90169 7.36794 4.90169 7.75483 5.29492C8.14119 5.68814 8.14119 6.32563 7.75483 6.71885C5.31947 9.19802 3.97777 12.4947 3.97777 16.0009C3.97777 19.5053 5.31947 22.8015 7.75484 25.2818C7.94774 25.4792 8.04416 25.7361 8.04416 25.994C8.04416 26.252 7.94774 26.5094 7.75429 26.7052C7.36848 27.0984 6.74213 27.0984 6.35578 26.7046C3.54692 23.8441 2 20.043 2 16.0003Z" fill="#71A8C7"/>
<path d="M17.7474 14.4092C17.2901 13.9471 16.6684 13.6914 16.0252 13.6914C15.3821 13.6914 14.7496 13.947 14.302 14.4092C13.8457 14.8614 13.5927 15.5006 13.5927 16.1494C13.5927 16.7983 13.8447 17.4276 14.302 17.8799C14.7496 18.341 15.3821 18.6075 16.0252 18.6075C16.6684 18.6075 17.2901 18.342 17.7474 17.88C18.6534 16.9655 18.6426 15.3235 17.7474 14.4092Z" fill="#71A8C7"/>
</g>
</svg>
