<svg width="32" height="32" viewBox="0 0 32 32" fill="none" xmlns="http://www.w3.org/2000/svg">
<mask id="mask0_12376_13402" style="mask-type:alpha" maskUnits="userSpaceOnUse" x="0" y="0" width="32" height="32">
<rect width="32" height="32" fill="#D9D9D9"/>
</mask>
<g mask="url(#mask0_12376_13402)">
<path fill-rule="evenodd" clip-rule="evenodd" d="M15.5802 1.16145C15.7582 0.962191 16.0639 0.945009 16.2631 1.12308C18.0287 2.7015 22.8811 5.85591 28.0822 5.85591C28.3143 5.85591 28.5137 6.0209 28.5573 6.24902C29.1903 9.56499 29.3328 14.7664 27.6965 19.6284C26.0537 24.51 22.6072 29.0671 16.0768 30.9804C15.8204 31.0555 15.5517 30.9085 15.4767 30.652C15.4016 30.3955 15.5485 30.1267 15.8049 30.0516C21.9696 28.2455 25.2151 23.969 26.7798 19.3196C28.2889 14.8351 28.2246 10.0205 27.6771 6.81777C22.3015 6.66229 17.4287 3.46296 15.6185 1.84467C15.4194 1.6666 15.4022 1.36072 15.5802 1.16145Z" fill="#71A8C7"/>
<path fill-rule="evenodd" clip-rule="evenodd" d="M16.4198 1.16145C16.2418 0.962191 15.9361 0.945009 15.7369 1.12308C13.9713 2.7015 9.11885 5.85591 3.91781 5.85591C3.68567 5.85591 3.48627 6.0209 3.44272 6.24902C2.80972 9.56499 2.66724 14.7664 4.30346 19.6284C5.94629 24.51 9.39281 29.0671 15.9232 30.9804C16.1796 31.0555 16.4483 30.9085 16.5233 30.652C16.5984 30.3955 16.4515 30.1267 16.1951 30.0516C10.0304 28.2455 6.78492 23.969 5.22023 19.3196C3.71106 14.8351 3.77539 10.0205 4.32289 6.81777C9.69846 6.66229 14.5713 3.46296 16.3815 1.84467C16.5806 1.6666 16.5978 1.36072 16.4198 1.16145Z" fill="#71A8C7"/>
<path d="M21.3536 12.1373C21.5488 12.3204 21.5488 12.6171 21.3536 12.8002L14.3536 19.3627C14.2598 19.4506 14.1326 19.5 14 19.5C13.8674 19.5 13.7402 19.4506 13.6464 19.3627L10.1464 16.0815C9.95118 15.8984 9.95118 15.6016 10.1464 15.4185C10.3417 15.2355 10.6583 15.2355 10.8536 15.4185L14 18.3683L20.6464 12.1373C20.8417 11.9542 21.1583 11.9542 21.3536 12.1373Z" fill="#71A8C7"/>
</g>
</svg>
