<svg width="33" height="32" viewBox="0 0 33 32" fill="none" xmlns="http://www.w3.org/2000/svg">
<circle cx="16.75" cy="16" r="16" fill="white"/>
<g clip-path="url(#clip0_2927_537)">
<path d="M32.25 16C32.25 24.5604 25.3104 31.5 16.75 31.5C8.1896 31.5 1.25 24.5604 1.25 16C1.25 7.4396 8.1896 0.5 16.75 0.5C25.3104 0.5 32.25 7.4396 32.25 16Z" fill="#5365ED" stroke="white"/>
<g clip-path="url(#clip1_2927_537)">
<path d="M22.7248 11.1146C24.674 13.9805 25.6366 17.2131 25.2768 20.9346C25.2753 20.9504 25.2671 20.9648 25.2541 20.9743C23.778 22.0582 22.3479 22.716 20.9378 23.1522C20.9268 23.1555 20.9151 23.1553 20.9042 23.1517C20.8933 23.148 20.8839 23.141 20.8772 23.1317C20.5514 22.6784 20.2554 22.2006 19.9961 21.6988C19.9812 21.6692 19.9948 21.6336 20.0254 21.6219C20.4955 21.4448 20.9425 21.2325 21.3725 20.9812C21.4064 20.9614 21.4085 20.9128 21.3773 20.8895C21.286 20.8218 21.1956 20.7506 21.1091 20.6794C21.0929 20.6662 21.0711 20.6636 21.0528 20.6725C18.2613 21.9615 15.2034 21.9615 12.3789 20.6725C12.3606 20.6643 12.3388 20.6671 12.3231 20.68C12.2368 20.7512 12.1461 20.8218 12.0558 20.8895C12.0245 20.9128 12.0271 20.9614 12.0611 20.9812C12.4911 21.2278 12.9381 21.4448 13.4076 21.6228C13.438 21.6345 13.4525 21.6692 13.4374 21.6988C13.1836 22.2012 12.8876 22.6791 12.5558 23.1323C12.5414 23.1507 12.5177 23.1591 12.4952 23.1522C11.0918 22.716 9.66168 22.0582 8.18558 20.9743C8.17328 20.9648 8.16444 20.9497 8.16314 20.934C7.8624 17.7149 8.47532 14.4555 10.7128 11.1139C10.7182 11.1051 10.7264 11.0982 10.7359 11.0941C11.8368 10.5888 13.0162 10.2171 14.249 10.0048C14.2714 10.0014 14.2938 10.0117 14.3055 10.0316C14.4578 10.3012 14.6319 10.6471 14.7497 10.9297C16.0491 10.7312 17.3688 10.7312 18.6954 10.9297C18.8132 10.6531 18.9812 10.3012 19.1329 10.0316C19.1383 10.0217 19.1467 10.0138 19.1568 10.009C19.167 10.0042 19.1784 10.0027 19.1894 10.0048C20.4228 10.2178 21.6023 10.5895 22.7023 11.0941C22.7121 11.0982 22.72 11.1051 22.7248 11.1146ZM15.4103 17.2351C15.4239 16.2835 14.7301 15.496 13.8591 15.496C12.9953 15.496 12.3082 16.2766 12.3082 17.2351C12.3082 18.1934 13.0089 18.974 13.8591 18.974C14.7232 18.974 15.4103 18.1934 15.4103 17.2351ZM21.1451 17.2351C21.1587 16.2835 20.4649 15.496 19.5942 15.496C18.7301 15.496 18.043 16.2766 18.043 17.2351C18.043 18.1934 18.7437 18.974 19.5942 18.974C20.4649 18.974 21.1451 18.1934 21.1451 17.2351Z" fill="white"/>
</g>
</g>
<defs>
<clipPath id="clip0_2927_537">
<rect width="32" height="32" fill="white" transform="translate(0.75)"/>
</clipPath>
<clipPath id="clip1_2927_537">
<rect width="18" height="13.1616" fill="white" transform="translate(7.75 10)"/>
</clipPath>
</defs>
</svg>
