<svg width="33" height="32" viewBox="0 0 33 32" fill="none" xmlns="http://www.w3.org/2000/svg">
<circle cx="16.25" cy="16" r="16" fill="white"/>
<g clip-path="url(#clip0_2927_548)">
<path d="M31.75 16C31.75 24.5604 24.8104 31.5 16.25 31.5C7.6896 31.5 0.75 24.5604 0.75 16C0.75 7.4396 7.6896 0.5 16.25 0.5C24.8104 0.5 31.75 7.4396 31.75 16Z" fill="url(#paint0_linear_2927_548)" stroke="white"/>
<g clip-path="url(#clip1_2927_548)">
<path d="M16.2152 8C11.2645 8 7.25 12.0138 7.25 16.9652C7.25 20.9263 9.8188 24.2868 13.381 25.4723C13.829 25.5553 13.9935 25.2778 13.9935 25.041C13.9935 24.8273 13.9852 24.121 13.9814 23.3719C11.4872 23.9142 10.9609 22.3141 10.9609 22.3141C10.5531 21.2778 9.96547 21.0023 9.96547 21.0023C9.15209 20.4459 10.0268 20.4573 10.0268 20.4573C10.9271 20.5205 11.4011 21.3812 11.4011 21.3812C12.2007 22.7518 13.4984 22.3555 14.01 22.1265C14.0904 21.547 14.3228 21.1515 14.5792 20.9277C12.5879 20.7009 10.4946 19.9322 10.4946 16.497C10.4946 15.5182 10.8448 14.7184 11.4183 14.0906C11.3252 13.8648 11.0184 12.953 11.5052 11.7181C11.5052 11.7181 12.258 11.4771 13.9712 12.637C14.6863 12.4383 15.4533 12.3388 16.2152 12.3354C16.9771 12.3388 17.7446 12.4383 18.4611 12.637C20.1723 11.4771 20.9241 11.7181 20.9241 11.7181C21.4121 12.953 21.1051 13.8648 21.012 14.0906C21.5868 14.7184 21.9346 15.5182 21.9346 16.497C21.9346 19.9403 19.8373 20.6986 17.841 20.9205C18.1626 21.1987 18.4491 21.7443 18.4491 22.5807C18.4491 23.7802 18.4387 24.7457 18.4387 25.041C18.4387 25.2796 18.6001 25.5591 19.0546 25.4711C22.6148 24.2843 25.1803 20.925 25.1803 16.9652C25.1803 12.0138 21.1664 8 16.2152 8Z" fill="white"/>
<path d="M10.6073 20.7692C10.5876 20.8137 10.5174 20.8271 10.4537 20.7966C10.3886 20.7673 10.3521 20.7066 10.3732 20.6618C10.3925 20.616 10.4627 20.6032 10.5276 20.634C10.5928 20.6632 10.6299 20.7245 10.6073 20.7692ZM11.0483 21.1627C11.0056 21.2023 10.922 21.1839 10.8652 21.1213C10.8066 21.0588 10.7956 20.9752 10.839 20.9349C10.8831 20.8954 10.9641 20.9138 11.0229 20.9764C11.0816 21.0396 11.093 21.1227 11.0482 21.1628L11.0483 21.1627ZM11.3509 21.6661C11.2959 21.7043 11.206 21.6685 11.1505 21.5888C11.0956 21.5091 11.0956 21.4135 11.1517 21.3752C11.2074 21.3368 11.2959 21.3713 11.3521 21.4504C11.407 21.5315 11.407 21.6271 11.3508 21.6662L11.3509 21.6661ZM11.8625 22.2492C11.8133 22.3034 11.7087 22.2889 11.6321 22.2149C11.5537 22.1426 11.5319 22.04 11.5811 21.9858C11.6309 21.9315 11.7361 21.9468 11.8133 22.0201C11.8912 22.0923 11.9149 22.1956 11.8625 22.2492H11.8625ZM12.5237 22.4461C12.5021 22.5163 12.4013 22.5482 12.2997 22.5184C12.1984 22.4877 12.132 22.4054 12.1524 22.3344C12.1735 22.2638 12.2748 22.2305 12.3771 22.2624C12.4783 22.293 12.5449 22.3747 12.5238 22.4461H12.5237ZM13.2763 22.5296C13.2789 22.6035 13.1927 22.6648 13.0861 22.6662C12.9789 22.6685 12.8922 22.6087 12.8911 22.536C12.8911 22.4613 12.9752 22.4005 13.0824 22.3988C13.189 22.3967 13.2763 22.4561 13.2763 22.5296ZM14.0156 22.5012C14.0284 22.5734 13.9543 22.6475 13.8485 22.6672C13.7444 22.6861 13.6481 22.6416 13.6348 22.5701C13.6218 22.4962 13.6974 22.4221 13.8012 22.4029C13.9072 22.3845 14.0021 22.4279 14.0156 22.5012Z" fill="white"/>
</g>
</g>
<defs>
<linearGradient id="paint0_linear_2927_548" x1="16.25" y1="32" x2="16.25" y2="0" gradientUnits="userSpaceOnUse">
<stop stop-color="#522779"/>
<stop offset="1" stop-color="#AA4BAE"/>
</linearGradient>
<clipPath id="clip0_2927_548">
<rect width="32" height="32" fill="white" transform="translate(0.25)"/>
</clipPath>
<clipPath id="clip1_2927_548">
<rect width="18" height="17.5104" fill="white" transform="translate(7.25 8)"/>
</clipPath>
</defs>
</svg>
