<svg width="32" height="32" viewBox="0 0 32 32" fill="none" xmlns="http://www.w3.org/2000/svg">
<circle cx="16" cy="16" r="16" fill="white"/>
<path d="M31.5 16C31.5 24.5604 24.5604 31.5 16 31.5C7.4396 31.5 0.5 24.5604 0.5 16C0.5 7.4396 7.4396 0.5 16 0.5C24.5604 0.5 31.5 7.4396 31.5 16Z" fill="url(#paint0_linear_2927_558)" stroke="white"/>
<path d="M16 31C24.2843 31 31 24.2843 31 16C31 7.71573 24.2843 1 16 1C7.71573 1 1 7.71573 1 16C1 24.2843 7.71573 31 16 31Z" fill="#FF4500"/>
<path d="M26.0044 15.9991C26.0074 16.2046 25.9819 16.4098 25.9279 16.6081C25.8739 16.8065 25.7921 16.9966 25.6849 17.1721C25.578 17.3476 25.4468 17.5074 25.2953 17.6465C25.1438 17.7856 24.9735 17.9026 24.7894 17.9941C24.7935 18.0489 24.7969 18.104 24.7988 18.1591C24.8033 18.2691 24.8033 18.3792 24.7988 18.4891C24.7969 18.5443 24.7935 18.5994 24.7894 18.6541C24.7894 22.0142 20.8744 24.7442 16.0443 24.7442C11.2143 24.7442 7.29926 22.0142 7.29926 18.6541C7.29513 18.5994 7.29176 18.5443 7.28988 18.4891C7.28537 18.3792 7.28537 18.2691 7.28988 18.1591C7.29176 18.104 7.29513 18.0489 7.29926 17.9941C7.01079 17.8615 6.75458 17.6678 6.54835 17.4265C6.34212 17.1851 6.19081 16.9018 6.10487 16.5961C6.01908 16.2904 6.00081 15.9696 6.05132 15.6561C6.10182 15.3425 6.2199 15.0437 6.39738 14.7804C6.57469 14.517 6.80717 14.2955 7.07869 14.131C7.35021 13.9665 7.65427 13.8631 7.96976 13.8279C8.2853 13.7925 8.60475 13.8262 8.90598 13.9265C9.20721 14.0269 9.48301 14.1916 9.71428 14.4091C10.1436 14.1181 10.5934 13.8586 11.0602 13.6325C11.527 13.4067 12.0097 13.2147 12.5043 13.0587C12.9989 12.9027 13.5044 12.7831 14.0163 12.7002C14.5282 12.6173 15.0457 12.572 15.5643 12.5641L16.6743 7.35905C16.6867 7.29868 16.7111 7.24167 16.746 7.19067C16.7805 7.14005 16.8251 7.09655 16.8765 7.06317C16.9282 7.0298 16.986 7.00692 17.0467 6.99567C17.1071 6.9848 17.1693 6.98592 17.2293 6.99905L20.9044 7.73405C21.2752 7.09692 22.0537 6.82392 22.7411 7.08942C23.4285 7.35493 23.8215 8.08056 23.6678 8.80131C23.5144 9.52207 22.8596 10.0246 22.1239 9.9867C21.3877 9.94882 20.7881 9.38182 20.7094 8.64906L17.4993 7.97406L16.5243 12.6541C17.0366 12.665 17.5477 12.713 18.0532 12.7973C19.0655 12.9661 20.0482 13.2801 20.9707 13.7296C21.4315 13.9539 21.8756 14.211 22.2994 14.4991C22.6041 14.2065 22.987 14.0084 23.4019 13.9287C23.8167 13.8487 24.2459 13.8906 24.6375 14.0491C25.0292 14.2076 25.3666 14.476 25.6091 14.822C25.8517 15.168 25.989 15.5768 26.0044 15.9991ZM11.1183 18.0733C11.194 18.2551 11.3043 18.4205 11.4438 18.5596C11.5829 18.6991 11.7483 18.8094 11.9302 18.8851C12.1122 18.9604 12.3073 18.9992 12.5043 18.9991C13.1111 18.9991 13.6578 18.6335 13.8903 18.0733C14.1224 17.5126 13.9938 16.8676 13.5648 16.4386C13.1358 16.0096 12.4908 15.881 11.9302 16.1131C11.3699 16.3456 11.0043 16.8924 11.0043 17.4991C11.0043 17.696 11.0429 17.891 11.1183 18.0733ZM19.7096 21.674C19.7865 21.599 19.8304 21.4967 19.8319 21.3894C19.8334 21.2818 19.7917 21.1783 19.7167 21.1014C19.6417 21.0245 19.5394 20.9807 19.4321 20.9792C19.3245 20.9777 19.221 21.0193 19.1343 21.0842C18.9088 21.246 18.6699 21.3883 18.4203 21.5098C18.1707 21.6313 17.9113 21.7316 17.6448 21.8094C17.3786 21.887 17.106 21.9422 16.8303 21.9741C16.5543 22.0059 16.2765 22.0142 15.9993 21.9992C15.7226 22.0115 15.4451 22.0003 15.1702 21.9658C14.8953 21.9316 14.6237 21.8739 14.3587 21.7933C14.0932 21.713 13.8356 21.6103 13.5877 21.4865C13.3398 21.3628 13.1028 21.218 12.8793 21.0542C12.8017 20.9904 12.703 20.9578 12.6025 20.9627C12.502 20.9675 12.4072 21.0099 12.3359 21.0808C12.265 21.152 12.2227 21.2469 12.2178 21.3474C12.2129 21.4479 12.2455 21.5465 12.3093 21.6242C12.5729 21.8229 12.853 21.9984 13.1467 22.1492C13.4403 22.2999 13.7467 22.4248 14.0617 22.5231C14.3767 22.6213 14.6996 22.6922 15.0269 22.7353C15.3543 22.7781 15.6847 22.7927 16.0143 22.7792C16.344 22.7927 16.6743 22.7781 17.0017 22.7353C17.6574 22.6491 18.2934 22.4508 18.882 22.1492C19.1756 21.9984 19.4557 21.8229 19.7194 21.6242L19.7096 21.674ZM19.4344 19.1192C19.6376 19.1214 19.8394 19.082 20.0272 19.004C20.2151 18.9256 20.385 18.8101 20.5267 18.6643C20.6685 18.5184 20.7787 18.3451 20.8515 18.155C20.9243 17.9651 20.9576 17.7624 20.9494 17.5591C20.9494 16.9524 20.5837 16.4056 20.0235 16.1731C19.4628 15.941 18.8178 16.0696 18.3888 16.4986C17.9598 16.9276 17.8312 17.5726 18.0633 18.1333C18.2958 18.6935 18.8426 19.0592 19.4493 19.0592L19.4344 19.1192Z" fill="white"/>
<defs>
<linearGradient id="paint0_linear_2927_558" x1="16" y1="32" x2="16" y2="0" gradientUnits="userSpaceOnUse">
<stop stop-color="#522779"/>
<stop offset="1" stop-color="#AA4BAE"/>
</linearGradient>
</defs>
</svg>
