<svg width="33" height="32" viewBox="0 0 33 32" fill="none" xmlns="http://www.w3.org/2000/svg">
<circle cx="16.5" cy="16" r="15.5" fill="#1DA1F2" stroke="white"/>
<g clip-path="url(#clip0_2927_544)">
<path d="M12.5451 24.6652C20.5958 24.6652 24.9985 17.9958 24.9985 12.2123C24.9985 12.0229 24.9946 11.8344 24.9861 11.6466C25.8428 11.0268 26.5821 10.2593 27.1694 9.38023C26.3851 9.72888 25.5412 9.96353 24.6559 10.0693C25.5595 9.52751 26.2533 8.67032 26.5806 7.64856C25.7214 8.15822 24.7815 8.51751 23.8013 8.71093C23.0026 7.8602 21.8655 7.32812 20.6064 7.32812C18.1893 7.32812 16.2292 9.28817 16.2292 11.7042C16.2292 12.0477 16.2677 12.3817 16.3428 12.7022C12.705 12.5192 9.47932 10.7776 7.32052 8.12936C6.9317 8.79729 6.72719 9.5564 6.72787 10.3292C6.72787 11.8476 7.50055 13.1881 8.67563 13.9723C7.98056 13.9511 7.30075 13.7634 6.69335 13.4249C6.6927 13.4433 6.6927 13.4612 6.6927 13.4808C6.6927 15.6004 8.20139 17.3702 10.2041 17.7712C9.82799 17.8736 9.43986 17.9254 9.05001 17.9252C8.76846 17.9252 8.49408 17.8975 8.22741 17.8463C8.78464 19.5853 10.4004 20.8507 12.3161 20.8861C10.8181 22.0602 8.93098 22.7596 6.87998 22.7596C6.53107 22.7599 6.18246 22.7396 5.83594 22.6989C7.77303 23.9405 10.0731 24.6649 12.5453 24.6649" fill="white"/>
</g>
<defs>
<clipPath id="clip0_2927_544">
<rect width="21.3333" height="17.3333" fill="white" transform="translate(5.83398 7.33203)"/>
</clipPath>
</defs>
</svg>
