<svg width="32" height="32" viewBox="0 0 32 32" fill="none" xmlns="http://www.w3.org/2000/svg">
<circle cx="16" cy="16" r="16" fill="white"/>
<path d="M31.5 16C31.5 24.5604 24.5604 31.5 16 31.5C7.4396 31.5 0.5 24.5604 0.5 16C0.5 7.4396 7.4396 0.5 16 0.5C24.5604 0.5 31.5 7.4396 31.5 16Z" fill="#34AADF" stroke="white"/>
<path d="M6.65973 15.8612C6.65973 15.8612 14.6597 12.578 17.4342 11.4219C18.4978 10.9595 22.1047 9.47968 22.1047 9.47968C22.1047 9.47968 23.7694 8.83232 23.6307 10.4046C23.5844 11.052 23.2145 13.3178 22.8446 15.7687C22.2896 19.237 21.6885 23.0289 21.6885 23.0289C21.6885 23.0289 21.596 24.0925 20.8099 24.2774C20.0238 24.4624 18.729 23.6301 18.4978 23.4451C18.3128 23.3064 15.0296 21.2254 13.8273 20.208C13.5036 19.9306 13.1337 19.3757 13.8735 18.7283C15.5383 17.2023 17.5267 15.3063 18.729 14.104C19.2839 13.5491 19.8388 12.2543 17.5267 13.8265C14.2435 16.0924 11.0065 18.2196 11.0065 18.2196C11.0065 18.2196 10.2666 18.682 8.87937 18.2658C7.49205 17.8497 5.87356 17.2948 5.87356 17.2948C5.87356 17.2948 4.76381 16.6011 6.65973 15.8612Z" fill="white"/>
</svg>
